<svg version="1.1" viewBox="0.0 0.0 516.0 241.0" fill="none" stroke="none" stroke-linecap="square" stroke-miterlimit="10" width="516" height="241" xmlns:xlink="http://www.w3.org/1999/xlink" xmlns="http://www.w3.org/2000/svg"><path fill="#ffffff" d="M0 0L516.0 0L516.0 241.0L0 241.0L0 0Z" fill-rule="nonzero"/><path fill="#ffffff" d="M0 0L516.0 0L516.0 241.0L0 241.0L0 0Z" fill-rule="nonzero"/><path stroke="#333333" stroke-width="1.0" stroke-linecap="butt" d="M86.5 12.5L86.5 207.5" fill-rule="nonzero"/><path stroke="#cccccc" stroke-width="1.0" stroke-linecap="butt" d="M190.5 12.5L190.5 207.5" fill-rule="nonzero"/><path stroke="#cccccc" stroke-width="1.0" stroke-linecap="butt" d="M295.5 12.5L295.5 207.5" fill-rule="nonzero"/><path stroke="#cccccc" stroke-width="1.0" stroke-linecap="butt" d="M399.5 12.5L399.5 207.5" fill-rule="nonzero"/><clipPath id="id_0"><path d="M86.05 12.05L503.95 12.05L503.95 207.95L86.05 207.95L86.05 12.05Z" clip-rule="nonzero"/></clipPath><path stroke="#000000" stroke-width="0.0" stroke-linecap="butt" stroke-opacity="0.0" clip-path="url(#id_0)" d="M86.0 49.0L86.0 25.0L169.0 25.0C170.10457 25.0 171.0 25.89543 171.0 27.0L171.0 47.0C171.0 48.10457 170.10457 49.0 169.0 49.0Z" fill-rule="nonzero"/><path fill="#b7b7b7" clip-path="url(#id_0)" d="M86.0 49.0L86.0 25.0L169.0 25.0C170.10457 25.0 171.0 25.89543 171.0 27.0L171.0 47.0C171.0 48.10457 170.10457 49.0 169.0 49.0Z" fill-rule="nonzero"/><path stroke="#000000" stroke-width="0.0" stroke-linecap="butt" stroke-opacity="0.0" clip-path="url(#id_0)" d="M86.0 85.0L86.0 61.0L209.0 61.0C210.10457 61.0 211.0 61.89543 211.0 63.0L211.0 83.0C211.0 84.10457 210.10457 85.0 209.0 85.0Z" fill-rule="nonzero"/><path fill="#b7b7b7" clip-path="url(#id_0)" d="M86.0 85.0L86.0 61.0L209.0 61.0C210.10457 61.0 211.0 61.89543 211.0 63.0L211.0 83.0C211.0 84.10457 210.10457 85.0 209.0 85.0Z" fill-rule="nonzero"/><path stroke="#000000" stroke-width="0.0" stroke-linecap="butt" stroke-opacity="0.0" clip-path="url(#id_0)" d="M86.0 122.0L86.0 98.0L262.0 98.0C263.10458 98.0 264.0 98.89543 264.0 100.0L264.0 120.0C264.0 121.10457 263.10458 122.0 262.0 122.0Z" fill-rule="nonzero"/><path fill="#b7b7b7" clip-path="url(#id_0)" d="M86.0 122.0L86.0 98.0L262.0 98.0C263.10458 98.0 264.0 98.89543 264.0 100.0L264.0 120.0C264.0 121.10457 263.10458 122.0 262.0 122.0Z" fill-rule="nonzero"/><path stroke="#000000" stroke-width="0.0" stroke-linecap="butt" stroke-opacity="0.0" clip-path="url(#id_0)" d="M86.0 159.0L86.0 135.0L283.0 135.0C284.10458 135.0 285.0 135.89543 285.0 137.0L285.0 157.0C285.0 158.10457 284.10458 159.0 283.0 159.0Z" fill-rule="nonzero"/><path fill="#b7b7b7" clip-path="url(#id_0)" d="M86.0 159.0L86.0 135.0L283.0 135.0C284.10458 135.0 285.0 135.89543 285.0 137.0L285.0 157.0C285.0 158.10457 284.10458 159.0 283.0 159.0Z" fill-rule="nonzero"/><path stroke="#000000" stroke-width="0.0" stroke-linecap="butt" stroke-opacity="0.0" clip-path="url(#id_0)" d="M86.0 195.0L86.0 171.0L502.0 171.0C503.10458 171.0 504.0 171.89543 504.0 173.0L504.0 193.0C504.0 194.10457 503.10458 195.0 502.0 195.0Z" fill-rule="nonzero"/><path fill="#b7b7b7" clip-path="url(#id_0)" d="M86.0 195.0L86.0 171.0L502.0 171.0C503.10458 171.0 504.0 171.89543 504.0 173.0L504.0 193.0C504.0 194.10457 503.10458 195.0 502.0 195.0Z" fill-rule="nonzero"/><path stroke="#b7b7b7" stroke-width="3.0" stroke-linejoin="round" stroke-linecap="round" d="M150.86984 35.1875Q150.86984 35.828125 150.5261 36.328125Q150.18234 36.828125 149.61984 37.109375Q150.2761 37.390625 150.66672 37.953125Q151.05734 38.5 151.05734 39.203125Q151.05734 40.296875 150.30734 40.96875Q149.57297 41.625 148.35422 41.625Q147.11984 41.625 146.36984 40.96875Q145.63547 40.296875 145.63547 39.203125Q145.63547 38.5 146.01047 37.953125Q146.38547 37.390625 147.05734 37.109375Q146.49484 36.828125 146.16672 36.328125Q145.8386 35.828125 145.8386 35.1875Q145.8386 34.109375 146.5261 33.484375Q147.2136 32.84375 148.35422 32.84375Q149.47922 32.84375 150.16672 33.484375Q150.86984 34.109375 150.86984 35.1875ZM149.97922 39.171875Q149.97922 38.453125 149.5261 38.015625Q149.07297 37.5625 148.3386 37.5625Q147.60422 37.5625 147.1511 38.015625Q146.7136 38.453125 146.7136 39.1875Q146.7136 39.90625 147.1511 40.328125Q147.5886 40.734375 148.35422 40.734375Q149.10422 40.734375 149.54172 40.3125Q149.97922 39.890625 149.97922 39.171875ZM148.35422 33.734375Q147.7136 33.734375 147.30734 34.140625Q146.91672 34.53125 146.91672 35.21875Q146.91672 35.859375 147.30734 36.265625Q147.69797 36.671875 148.3386 36.671875Q148.99484 36.671875 149.38547 36.265625Q149.7761 35.859375 149.7761 35.21875Q149.7761 34.5625 149.36984 34.15625Q148.9636 33.734375 148.35422 33.734375ZM156.24484 41.5L155.16672 41.5L155.16672 34.28125L152.97922 35.078125L152.97922 34.09375L156.0886 32.921875L156.24484 32.921875L156.24484 41.5ZM163.24484 41.5L162.16672 41.5L162.16672 34.28125L159.97922 35.078125L159.97922 34.09375L163.0886 32.921875L163.24484 32.921875L163.24484 41.5Z" fill-rule="nonzero"/><path fill="#000000" d="M150.86984 35.1875Q150.86984 35.828125 150.5261 36.328125Q150.18234 36.828125 149.61984 37.109375Q150.2761 37.390625 150.66672 37.953125Q151.05734 38.5 151.05734 39.203125Q151.05734 40.296875 150.30734 40.96875Q149.57297 41.625 148.35422 41.625Q147.11984 41.625 146.36984 40.96875Q145.63547 40.296875 145.63547 39.203125Q145.63547 38.5 146.01047 37.953125Q146.38547 37.390625 147.05734 37.109375Q146.49484 36.828125 146.16672 36.328125Q145.8386 35.828125 145.8386 35.1875Q145.8386 34.109375 146.5261 33.484375Q147.2136 32.84375 148.35422 32.84375Q149.47922 32.84375 150.16672 33.484375Q150.86984 34.109375 150.86984 35.1875ZM149.97922 39.171875Q149.97922 38.453125 149.5261 38.015625Q149.07297 37.5625 148.3386 37.5625Q147.60422 37.5625 147.1511 38.015625Q146.7136 38.453125 146.7136 39.1875Q146.7136 39.90625 147.1511 40.328125Q147.5886 40.734375 148.35422 40.734375Q149.10422 40.734375 149.54172 40.3125Q149.97922 39.890625 149.97922 39.171875ZM148.35422 33.734375Q147.7136 33.734375 147.30734 34.140625Q146.91672 34.53125 146.91672 35.21875Q146.91672 35.859375 147.30734 36.265625Q147.69797 36.671875 148.3386 36.671875Q148.99484 36.671875 149.38547 36.265625Q149.7761 35.859375 149.7761 35.21875Q149.7761 34.5625 149.36984 34.15625Q148.9636 33.734375 148.35422 33.734375ZM156.24484 41.5L155.16672 41.5L155.16672 34.28125L152.97922 35.078125L152.97922 34.09375L156.0886 32.921875L156.24484 32.921875L156.24484 41.5ZM163.24484 41.5L162.16672 41.5L162.16672 34.28125L159.97922 35.078125L159.97922 34.09375L163.0886 32.921875L163.24484 32.921875L163.24484 41.5Z" fill-rule="nonzero"/><path stroke="#b7b7b7" stroke-width="3.0" stroke-linejoin="round" stroke-linecap="round" d="M182.88562 77.5L181.8075 77.5L181.8075 70.28125L179.62 71.078125L179.62 70.09375L182.72937 68.921875L182.88562 68.921875L182.88562 77.5ZM191.91687 77.5L186.32312 77.5L186.32312 76.71875L189.27625 73.4375Q189.9325 72.6875 190.1825 72.234375Q190.4325 71.765625 190.4325 71.265625Q190.4325 70.59375 190.02625 70.171875Q189.63562 69.734375 188.94812 69.734375Q188.15125 69.734375 187.69812 70.203125Q187.245 70.65625 187.245 71.484375L186.16687 71.484375Q186.16687 70.296875 186.91687 69.578125Q187.6825 68.84375 188.94812 68.84375Q190.15125 68.84375 190.83875 69.46875Q191.52625 70.09375 191.52625 71.140625Q191.52625 72.390625 189.91687 74.140625L187.63562 76.609375L191.91687 76.609375L191.91687 77.5ZM198.6825 73.859375Q198.6825 75.765625 198.02625 76.703125Q197.38562 77.625 195.995 77.625Q194.63562 77.625 193.97937 76.71875Q193.32312 75.8125 193.29187 74.0L193.29187 72.5625Q193.29187 70.671875 193.9325 69.765625Q194.58875 68.84375 195.97937 68.84375Q197.35437 68.84375 198.01062 69.734375Q198.66687 70.609375 198.6825 72.453125L198.6825 73.859375ZM197.58875 72.375Q197.58875 71.0 197.19812 70.375Q196.82312 69.734375 195.97937 69.734375Q195.15125 69.734375 194.76062 70.375Q194.38562 71.0 194.38562 72.296875L194.38562 74.03125Q194.38562 75.40625 194.77625 76.078125Q195.1825 76.734375 195.995 76.734375Q196.79187 76.734375 197.1825 76.109375Q197.57312 75.484375 197.58875 74.15625L197.58875 72.375ZM205.6825 73.859375Q205.6825 75.765625 205.02625 76.703125Q204.38562 77.625 202.995 77.625Q201.63562 77.625 200.97937 76.71875Q200.32312 75.8125 200.29187 74.0L200.29187 72.5625Q200.29187 70.671875 200.9325 69.765625Q201.58875 68.84375 202.97937 68.84375Q204.35437 68.84375 205.01062 69.734375Q205.66687 70.609375 205.6825 72.453125L205.6825 73.859375ZM204.58875 72.375Q204.58875 71.0 204.19812 70.375Q203.82312 69.734375 202.97937 69.734375Q202.15125 69.734375 201.76062 70.375Q201.38562 71.0 201.38562 72.296875L201.38562 74.03125Q201.38562 75.40625 201.77625 76.078125Q202.1825 76.734375 202.995 76.734375Q203.79187 76.734375 204.1825 76.109375Q204.57312 75.484375 204.58875 74.15625L204.58875 72.375Z" fill-rule="nonzero"/><path fill="#000000" d="M182.88562 77.5L181.8075 77.5L181.8075 70.28125L179.62 71.078125L179.62 70.09375L182.72937 68.921875L182.88562 68.921875L182.88562 77.5ZM191.91687 77.5L186.32312 77.5L186.32312 76.71875L189.27625 73.4375Q189.9325 72.6875 190.1825 72.234375Q190.4325 71.765625 190.4325 71.265625Q190.4325 70.59375 190.02625 70.171875Q189.63562 69.734375 188.94812 69.734375Q188.15125 69.734375 187.69812 70.203125Q187.245 70.65625 187.245 71.484375L186.16687 71.484375Q186.16687 70.296875 186.91687 69.578125Q187.6825 68.84375 188.94812 68.84375Q190.15125 68.84375 190.83875 69.46875Q191.52625 70.09375 191.52625 71.140625Q191.52625 72.390625 189.91687 74.140625L187.63562 76.609375L191.91687 76.609375L191.91687 77.5ZM198.6825 73.859375Q198.6825 75.765625 198.02625 76.703125Q197.38562 77.625 195.995 77.625Q194.63562 77.625 193.97937 76.71875Q193.32312 75.8125 193.29187 74.0L193.29187 72.5625Q193.29187 70.671875 193.9325 69.765625Q194.58875 68.84375 195.97937 68.84375Q197.35437 68.84375 198.01062 69.734375Q198.66687 70.609375 198.6825 72.453125L198.6825 73.859375ZM197.58875 72.375Q197.58875 71.0 197.19812 70.375Q196.82312 69.734375 195.97937 69.734375Q195.15125 69.734375 194.76062 70.375Q194.38562 71.0 194.38562 72.296875L194.38562 74.03125Q194.38562 75.40625 194.77625 76.078125Q195.1825 76.734375 195.995 76.734375Q196.79187 76.734375 197.1825 76.109375Q197.57312 75.484375 197.58875 74.15625L197.58875 72.375ZM205.6825 73.859375Q205.6825 75.765625 205.02625 76.703125Q204.38562 77.625 202.995 77.625Q201.63562 77.625 200.97937 76.71875Q200.32312 75.8125 200.29187 74.0L200.29187 72.5625Q200.29187 70.671875 200.9325 69.765625Q201.58875 68.84375 202.97937 68.84375Q204.35437 68.84375 205.01062 69.734375Q205.66687 70.609375 205.6825 72.453125L205.6825 73.859375ZM204.58875 72.375Q204.58875 71.0 204.19812 70.375Q203.82312 69.734375 202.97937 69.734375Q202.15125 69.734375 201.76062 70.375Q201.38562 71.0 201.38562 72.296875L201.38562 74.03125Q201.38562 75.40625 201.77625 76.078125Q202.1825 76.734375 202.995 76.734375Q203.79187 76.734375 204.1825 76.109375Q204.57312 75.484375 204.58875 74.15625L204.58875 72.375Z" fill-rule="nonzero"/><path stroke="#b7b7b7" stroke-width="3.0" stroke-linejoin="round" stroke-linecap="round" d="M235.12312 114.5L234.045 114.5L234.045 107.28125L231.8575 108.078125L231.8575 107.09375L234.96687 105.921875L235.12312 105.921875L235.12312 114.5ZM244.07625 106.578125L240.545 114.5L239.40437 114.5L242.92 106.859375L238.31062 106.859375L238.31062 105.96875L244.07625 105.96875L244.07625 106.578125ZM250.92 110.859375Q250.92 112.765625 250.26375 113.703125Q249.62312 114.625 248.2325 114.625Q246.87312 114.625 246.21687 113.71875Q245.56062 112.8125 245.52937 111.0L245.52937 109.5625Q245.52937 107.671875 246.17 106.765625Q246.82625 105.84375 248.21687 105.84375Q249.59187 105.84375 250.24812 106.734375Q250.90437 107.609375 250.92 109.453125L250.92 110.859375ZM249.82625 109.375Q249.82625 108.0 249.43562 107.375Q249.06062 106.734375 248.21687 106.734375Q247.38875 106.734375 246.99812 107.375Q246.62312 108.0 246.62312 109.296875L246.62312 111.03125Q246.62312 112.40625 247.01375 113.078125Q247.42 113.734375 248.2325 113.734375Q249.02937 113.734375 249.42 113.109375Q249.81062 112.484375 249.82625 111.15625L249.82625 109.375ZM257.92 110.859375Q257.92 112.765625 257.26376 113.703125Q256.62314 114.625 255.2325 114.625Q253.87312 114.625 253.21687 113.71875Q252.56062 112.8125 252.52937 111.0L252.52937 109.5625Q252.52937 107.671875 253.17 106.765625Q253.82625 105.84375 255.21687 105.84375Q256.5919 105.84375 257.24814 106.734375Q257.9044 107.609375 257.92 109.453125L257.92 110.859375ZM256.82626 109.375Q256.82626 108.0 256.43564 107.375Q256.06064 106.734375 255.21687 106.734375Q254.38875 106.734375 253.99812 107.375Q253.62312 108.0 253.62312 109.296875L253.62312 111.03125Q253.62312 112.40625 254.01375 113.078125Q254.42 113.734375 255.2325 113.734375Q256.0294 113.734375 256.42 113.109375Q256.81064 112.484375 256.82626 111.15625L256.82626 109.375Z" fill-rule="nonzero"/><path fill="#000000" d="M235.12312 114.5L234.045 114.5L234.045 107.28125L231.8575 108.078125L231.8575 107.09375L234.96687 105.921875L235.12312 105.921875L235.12312 114.5ZM244.07625 106.578125L240.545 114.5L239.40437 114.5L242.92 106.859375L238.31062 106.859375L238.31062 105.96875L244.07625 105.96875L244.07625 106.578125ZM250.92 110.859375Q250.92 112.765625 250.26375 113.703125Q249.62312 114.625 248.2325 114.625Q246.87312 114.625 246.21687 113.71875Q245.56062 112.8125 245.52937 111.0L245.52937 109.5625Q245.52937 107.671875 246.17 106.765625Q246.82625 105.84375 248.21687 105.84375Q249.59187 105.84375 250.24812 106.734375Q250.90437 107.609375 250.92 109.453125L250.92 110.859375ZM249.82625 109.375Q249.82625 108.0 249.43562 107.375Q249.06062 106.734375 248.21687 106.734375Q247.38875 106.734375 246.99812 107.375Q246.62312 108.0 246.62312 109.296875L246.62312 111.03125Q246.62312 112.40625 247.01375 113.078125Q247.42 113.734375 248.2325 113.734375Q249.02937 113.734375 249.42 113.109375Q249.81062 112.484375 249.82625 111.15625L249.82625 109.375ZM257.91998 110.859375Q257.91998 112.765625 257.26373 113.703125Q256.6231 114.625 255.2325 114.625Q253.87312 114.625 253.21687 113.71875Q252.56062 112.8125 252.52937 111.0L252.52937 109.5625Q252.52937 107.671875 253.17 106.765625Q253.82625 105.84375 255.21687 105.84375Q256.59186 105.84375 257.2481 106.734375Q257.90436 107.609375 257.91998 109.453125L257.91998 110.859375ZM256.82623 109.375Q256.82623 108.0 256.4356 107.375Q256.0606 106.734375 255.21687 106.734375Q254.38875 106.734375 253.99812 107.375Q253.62312 108.0 253.62312 109.296875L253.62312 111.03125Q253.62312 112.40625 254.01375 113.078125Q254.42 113.734375 255.2325 113.734375Q256.02936 113.734375 256.41998 113.109375Q256.8106 112.484375 256.82623 111.15625L256.82623 109.375Z" fill-rule="nonzero"/><path stroke="#b7b7b7" stroke-width="3.0" stroke-linejoin="round" stroke-linecap="round" d="M256.01813 151.5L254.94 151.5L254.94 144.28125L252.7525 145.07812L252.7525 144.09375L255.86188 142.92188L256.01813 142.92188L256.01813 151.5ZM263.61188 147.75Q263.28375 148.15625 262.79938 148.40625Q262.33063 148.64062 261.76813 148.64062Q261.03375 148.64062 260.48688 148.28125Q259.94 147.92188 259.64313 147.26562Q259.34625 146.59375 259.34625 145.79688Q259.34625 144.95312 259.65875 144.26562Q259.98688 143.57812 260.58063 143.21875Q261.19 142.84375 261.98688 142.84375Q263.2525 142.84375 263.97125 143.79688Q264.70563 144.75 264.70563 146.375L264.70563 146.6875Q264.70563 149.1875 263.72125 150.32812Q262.73688 151.46875 260.7525 151.5L260.53375 151.5L260.53375 150.59375L260.76813 150.59375Q262.11188 150.5625 262.83063 149.89062Q263.54938 149.21875 263.61188 147.75ZM261.94 147.75Q262.48688 147.75 262.94 147.42188Q263.40875 147.07812 263.6275 146.59375L263.6275 146.15625Q263.6275 145.09375 263.15875 144.42188Q262.69 143.75 261.98688 143.75Q261.26813 143.75 260.83063 144.29688Q260.40875 144.84375 260.40875 145.75Q260.40875 146.625 260.815 147.1875Q261.23688 147.75 261.94 147.75ZM271.815 147.85938Q271.815 149.76562 271.15875 150.70312Q270.51813 151.625 269.1275 151.625Q267.76813 151.625 267.11188 150.71875Q266.45563 149.8125 266.42438 148.0L266.42438 146.5625Q266.42438 144.67188 267.065 143.76562Q267.72125 142.84375 269.11188 142.84375Q270.48688 142.84375 271.14313 143.73438Q271.79938 144.60938 271.815 146.45312L271.815 147.85938ZM270.72125 146.375Q270.72125 145.0 270.33063 144.375Q269.95563 143.73438 269.11188 143.73438Q268.28375 143.73438 267.89313 144.375Q267.51813 145.0 267.51813 146.29688L267.51813 148.03125Q267.51813 149.40625 267.90875 150.07812Q268.315 150.73438 269.1275 150.73438Q269.92438 150.73438 270.315 150.10938Q270.70563 149.48438 270.72125 148.15625L270.72125 146.375ZM278.815 147.85938Q278.815 149.76562 278.15875 150.70312Q277.51813 151.625 276.1275 151.625Q274.76813 151.625 274.11188 150.71875Q273.45563 149.8125 273.42438 148.0L273.42438 146.5625Q273.42438 144.67188 274.065 143.76562Q274.72125 142.84375 276.11188 142.84375Q277.48688 142.84375 278.14313 143.73438Q278.79938 144.60938 278.815 146.45312L278.815 147.85938ZM277.72125 146.375Q277.72125 145.0 277.33063 144.375Q276.95563 143.73438 276.11188 143.73438Q275.28375 143.73438 274.89313 144.375Q274.51813 145.0 274.51813 146.29688L274.51813 148.03125Q274.51813 149.40625 274.90875 150.07812Q275.315 150.73438 276.1275 150.73438Q276.92438 150.73438 277.315 150.10938Q277.70563 149.48438 277.72125 148.15625L277.72125 146.375Z" fill-rule="nonzero"/><path fill="#000000" d="M256.01813 151.5L254.94 151.5L254.94 144.28125L252.7525 145.07812L252.7525 144.09375L255.86188 142.92188L256.01813 142.92188L256.01813 151.5ZM263.61188 147.75Q263.28375 148.15625 262.79938 148.40625Q262.33063 148.64062 261.76813 148.64062Q261.03375 148.64062 260.48688 148.28125Q259.94 147.92188 259.64313 147.26562Q259.34625 146.59375 259.34625 145.79688Q259.34625 144.95312 259.65875 144.26562Q259.98688 143.57812 260.58063 143.21875Q261.19 142.84375 261.98688 142.84375Q263.2525 142.84375 263.97125 143.79688Q264.70563 144.75 264.70563 146.375L264.70563 146.6875Q264.70563 149.1875 263.72125 150.32812Q262.73688 151.46875 260.7525 151.5L260.53375 151.5L260.53375 150.59375L260.76813 150.59375Q262.11188 150.5625 262.83063 149.89062Q263.54938 149.21875 263.61188 147.75ZM261.94 147.75Q262.48688 147.75 262.94 147.42188Q263.40875 147.07812 263.6275 146.59375L263.6275 146.15625Q263.6275 145.09375 263.15875 144.42188Q262.69 143.75 261.98688 143.75Q261.26813 143.75 260.83063 144.29688Q260.40875 144.84375 260.40875 145.75Q260.40875 146.625 260.815 147.1875Q261.23688 147.75 261.94 147.75ZM271.815 147.85938Q271.815 149.76562 271.15875 150.70312Q270.51813 151.625 269.1275 151.625Q267.76813 151.625 267.11188 150.71875Q266.45563 149.8125 266.42438 148.0L266.42438 146.5625Q266.42438 144.67188 267.065 143.76562Q267.72125 142.84375 269.11188 142.84375Q270.48688 142.84375 271.14313 143.73438Q271.79938 144.60938 271.815 146.45312L271.815 147.85938ZM270.72125 146.375Q270.72125 145.0 270.33063 144.375Q269.95563 143.73438 269.11188 143.73438Q268.28375 143.73438 267.89313 144.375Q267.51813 145.0 267.51813 146.29688L267.51813 148.03125Q267.51813 149.40625 267.90875 150.07812Q268.315 150.73438 269.1275 150.73438Q269.92438 150.73438 270.315 150.10938Q270.70563 149.48438 270.72125 148.15625L270.72125 146.375ZM278.815 147.85938Q278.815 149.76562 278.15875 150.70312Q277.51813 151.625 276.1275 151.625Q274.76813 151.625 274.11188 150.71875Q273.45563 149.8125 273.42438 148.0L273.42438 146.5625Q273.42438 144.67188 274.065 143.76562Q274.72125 142.84375 276.11188 142.84375Q277.48688 142.84375 278.14313 143.73438Q278.79938 144.60938 278.815 146.45312L278.815 147.85938ZM277.72125 146.375Q277.72125 145.0 277.33063 144.375Q276.95563 143.73438 276.11188 143.73438Q275.28375 143.73438 274.89313 144.375Q274.51813 145.0 274.51813 146.29688L274.51813 148.03125Q274.51813 149.40625 274.90875 150.07812Q275.315 150.73438 276.1275 150.73438Q276.92438 150.73438 277.315 150.10938Q277.70563 149.48438 277.72125 148.15625L277.72125 146.375Z" fill-rule="nonzero"/><path stroke="#b7b7b7" stroke-width="3.0" stroke-linejoin="round" stroke-linecap="round" d="M476.43124 184.64062L477.61874 184.64062L477.61874 185.51562L476.43124 185.51562L476.43124 187.5L475.35312 187.5L475.35312 185.51562L471.4625 185.51562L471.4625 184.875L475.275 178.96875L476.43124 178.96875L476.43124 184.64062ZM472.69687 184.64062L475.35312 184.64062L475.35312 180.45312L475.2125 180.6875L472.69687 184.64062ZM484.2125 183.85938Q484.2125 185.76562 483.55624 186.70312Q482.91562 187.625 481.525 187.625Q480.16562 187.625 479.50937 186.71875Q478.85312 185.8125 478.82187 184.0L478.82187 182.5625Q478.82187 180.67188 479.4625 179.76562Q480.11874 178.84375 481.50937 178.84375Q482.88437 178.84375 483.54062 179.73438Q484.19687 180.60938 484.2125 182.45312L484.2125 183.85938ZM483.11874 182.375Q483.11874 181.0 482.72812 180.375Q482.35312 179.73438 481.50937 179.73438Q480.68124 179.73438 480.29062 180.375Q479.91562 181.0 479.91562 182.29688L479.91562 184.03125Q479.91562 185.40625 480.30624 186.07812Q480.7125 186.73438 481.525 186.73438Q482.32187 186.73438 482.7125 186.10938Q483.10312 185.48438 483.11874 184.15625L483.11874 182.375ZM491.2125 183.85938Q491.2125 185.76562 490.55624 186.70312Q489.91562 187.625 488.525 187.625Q487.16562 187.625 486.50937 186.71875Q485.85312 185.8125 485.82187 184.0L485.82187 182.5625Q485.82187 180.67188 486.4625 179.76562Q487.11874 178.84375 488.50937 178.84375Q489.88437 178.84375 490.54062 179.73438Q491.19687 180.60938 491.2125 182.45312L491.2125 183.85938ZM490.11874 182.375Q490.11874 181.0 489.72812 180.375Q489.35312 179.73438 488.50937 179.73438Q487.68124 179.73438 487.29062 180.375Q486.91562 181.0 486.91562 182.29688L486.91562 184.03125Q486.91562 185.40625 487.30624 186.07812Q487.7125 186.73438 488.525 186.73438Q489.32187 186.73438 489.7125 186.10938Q490.10312 185.48438 490.11874 184.15625L490.11874 182.375ZM498.2125 183.85938Q498.2125 185.76562 497.55624 186.70312Q496.91562 187.625 495.525 187.625Q494.16562 187.625 493.50937 186.71875Q492.85312 185.8125 492.82187 184.0L492.82187 182.5625Q492.82187 180.67188 493.4625 179.76562Q494.11874 178.84375 495.50937 178.84375Q496.88437 178.84375 497.54062 179.73438Q498.19687 180.60938 498.2125 182.45312L498.2125 183.85938ZM497.11874 182.375Q497.11874 181.0 496.72812 180.375Q496.35312 179.73438 495.50937 179.73438Q494.68124 179.73438 494.29062 180.375Q493.91562 181.0 493.91562 182.29688L493.91562 184.03125Q493.91562 185.40625 494.30624 186.07812Q494.7125 186.73438 495.525 186.73438Q496.32187 186.73438 496.7125 186.10938Q497.10312 185.48438 497.11874 184.15625L497.11874 182.375Z" fill-rule="nonzero"/><path fill="#000000" d="M476.43124 184.64062L477.61874 184.64062L477.61874 185.51562L476.43124 185.51562L476.43124 187.5L475.35312 187.5L475.35312 185.51562L471.4625 185.51562L471.4625 184.875L475.275 178.96875L476.43124 178.96875L476.43124 184.64062ZM472.69687 184.64062L475.35312 184.64062L475.35312 180.45312L475.2125 180.6875L472.69687 184.64062ZM484.2125 183.85938Q484.2125 185.76562 483.55624 186.70312Q482.91562 187.625 481.525 187.625Q480.16562 187.625 479.50937 186.71875Q478.85312 185.8125 478.82187 184.0L478.82187 182.5625Q478.82187 180.67188 479.4625 179.76562Q480.11874 178.84375 481.50937 178.84375Q482.88437 178.84375 483.54062 179.73438Q484.19687 180.60938 484.2125 182.45312L484.2125 183.85938ZM483.11874 182.375Q483.11874 181.0 482.72812 180.375Q482.35312 179.73438 481.50937 179.73438Q480.68124 179.73438 480.29062 180.375Q479.91562 181.0 479.91562 182.29688L479.91562 184.03125Q479.91562 185.40625 480.30624 186.07812Q480.7125 186.73438 481.525 186.73438Q482.32187 186.73438 482.7125 186.10938Q483.10312 185.48438 483.11874 184.15625L483.11874 182.375ZM491.2125 183.85938Q491.2125 185.76562 490.55624 186.70312Q489.91562 187.625 488.525 187.625Q487.16562 187.625 486.50937 186.71875Q485.85312 185.8125 485.82187 184.0L485.82187 182.5625Q485.82187 180.67188 486.4625 179.76562Q487.11874 178.84375 488.50937 178.84375Q489.88437 178.84375 490.54062 179.73438Q491.19687 180.60938 491.2125 182.45312L491.2125 183.85938ZM490.11874 182.375Q490.11874 181.0 489.72812 180.375Q489.35312 179.73438 488.50937 179.73438Q487.68124 179.73438 487.29062 180.375Q486.91562 181.0 486.91562 182.29688L486.91562 184.03125Q486.91562 185.40625 487.30624 186.07812Q487.7125 186.73438 488.525 186.73438Q489.32187 186.73438 489.7125 186.10938Q490.10312 185.48438 490.11874 184.15625L490.11874 182.375ZM498.2125 183.85938Q498.2125 185.76562 497.55624 186.70312Q496.91562 187.625 495.525 187.625Q494.16562 187.625 493.50937 186.71875Q492.85312 185.8125 492.82187 184.0L492.82187 182.5625Q492.82187 180.67188 493.4625 179.76562Q494.11874 178.84375 495.50937 178.84375Q496.88437 178.84375 497.54062 179.73438Q498.19687 180.60938 498.2125 182.45312L498.2125 183.85938ZM497.11874 182.375Q497.11874 181.0 496.72812 180.375Q496.35312 179.73438 495.50937 179.73438Q494.68124 179.73438 494.29062 180.375Q493.91562 181.0 493.91562 182.29688L493.91562 184.03125Q493.91562 185.40625 494.30624 186.07812Q494.7125 186.73438 495.525 186.73438Q496.32187 186.73438 496.7125 186.10938Q497.10312 185.48438 497.11874 184.15625L497.11874 182.375Z" fill-rule="nonzero"/><path fill="#757575" d="M24.55 37.46948Q23.1125 37.047604 22.440624 36.43823Q21.784374 35.828854 21.784374 34.93823Q21.784374 33.93823 22.58125 33.28198Q23.39375 32.610104 24.690624 32.610104Q25.565624 32.610104 26.253124 32.953854Q26.940624 33.297604 27.315624 33.891354Q27.70625 34.485104 27.70625 35.203854L26.565624 35.203854Q26.565624 34.422604 26.065624 33.985104Q25.58125 33.547604 24.690624 33.547604Q23.8625 33.547604 23.39375 33.922604Q22.925 34.28198 22.925 34.922604Q22.925 35.453854 23.3625 35.81323Q23.815624 36.172604 24.878124 36.46948Q25.940624 36.766354 26.534374 37.12573Q27.14375 37.485104 27.425 37.96948Q27.721874 38.453854 27.721874 39.09448Q27.721874 40.141354 26.909374 40.766354Q26.096874 41.391354 24.753124 41.391354Q23.8625 41.391354 23.096874 41.047604Q22.346874 40.703854 21.925 40.12573Q21.51875 39.53198 21.51875 38.797604L22.64375 38.797604Q22.64375 39.56323 23.221874 40.016354Q23.8 40.46948 24.753124 40.46948Q25.64375 40.46948 26.1125 40.110104Q26.58125 39.735104 26.58125 39.110104Q26.58125 38.485104 26.14375 38.141354Q25.70625 37.797604 24.55 37.46948ZM30.940624 39.672604L32.425 34.922604L33.58125 34.922604L31.034374 42.25073Q30.440624 43.828854 29.159374 43.828854L28.940624 43.81323L28.55 43.735104L28.55 42.860104L28.83125 42.87573Q29.39375 42.87573 29.690624 42.65698Q30.003124 42.43823 30.20625 41.84448L30.440624 41.18823L28.175 34.922604L29.3625 34.922604L30.940624 39.672604ZM35.89375 34.922604L35.925 35.62573Q36.6125 34.81323 37.8 34.81323Q39.128124 34.81323 39.6125 35.828854Q39.925 35.37573 40.425 35.09448Q40.940624 34.81323 41.628124 34.81323Q43.721874 34.81323 43.753124 37.016354L43.753124 41.266354L42.675 41.266354L42.675 37.078854Q42.675 36.40698 42.3625 36.078854Q42.05 35.735104 41.315624 35.735104Q40.70625 35.735104 40.3 36.09448Q39.909374 36.453854 39.846874 37.06323L39.846874 41.266354L38.76875 41.266354L38.76875 37.110104Q38.76875 35.735104 37.409374 35.735104Q36.346874 35.735104 35.95625 36.641354L35.95625 41.266354L34.8625 41.266354L34.8625 34.922604L35.89375 34.922604ZM47.05 41.266354L45.971874 41.266354L45.971874 32.266354L47.05 32.266354L47.05 41.266354ZM51.503124 41.391354Q50.20625 41.391354 49.39375 40.547604Q48.596874 39.68823 48.596874 38.266354L48.596874 38.078854Q48.596874 37.12573 48.95625 36.391354Q49.315624 35.641354 49.95625 35.235104Q50.6125 34.81323 51.3625 34.81323Q52.596874 34.81323 53.284374 35.62573Q53.971874 36.43823 53.971874 37.953854L53.971874 38.40698L49.675 38.40698Q49.70625 39.34448 50.221874 39.922604Q50.753124 40.50073 51.565624 40.50073Q52.128124 40.50073 52.51875 40.266354Q52.925 40.03198 53.2375 39.641354L53.89375 40.15698Q53.096874 41.391354 51.503124 41.391354ZM51.3625 35.703854Q50.70625 35.703854 50.253124 36.18823Q49.815624 36.65698 49.721874 37.516354L52.89375 37.516354L52.89375 37.43823Q52.846874 36.610104 52.440624 36.15698Q52.05 35.703854 51.3625 35.703854ZM57.003124 37.235104L58.409374 34.922604L59.675 34.922604L57.596874 38.06323L59.7375 41.266354L58.4875 41.266354L57.01875 38.891354L55.55 41.266354L54.284374 41.266354L56.425 38.06323L54.3625 34.922604L55.6125 34.922604L57.003124 37.235104ZM68.33125 38.40698L69.51875 38.40698L69.51875 39.28198L68.33125 39.28198L68.33125 41.266354L67.25313 41.266354L67.25313 39.28198L63.3625 39.28198L63.3625 38.641354L67.175 32.735104L68.33125 32.735104L68.33125 38.40698ZM64.59688 38.40698L67.25313 38.40698L67.25313 34.21948L67.1125 34.453854L64.59688 38.40698ZM70.89375 40.703854Q70.89375 40.422604 71.05 40.235104Q71.22188 40.047604 71.55 40.047604Q71.89375 40.047604 72.06563 40.235104Q72.2375 40.422604 72.2375 40.703854Q72.2375 40.96948 72.06563 41.15698Q71.89375 41.328854 71.55 41.328854Q71.22188 41.328854 71.05 41.15698Q70.89375 40.96948 70.89375 40.703854ZM77.31563 41.266354L76.2375 41.266354L76.2375 34.047604L74.05 34.84448L74.05 33.860104L77.15938 32.68823L77.31563 32.68823L77.31563 41.266354Z" fill-rule="nonzero"/><path fill="#757575" d="M15.55 74.0863Q14.1125 73.66443 13.440625 73.05505Q12.784375 72.44568 12.784375 71.55505Q12.784375 70.55505 13.58125 69.8988Q14.39375 69.22693 15.690625 69.22693Q16.565624 69.22693 17.253124 69.57068Q17.940624 69.91443 18.315624 70.50818Q18.70625 71.10193 18.70625 71.82068L17.565624 71.82068Q17.565624 71.03943 17.065624 70.60193Q16.58125 70.16443 15.690625 70.16443Q14.8625 70.16443 14.39375 70.53943Q13.925 70.8988 13.925 71.53943Q13.925 72.07068 14.3625 72.43005Q14.815625 72.78943 15.878125 73.0863Q16.940624 73.38318 17.534374 73.74255Q18.14375 74.10193 18.425 74.5863Q18.721874 75.07068 18.721874 75.7113Q18.721874 76.75818 17.909374 77.38318Q17.096874 78.00818 15.753125 78.00818Q14.8625 78.00818 14.096875 77.66443Q13.346875 77.32068 12.925 76.74255Q12.51875 76.1488 12.51875 75.41443L13.64375 75.41443Q13.64375 76.18005 14.221875 76.63318Q14.8 77.0863 15.753125 77.0863Q16.64375 77.0863 17.1125 76.72693Q17.58125 76.35193 17.58125 75.72693Q17.58125 75.10193 17.14375 74.75818Q16.70625 74.41443 15.55 74.0863ZM21.940624 76.28943L23.425 71.53943L24.58125 71.53943L22.034374 78.86755Q21.440624 80.44568 20.159374 80.44568L19.940624 80.43005L19.55 80.35193L19.55 79.47693L19.83125 79.49255Q20.39375 79.49255 20.690624 79.2738Q21.003124 79.05505 21.20625 78.4613L21.440624 77.80505L19.175 71.53943L20.3625 71.53943L21.940624 76.28943ZM26.89375 71.53943L26.925 72.24255Q27.6125 71.43005 28.8 71.43005Q30.128124 71.43005 30.6125 72.44568Q30.925 71.99255 31.425 71.7113Q31.940624 71.43005 32.628124 71.43005Q34.721874 71.43005 34.753124 73.63318L34.753124 77.88318L33.675 77.88318L33.675 73.69568Q33.675 73.0238 33.3625 72.69568Q33.05 72.35193 32.315624 72.35193Q31.70625 72.35193 31.3 72.7113Q30.909374 73.07068 30.846874 73.68005L30.846874 77.88318L29.76875 77.88318L29.76875 73.72693Q29.76875 72.35193 28.409374 72.35193Q27.346874 72.35193 26.95625 73.25818L26.95625 77.88318L25.8625 77.88318L25.8625 71.53943L26.89375 71.53943ZM37.409374 77.88318L37.409374 72.38318L36.409374 72.38318L36.409374 71.53943L37.409374 71.53943L37.409374 70.8988Q37.409374 69.86755 37.940624 69.32068Q38.4875 68.75818 39.4875 68.75818Q39.8625 68.75818 40.2375 68.85193L40.175 69.74255Q39.89375 69.68005 39.596874 69.68005Q39.065624 69.68005 38.76875 69.99255Q38.4875 70.30505 38.4875 70.86755L38.4875 71.53943L39.846874 71.53943L39.846874 72.38318L38.4875 72.38318L38.4875 77.88318L37.409374 77.88318ZM40.58125 74.6488Q40.58125 73.72693 40.940624 72.97693Q41.315624 72.22693 41.971874 71.8363Q42.628124 71.43005 43.45625 71.43005Q44.753124 71.43005 45.55 72.32068Q46.3625 73.2113 46.3625 74.7113L46.3625 74.78943Q46.3625 75.7113 46.003124 76.44568Q45.64375 77.18005 44.9875 77.60193Q44.33125 78.00818 43.471874 78.00818Q42.190624 78.00818 41.378124 77.11755Q40.58125 76.2113 40.58125 74.72693L40.58125 74.6488ZM41.675 74.78943Q41.675 75.8363 42.159374 76.47693Q42.659374 77.11755 43.471874 77.11755Q44.3 77.11755 44.784374 76.47693Q45.26875 75.82068 45.26875 74.6488Q45.26875 73.61755 44.76875 72.97693Q44.284374 72.32068 43.45625 72.32068Q42.659374 72.32068 42.159374 72.9613Q41.675 73.5863 41.675 74.78943ZM48.89375 71.53943L48.925 72.3363Q49.659374 71.43005 50.83125 71.43005Q52.846874 71.43005 52.8625 73.69568L52.8625 77.88318L51.76875 77.88318L51.76875 73.68005Q51.76875 73.00818 51.45625 72.68005Q51.159374 72.35193 50.503124 72.35193Q49.971874 72.35193 49.565624 72.63318Q49.175 72.91443 48.95625 73.36755L48.95625 77.88318L47.878124 77.88318L47.878124 71.53943L48.89375 71.53943ZM56.940624 76.28943L58.425 71.53943L59.58125 71.53943L57.034374 78.86755Q56.440624 80.44568 55.159374 80.44568L54.940624 80.43005L54.55 80.35193L54.55 79.47693L54.83125 79.49255Q55.39375 79.49255 55.690624 79.2738Q56.003124 79.05505 56.20625 78.4613L56.440624 77.80505L54.175 71.53943L55.3625 71.53943L56.940624 76.28943ZM68.33125 75.0238L69.51875 75.0238L69.51875 75.8988L68.33125 75.8988L68.33125 77.88318L67.25313 77.88318L67.25313 75.8988L63.3625 75.8988L63.3625 75.25818L67.175 69.35193L68.33125 69.35193L68.33125 75.0238ZM64.59688 75.0238L67.25313 75.0238L67.25313 70.8363L67.1125 71.07068L64.59688 75.0238ZM70.89375 77.32068Q70.89375 77.03943 71.05 76.85193Q71.22188 76.66443 71.55 76.66443Q71.89375 76.66443 72.06563 76.85193Q72.2375 77.03943 72.2375 77.32068Q72.2375 77.5863 72.06563 77.7738Q71.89375 77.94568 71.55 77.94568Q71.22188 77.94568 71.05 77.7738Q70.89375 77.5863 70.89375 77.32068ZM79.34688 77.88318L73.75313 77.88318L73.75313 77.10193L76.70625 73.82068Q77.3625 73.07068 77.6125 72.61755Q77.8625 72.1488 77.8625 71.6488Q77.8625 70.97693 77.45625 70.55505Q77.06563 70.11755 76.37813 70.11755Q75.58125 70.11755 75.12813 70.5863Q74.675 71.03943 74.675 71.86755L73.59688 71.86755Q73.59688 70.68005 74.34688 69.9613Q75.1125 69.22693 76.37813 69.22693Q77.58125 69.22693 78.26875 69.85193Q78.95625 70.47693 78.95625 71.5238Q78.95625 72.7738 77.34688 74.5238L75.06563 76.99255L79.34688 76.99255L79.34688 77.88318Z" fill-rule="nonzero"/><path fill="#757575" d="M15.55 110.703125Q14.1125 110.28125 13.440625 109.671875Q12.784375 109.0625 12.784375 108.171875Q12.784375 107.171875 13.58125 106.515625Q14.39375 105.84375 15.690625 105.84375Q16.565624 105.84375 17.253124 106.1875Q17.940624 106.53125 18.315624 107.125Q18.70625 107.71875 18.70625 108.4375L17.565624 108.4375Q17.565624 107.65625 17.065624 107.21875Q16.58125 106.78125 15.690625 106.78125Q14.8625 106.78125 14.39375 107.15625Q13.925 107.515625 13.925 108.15625Q13.925 108.6875 14.3625 109.046875Q14.815625 109.40625 15.878125 109.703125Q16.940624 110.0 17.534374 110.359375Q18.14375 110.71875 18.425 111.203125Q18.721874 111.6875 18.721874 112.328125Q18.721874 113.375 17.909374 114.0Q17.096874 114.625 15.753125 114.625Q14.8625 114.625 14.096875 114.28125Q13.346875 113.9375 12.925 113.359375Q12.51875 112.765625 12.51875 112.03125L13.64375 112.03125Q13.64375 112.796875 14.221875 113.25Q14.8 113.703125 15.753125 113.703125Q16.64375 113.703125 17.1125 113.34375Q17.58125 112.96875 17.58125 112.34375Q17.58125 111.71875 17.14375 111.375Q16.70625 111.03125 15.55 110.703125ZM21.940624 112.90625L23.425 108.15625L24.58125 108.15625L22.034374 115.484375Q21.440624 117.0625 20.159374 117.0625L19.940624 117.046875L19.55 116.96875L19.55 116.09375L19.83125 116.109375Q20.39375 116.109375 20.690624 115.890625Q21.003124 115.671875 21.20625 115.078125L21.440624 114.421875L19.175 108.15625L20.3625 108.15625L21.940624 112.90625ZM26.89375 108.15625L26.925 108.859375Q27.6125 108.046875 28.8 108.046875Q30.128124 108.046875 30.6125 109.0625Q30.925 108.609375 31.425 108.328125Q31.940624 108.046875 32.628124 108.046875Q34.721874 108.046875 34.753124 110.25L34.753124 114.5L33.675 114.5L33.675 110.3125Q33.675 109.640625 33.3625 109.3125Q33.05 108.96875 32.315624 108.96875Q31.70625 108.96875 31.3 109.328125Q30.909374 109.6875 30.846874 110.296875L30.846874 114.5L29.76875 114.5L29.76875 110.34375Q29.76875 108.96875 28.409374 108.96875Q27.346874 108.96875 26.95625 109.875L26.95625 114.5L25.8625 114.5L25.8625 108.15625L26.89375 108.15625ZM37.409374 114.5L37.409374 109.0L36.409374 109.0L36.409374 108.15625L37.409374 108.15625L37.409374 107.515625Q37.409374 106.484375 37.940624 105.9375Q38.4875 105.375 39.4875 105.375Q39.8625 105.375 40.2375 105.46875L40.175 106.359375Q39.89375 106.296875 39.596874 106.296875Q39.065624 106.296875 38.76875 106.609375Q38.4875 106.921875 38.4875 107.484375L38.4875 108.15625L39.846874 108.15625L39.846874 109.0L38.4875 109.0L38.4875 114.5L37.409374 114.5ZM40.58125 111.265625Q40.58125 110.34375 40.940624 109.59375Q41.315624 108.84375 41.971874 108.453125Q42.628124 108.046875 43.45625 108.046875Q44.753124 108.046875 45.55 108.9375Q46.3625 109.828125 46.3625 111.328125L46.3625 111.40625Q46.3625 112.328125 46.003124 113.0625Q45.64375 113.796875 44.9875 114.21875Q44.33125 114.625 43.471874 114.625Q42.190624 114.625 41.378124 113.734375Q40.58125 112.828125 40.58125 111.34375L40.58125 111.265625ZM41.675 111.40625Q41.675 112.453125 42.159374 113.09375Q42.659374 113.734375 43.471874 113.734375Q44.3 113.734375 44.784374 113.09375Q45.26875 112.4375 45.26875 111.265625Q45.26875 110.234375 44.76875 109.59375Q44.284374 108.9375 43.45625 108.9375Q42.659374 108.9375 42.159374 109.578125Q41.675 110.203125 41.675 111.40625ZM48.89375 108.15625L48.925 108.953125Q49.659374 108.046875 50.83125 108.046875Q52.846874 108.046875 52.8625 110.3125L52.8625 114.5L51.76875 114.5L51.76875 110.296875Q51.76875 109.625 51.45625 109.296875Q51.159374 108.96875 50.503124 108.96875Q49.971874 108.96875 49.565624 109.25Q49.175 109.53125 48.95625 109.984375L48.95625 114.5L47.878124 114.5L47.878124 108.15625L48.89375 108.15625ZM56.940624 112.90625L58.425 108.15625L59.58125 108.15625L57.034374 115.484375Q56.440624 117.0625 55.159374 117.0625L54.940624 117.046875L54.55 116.96875L54.55 116.09375L54.83125 116.109375Q55.39375 116.109375 55.690624 115.890625Q56.003124 115.671875 56.20625 115.078125L56.440624 114.421875L54.175 108.15625L55.3625 108.15625L56.940624 112.90625ZM65.33125 109.703125L66.14375 109.703125Q66.925 109.6875 67.3625 109.296875Q67.8 108.90625 67.8 108.234375Q67.8 106.734375 66.3 106.734375Q65.59688 106.734375 65.175 107.140625Q64.76875 107.546875 64.76875 108.203125L63.675 108.203125Q63.675 107.1875 64.40938 106.515625Q65.15938 105.84375 66.3 105.84375Q67.50313 105.84375 68.19063 106.484375Q68.87813 107.125 68.87813 108.265625Q68.87813 108.828125 68.51875 109.34375Q68.15938 109.859375 67.53438 110.125Q68.2375 110.34375 68.6125 110.859375Q69.00313 111.375 69.00313 112.125Q69.00313 113.265625 68.25313 113.953125Q67.50313 114.625 66.3 114.625Q65.1125 114.625 64.34688 113.96875Q63.596874 113.3125 63.596874 112.25L64.69063 112.25Q64.69063 112.921875 65.12813 113.328125Q65.56563 113.734375 66.31563 113.734375Q67.09688 113.734375 67.50313 113.328125Q67.925 112.90625 67.925 112.140625Q67.925 111.40625 67.47188 111.015625Q67.01875 110.609375 66.14375 110.59375L65.33125 110.59375L65.33125 109.703125ZM70.89375 113.9375Q70.89375 113.65625 71.05 113.46875Q71.22188 113.28125 71.55 113.28125Q71.89375 113.28125 72.06563 113.46875Q72.2375 113.65625 72.2375 113.9375Q72.2375 114.203125 72.06563 114.390625Q71.89375 114.5625 71.55 114.5625Q71.22188 114.5625 71.05 114.390625Q70.89375 114.203125 70.89375 113.9375ZM78.33125 111.640625L79.51875 111.640625L79.51875 112.515625L78.33125 112.515625L78.33125 114.5L77.25313 114.5L77.25313 112.515625L73.3625 112.515625L73.3625 111.875L77.175 105.96875L78.33125 105.96875L78.33125 111.640625ZM74.59688 111.640625L77.25313 111.640625L77.25313 107.453125L77.1125 107.6875L74.59688 111.640625Z" fill-rule="nonzero"/><path fill="#757575" d="M34.878124 150.19495L39.76875 150.19495L39.76875 151.11682L33.55 151.11682L33.55 150.27307L38.2375 143.50745L33.628124 143.50745L33.628124 142.58557L39.58125 142.58557L39.58125 143.4137L34.878124 150.19495ZM43.503124 151.24182Q42.20625 151.24182 41.39375 150.39807Q40.596874 149.5387 40.596874 148.11682L40.596874 147.92932Q40.596874 146.9762 40.95625 146.24182Q41.315624 145.49182 41.95625 145.08557Q42.6125 144.6637 43.3625 144.6637Q44.596874 144.6637 45.284374 145.4762Q45.971874 146.2887 45.971874 147.80432L45.971874 148.25745L41.675 148.25745Q41.70625 149.19495 42.221874 149.77307Q42.753124 150.3512 43.565624 150.3512Q44.128124 150.3512 44.51875 150.11682Q44.925 149.88245 45.2375 149.49182L45.89375 150.00745Q45.096874 151.24182 43.503124 151.24182ZM43.3625 145.55432Q42.70625 145.55432 42.253124 146.0387Q41.815624 146.50745 41.721874 147.36682L44.89375 147.36682L44.89375 147.2887Q44.846874 146.46057 44.440624 146.00745Q44.05 145.55432 43.3625 145.55432ZM47.89375 144.77307L47.925 145.56995Q48.659374 144.6637 49.83125 144.6637Q51.846874 144.6637 51.8625 146.92932L51.8625 151.11682L50.76875 151.11682L50.76875 146.9137Q50.76875 146.24182 50.45625 145.9137Q50.159374 145.58557 49.503124 145.58557Q48.971874 145.58557 48.565624 145.86682Q48.175 146.14807 47.95625 146.6012L47.95625 151.11682L46.878124 151.11682L46.878124 144.77307L47.89375 144.77307ZM53.6125 147.89807Q53.6125 146.42932 54.3 145.55432Q54.9875 144.6637 56.1125 144.6637Q57.221874 144.6637 57.878124 145.4137L57.878124 142.11682L58.95625 142.11682L58.95625 151.11682L57.95625 151.11682L57.909374 150.42932Q57.253124 151.24182 56.096874 151.24182Q55.003124 151.24182 54.3 150.33557Q53.6125 149.42932 53.6125 147.9762L53.6125 147.89807ZM54.690624 148.02307Q54.690624 149.1012 55.128124 149.71057Q55.58125 150.31995 56.3625 150.31995Q57.39375 150.31995 57.878124 149.38245L57.878124 146.4762Q57.39375 145.58557 56.378124 145.58557Q55.58125 145.58557 55.128124 146.19495Q54.690624 146.80432 54.690624 148.02307ZM65.33125 146.31995L66.14375 146.31995Q66.925 146.30432 67.3625 145.9137Q67.8 145.52307 67.8 144.8512Q67.8 143.3512 66.3 143.3512Q65.59688 143.3512 65.175 143.75745Q64.76875 144.1637 64.76875 144.81995L63.675 144.81995Q63.675 143.80432 64.40938 143.13245Q65.15938 142.46057 66.3 142.46057Q67.50313 142.46057 68.19063 143.1012Q68.87813 143.74182 68.87813 144.88245Q68.87813 145.44495 68.51875 145.96057Q68.15938 146.4762 67.53438 146.74182Q68.2375 146.96057 68.6125 147.4762Q69.00313 147.99182 69.00313 148.74182Q69.00313 149.88245 68.25313 150.56995Q67.50313 151.24182 66.3 151.24182Q65.1125 151.24182 64.34688 150.58557Q63.596874 149.92932 63.596874 148.86682L64.69063 148.86682Q64.69063 149.5387 65.12813 149.94495Q65.56563 150.3512 66.31563 150.3512Q67.09688 150.3512 67.50313 149.94495Q67.925 149.52307 67.925 148.75745Q67.925 148.02307 67.47188 147.63245Q67.01875 147.2262 66.14375 147.21057L65.33125 147.21057L65.33125 146.31995ZM70.89375 150.55432Q70.89375 150.27307 71.05 150.08557Q71.22188 149.89807 71.55 149.89807Q71.89375 149.89807 72.06563 150.08557Q72.2375 150.27307 72.2375 150.55432Q72.2375 150.81995 72.06563 151.00745Q71.89375 151.17932 71.55 151.17932Q71.22188 151.17932 71.05 151.00745Q70.89375 150.81995 70.89375 150.55432ZM79.1125 147.4762Q79.1125 149.38245 78.45625 150.31995Q77.81563 151.24182 76.425 151.24182Q75.06563 151.24182 74.40938 150.33557Q73.75313 149.42932 73.72188 147.61682L73.72188 146.17932Q73.72188 144.2887 74.3625 143.38245Q75.01875 142.46057 76.40938 142.46057Q77.78438 142.46057 78.44063 143.3512Q79.09688 144.2262 79.1125 146.06995L79.1125 147.4762ZM78.01875 145.99182Q78.01875 144.61682 77.62813 143.99182Q77.25313 143.3512 76.40938 143.3512Q75.58125 143.3512 75.19063 143.99182Q74.81563 144.61682 74.81563 145.9137L74.81563 147.64807Q74.81563 149.02307 75.20625 149.69495Q75.6125 150.3512 76.425 150.3512Q77.22188 150.3512 77.6125 149.7262Q78.00313 149.1012 78.01875 147.77307L78.01875 145.99182Z" fill-rule="nonzero"/><path fill="#757575" d="M23.175 186.81177L27.221874 186.81177L27.221874 187.73364L22.034374 187.73364L22.034374 179.2024L23.175 179.2024L23.175 186.81177ZM31.784374 187.73364Q31.690624 187.54614 31.628124 187.06177Q30.878124 187.85864 29.83125 187.85864Q28.89375 187.85864 28.284374 187.3274Q27.690624 186.79614 27.690624 185.96802Q27.690624 184.98364 28.440624 184.43677Q29.190624 183.8899 30.565624 183.8899L31.6125 183.8899L31.6125 183.3899Q31.6125 182.8274 31.26875 182.49927Q30.940624 182.15552 30.26875 182.15552Q29.690624 182.15552 29.3 182.4524Q28.909374 182.73364 28.909374 183.15552L27.815624 183.15552Q27.815624 182.67114 28.14375 182.23364Q28.4875 181.79614 29.065624 181.54614Q29.64375 181.28052 30.33125 181.28052Q31.440624 181.28052 32.05 181.8274Q32.675 182.37427 32.70625 183.3274L32.70625 186.24927Q32.70625 187.12427 32.925 187.6399L32.925 187.73364L31.784374 187.73364ZM29.9875 186.90552Q30.503124 186.90552 30.95625 186.6399Q31.409374 186.37427 31.6125 185.9524L31.6125 184.65552L30.76875 184.65552Q28.76875 184.65552 28.76875 185.8274Q28.76875 186.3274 29.1125 186.62427Q29.45625 186.90552 29.9875 186.90552ZM37.940624 182.35864Q37.690624 182.3274 37.409374 182.3274Q36.33125 182.3274 35.95625 183.23364L35.95625 187.73364L34.878124 187.73364L34.878124 181.3899L35.925 181.3899L35.940624 182.12427Q36.471874 181.28052 37.45625 181.28052Q37.76875 181.28052 37.940624 181.35864L37.940624 182.35864ZM42.784374 187.73364Q42.690624 187.54614 42.628124 187.06177Q41.878124 187.85864 40.83125 187.85864Q39.89375 187.85864 39.284374 187.3274Q38.690624 186.79614 38.690624 185.96802Q38.690624 184.98364 39.440624 184.43677Q40.190624 183.8899 41.565624 183.8899L42.6125 183.8899L42.6125 183.3899Q42.6125 182.8274 42.26875 182.49927Q41.940624 182.15552 41.26875 182.15552Q40.690624 182.15552 40.3 182.4524Q39.909374 182.73364 39.909374 183.15552L38.815624 183.15552Q38.815624 182.67114 39.14375 182.23364Q39.4875 181.79614 40.065624 181.54614Q40.64375 181.28052 41.33125 181.28052Q42.440624 181.28052 43.05 181.8274Q43.675 182.37427 43.70625 183.3274L43.70625 186.24927Q43.70625 187.12427 43.925 187.6399L43.925 187.73364L42.784374 187.73364ZM40.9875 186.90552Q41.503124 186.90552 41.95625 186.6399Q42.409374 186.37427 42.6125 185.9524L42.6125 184.65552L41.76875 184.65552Q39.76875 184.65552 39.76875 185.8274Q39.76875 186.3274 40.1125 186.62427Q40.45625 186.90552 40.9875 186.90552ZM47.95625 186.2649L49.534374 181.3899L50.64375 181.3899L48.3625 187.73364L47.534374 187.73364L45.2375 181.3899L46.346874 181.3899L47.95625 186.2649ZM54.503124 187.85864Q53.20625 187.85864 52.39375 187.0149Q51.596874 186.15552 51.596874 184.73364L51.596874 184.54614Q51.596874 183.59302 51.95625 182.85864Q52.315624 182.10864 52.95625 181.7024Q53.6125 181.28052 54.3625 181.28052Q55.596874 181.28052 56.284374 182.09302Q56.971874 182.90552 56.971874 184.42114L56.971874 184.87427L52.675 184.87427Q52.70625 185.81177 53.221874 186.3899Q53.753124 186.96802 54.565624 186.96802Q55.128124 186.96802 55.51875 186.73364Q55.925 186.49927 56.2375 186.10864L56.89375 186.62427Q56.096874 187.85864 54.503124 187.85864ZM54.3625 182.17114Q53.70625 182.17114 53.253124 182.65552Q52.815624 183.12427 52.721874 183.98364L55.89375 183.98364L55.89375 183.90552Q55.846874 183.0774 55.440624 182.62427Q55.05 182.17114 54.3625 182.17114ZM59.05 187.73364L57.971874 187.73364L57.971874 178.73364L59.05 178.73364L59.05 187.73364ZM64.25313 183.4524L64.69063 179.2024L69.06563 179.2024L69.06563 180.2024L65.6125 180.2024L65.34688 182.53052Q65.9875 182.15552 66.78438 182.15552Q67.94063 182.15552 68.62813 182.93677Q69.31563 183.7024 69.31563 185.0149Q69.31563 186.3274 68.59688 187.09302Q67.89375 187.85864 66.6125 187.85864Q65.4875 187.85864 64.76875 187.23364Q64.05 186.59302 63.95625 185.48364L64.97188 185.48364Q65.08125 186.21802 65.50313 186.59302Q65.925 186.96802 66.6125 186.96802Q67.3625 186.96802 67.8 186.4524Q68.2375 185.93677 68.2375 185.03052Q68.2375 184.17114 67.76875 183.65552Q67.3 183.1399 66.51875 183.1399Q65.81563 183.1399 65.40938 183.43677L65.12813 183.67114L64.25313 183.4524ZM70.89375 187.17114Q70.89375 186.8899 71.05 186.7024Q71.22188 186.5149 71.55 186.5149Q71.89375 186.5149 72.06563 186.7024Q72.2375 186.8899 72.2375 187.17114Q72.2375 187.43677 72.06563 187.62427Q71.89375 187.79614 71.55 187.79614Q71.22188 187.79614 71.05 187.62427Q70.89375 187.43677 70.89375 187.17114ZM79.26875 179.81177L75.7375 187.73364L74.59688 187.73364L78.1125 180.09302L73.50313 180.09302L73.50313 179.2024L79.26875 179.2024L79.26875 179.81177Z" fill-rule="nonzero"/><path fill="#757575" d="M79.6125 222.30937Q79.6125 224.21562 78.95625 225.15312Q78.31563 226.075 76.925 226.075Q75.56563 226.075 74.90938 225.16875Q74.25313 224.2625 74.22188 222.45L74.22188 221.0125Q74.22188 219.12187 74.8625 218.21562Q75.51875 217.29375 76.90938 217.29375Q78.28438 217.29375 78.94063 218.18437Q79.59688 219.05937 79.6125 220.90312L79.6125 222.30937ZM78.51875 220.825Q78.51875 219.45 78.12813 218.825Q77.75313 218.18437 76.90938 218.18437Q76.08125 218.18437 75.69063 218.825Q75.31563 219.45 75.31563 220.74687L75.31563 222.48125Q75.31563 223.85625 75.70625 224.52812Q76.1125 225.18437 76.925 225.18437Q77.72188 225.18437 78.1125 224.55937Q78.50313 223.93437 78.51875 222.60625L78.51875 220.825ZM86.70625 221.98125L85.65938 223.05937L85.65938 225.95L84.53438 225.95L84.53438 217.41875L85.65938 217.41875L85.65938 221.6375L89.45625 217.41875L90.81563 217.41875L87.45625 221.18437L91.08125 225.95L89.7375 225.95L86.70625 221.98125ZM92.53438 225.95L92.53438 217.41875L95.33125 217.41875Q96.72188 217.41875 97.40938 217.99687Q98.1125 218.55937 98.1125 219.68437Q98.1125 220.29375 97.76875 220.7625Q97.44063 221.21562 96.84688 221.46562Q97.55 221.65312 97.94063 222.2Q98.34688 222.73125 98.34688 223.48125Q98.34688 224.6375 97.59688 225.29375Q96.8625 225.95 95.50313 225.95L92.53438 225.95ZM93.65938 221.96562L93.65938 225.02812L95.51875 225.02812Q96.31563 225.02812 96.76875 224.62187Q97.22188 224.21562 97.22188 223.49687Q97.22188 221.96562 95.53438 221.96562L93.65938 221.96562ZM93.65938 221.05937L95.3625 221.05937Q96.09688 221.05937 96.53438 220.7Q96.9875 220.325 96.9875 219.68437Q96.9875 218.98125 96.58125 218.66875Q96.175 218.34062 95.33125 218.34062L93.65938 218.34062L93.65938 221.05937Z" fill-rule="nonzero"/><path fill="#757575" d="M171.79062 225.95L170.7125 225.95L170.7125 218.73125L168.525 219.52812L168.525 218.54375L171.63437 217.37187L171.79062 217.37187L171.79062 225.95ZM180.5875 222.30937Q180.5875 224.21562 179.93124 225.15312Q179.29062 226.075 177.9 226.075Q176.54062 226.075 175.88437 225.16875Q175.22812 224.2625 175.19687 222.45L175.19687 221.0125Q175.19687 219.12187 175.8375 218.21562Q176.49374 217.29375 177.88437 217.29375Q179.25937 217.29375 179.91562 218.18437Q180.57187 219.05937 180.5875 220.90312L180.5875 222.30937ZM179.49374 220.825Q179.49374 219.45 179.10312 218.825Q178.72812 218.18437 177.88437 218.18437Q177.05624 218.18437 176.66562 218.825Q176.29062 219.45 176.29062 220.74687L176.29062 222.48125Q176.29062 223.85625 176.68124 224.52812Q177.0875 225.18437 177.9 225.18437Q178.69687 225.18437 179.0875 224.55937Q179.47812 223.93437 179.49374 222.60625L179.49374 220.825ZM187.5875 222.30937Q187.5875 224.21562 186.93124 225.15312Q186.29062 226.075 184.9 226.075Q183.54062 226.075 182.88437 225.16875Q182.22812 224.2625 182.19687 222.45L182.19687 221.0125Q182.19687 219.12187 182.8375 218.21562Q183.49374 217.29375 184.88437 217.29375Q186.25937 217.29375 186.91562 218.18437Q187.57187 219.05937 187.5875 220.90312L187.5875 222.30937ZM186.49374 220.825Q186.49374 219.45 186.10312 218.825Q185.72812 218.18437 184.88437 218.18437Q184.05624 218.18437 183.66562 218.825Q183.29062 219.45 183.29062 220.74687L183.29062 222.48125Q183.29062 223.85625 183.68124 224.52812Q184.0875 225.18437 184.9 225.18437Q185.69687 225.18437 186.0875 224.55937Q186.47812 223.93437 186.49374 222.60625L186.49374 220.825ZM194.5875 222.30937Q194.5875 224.21562 193.93124 225.15312Q193.29062 226.075 191.9 226.075Q190.54062 226.075 189.88437 225.16875Q189.22812 224.2625 189.19687 222.45L189.19687 221.0125Q189.19687 219.12187 189.8375 218.21562Q190.49374 217.29375 191.88437 217.29375Q193.25937 217.29375 193.91562 218.18437Q194.57187 219.05937 194.5875 220.90312L194.5875 222.30937ZM193.49374 220.825Q193.49374 219.45 193.10312 218.825Q192.72812 218.18437 191.88437 218.18437Q191.05624 218.18437 190.66562 218.825Q190.29062 219.45 190.29062 220.74687L190.29062 222.48125Q190.29062 223.85625 190.68124 224.52812Q191.0875 225.18437 191.9 225.18437Q192.69687 225.18437 193.0875 224.55937Q193.47812 223.93437 193.49374 222.60625L193.49374 220.825ZM201.68124 221.98125L200.63437 223.05937L200.63437 225.95L199.50937 225.95L199.50937 217.41875L200.63437 217.41875L200.63437 221.6375L204.43124 217.41875L205.79062 217.41875L202.43124 221.18437L206.05624 225.95L204.7125 225.95L201.68124 221.98125ZM207.50937 225.95L207.50937 217.41875L210.30624 217.41875Q211.69687 217.41875 212.38437 217.99687Q213.0875 218.55937 213.0875 219.68437Q213.0875 220.29375 212.74374 220.7625Q212.41562 221.21562 211.82187 221.46562Q212.525 221.65312 212.91562 222.2Q213.32187 222.73125 213.32187 223.48125Q213.32187 224.6375 212.57187 225.29375Q211.8375 225.95 210.47812 225.95L207.50937 225.95ZM208.63437 221.96562L208.63437 225.02812L210.49374 225.02812Q211.29062 225.02812 211.74374 224.62187Q212.19687 224.21562 212.19687 223.49687Q212.19687 221.96562 210.50937 221.96562L208.63437 221.96562ZM208.63437 221.05937L210.3375 221.05937Q211.07187 221.05937 211.50937 220.7Q211.9625 220.325 211.9625 219.68437Q211.9625 218.98125 211.55624 218.66875Q211.15 218.34062 210.30624 218.34062L208.63437 218.34062L208.63437 221.05937Z" fill-rule="nonzero"/><path fill="#757575" d="M278.29688 225.95L272.70312 225.95L272.70312 225.16875L275.65625 221.8875Q276.3125 221.1375 276.5625 220.68437Q276.8125 220.21562 276.8125 219.71562Q276.8125 219.04375 276.40625 218.62187Q276.01562 218.18437 275.32812 218.18437Q274.53125 218.18437 274.07812 218.65312Q273.625 219.10625 273.625 219.93437L272.54688 219.93437Q272.54688 218.74687 273.29688 218.02812Q274.0625 217.29375 275.32812 217.29375Q276.53125 217.29375 277.21875 217.91875Q277.90625 218.54375 277.90625 219.59062Q277.90625 220.84062 276.29688 222.59062L274.01562 225.05937L278.29688 225.05937L278.29688 225.95ZM285.0625 222.30937Q285.0625 224.21562 284.40625 225.15312Q283.76562 226.075 282.375 226.075Q281.01562 226.075 280.35938 225.16875Q279.70312 224.2625 279.67188 222.45L279.67188 221.0125Q279.67188 219.12187 280.3125 218.21562Q280.96875 217.29375 282.35938 217.29375Q283.73438 217.29375 284.39062 218.18437Q285.04688 219.05937 285.0625 220.90312L285.0625 222.30937ZM283.96875 220.825Q283.96875 219.45 283.57812 218.825Q283.20312 218.18437 282.35938 218.18437Q281.53125 218.18437 281.14062 218.825Q280.76562 219.45 280.76562 220.74687L280.76562 222.48125Q280.76562 223.85625 281.15625 224.52812Q281.5625 225.18437 282.375 225.18437Q283.17188 225.18437 283.5625 224.55937Q283.95312 223.93437 283.96875 222.60625L283.96875 220.825ZM292.0625 222.30937Q292.0625 224.21562 291.40625 225.15312Q290.76562 226.075 289.375 226.075Q288.01562 226.075 287.35938 225.16875Q286.70312 224.2625 286.67188 222.45L286.67188 221.0125Q286.67188 219.12187 287.3125 218.21562Q287.96875 217.29375 289.35938 217.29375Q290.73438 217.29375 291.39062 218.18437Q292.04688 219.05937 292.0625 220.90312L292.0625 222.30937ZM290.96875 220.825Q290.96875 219.45 290.57812 218.825Q290.20312 218.18437 289.35938 218.18437Q288.53125 218.18437 288.14062 218.825Q287.76562 219.45 287.76562 220.74687L287.76562 222.48125Q287.76562 223.85625 288.15625 224.52812Q288.5625 225.18437 289.375 225.18437Q290.17188 225.18437 290.5625 224.55937Q290.95312 223.93437 290.96875 222.60625L290.96875 220.825ZM299.0625 222.30937Q299.0625 224.21562 298.40625 225.15312Q297.76562 226.075 296.375 226.075Q295.01562 226.075 294.35938 225.16875Q293.70312 224.2625 293.67188 222.45L293.67188 221.0125Q293.67188 219.12187 294.3125 218.21562Q294.96875 217.29375 296.35938 217.29375Q297.73438 217.29375 298.39062 218.18437Q299.04688 219.05937 299.0625 220.90312L299.0625 222.30937ZM297.96875 220.825Q297.96875 219.45 297.57812 218.825Q297.20312 218.18437 296.35938 218.18437Q295.53125 218.18437 295.14062 218.825Q294.76562 219.45 294.76562 220.74687L294.76562 222.48125Q294.76562 223.85625 295.15625 224.52812Q295.5625 225.18437 296.375 225.18437Q297.17188 225.18437 297.5625 224.55937Q297.95312 223.93437 297.96875 222.60625L297.96875 220.825ZM306.15625 221.98125L305.10938 223.05937L305.10938 225.95L303.98438 225.95L303.98438 217.41875L305.10938 217.41875L305.10938 221.6375L308.90625 217.41875L310.26562 217.41875L306.90625 221.18437L310.53125 225.95L309.1875 225.95L306.15625 221.98125ZM311.98438 225.95L311.98438 217.41875L314.78125 217.41875Q316.17188 217.41875 316.85938 217.99687Q317.5625 218.55937 317.5625 219.68437Q317.5625 220.29375 317.21875 220.7625Q316.89062 221.21562 316.29688 221.46562Q317.0 221.65312 317.39062 222.2Q317.79688 222.73125 317.79688 223.48125Q317.79688 224.6375 317.04688 225.29375Q316.3125 225.95 314.95312 225.95L311.98438 225.95ZM313.10938 221.96562L313.10938 225.02812L314.96875 225.02812Q315.76562 225.02812 316.21875 224.62187Q316.67188 224.21562 316.67188 223.49687Q316.67188 221.96562 314.98438 221.96562L313.10938 221.96562ZM313.10938 221.05937L314.8125 221.05937Q315.54688 221.05937 315.98438 220.7Q316.4375 220.325 316.4375 219.68437Q316.4375 218.98125 316.03125 218.66875Q315.625 218.34062 314.78125 218.34062L313.10938 218.34062L313.10938 221.05937Z" fill-rule="nonzero"/><path fill="#757575" d="M378.75626 221.15312L379.56876 221.15312Q380.35 221.1375 380.7875 220.74687Q381.225 220.35625 381.225 219.68437Q381.225 218.18437 379.725 218.18437Q379.02188 218.18437 378.6 218.59062Q378.19376 218.99687 378.19376 219.65312L377.1 219.65312Q377.1 218.6375 377.83438 217.96562Q378.58438 217.29375 379.725 217.29375Q380.92813 217.29375 381.61563 217.93437Q382.30313 218.575 382.30313 219.71562Q382.30313 220.27812 381.94376 220.79375Q381.58438 221.30937 380.95938 221.575Q381.6625 221.79375 382.0375 222.30937Q382.42813 222.825 382.42813 223.575Q382.42813 224.71562 381.67813 225.40312Q380.92813 226.075 379.725 226.075Q378.5375 226.075 377.77188 225.41875Q377.02188 224.7625 377.02188 223.7L378.11563 223.7Q378.11563 224.37187 378.55313 224.77812Q378.99063 225.18437 379.74063 225.18437Q380.52188 225.18437 380.92813 224.77812Q381.35 224.35625 381.35 223.59062Q381.35 222.85625 380.89688 222.46562Q380.44376 222.05937 379.56876 222.04375L378.75626 222.04375L378.75626 221.15312ZM389.5375 222.30937Q389.5375 224.21562 388.88126 225.15312Q388.24063 226.075 386.85 226.075Q385.49063 226.075 384.83438 225.16875Q384.17813 224.2625 384.14688 222.45L384.14688 221.0125Q384.14688 219.12187 384.7875 218.21562Q385.44376 217.29375 386.83438 217.29375Q388.20938 217.29375 388.86563 218.18437Q389.52188 219.05937 389.5375 220.90312L389.5375 222.30937ZM388.44376 220.825Q388.44376 219.45 388.05313 218.825Q387.67813 218.18437 386.83438 218.18437Q386.00626 218.18437 385.61563 218.825Q385.24063 219.45 385.24063 220.74687L385.24063 222.48125Q385.24063 223.85625 385.63126 224.52812Q386.0375 225.18437 386.85 225.18437Q387.64688 225.18437 388.0375 224.55937Q388.42813 223.93437 388.44376 222.60625L388.44376 220.825ZM396.5375 222.30937Q396.5375 224.21562 395.88126 225.15312Q395.24063 226.075 393.85 226.075Q392.49063 226.075 391.83438 225.16875Q391.17813 224.2625 391.14688 222.45L391.14688 221.0125Q391.14688 219.12187 391.7875 218.21562Q392.44376 217.29375 393.83438 217.29375Q395.20938 217.29375 395.86563 218.18437Q396.52188 219.05937 396.5375 220.90312L396.5375 222.30937ZM395.44376 220.825Q395.44376 219.45 395.05313 218.825Q394.67813 218.18437 393.83438 218.18437Q393.00626 218.18437 392.61563 218.825Q392.24063 219.45 392.24063 220.74687L392.24063 222.48125Q392.24063 223.85625 392.63126 224.52812Q393.0375 225.18437 393.85 225.18437Q394.64688 225.18437 395.0375 224.55937Q395.42813 223.93437 395.44376 222.60625L395.44376 220.825ZM403.5375 222.30937Q403.5375 224.21562 402.88126 225.15312Q402.24063 226.075 400.85 226.075Q399.49063 226.075 398.83438 225.16875Q398.17813 224.2625 398.14688 222.45L398.14688 221.0125Q398.14688 219.12187 398.7875 218.21562Q399.44376 217.29375 400.83438 217.29375Q402.20938 217.29375 402.86563 218.18437Q403.52188 219.05937 403.5375 220.90312L403.5375 222.30937ZM402.44376 220.825Q402.44376 219.45 402.05313 218.825Q401.67813 218.18437 400.83438 218.18437Q400.00626 218.18437 399.61563 218.825Q399.24063 219.45 399.24063 220.74687L399.24063 222.48125Q399.24063 223.85625 399.63126 224.52812Q400.0375 225.18437 400.85 225.18437Q401.64688 225.18437 402.0375 224.55937Q402.42813 223.93437 402.44376 222.60625L402.44376 220.825ZM410.63126 221.98125L409.58438 223.05937L409.58438 225.95L408.45938 225.95L408.45938 217.41875L409.58438 217.41875L409.58438 221.6375L413.38126 217.41875L414.74063 217.41875L411.38126 221.18437L415.00626 225.95L413.6625 225.95L410.63126 221.98125ZM416.45938 225.95L416.45938 217.41875L419.25626 217.41875Q420.64688 217.41875 421.33438 217.99687Q422.0375 218.55937 422.0375 219.68437Q422.0375 220.29375 421.69376 220.7625Q421.36563 221.21562 420.77188 221.46562Q421.475 221.65312 421.86563 222.2Q422.27188 222.73125 422.27188 223.48125Q422.27188 224.6375 421.52188 225.29375Q420.7875 225.95 419.42813 225.95L416.45938 225.95ZM417.58438 221.96562L417.58438 225.02812L419.44376 225.02812Q420.24063 225.02812 420.69376 224.62187Q421.14688 224.21562 421.14688 223.49687Q421.14688 221.96562 419.45938 221.96562L417.58438 221.96562ZM417.58438 221.05937L419.2875 221.05937Q420.02188 221.05937 420.45938 220.7Q420.9125 220.325 420.9125 219.68437Q420.9125 218.98125 420.50626 218.66875Q420.1 218.34062 419.25626 218.34062L417.58438 218.34062L417.58438 221.05937Z" fill-rule="nonzero"/></svg>