<svg version="1.1" viewBox="0.0 0.0 516.0 212.0" fill="none" stroke="none" stroke-linecap="square" stroke-miterlimit="10" width="516" height="212" xmlns:xlink="http://www.w3.org/1999/xlink" xmlns="http://www.w3.org/2000/svg"><path fill="#ffffff" d="M0 0L516.0 0L516.0 212.0L0 212.0L0 0Z" fill-rule="nonzero"/><path fill="#ffffff" d="M0 0L516.0 0L516.0 212.0L0 212.0L0 0Z" fill-rule="nonzero"/><path stroke="#333333" stroke-width="1.0" stroke-linecap="butt" d="M84.5 10.5L84.5 180.5" fill-rule="nonzero"/><path stroke="#cccccc" stroke-width="1.0" stroke-linecap="butt" d="M189.5 10.5L189.5 180.5" fill-rule="nonzero"/><path stroke="#cccccc" stroke-width="1.0" stroke-linecap="butt" d="M295.5 10.5L295.5 180.5" fill-rule="nonzero"/><path stroke="#cccccc" stroke-width="1.0" stroke-linecap="butt" d="M400.5 10.5L400.5 180.5" fill-rule="nonzero"/><clipPath id="id_0"><path d="M84.6 10.6L505.4 10.6L505.4 180.4L84.6 180.4L84.6 10.6Z" clip-rule="nonzero"/></clipPath><path stroke="#000000" stroke-width="0.0" stroke-linecap="butt" stroke-opacity="0.0" clip-path="url(#id_0)" d="M85.0 43.0L85.0 22.0L168.0 22.0C169.10457 22.0 170.0 22.89543 170.0 24.0L170.0 41.0C170.0 42.10457 169.10457 43.0 168.0 43.0Z" fill-rule="nonzero"/><path fill="#eaeae0" clip-path="url(#id_0)" d="M85.0 43.0L85.0 22.0L168.0 22.0C169.10457 22.0 170.0 22.89543 170.0 24.0L170.0 41.0C170.0 42.10457 169.10457 43.0 168.0 43.0Z" fill-rule="nonzero"/><path stroke="#000000" stroke-width="0.0" stroke-linecap="butt" stroke-opacity="0.0" clip-path="url(#id_0)" d="M85.0 75.0L85.0 54.0L209.0 54.0C210.10457 54.0 211.0 54.89543 211.0 56.0L211.0 73.0C211.0 74.10457 210.10457 75.0 209.0 75.0Z" fill-rule="nonzero"/><path fill="#eaeae0" clip-path="url(#id_0)" d="M85.0 75.0L85.0 54.0L209.0 54.0C210.10457 54.0 211.0 54.89543 211.0 56.0L211.0 73.0C211.0 74.10457 210.10457 75.0 209.0 75.0Z" fill-rule="nonzero"/><path stroke="#000000" stroke-width="0.0" stroke-linecap="butt" stroke-opacity="0.0" clip-path="url(#id_0)" d="M85.0 107.0L85.0 86.0L261.0 86.0C262.10458 86.0 263.0 86.89543 263.0 88.0L263.0 105.0C263.0 106.10457 262.10458 107.0 261.0 107.0Z" fill-rule="nonzero"/><path fill="#eaeae0" clip-path="url(#id_0)" d="M85.0 107.0L85.0 86.0L261.0 86.0C262.10458 86.0 263.0 86.89543 263.0 88.0L263.0 105.0C263.0 106.10457 262.10458 107.0 261.0 107.0Z" fill-rule="nonzero"/><path stroke="#000000" stroke-width="0.0" stroke-linecap="butt" stroke-opacity="0.0" clip-path="url(#id_0)" d="M85.0 138.0L85.0 117.0L282.0 117.0C283.10458 117.0 284.0 117.89543 284.0 119.0L284.0 136.0C284.0 137.10457 283.10458 138.0 282.0 138.0Z" fill-rule="nonzero"/><path fill="#eaeae0" clip-path="url(#id_0)" d="M85.0 138.0L85.0 117.0L282.0 117.0C283.10458 117.0 284.0 117.89543 284.0 119.0L284.0 136.0C284.0 137.10457 283.10458 138.0 282.0 138.0Z" fill-rule="nonzero"/><path stroke="#000000" stroke-width="0.0" stroke-linecap="butt" stroke-opacity="0.0" clip-path="url(#id_0)" d="M85.0 170.0L85.0 149.0L503.0 149.0C504.10458 149.0 505.0 149.89543 505.0 151.0L505.0 168.0C505.0 169.10457 504.10458 170.0 503.0 170.0Z" fill-rule="nonzero"/><path fill="#eaeae0" clip-path="url(#id_0)" d="M85.0 170.0L85.0 149.0L503.0 149.0C504.10458 149.0 505.0 149.89543 505.0 151.0L505.0 168.0C505.0 169.10457 504.10458 170.0 503.0 170.0Z" fill-rule="nonzero"/><path stroke="#eaeae0" stroke-width="3.0" stroke-linejoin="round" stroke-linecap="round" d="M150.00783 30.1875Q150.00783 30.828125 149.66408 31.328125Q149.32033 31.828125 148.75783 32.109375Q149.41408 32.390625 149.8047 32.953125Q150.19533 33.5 150.19533 34.203125Q150.19533 35.296875 149.44533 35.96875Q148.71095 36.625 147.4922 36.625Q146.25783 36.625 145.50783 35.96875Q144.77345 35.296875 144.77345 34.203125Q144.77345 33.5 145.14845 32.953125Q145.52345 32.390625 146.19533 32.109375Q145.63283 31.828125 145.3047 31.328125Q144.97658 30.828125 144.97658 30.1875Q144.97658 29.109375 145.66408 28.484375Q146.35158 27.84375 147.4922 27.84375Q148.6172 27.84375 149.3047 28.484375Q150.00783 29.109375 150.00783 30.1875ZM149.1172 34.171875Q149.1172 33.453125 148.66408 33.015625Q148.21095 32.5625 147.47658 32.5625Q146.7422 32.5625 146.28908 33.015625Q145.85158 33.453125 145.85158 34.1875Q145.85158 34.90625 146.28908 35.328125Q146.72658 35.734375 147.4922 35.734375Q148.2422 35.734375 148.6797 35.3125Q149.1172 34.890625 149.1172 34.171875ZM147.4922 28.734375Q146.85158 28.734375 146.44533 29.140625Q146.0547 29.53125 146.0547 30.21875Q146.0547 30.859375 146.44533 31.265625Q146.83595 31.671875 147.47658 31.671875Q148.13283 31.671875 148.52345 31.265625Q148.91408 30.859375 148.91408 30.21875Q148.91408 29.5625 148.50783 29.15625Q148.10158 28.734375 147.4922 28.734375ZM155.38283 36.5L154.3047 36.5L154.3047 29.28125L152.1172 30.078125L152.1172 29.09375L155.22658 27.921875L155.38283 27.921875L155.38283 36.5ZM162.38283 36.5L161.3047 36.5L161.3047 29.28125L159.1172 30.078125L159.1172 29.09375L162.22658 27.921875L162.38283 27.921875L162.38283 36.5Z" fill-rule="nonzero"/><path fill="#000000" d="M150.00783 30.1875Q150.00783 30.828125 149.66408 31.328125Q149.32033 31.828125 148.75783 32.109375Q149.41408 32.390625 149.8047 32.953125Q150.19533 33.5 150.19533 34.203125Q150.19533 35.296875 149.44533 35.96875Q148.71095 36.625 147.4922 36.625Q146.25783 36.625 145.50783 35.96875Q144.77345 35.296875 144.77345 34.203125Q144.77345 33.5 145.14845 32.953125Q145.52345 32.390625 146.19533 32.109375Q145.63283 31.828125 145.3047 31.328125Q144.97658 30.828125 144.97658 30.1875Q144.97658 29.109375 145.66408 28.484375Q146.35158 27.84375 147.4922 27.84375Q148.6172 27.84375 149.3047 28.484375Q150.00783 29.109375 150.00783 30.1875ZM149.1172 34.171875Q149.1172 33.453125 148.66408 33.015625Q148.21095 32.5625 147.47658 32.5625Q146.7422 32.5625 146.28908 33.015625Q145.85158 33.453125 145.85158 34.1875Q145.85158 34.90625 146.28908 35.328125Q146.72658 35.734375 147.4922 35.734375Q148.2422 35.734375 148.6797 35.3125Q149.1172 34.890625 149.1172 34.171875ZM147.4922 28.734375Q146.85158 28.734375 146.44533 29.140625Q146.0547 29.53125 146.0547 30.21875Q146.0547 30.859375 146.44533 31.265625Q146.83595 31.671875 147.47658 31.671875Q148.13283 31.671875 148.52345 31.265625Q148.91408 30.859375 148.91408 30.21875Q148.91408 29.5625 148.50783 29.15625Q148.10158 28.734375 147.4922 28.734375ZM155.38283 36.5L154.3047 36.5L154.3047 29.28125L152.1172 30.078125L152.1172 29.09375L155.22658 27.921875L155.38283 27.921875L155.38283 36.5ZM162.38283 36.5L161.3047 36.5L161.3047 29.28125L159.1172 30.078125L159.1172 29.09375L162.22658 27.921875L162.38283 27.921875L162.38283 36.5Z" fill-rule="nonzero"/><path stroke="#eaeae0" stroke-width="3.0" stroke-linejoin="round" stroke-linecap="round" d="M182.30562 68.5L181.2275 68.5L181.2275 61.28125L179.04 62.078125L179.04 61.09375L182.14937 59.921875L182.30562 59.921875L182.30562 68.5ZM191.33687 68.5L185.74312 68.5L185.74312 67.71875L188.69624 64.4375Q189.3525 63.6875 189.6025 63.234375Q189.8525 62.765625 189.8525 62.265625Q189.8525 61.59375 189.44624 61.171875Q189.05562 60.734375 188.36812 60.734375Q187.57124 60.734375 187.11812 61.203125Q186.665 61.65625 186.665 62.484375L185.58687 62.484375Q185.58687 61.296875 186.33687 60.578125Q187.1025 59.84375 188.36812 59.84375Q189.57124 59.84375 190.25874 60.46875Q190.94624 61.09375 190.94624 62.140625Q190.94624 63.390625 189.33687 65.140625L187.05562 67.609375L191.33687 67.609375L191.33687 68.5ZM198.1025 64.859375Q198.1025 66.765625 197.44624 67.703125Q196.80562 68.625 195.415 68.625Q194.05562 68.625 193.39937 67.71875Q192.74312 66.8125 192.71187 65.0L192.71187 63.5625Q192.71187 61.671875 193.3525 60.765625Q194.00874 59.84375 195.39937 59.84375Q196.77437 59.84375 197.43062 60.734375Q198.08687 61.609375 198.1025 63.453125L198.1025 64.859375ZM197.00874 63.375Q197.00874 62.0 196.61812 61.375Q196.24312 60.734375 195.39937 60.734375Q194.57124 60.734375 194.18062 61.375Q193.80562 62.0 193.80562 63.296875L193.80562 65.03125Q193.80562 66.40625 194.19624 67.078125Q194.6025 67.734375 195.415 67.734375Q196.21187 67.734375 196.6025 67.109375Q196.99312 66.484375 197.00874 65.15625L197.00874 63.375ZM205.1025 64.859375Q205.1025 66.765625 204.44624 67.703125Q203.80562 68.625 202.415 68.625Q201.05562 68.625 200.39937 67.71875Q199.74312 66.8125 199.71187 65.0L199.71187 63.5625Q199.71187 61.671875 200.3525 60.765625Q201.00874 59.84375 202.39937 59.84375Q203.77437 59.84375 204.43062 60.734375Q205.08687 61.609375 205.1025 63.453125L205.1025 64.859375ZM204.00874 63.375Q204.00874 62.0 203.61812 61.375Q203.24312 60.734375 202.39937 60.734375Q201.57124 60.734375 201.18062 61.375Q200.80562 62.0 200.80562 63.296875L200.80562 65.03125Q200.80562 66.40625 201.19624 67.078125Q201.6025 67.734375 202.415 67.734375Q203.21187 67.734375 203.6025 67.109375Q203.99312 66.484375 204.00874 65.15625L204.00874 63.375Z" fill-rule="nonzero"/><path fill="#000000" d="M182.30562 68.5L181.2275 68.5L181.2275 61.28125L179.04 62.078125L179.04 61.09375L182.14937 59.921875L182.30562 59.921875L182.30562 68.5ZM191.33687 68.5L185.74312 68.5L185.74312 67.71875L188.69624 64.4375Q189.3525 63.6875 189.6025 63.234375Q189.8525 62.765625 189.8525 62.265625Q189.8525 61.59375 189.44624 61.171875Q189.05562 60.734375 188.36812 60.734375Q187.57124 60.734375 187.11812 61.203125Q186.665 61.65625 186.665 62.484375L185.58687 62.484375Q185.58687 61.296875 186.33687 60.578125Q187.1025 59.84375 188.36812 59.84375Q189.57124 59.84375 190.25874 60.46875Q190.94624 61.09375 190.94624 62.140625Q190.94624 63.390625 189.33687 65.140625L187.05562 67.609375L191.33687 67.609375L191.33687 68.5ZM198.1025 64.859375Q198.1025 66.765625 197.44624 67.703125Q196.80562 68.625 195.415 68.625Q194.05562 68.625 193.39937 67.71875Q192.74312 66.8125 192.71187 65.0L192.71187 63.5625Q192.71187 61.671875 193.3525 60.765625Q194.00874 59.84375 195.39937 59.84375Q196.77437 59.84375 197.43062 60.734375Q198.08687 61.609375 198.1025 63.453125L198.1025 64.859375ZM197.00874 63.375Q197.00874 62.0 196.61812 61.375Q196.24312 60.734375 195.39937 60.734375Q194.57124 60.734375 194.18062 61.375Q193.80562 62.0 193.80562 63.296875L193.80562 65.03125Q193.80562 66.40625 194.19624 67.078125Q194.6025 67.734375 195.415 67.734375Q196.21187 67.734375 196.6025 67.109375Q196.99312 66.484375 197.00874 65.15625L197.00874 63.375ZM205.1025 64.859375Q205.1025 66.765625 204.44624 67.703125Q203.80562 68.625 202.415 68.625Q201.05562 68.625 200.39937 67.71875Q199.74312 66.8125 199.71187 65.0L199.71187 63.5625Q199.71187 61.671875 200.3525 60.765625Q201.00874 59.84375 202.39937 59.84375Q203.77437 59.84375 204.43062 60.734375Q205.08687 61.609375 205.1025 63.453125L205.1025 64.859375ZM204.00874 63.375Q204.00874 62.0 203.61812 61.375Q203.24312 60.734375 202.39937 60.734375Q201.57124 60.734375 201.18062 61.375Q200.80562 62.0 200.80562 63.296875L200.80562 65.03125Q200.80562 66.40625 201.19624 67.078125Q201.6025 67.734375 202.415 67.734375Q203.21187 67.734375 203.6025 67.109375Q203.99312 66.484375 204.00874 65.15625L204.00874 63.375Z" fill-rule="nonzero"/><path stroke="#eaeae0" stroke-width="3.0" stroke-linejoin="round" stroke-linecap="round" d="M234.90562 100.5L233.8275 100.5L233.8275 93.28125L231.64 94.078125L231.64 93.09375L234.74937 91.921875L234.90562 91.921875L234.90562 100.5ZM243.85875 92.578125L240.3275 100.5L239.18687 100.5L242.7025 92.859375L238.09312 92.859375L238.09312 91.96875L243.85875 91.96875L243.85875 92.578125ZM250.7025 96.859375Q250.7025 98.765625 250.04625 99.703125Q249.40562 100.625 248.015 100.625Q246.65562 100.625 245.99937 99.71875Q245.34312 98.8125 245.31187 97.0L245.31187 95.5625Q245.31187 93.671875 245.9525 92.765625Q246.60875 91.84375 247.99937 91.84375Q249.37437 91.84375 250.03062 92.734375Q250.68687 93.609375 250.7025 95.453125L250.7025 96.859375ZM249.60875 95.375Q249.60875 94.0 249.21812 93.375Q248.84312 92.734375 247.99937 92.734375Q247.17125 92.734375 246.78062 93.375Q246.40562 94.0 246.40562 95.296875L246.40562 97.03125Q246.40562 98.40625 246.79625 99.078125Q247.2025 99.734375 248.015 99.734375Q248.81187 99.734375 249.2025 99.109375Q249.59312 98.484375 249.60875 97.15625L249.60875 95.375ZM257.7025 96.859375Q257.7025 98.765625 257.04626 99.703125Q256.40564 100.625 255.015 100.625Q253.65562 100.625 252.99937 99.71875Q252.34312 98.8125 252.31187 97.0L252.31187 95.5625Q252.31187 93.671875 252.9525 92.765625Q253.60875 91.84375 254.99937 91.84375Q256.3744 91.84375 257.03064 92.734375Q257.6869 93.609375 257.7025 95.453125L257.7025 96.859375ZM256.60876 95.375Q256.60876 94.0 256.21814 93.375Q255.84312 92.734375 254.99937 92.734375Q254.17125 92.734375 253.78062 93.375Q253.40562 94.0 253.40562 95.296875L253.40562 97.03125Q253.40562 98.40625 253.79625 99.078125Q254.2025 99.734375 255.015 99.734375Q255.81187 99.734375 256.2025 99.109375Q256.59314 98.484375 256.60876 97.15625L256.60876 95.375Z" fill-rule="nonzero"/><path fill="#000000" d="M234.90562 100.5L233.8275 100.5L233.8275 93.28125L231.64 94.078125L231.64 93.09375L234.74937 91.921875L234.90562 91.921875L234.90562 100.5ZM243.85875 92.578125L240.3275 100.5L239.18687 100.5L242.7025 92.859375L238.09312 92.859375L238.09312 91.96875L243.85875 91.96875L243.85875 92.578125ZM250.7025 96.859375Q250.7025 98.765625 250.04625 99.703125Q249.40562 100.625 248.015 100.625Q246.65562 100.625 245.99937 99.71875Q245.34312 98.8125 245.31187 97.0L245.31187 95.5625Q245.31187 93.671875 245.9525 92.765625Q246.60875 91.84375 247.99937 91.84375Q249.37437 91.84375 250.03062 92.734375Q250.68687 93.609375 250.7025 95.453125L250.7025 96.859375ZM249.60875 95.375Q249.60875 94.0 249.21812 93.375Q248.84312 92.734375 247.99937 92.734375Q247.17125 92.734375 246.78062 93.375Q246.40562 94.0 246.40562 95.296875L246.40562 97.03125Q246.40562 98.40625 246.79625 99.078125Q247.2025 99.734375 248.015 99.734375Q248.81187 99.734375 249.2025 99.109375Q249.59312 98.484375 249.60875 97.15625L249.60875 95.375ZM257.7025 96.859375Q257.7025 98.765625 257.04626 99.703125Q256.40564 100.625 255.015 100.625Q253.65562 100.625 252.99937 99.71875Q252.34312 98.8125 252.31187 97.0L252.31187 95.5625Q252.31187 93.671875 252.9525 92.765625Q253.60875 91.84375 254.99937 91.84375Q256.3744 91.84375 257.03064 92.734375Q257.6869 93.609375 257.7025 95.453125L257.7025 96.859375ZM256.60876 95.375Q256.60876 94.0 256.21814 93.375Q255.84312 92.734375 254.99937 92.734375Q254.17125 92.734375 253.78062 93.375Q253.40562 94.0 253.40562 95.296875L253.40562 97.03125Q253.40562 98.40625 253.79625 99.078125Q254.2025 99.734375 255.015 99.734375Q255.81187 99.734375 256.2025 99.109375Q256.59314 98.484375 256.60876 97.15625L256.60876 95.375Z" fill-rule="nonzero"/><path stroke="#eaeae0" stroke-width="3.0" stroke-linejoin="round" stroke-linecap="round" d="M255.94562 131.5L254.8675 131.5L254.8675 124.28125L252.68 125.078125L252.68 124.09375L255.78937 122.921875L255.94562 122.921875L255.94562 131.5ZM263.53937 127.75Q263.21124 128.15625 262.72687 128.40625Q262.25812 128.64062 261.69562 128.64062Q260.96124 128.64062 260.41437 128.28125Q259.8675 127.921875 259.57062 127.265625Q259.27374 126.59375 259.27374 125.796875Q259.27374 124.953125 259.58624 124.265625Q259.91437 123.578125 260.50812 123.21875Q261.1175 122.84375 261.91437 122.84375Q263.18 122.84375 263.89874 123.796875Q264.63312 124.75 264.63312 126.375L264.63312 126.6875Q264.63312 129.1875 263.64874 130.32812Q262.66437 131.46875 260.68 131.5L260.46124 131.5L260.46124 130.59375L260.69562 130.59375Q262.03937 130.5625 262.75812 129.89062Q263.47687 129.21875 263.53937 127.75ZM261.8675 127.75Q262.41437 127.75 262.8675 127.421875Q263.33624 127.078125 263.555 126.59375L263.555 126.15625Q263.555 125.09375 263.08624 124.421875Q262.6175 123.75 261.91437 123.75Q261.19562 123.75 260.75812 124.296875Q260.33624 124.84375 260.33624 125.75Q260.33624 126.625 260.7425 127.1875Q261.16437 127.75 261.8675 127.75ZM271.7425 127.859375Q271.7425 129.76562 271.08624 130.70312Q270.44562 131.625 269.055 131.625Q267.69562 131.625 267.03937 130.71875Q266.38312 129.8125 266.35187 128.0L266.35187 126.5625Q266.35187 124.671875 266.9925 123.765625Q267.64874 122.84375 269.03937 122.84375Q270.41437 122.84375 271.07062 123.734375Q271.72687 124.609375 271.7425 126.453125L271.7425 127.859375ZM270.64874 126.375Q270.64874 125.0 270.25812 124.375Q269.88312 123.734375 269.03937 123.734375Q268.21124 123.734375 267.82062 124.375Q267.44562 125.0 267.44562 126.296875L267.44562 128.03125Q267.44562 129.40625 267.83624 130.07812Q268.2425 130.73438 269.055 130.73438Q269.85187 130.73438 270.2425 130.10938Q270.63312 129.48438 270.64874 128.15625L270.64874 126.375ZM278.7425 127.859375Q278.7425 129.76562 278.08624 130.70312Q277.44562 131.625 276.055 131.625Q274.69562 131.625 274.03937 130.71875Q273.38312 129.8125 273.35187 128.0L273.35187 126.5625Q273.35187 124.671875 273.9925 123.765625Q274.64874 122.84375 276.03937 122.84375Q277.41437 122.84375 278.07062 123.734375Q278.72687 124.609375 278.7425 126.453125L278.7425 127.859375ZM277.64874 126.375Q277.64874 125.0 277.25812 124.375Q276.88312 123.734375 276.03937 123.734375Q275.21124 123.734375 274.82062 124.375Q274.44562 125.0 274.44562 126.296875L274.44562 128.03125Q274.44562 129.40625 274.83624 130.07812Q275.2425 130.73438 276.055 130.73438Q276.85187 130.73438 277.2425 130.10938Q277.63312 129.48438 277.64874 128.15625L277.64874 126.375Z" fill-rule="nonzero"/><path fill="#000000" d="M255.94562 131.5L254.8675 131.5L254.8675 124.28125L252.68 125.078125L252.68 124.09375L255.78937 122.921875L255.94562 122.921875L255.94562 131.5ZM263.53937 127.75Q263.21124 128.15625 262.72687 128.40625Q262.25812 128.64062 261.69562 128.64062Q260.96124 128.64062 260.41437 128.28125Q259.8675 127.921875 259.57062 127.265625Q259.27374 126.59375 259.27374 125.796875Q259.27374 124.953125 259.58624 124.265625Q259.91437 123.578125 260.50812 123.21875Q261.1175 122.84375 261.91437 122.84375Q263.18 122.84375 263.89874 123.796875Q264.63312 124.75 264.63312 126.375L264.63312 126.6875Q264.63312 129.1875 263.64874 130.32812Q262.66437 131.46875 260.68 131.5L260.46124 131.5L260.46124 130.59375L260.69562 130.59375Q262.03937 130.5625 262.75812 129.89062Q263.47687 129.21875 263.53937 127.75ZM261.8675 127.75Q262.41437 127.75 262.8675 127.421875Q263.33624 127.078125 263.555 126.59375L263.555 126.15625Q263.555 125.09375 263.08624 124.421875Q262.6175 123.75 261.91437 123.75Q261.19562 123.75 260.75812 124.296875Q260.33624 124.84375 260.33624 125.75Q260.33624 126.625 260.7425 127.1875Q261.16437 127.75 261.8675 127.75ZM271.7425 127.859375Q271.7425 129.76562 271.08624 130.70312Q270.44562 131.625 269.055 131.625Q267.69562 131.625 267.03937 130.71875Q266.38312 129.8125 266.35187 128.0L266.35187 126.5625Q266.35187 124.671875 266.9925 123.765625Q267.64874 122.84375 269.03937 122.84375Q270.41437 122.84375 271.07062 123.734375Q271.72687 124.609375 271.7425 126.453125L271.7425 127.859375ZM270.64874 126.375Q270.64874 125.0 270.25812 124.375Q269.88312 123.734375 269.03937 123.734375Q268.21124 123.734375 267.82062 124.375Q267.44562 125.0 267.44562 126.296875L267.44562 128.03125Q267.44562 129.40625 267.83624 130.07812Q268.2425 130.73438 269.055 130.73438Q269.85187 130.73438 270.2425 130.10938Q270.63312 129.48438 270.64874 128.15625L270.64874 126.375ZM278.7425 127.859375Q278.7425 129.76562 278.08624 130.70312Q277.44562 131.625 276.055 131.625Q274.69562 131.625 274.03937 130.71875Q273.38312 129.8125 273.35187 128.0L273.35187 126.5625Q273.35187 124.671875 273.9925 123.765625Q274.64874 122.84375 276.03937 122.84375Q277.41437 122.84375 278.07062 123.734375Q278.72687 124.609375 278.7425 126.453125L278.7425 127.859375ZM277.64874 126.375Q277.64874 125.0 277.25812 124.375Q276.88312 123.734375 276.03937 123.734375Q275.21124 123.734375 274.82062 124.375Q274.44562 125.0 274.44562 126.296875L274.44562 128.03125Q274.44562 129.40625 274.83624 130.07812Q275.2425 130.73438 276.055 130.73438Q276.85187 130.73438 277.2425 130.10938Q277.63312 129.48438 277.64874 128.15625L277.64874 126.375Z" fill-rule="nonzero"/><path stroke="#eaeae0" stroke-width="3.0" stroke-linejoin="round" stroke-linecap="round" d="M477.88126 160.64062L479.06876 160.64062L479.06876 161.51562L477.88126 161.51562L477.88126 163.5L476.80313 163.5L476.80313 161.51562L472.9125 161.51562L472.9125 160.875L476.725 154.96875L477.88126 154.96875L477.88126 160.64062ZM474.14688 160.64062L476.80313 160.64062L476.80313 156.45312L476.6625 156.6875L474.14688 160.64062ZM485.6625 159.85938Q485.6625 161.76562 485.00626 162.70312Q484.36563 163.625 482.975 163.625Q481.61563 163.625 480.95938 162.71875Q480.30313 161.8125 480.27188 160.0L480.27188 158.5625Q480.27188 156.67188 480.9125 155.76562Q481.56876 154.84375 482.95938 154.84375Q484.33438 154.84375 484.99063 155.73438Q485.64688 156.60938 485.6625 158.45312L485.6625 159.85938ZM484.56876 158.375Q484.56876 157.0 484.17813 156.375Q483.80313 155.73438 482.95938 155.73438Q482.13126 155.73438 481.74063 156.375Q481.36563 157.0 481.36563 158.29688L481.36563 160.03125Q481.36563 161.40625 481.75626 162.07812Q482.1625 162.73438 482.975 162.73438Q483.77188 162.73438 484.1625 162.10938Q484.55313 161.48438 484.56876 160.15625L484.56876 158.375ZM492.6625 159.85938Q492.6625 161.76562 492.00626 162.70312Q491.36563 163.625 489.975 163.625Q488.61563 163.625 487.95938 162.71875Q487.30313 161.8125 487.27188 160.0L487.27188 158.5625Q487.27188 156.67188 487.9125 155.76562Q488.56876 154.84375 489.95938 154.84375Q491.33438 154.84375 491.99063 155.73438Q492.64688 156.60938 492.6625 158.45312L492.6625 159.85938ZM491.56876 158.375Q491.56876 157.0 491.17813 156.375Q490.80313 155.73438 489.95938 155.73438Q489.13126 155.73438 488.74063 156.375Q488.36563 157.0 488.36563 158.29688L488.36563 160.03125Q488.36563 161.40625 488.75626 162.07812Q489.1625 162.73438 489.975 162.73438Q490.77188 162.73438 491.1625 162.10938Q491.55313 161.48438 491.56876 160.15625L491.56876 158.375ZM499.6625 159.85938Q499.6625 161.76562 499.00626 162.70312Q498.36563 163.625 496.975 163.625Q495.61563 163.625 494.95938 162.71875Q494.30313 161.8125 494.27188 160.0L494.27188 158.5625Q494.27188 156.67188 494.9125 155.76562Q495.56876 154.84375 496.95938 154.84375Q498.33438 154.84375 498.99063 155.73438Q499.64688 156.60938 499.6625 158.45312L499.6625 159.85938ZM498.56876 158.375Q498.56876 157.0 498.17813 156.375Q497.80313 155.73438 496.95938 155.73438Q496.13126 155.73438 495.74063 156.375Q495.36563 157.0 495.36563 158.29688L495.36563 160.03125Q495.36563 161.40625 495.75626 162.07812Q496.1625 162.73438 496.975 162.73438Q497.77188 162.73438 498.1625 162.10938Q498.55313 161.48438 498.56876 160.15625L498.56876 158.375Z" fill-rule="nonzero"/><path fill="#000000" d="M477.88126 160.64062L479.06876 160.64062L479.06876 161.51562L477.88126 161.51562L477.88126 163.5L476.80313 163.5L476.80313 161.51562L472.9125 161.51562L472.9125 160.875L476.725 154.96875L477.88126 154.96875L477.88126 160.64062ZM474.14688 160.64062L476.80313 160.64062L476.80313 156.45312L476.6625 156.6875L474.14688 160.64062ZM485.6625 159.85938Q485.6625 161.76562 485.00626 162.70312Q484.36563 163.625 482.975 163.625Q481.61563 163.625 480.95938 162.71875Q480.30313 161.8125 480.27188 160.0L480.27188 158.5625Q480.27188 156.67188 480.9125 155.76562Q481.56876 154.84375 482.95938 154.84375Q484.33438 154.84375 484.99063 155.73438Q485.64688 156.60938 485.6625 158.45312L485.6625 159.85938ZM484.56876 158.375Q484.56876 157.0 484.17813 156.375Q483.80313 155.73438 482.95938 155.73438Q482.13126 155.73438 481.74063 156.375Q481.36563 157.0 481.36563 158.29688L481.36563 160.03125Q481.36563 161.40625 481.75626 162.07812Q482.1625 162.73438 482.975 162.73438Q483.77188 162.73438 484.1625 162.10938Q484.55313 161.48438 484.56876 160.15625L484.56876 158.375ZM492.6625 159.85938Q492.6625 161.76562 492.00626 162.70312Q491.36563 163.625 489.975 163.625Q488.61563 163.625 487.95938 162.71875Q487.30313 161.8125 487.27188 160.0L487.27188 158.5625Q487.27188 156.67188 487.9125 155.76562Q488.56876 154.84375 489.95938 154.84375Q491.33438 154.84375 491.99063 155.73438Q492.64688 156.60938 492.6625 158.45312L492.6625 159.85938ZM491.56876 158.375Q491.56876 157.0 491.17813 156.375Q490.80313 155.73438 489.95938 155.73438Q489.13126 155.73438 488.74063 156.375Q488.36563 157.0 488.36563 158.29688L488.36563 160.03125Q488.36563 161.40625 488.75626 162.07812Q489.1625 162.73438 489.975 162.73438Q490.77188 162.73438 491.1625 162.10938Q491.55313 161.48438 491.56876 160.15625L491.56876 158.375ZM499.6625 159.85938Q499.6625 161.76562 499.00626 162.70312Q498.36563 163.625 496.975 163.625Q495.61563 163.625 494.95938 162.71875Q494.30313 161.8125 494.27188 160.0L494.27188 158.5625Q494.27188 156.67188 494.9125 155.76562Q495.56876 154.84375 496.95938 154.84375Q498.33438 154.84375 498.99063 155.73438Q499.64688 156.60938 499.6625 158.45312L499.6625 159.85938ZM498.56876 158.375Q498.56876 157.0 498.17813 156.375Q497.80313 155.73438 496.95938 155.73438Q496.13126 155.73438 495.74063 156.375Q495.36563 157.0 495.36563 158.29688L495.36563 160.03125Q495.36563 161.40625 495.75626 162.07812Q496.1625 162.73438 496.975 162.73438Q497.77188 162.73438 498.1625 162.10938Q498.55313 161.48438 498.56876 160.15625L498.56876 158.375Z" fill-rule="nonzero"/><path fill="#757575" d="M23.1 32.72649Q21.6625 32.304615 20.990625 31.69524Q20.334375 31.085865 20.334375 30.19524Q20.334375 29.19524 21.13125 28.53899Q21.94375 27.867115 23.240625 27.867115Q24.115625 27.867115 24.803125 28.210865Q25.490625 28.554615 25.865625 29.148365Q26.25625 29.742115 26.25625 30.460865L25.115625 30.460865Q25.115625 29.679615 24.615625 29.242115Q24.13125 28.804615 23.240625 28.804615Q22.4125 28.804615 21.94375 29.179615Q21.475 29.53899 21.475 30.179615Q21.475 30.710865 21.9125 31.07024Q22.365625 31.429615 23.428125 31.72649Q24.490625 32.023365 25.084375 32.38274Q25.69375 32.742115 25.975 33.22649Q26.271875 33.710865 26.271875 34.35149Q26.271875 35.398365 25.459375 36.023365Q24.646875 36.648365 23.303125 36.648365Q22.4125 36.648365 21.646875 36.304615Q20.896875 35.960865 20.475 35.38274Q20.06875 34.78899 20.06875 34.054615L21.19375 34.054615Q21.19375 34.82024 21.771875 35.273365Q22.35 35.72649 23.303125 35.72649Q24.19375 35.72649 24.6625 35.367115Q25.13125 34.992115 25.13125 34.367115Q25.13125 33.742115 24.69375 33.398365Q24.25625 33.054615 23.1 32.72649ZM29.490625 34.929615L30.975 30.179615L32.13125 30.179615L29.584375 37.50774Q28.990625 39.085865 27.709375 39.085865L27.490625 39.07024L27.1 38.992115L27.1 38.117115L27.38125 38.13274Q27.94375 38.13274 28.240625 37.91399Q28.553125 37.69524 28.75625 37.10149L28.990625 36.44524L26.725 30.179615L27.9125 30.179615L29.490625 34.929615ZM34.44375 30.179615L34.475 30.88274Q35.1625 30.07024 36.35 30.07024Q37.678123 30.07024 38.1625 31.085865Q38.475 30.63274 38.975 30.35149Q39.490623 30.07024 40.178123 30.07024Q42.271873 30.07024 42.303123 32.273365L42.303123 36.523365L41.225 36.523365L41.225 32.335865Q41.225 31.66399 40.9125 31.335865Q40.6 30.992115 39.865623 30.992115Q39.25625 30.992115 38.85 31.35149Q38.459373 31.710865 38.396873 32.32024L38.396873 36.523365L37.31875 36.523365L37.31875 32.367115Q37.31875 30.992115 35.959373 30.992115Q34.896873 30.992115 34.50625 31.898365L34.50625 36.523365L33.4125 36.523365L33.4125 30.179615L34.44375 30.179615ZM45.6 36.523365L44.521873 36.523365L44.521873 27.523365L45.6 27.523365L45.6 36.523365ZM50.053123 36.648365Q48.75625 36.648365 47.94375 35.804615Q47.146873 34.94524 47.146873 33.523365L47.146873 33.335865Q47.146873 32.38274 47.50625 31.648365Q47.865623 30.898365 48.50625 30.492115Q49.1625 30.07024 49.9125 30.07024Q51.146873 30.07024 51.834373 30.88274Q52.521873 31.69524 52.521873 33.210865L52.521873 33.66399L48.225 33.66399Q48.25625 34.60149 48.771873 35.179615Q49.303123 35.75774 50.115623 35.75774Q50.678123 35.75774 51.06875 35.523365Q51.475 35.28899 51.7875 34.898365L52.44375 35.41399Q51.646873 36.648365 50.053123 36.648365ZM49.9125 30.960865Q49.25625 30.960865 48.803123 31.44524Q48.365623 31.91399 48.271873 32.773365L51.44375 32.773365L51.44375 32.69524Q51.396873 31.867115 50.990623 31.41399Q50.6 30.960865 49.9125 30.960865ZM55.553123 32.492115L56.959373 30.179615L58.225 30.179615L56.146873 33.32024L58.2875 36.523365L57.0375 36.523365L55.56875 34.148365L54.1 36.523365L52.834373 36.523365L54.975 33.32024L52.9125 30.179615L54.1625 30.179615L55.553123 32.492115ZM66.88125 33.66399L68.06875 33.66399L68.06875 34.53899L66.88125 34.53899L66.88125 36.523365L65.80312 36.523365L65.80312 34.53899L61.9125 34.53899L61.9125 33.898365L65.725 27.992115L66.88125 27.992115L66.88125 33.66399ZM63.146873 33.66399L65.80312 33.66399L65.80312 29.47649L65.6625 29.710865L63.146873 33.66399ZM69.44375 35.960865Q69.44375 35.679615 69.6 35.492115Q69.77187 35.304615 70.1 35.304615Q70.44375 35.304615 70.61562 35.492115Q70.7875 35.679615 70.7875 35.960865Q70.7875 36.22649 70.61562 36.41399Q70.44375 36.585865 70.1 36.585865Q69.77187 36.585865 69.6 36.41399Q69.44375 36.22649 69.44375 35.960865ZM75.86562 36.523365L74.7875 36.523365L74.7875 29.304615L72.6 30.10149L72.6 29.117115L75.70937 27.94524L75.86562 27.94524L75.86562 36.523365Z" fill-rule="nonzero"/><path fill="#757575" d="M14.1 64.464806Q12.6625 64.04293 11.990625 63.433556Q11.334375 62.82418 11.334375 61.933556Q11.334375 60.933556 12.13125 60.277306Q12.94375 59.60543 14.240625 59.60543Q15.115625 59.60543 15.803125 59.94918Q16.490625 60.29293 16.865625 60.88668Q17.25625 61.48043 17.25625 62.19918L16.115625 62.19918Q16.115625 61.41793 15.615625 60.98043Q15.13125 60.54293 14.240625 60.54293Q13.4125 60.54293 12.94375 60.91793Q12.475 61.277306 12.475 61.91793Q12.475 62.44918 12.9125 62.808556Q13.365625 63.16793 14.428125 63.464806Q15.490625 63.76168 16.084375 64.121056Q16.69375 64.48043 16.975 64.964806Q17.271875 65.44918 17.271875 66.089806Q17.271875 67.13668 16.459375 67.76168Q15.646875 68.38668 14.303125 68.38668Q13.4125 68.38668 12.646875 68.04293Q11.896875 67.69918 11.475 67.121056Q11.06875 66.527306 11.06875 65.79293L12.19375 65.79293Q12.19375 66.558556 12.771875 67.01168Q13.35 67.464806 14.303125 67.464806Q15.19375 67.464806 15.6625 67.10543Q16.13125 66.73043 16.13125 66.10543Q16.13125 65.48043 15.69375 65.13668Q15.25625 64.79293 14.1 64.464806ZM20.490625 66.66793L21.975 61.91793L23.13125 61.91793L20.584375 69.246056Q19.990625 70.82418 18.709375 70.82418L18.490625 70.808556L18.1 70.73043L18.1 69.85543L18.38125 69.871056Q18.94375 69.871056 19.240625 69.652306Q19.553125 69.433556 19.75625 68.839806L19.990625 68.183556L17.725 61.91793L18.9125 61.91793L20.490625 66.66793ZM25.44375 61.91793L25.475 62.621056Q26.1625 61.808556 27.35 61.808556Q28.678125 61.808556 29.1625 62.82418Q29.475 62.371056 29.975 62.089806Q30.490625 61.808556 31.178125 61.808556Q33.271873 61.808556 33.303123 64.01168L33.303123 68.26168L32.225 68.26168L32.225 64.07418Q32.225 63.402306 31.9125 63.07418Q31.6 62.73043 30.865625 62.73043Q30.25625 62.73043 29.85 63.089806Q29.459375 63.44918 29.396875 64.058556L29.396875 68.26168L28.31875 68.26168L28.31875 64.10543Q28.31875 62.73043 26.959375 62.73043Q25.896875 62.73043 25.50625 63.63668L25.50625 68.26168L24.4125 68.26168L24.4125 61.91793L25.44375 61.91793ZM35.959373 68.26168L35.959373 62.76168L34.959373 62.76168L34.959373 61.91793L35.959373 61.91793L35.959373 61.277306Q35.959373 60.246056 36.490623 59.69918Q37.0375 59.13668 38.0375 59.13668Q38.4125 59.13668 38.7875 59.23043L38.725 60.121056Q38.44375 60.058556 38.146873 60.058556Q37.615623 60.058556 37.31875 60.371056Q37.0375 60.683556 37.0375 61.246056L37.0375 61.91793L38.396873 61.91793L38.396873 62.76168L37.0375 62.76168L37.0375 68.26168L35.959373 68.26168ZM39.13125 65.027306Q39.13125 64.10543 39.490623 63.35543Q39.865623 62.60543 40.521873 62.214806Q41.178123 61.808556 42.00625 61.808556Q43.303123 61.808556 44.1 62.69918Q44.9125 63.589806 44.9125 65.089806L44.9125 65.16793Q44.9125 66.089806 44.553123 66.82418Q44.19375 67.558556 43.5375 67.98043Q42.88125 68.38668 42.021873 68.38668Q40.740623 68.38668 39.928123 67.496056Q39.13125 66.589806 39.13125 65.10543L39.13125 65.027306ZM40.225 65.16793Q40.225 66.214806 40.709373 66.85543Q41.209373 67.496056 42.021873 67.496056Q42.85 67.496056 43.334373 66.85543Q43.81875 66.19918 43.81875 65.027306Q43.81875 63.996056 43.31875 63.35543Q42.834373 62.69918 42.00625 62.69918Q41.209373 62.69918 40.709373 63.339806Q40.225 63.964806 40.225 65.16793ZM47.44375 61.91793L47.475 62.714806Q48.209373 61.808556 49.38125 61.808556Q51.396873 61.808556 51.4125 64.07418L51.4125 68.26168L50.31875 68.26168L50.31875 64.058556Q50.31875 63.38668 50.00625 63.058556Q49.709373 62.73043 49.053123 62.73043Q48.521873 62.73043 48.115623 63.01168Q47.725 63.29293 47.50625 63.746056L47.50625 68.26168L46.428123 68.26168L46.428123 61.91793L47.44375 61.91793ZM55.490623 66.66793L56.975 61.91793L58.13125 61.91793L55.584373 69.246056Q54.990623 70.82418 53.709373 70.82418L53.490623 70.808556L53.1 70.73043L53.1 69.85543L53.38125 69.871056Q53.94375 69.871056 54.240623 69.652306Q54.553123 69.433556 54.75625 68.839806L54.990623 68.183556L52.725 61.91793L53.9125 61.91793L55.490623 66.66793ZM66.88125 65.402306L68.06875 65.402306L68.06875 66.277306L66.88125 66.277306L66.88125 68.26168L65.80312 68.26168L65.80312 66.277306L61.9125 66.277306L61.9125 65.63668L65.725 59.73043L66.88125 59.73043L66.88125 65.402306ZM63.146873 65.402306L65.80312 65.402306L65.80312 61.214806L65.6625 61.44918L63.146873 65.402306ZM69.44375 67.69918Q69.44375 67.41793 69.6 67.23043Q69.77187 67.04293 70.1 67.04293Q70.44375 67.04293 70.61562 67.23043Q70.7875 67.41793 70.7875 67.69918Q70.7875 67.964806 70.61562 68.152306Q70.44375 68.32418 70.1 68.32418Q69.77187 68.32418 69.6 68.152306Q69.44375 67.964806 69.44375 67.69918ZM77.89687 68.26168L72.30312 68.26168L72.30312 67.48043L75.25625 64.19918Q75.9125 63.44918 76.1625 62.996056Q76.4125 62.527306 76.4125 62.027306Q76.4125 61.35543 76.00625 60.933556Q75.61562 60.496056 74.92812 60.496056Q74.13125 60.496056 73.67812 60.964806Q73.225 61.41793 73.225 62.246056L72.14687 62.246056Q72.14687 61.058556 72.89687 60.339806Q73.6625 59.60543 74.92812 59.60543Q76.13125 59.60543 76.81875 60.23043Q77.50625 60.85543 77.50625 61.902306Q77.50625 63.152306 75.89687 64.902306L73.61562 67.371056L77.89687 67.371056L77.89687 68.26168Z" fill-rule="nonzero"/><path fill="#757575" d="M14.1 96.203125Q12.6625 95.78125 11.990625 95.171875Q11.334375 94.5625 11.334375 93.671875Q11.334375 92.671875 12.13125 92.015625Q12.94375 91.34375 14.240625 91.34375Q15.115625 91.34375 15.803125 91.6875Q16.490625 92.03125 16.865625 92.625Q17.25625 93.21875 17.25625 93.9375L16.115625 93.9375Q16.115625 93.15625 15.615625 92.71875Q15.13125 92.28125 14.240625 92.28125Q13.4125 92.28125 12.94375 92.65625Q12.475 93.015625 12.475 93.65625Q12.475 94.1875 12.9125 94.546875Q13.365625 94.90625 14.428125 95.203125Q15.490625 95.5 16.084375 95.859375Q16.69375 96.21875 16.975 96.703125Q17.271875 97.1875 17.271875 97.828125Q17.271875 98.875 16.459375 99.5Q15.646875 100.125 14.303125 100.125Q13.4125 100.125 12.646875 99.78125Q11.896875 99.4375 11.475 98.859375Q11.06875 98.265625 11.06875 97.53125L12.19375 97.53125Q12.19375 98.296875 12.771875 98.75Q13.35 99.203125 14.303125 99.203125Q15.19375 99.203125 15.6625 98.84375Q16.13125 98.46875 16.13125 97.84375Q16.13125 97.21875 15.69375 96.875Q15.25625 96.53125 14.1 96.203125ZM20.490625 98.40625L21.975 93.65625L23.13125 93.65625L20.584375 100.984375Q19.990625 102.5625 18.709375 102.5625L18.490625 102.546875L18.1 102.46875L18.1 101.59375L18.38125 101.609375Q18.94375 101.609375 19.240625 101.390625Q19.553125 101.171875 19.75625 100.578125L19.990625 99.921875L17.725 93.65625L18.9125 93.65625L20.490625 98.40625ZM25.44375 93.65625L25.475 94.359375Q26.1625 93.546875 27.35 93.546875Q28.678125 93.546875 29.1625 94.5625Q29.475 94.109375 29.975 93.828125Q30.490625 93.546875 31.178125 93.546875Q33.271873 93.546875 33.303123 95.75L33.303123 100.0L32.225 100.0L32.225 95.8125Q32.225 95.140625 31.9125 94.8125Q31.6 94.46875 30.865625 94.46875Q30.25625 94.46875 29.85 94.828125Q29.459375 95.1875 29.396875 95.796875L29.396875 100.0L28.31875 100.0L28.31875 95.84375Q28.31875 94.46875 26.959375 94.46875Q25.896875 94.46875 25.50625 95.375L25.50625 100.0L24.4125 100.0L24.4125 93.65625L25.44375 93.65625ZM35.959373 100.0L35.959373 94.5L34.959373 94.5L34.959373 93.65625L35.959373 93.65625L35.959373 93.015625Q35.959373 91.984375 36.490623 91.4375Q37.0375 90.875 38.0375 90.875Q38.4125 90.875 38.7875 90.96875L38.725 91.859375Q38.44375 91.796875 38.146873 91.796875Q37.615623 91.796875 37.31875 92.109375Q37.0375 92.421875 37.0375 92.984375L37.0375 93.65625L38.396873 93.65625L38.396873 94.5L37.0375 94.5L37.0375 100.0L35.959373 100.0ZM39.13125 96.765625Q39.13125 95.84375 39.490623 95.09375Q39.865623 94.34375 40.521873 93.953125Q41.178123 93.546875 42.00625 93.546875Q43.303123 93.546875 44.1 94.4375Q44.9125 95.328125 44.9125 96.828125L44.9125 96.90625Q44.9125 97.828125 44.553123 98.5625Q44.19375 99.296875 43.5375 99.71875Q42.88125 100.125 42.021873 100.125Q40.740623 100.125 39.928123 99.234375Q39.13125 98.328125 39.13125 96.84375L39.13125 96.765625ZM40.225 96.90625Q40.225 97.953125 40.709373 98.59375Q41.209373 99.234375 42.021873 99.234375Q42.85 99.234375 43.334373 98.59375Q43.81875 97.9375 43.81875 96.765625Q43.81875 95.734375 43.31875 95.09375Q42.834373 94.4375 42.00625 94.4375Q41.209373 94.4375 40.709373 95.078125Q40.225 95.703125 40.225 96.90625ZM47.44375 93.65625L47.475 94.453125Q48.209373 93.546875 49.38125 93.546875Q51.396873 93.546875 51.4125 95.8125L51.4125 100.0L50.31875 100.0L50.31875 95.796875Q50.31875 95.125 50.00625 94.796875Q49.709373 94.46875 49.053123 94.46875Q48.521873 94.46875 48.115623 94.75Q47.725 95.03125 47.50625 95.484375L47.50625 100.0L46.428123 100.0L46.428123 93.65625L47.44375 93.65625ZM55.490623 98.40625L56.975 93.65625L58.13125 93.65625L55.584373 100.984375Q54.990623 102.5625 53.709373 102.5625L53.490623 102.546875L53.1 102.46875L53.1 101.59375L53.38125 101.609375Q53.94375 101.609375 54.240623 101.390625Q54.553123 101.171875 54.75625 100.578125L54.990623 99.921875L52.725 93.65625L53.9125 93.65625L55.490623 98.40625ZM63.88125 95.203125L64.69375 95.203125Q65.475 95.1875 65.9125 94.796875Q66.35 94.40625 66.35 93.734375Q66.35 92.234375 64.85 92.234375Q64.14687 92.234375 63.725 92.640625Q63.31875 93.046875 63.31875 93.703125L62.225 93.703125Q62.225 92.6875 62.959373 92.015625Q63.709373 91.34375 64.85 91.34375Q66.05312 91.34375 66.74062 91.984375Q67.42812 92.625 67.42812 93.765625Q67.42812 94.328125 67.06875 94.84375Q66.70937 95.359375 66.08437 95.625Q66.7875 95.84375 67.1625 96.359375Q67.55312 96.875 67.55312 97.625Q67.55312 98.765625 66.80312 99.453125Q66.05312 100.125 64.85 100.125Q63.6625 100.125 62.896873 99.46875Q62.146873 98.8125 62.146873 97.75L63.240623 97.75Q63.240623 98.421875 63.678123 98.828125Q64.11562 99.234375 64.86562 99.234375Q65.64687 99.234375 66.05312 98.828125Q66.475 98.40625 66.475 97.640625Q66.475 96.90625 66.02187 96.515625Q65.56875 96.109375 64.69375 96.09375L63.88125 96.09375L63.88125 95.203125ZM69.44375 99.4375Q69.44375 99.15625 69.6 98.96875Q69.77187 98.78125 70.1 98.78125Q70.44375 98.78125 70.61562 98.96875Q70.7875 99.15625 70.7875 99.4375Q70.7875 99.703125 70.61562 99.890625Q70.44375 100.0625 70.1 100.0625Q69.77187 100.0625 69.6 99.890625Q69.44375 99.703125 69.44375 99.4375ZM76.88125 97.140625L78.06875 97.140625L78.06875 98.015625L76.88125 98.015625L76.88125 100.0L75.80312 100.0L75.80312 98.015625L71.9125 98.015625L71.9125 97.375L75.725 91.46875L76.88125 91.46875L76.88125 97.140625ZM73.14687 97.140625L75.80312 97.140625L75.80312 92.953125L75.6625 93.1875L73.14687 97.140625Z" fill-rule="nonzero"/><path fill="#757575" d="M33.428123 130.81644L38.31875 130.81644L38.31875 131.73831L32.1 131.73831L32.1 130.89456L36.7875 124.12894L32.178123 124.12894L32.178123 123.20706L38.13125 123.20706L38.13125 124.03519L33.428123 130.81644ZM42.053123 131.86331Q40.75625 131.86331 39.94375 131.01956Q39.146873 130.16019 39.146873 128.73831L39.146873 128.55081Q39.146873 127.59769 39.50625 126.86331Q39.865623 126.11331 40.50625 125.70706Q41.1625 125.28519 41.9125 125.28519Q43.146873 125.28519 43.834373 126.09769Q44.521873 126.91019 44.521873 128.42581L44.521873 128.87894L40.225 128.87894Q40.25625 129.81644 40.771873 130.39456Q41.303123 130.97269 42.115623 130.97269Q42.678123 130.97269 43.06875 130.73831Q43.475 130.50394 43.7875 130.11331L44.44375 130.62894Q43.646873 131.86331 42.053123 131.86331ZM41.9125 126.17581Q41.25625 126.17581 40.803123 126.66019Q40.365623 127.12894 40.271873 127.98831L43.44375 127.98831L43.44375 127.91019Q43.396873 127.08206 42.990623 126.62894Q42.6 126.17581 41.9125 126.17581ZM46.44375 125.39456L46.475 126.19144Q47.209373 125.28519 48.38125 125.28519Q50.396873 125.28519 50.4125 127.55081L50.4125 131.73831L49.31875 131.73831L49.31875 127.53519Q49.31875 126.86331 49.00625 126.53519Q48.709373 126.20706 48.053123 126.20706Q47.521873 126.20706 47.115623 126.48831Q46.725 126.76956 46.50625 127.22269L46.50625 131.73831L45.428123 131.73831L45.428123 125.39456L46.44375 125.39456ZM52.1625 128.51956Q52.1625 127.05081 52.85 126.17581Q53.5375 125.28519 54.6625 125.28519Q55.771873 125.28519 56.428123 126.03519L56.428123 122.73831L57.50625 122.73831L57.50625 131.73831L56.50625 131.73831L56.459373 131.05081Q55.803123 131.86331 54.646873 131.86331Q53.553123 131.86331 52.85 130.95706Q52.1625 130.05081 52.1625 128.59769L52.1625 128.51956ZM53.240623 128.64456Q53.240623 129.72269 53.678123 130.33206Q54.13125 130.94144 54.9125 130.94144Q55.94375 130.94144 56.428123 130.00394L56.428123 127.09769Q55.94375 126.20706 54.928123 126.20706Q54.13125 126.20706 53.678123 126.81644Q53.240623 127.42581 53.240623 128.64456ZM63.88125 126.94144L64.69375 126.94144Q65.475 126.92581 65.9125 126.53519Q66.35 126.14456 66.35 125.47269Q66.35 123.97269 64.85 123.97269Q64.14687 123.97269 63.725 124.37894Q63.31875 124.78519 63.31875 125.44144L62.225 125.44144Q62.225 124.42581 62.959373 123.75394Q63.709373 123.08206 64.85 123.08206Q66.05312 123.08206 66.74062 123.72269Q67.42812 124.36331 67.42812 125.50394Q67.42812 126.06644 67.06875 126.58206Q66.70937 127.09769 66.08437 127.36331Q66.7875 127.58206 67.1625 128.09769Q67.55312 128.61331 67.55312 129.36331Q67.55312 130.50394 66.80312 131.19144Q66.05312 131.86331 64.85 131.86331Q63.6625 131.86331 62.896873 131.20706Q62.146873 130.55081 62.146873 129.48831L63.240623 129.48831Q63.240623 130.16019 63.678123 130.56644Q64.11562 130.97269 64.86562 130.97269Q65.64687 130.97269 66.05312 130.56644Q66.475 130.14456 66.475 129.37894Q66.475 128.64456 66.02187 128.25394Q65.56875 127.84769 64.69375 127.83206L63.88125 127.83206L63.88125 126.94144ZM69.44375 131.17581Q69.44375 130.89456 69.6 130.70706Q69.77187 130.51956 70.1 130.51956Q70.44375 130.51956 70.61562 130.70706Q70.7875 130.89456 70.7875 131.17581Q70.7875 131.44144 70.61562 131.62894Q70.44375 131.80081 70.1 131.80081Q69.77187 131.80081 69.6 131.62894Q69.44375 131.44144 69.44375 131.17581ZM77.6625 128.09769Q77.6625 130.00394 77.00625 130.94144Q76.36562 131.86331 74.975 131.86331Q73.61562 131.86331 72.95937 130.95706Q72.30312 130.05081 72.27187 128.23831L72.27187 126.80081Q72.27187 124.91019 72.9125 124.00394Q73.56875 123.08206 74.95937 123.08206Q76.33437 123.08206 76.99062 123.97269Q77.64687 124.84769 77.6625 126.69144L77.6625 128.09769ZM76.56875 126.61331Q76.56875 125.23831 76.17812 124.61331Q75.80312 123.97269 74.95937 123.97269Q74.13125 123.97269 73.74062 124.61331Q73.36562 125.23831 73.36562 126.53519L73.36562 128.26956Q73.36562 129.64456 73.75625 130.31644Q74.1625 130.97269 74.975 130.97269Q75.77187 130.97269 76.1625 130.34769Q76.55312 129.72269 76.56875 128.39456L76.56875 126.61331Z" fill-rule="nonzero"/><path fill="#757575" d="M21.725 162.55476L25.771875 162.55476L25.771875 163.47664L20.584375 163.47664L20.584375 154.94539L21.725 154.94539L21.725 162.55476ZM30.334375 163.47664Q30.240625 163.28914 30.178125 162.80476Q29.428125 163.60164 28.38125 163.60164Q27.44375 163.60164 26.834375 163.07039Q26.240625 162.53914 26.240625 161.71101Q26.240625 160.72664 26.990625 160.17976Q27.740625 159.63289 29.115625 159.63289L30.1625 159.63289L30.1625 159.13289Q30.1625 158.57039 29.81875 158.24226Q29.490625 157.89851 28.81875 157.89851Q28.240625 157.89851 27.85 158.19539Q27.459375 158.47664 27.459375 158.89851L26.365625 158.89851Q26.365625 158.41414 26.69375 157.97664Q27.0375 157.53914 27.615625 157.28914Q28.19375 157.02351 28.88125 157.02351Q29.990625 157.02351 30.6 157.57039Q31.225 158.11726 31.25625 159.07039L31.25625 161.99226Q31.25625 162.86726 31.475 163.38289L31.475 163.47664L30.334375 163.47664ZM28.5375 162.64851Q29.053125 162.64851 29.50625 162.38289Q29.959375 162.11726 30.1625 161.69539L30.1625 160.39851L29.31875 160.39851Q27.31875 160.39851 27.31875 161.57039Q27.31875 162.07039 27.6625 162.36726Q28.00625 162.64851 28.5375 162.64851ZM36.490623 158.10164Q36.240623 158.07039 35.959373 158.07039Q34.88125 158.07039 34.50625 158.97664L34.50625 163.47664L33.428123 163.47664L33.428123 157.13289L34.475 157.13289L34.490623 157.86726Q35.021873 157.02351 36.00625 157.02351Q36.31875 157.02351 36.490623 157.10164L36.490623 158.10164ZM41.334373 163.47664Q41.240623 163.28914 41.178123 162.80476Q40.428123 163.60164 39.38125 163.60164Q38.44375 163.60164 37.834373 163.07039Q37.240623 162.53914 37.240623 161.71101Q37.240623 160.72664 37.990623 160.17976Q38.740623 159.63289 40.115623 159.63289L41.1625 159.63289L41.1625 159.13289Q41.1625 158.57039 40.81875 158.24226Q40.490623 157.89851 39.81875 157.89851Q39.240623 157.89851 38.85 158.19539Q38.459373 158.47664 38.459373 158.89851L37.365623 158.89851Q37.365623 158.41414 37.69375 157.97664Q38.0375 157.53914 38.615623 157.28914Q39.19375 157.02351 39.88125 157.02351Q40.990623 157.02351 41.6 157.57039Q42.225 158.11726 42.25625 159.07039L42.25625 161.99226Q42.25625 162.86726 42.475 163.38289L42.475 163.47664L41.334373 163.47664ZM39.5375 162.64851Q40.053123 162.64851 40.50625 162.38289Q40.959373 162.11726 41.1625 161.69539L41.1625 160.39851L40.31875 160.39851Q38.31875 160.39851 38.31875 161.57039Q38.31875 162.07039 38.6625 162.36726Q39.00625 162.64851 39.5375 162.64851ZM46.50625 162.00789L48.084373 157.13289L49.19375 157.13289L46.9125 163.47664L46.084373 163.47664L43.7875 157.13289L44.896873 157.13289L46.50625 162.00789ZM53.053123 163.60164Q51.75625 163.60164 50.94375 162.75789Q50.146873 161.89851 50.146873 160.47664L50.146873 160.28914Q50.146873 159.33601 50.50625 158.60164Q50.865623 157.85164 51.50625 157.44539Q52.1625 157.02351 52.9125 157.02351Q54.146873 157.02351 54.834373 157.83601Q55.521873 158.64851 55.521873 160.16414L55.521873 160.61726L51.225 160.61726Q51.25625 161.55476 51.771873 162.13289Q52.303123 162.71101 53.115623 162.71101Q53.678123 162.71101 54.06875 162.47664Q54.475 162.24226 54.7875 161.85164L55.44375 162.36726Q54.646873 163.60164 53.053123 163.60164ZM52.9125 157.91414Q52.25625 157.91414 51.803123 158.39851Q51.365623 158.86726 51.271873 159.72664L54.44375 159.72664L54.44375 159.64851Q54.396873 158.82039 53.990623 158.36726Q53.6 157.91414 52.9125 157.91414ZM57.6 163.47664L56.521873 163.47664L56.521873 154.47664L57.6 154.47664L57.6 163.47664ZM62.803123 159.19539L63.240623 154.94539L67.61562 154.94539L67.61562 155.94539L64.1625 155.94539L63.896873 158.27351Q64.5375 157.89851 65.33437 157.89851Q66.49062 157.89851 67.17812 158.67976Q67.86562 159.44539 67.86562 160.75789Q67.86562 162.07039 67.14687 162.83601Q66.44375 163.60164 65.1625 163.60164Q64.0375 163.60164 63.31875 162.97664Q62.6 162.33601 62.50625 161.22664L63.521873 161.22664Q63.63125 161.96101 64.05312 162.33601Q64.475 162.71101 65.1625 162.71101Q65.9125 162.71101 66.35 162.19539Q66.7875 161.67976 66.7875 160.77351Q66.7875 159.91414 66.31875 159.39851Q65.85 158.88289 65.06875 158.88289Q64.36562 158.88289 63.959373 159.17976L63.678123 159.41414L62.803123 159.19539ZM69.44375 162.91414Q69.44375 162.63289 69.6 162.44539Q69.77187 162.25789 70.1 162.25789Q70.44375 162.25789 70.61562 162.44539Q70.7875 162.63289 70.7875 162.91414Q70.7875 163.17976 70.61562 163.36726Q70.44375 163.53914 70.1 163.53914Q69.77187 163.53914 69.6 163.36726Q69.44375 163.17976 69.44375 162.91414ZM77.81875 155.55476L74.2875 163.47664L73.14687 163.47664L76.6625 155.83601L72.05312 155.83601L72.05312 154.94539L77.81875 154.94539L77.81875 155.55476Z" fill-rule="nonzero"/><path fill="#757575" d="M78.1625 194.75937Q78.1625 196.66562 77.50625 197.60312Q76.86562 198.525 75.475 198.525Q74.11562 198.525 73.45937 197.61874Q72.80312 196.7125 72.77187 194.9L72.77187 193.4625Q72.77187 191.57187 73.4125 190.66562Q74.06875 189.74374 75.45937 189.74374Q76.83437 189.74374 77.49062 190.63437Q78.14687 191.50937 78.1625 193.35312L78.1625 194.75937ZM77.06875 193.275Q77.06875 191.9 76.67812 191.275Q76.30312 190.63437 75.45937 190.63437Q74.63125 190.63437 74.24062 191.275Q73.86562 191.9 73.86562 193.19687L73.86562 194.93124Q73.86562 196.30624 74.25625 196.97812Q74.6625 197.63437 75.475 197.63437Q76.27187 197.63437 76.6625 197.00937Q77.05312 196.38437 77.06875 195.05624L77.06875 193.275ZM85.25625 194.43124L84.20937 195.50937L84.20937 198.4L83.08437 198.4L83.08437 189.86874L84.20937 189.86874L84.20937 194.0875L88.00625 189.86874L89.36562 189.86874L86.00625 193.63437L89.63125 198.4L88.2875 198.4L85.25625 194.43124ZM91.08437 198.4L91.08437 189.86874L93.88125 189.86874Q95.27187 189.86874 95.95937 190.44687Q96.6625 191.00937 96.6625 192.13437Q96.6625 192.74374 96.31875 193.2125Q95.99062 193.66562 95.39687 193.91562Q96.1 194.10312 96.49062 194.65Q96.89687 195.18124 96.89687 195.93124Q96.89687 197.0875 96.14687 197.74374Q95.4125 198.4 94.05312 198.4L91.08437 198.4ZM92.20937 194.41562L92.20937 197.47812L94.06875 197.47812Q94.86562 197.47812 95.31875 197.07187Q95.77187 196.66562 95.77187 195.94687Q95.77187 194.41562 94.08437 194.41562L92.20937 194.41562ZM92.20937 193.50937L93.9125 193.50937Q94.64687 193.50937 95.08437 193.15Q95.5375 192.775 95.5375 192.13437Q95.5375 191.43124 95.13125 191.11874Q94.725 190.79062 93.88125 190.79062L92.20937 190.79062L92.20937 193.50937Z" fill-rule="nonzero"/><path fill="#757575" d="M171.06563 198.4L169.9875 198.4L169.9875 191.18124L167.8 191.97812L167.8 190.99374L170.90938 189.82187L171.06563 189.82187L171.06563 198.4ZM179.8625 194.75937Q179.8625 196.66562 179.20625 197.60312Q178.56563 198.525 177.175 198.525Q175.81563 198.525 175.15938 197.61874Q174.50313 196.7125 174.47188 194.9L174.47188 193.4625Q174.47188 191.57187 175.1125 190.66562Q175.76875 189.74374 177.15938 189.74374Q178.53438 189.74374 179.19063 190.63437Q179.84688 191.50937 179.8625 193.35312L179.8625 194.75937ZM178.76875 193.275Q178.76875 191.9 178.37813 191.275Q178.00313 190.63437 177.15938 190.63437Q176.33125 190.63437 175.94063 191.275Q175.56563 191.9 175.56563 193.19687L175.56563 194.93124Q175.56563 196.30624 175.95625 196.97812Q176.3625 197.63437 177.175 197.63437Q177.97188 197.63437 178.3625 197.00937Q178.75313 196.38437 178.76875 195.05624L178.76875 193.275ZM186.8625 194.75937Q186.8625 196.66562 186.20625 197.60312Q185.56563 198.525 184.175 198.525Q182.81563 198.525 182.15938 197.61874Q181.50313 196.7125 181.47188 194.9L181.47188 193.4625Q181.47188 191.57187 182.1125 190.66562Q182.76875 189.74374 184.15938 189.74374Q185.53438 189.74374 186.19063 190.63437Q186.84688 191.50937 186.8625 193.35312L186.8625 194.75937ZM185.76875 193.275Q185.76875 191.9 185.37813 191.275Q185.00313 190.63437 184.15938 190.63437Q183.33125 190.63437 182.94063 191.275Q182.56563 191.9 182.56563 193.19687L182.56563 194.93124Q182.56563 196.30624 182.95625 196.97812Q183.3625 197.63437 184.175 197.63437Q184.97188 197.63437 185.3625 197.00937Q185.75313 196.38437 185.76875 195.05624L185.76875 193.275ZM193.8625 194.75937Q193.8625 196.66562 193.20625 197.60312Q192.56563 198.525 191.175 198.525Q189.81563 198.525 189.15938 197.61874Q188.50313 196.7125 188.47188 194.9L188.47188 193.4625Q188.47188 191.57187 189.1125 190.66562Q189.76875 189.74374 191.15938 189.74374Q192.53438 189.74374 193.19063 190.63437Q193.84688 191.50937 193.8625 193.35312L193.8625 194.75937ZM192.76875 193.275Q192.76875 191.9 192.37813 191.275Q192.00313 190.63437 191.15938 190.63437Q190.33125 190.63437 189.94063 191.275Q189.56563 191.9 189.56563 193.19687L189.56563 194.93124Q189.56563 196.30624 189.95625 196.97812Q190.3625 197.63437 191.175 197.63437Q191.97188 197.63437 192.3625 197.00937Q192.75313 196.38437 192.76875 195.05624L192.76875 193.275ZM200.95625 194.43124L199.90938 195.50937L199.90938 198.4L198.78438 198.4L198.78438 189.86874L199.90938 189.86874L199.90938 194.0875L203.70625 189.86874L205.06563 189.86874L201.70625 193.63437L205.33125 198.4L203.9875 198.4L200.95625 194.43124ZM206.78438 198.4L206.78438 189.86874L209.58125 189.86874Q210.97188 189.86874 211.65938 190.44687Q212.3625 191.00937 212.3625 192.13437Q212.3625 192.74374 212.01875 193.2125Q211.69063 193.66562 211.09688 193.91562Q211.8 194.10312 212.19063 194.65Q212.59688 195.18124 212.59688 195.93124Q212.59688 197.0875 211.84688 197.74374Q211.1125 198.4 209.75313 198.4L206.78438 198.4ZM207.90938 194.41562L207.90938 197.47812L209.76875 197.47812Q210.56563 197.47812 211.01875 197.07187Q211.47188 196.66562 211.47188 195.94687Q211.47188 194.41562 209.78438 194.41562L207.90938 194.41562ZM207.90938 193.50937L209.6125 193.50937Q210.34688 193.50937 210.78438 193.15Q211.2375 192.775 211.2375 192.13437Q211.2375 191.43124 210.83125 191.11874Q210.425 190.79062 209.58125 190.79062L207.90938 190.79062L207.90938 193.50937Z" fill-rule="nonzero"/><path fill="#757575" d="M278.29688 198.4L272.70312 198.4L272.70312 197.61874L275.65625 194.3375Q276.3125 193.5875 276.5625 193.13437Q276.8125 192.66562 276.8125 192.16562Q276.8125 191.49374 276.40625 191.07187Q276.01562 190.63437 275.32812 190.63437Q274.53125 190.63437 274.07812 191.10312Q273.625 191.55624 273.625 192.38437L272.54688 192.38437Q272.54688 191.19687 273.29688 190.47812Q274.0625 189.74374 275.32812 189.74374Q276.53125 189.74374 277.21875 190.36874Q277.90625 190.99374 277.90625 192.04062Q277.90625 193.29062 276.29688 195.04062L274.01562 197.50937L278.29688 197.50937L278.29688 198.4ZM285.0625 194.75937Q285.0625 196.66562 284.40625 197.60312Q283.76562 198.525 282.375 198.525Q281.01562 198.525 280.35938 197.61874Q279.70312 196.7125 279.67188 194.9L279.67188 193.4625Q279.67188 191.57187 280.3125 190.66562Q280.96875 189.74374 282.35938 189.74374Q283.73438 189.74374 284.39062 190.63437Q285.04688 191.50937 285.0625 193.35312L285.0625 194.75937ZM283.96875 193.275Q283.96875 191.9 283.57812 191.275Q283.20312 190.63437 282.35938 190.63437Q281.53125 190.63437 281.14062 191.275Q280.76562 191.9 280.76562 193.19687L280.76562 194.93124Q280.76562 196.30624 281.15625 196.97812Q281.5625 197.63437 282.375 197.63437Q283.17188 197.63437 283.5625 197.00937Q283.95312 196.38437 283.96875 195.05624L283.96875 193.275ZM292.0625 194.75937Q292.0625 196.66562 291.40625 197.60312Q290.76562 198.525 289.375 198.525Q288.01562 198.525 287.35938 197.61874Q286.70312 196.7125 286.67188 194.9L286.67188 193.4625Q286.67188 191.57187 287.3125 190.66562Q287.96875 189.74374 289.35938 189.74374Q290.73438 189.74374 291.39062 190.63437Q292.04688 191.50937 292.0625 193.35312L292.0625 194.75937ZM290.96875 193.275Q290.96875 191.9 290.57812 191.275Q290.20312 190.63437 289.35938 190.63437Q288.53125 190.63437 288.14062 191.275Q287.76562 191.9 287.76562 193.19687L287.76562 194.93124Q287.76562 196.30624 288.15625 196.97812Q288.5625 197.63437 289.375 197.63437Q290.17188 197.63437 290.5625 197.00937Q290.95312 196.38437 290.96875 195.05624L290.96875 193.275ZM299.0625 194.75937Q299.0625 196.66562 298.40625 197.60312Q297.76562 198.525 296.375 198.525Q295.01562 198.525 294.35938 197.61874Q293.70312 196.7125 293.67188 194.9L293.67188 193.4625Q293.67188 191.57187 294.3125 190.66562Q294.96875 189.74374 296.35938 189.74374Q297.73438 189.74374 298.39062 190.63437Q299.04688 191.50937 299.0625 193.35312L299.0625 194.75937ZM297.96875 193.275Q297.96875 191.9 297.57812 191.275Q297.20312 190.63437 296.35938 190.63437Q295.53125 190.63437 295.14062 191.275Q294.76562 191.9 294.76562 193.19687L294.76562 194.93124Q294.76562 196.30624 295.15625 196.97812Q295.5625 197.63437 296.375 197.63437Q297.17188 197.63437 297.5625 197.00937Q297.95312 196.38437 297.96875 195.05624L297.96875 193.275ZM306.15625 194.43124L305.10938 195.50937L305.10938 198.4L303.98438 198.4L303.98438 189.86874L305.10938 189.86874L305.10938 194.0875L308.90625 189.86874L310.26562 189.86874L306.90625 193.63437L310.53125 198.4L309.1875 198.4L306.15625 194.43124ZM311.98438 198.4L311.98438 189.86874L314.78125 189.86874Q316.17188 189.86874 316.85938 190.44687Q317.5625 191.00937 317.5625 192.13437Q317.5625 192.74374 317.21875 193.2125Q316.89062 193.66562 316.29688 193.91562Q317.0 194.10312 317.39062 194.65Q317.79688 195.18124 317.79688 195.93124Q317.79688 197.0875 317.04688 197.74374Q316.3125 198.4 314.95312 198.4L311.98438 198.4ZM313.10938 194.41562L313.10938 197.47812L314.96875 197.47812Q315.76562 197.47812 316.21875 197.07187Q316.67188 196.66562 316.67188 195.94687Q316.67188 194.41562 314.98438 194.41562L313.10938 194.41562ZM313.10938 193.50937L314.8125 193.50937Q315.54688 193.50937 315.98438 193.15Q316.4375 192.775 316.4375 192.13437Q316.4375 191.43124 316.03125 191.11874Q315.625 190.79062 314.78125 190.79062L313.10938 190.79062L313.10938 193.50937Z" fill-rule="nonzero"/><path fill="#757575" d="M379.48126 193.60312L380.29376 193.60312Q381.075 193.5875 381.5125 193.19687Q381.95 192.80624 381.95 192.13437Q381.95 190.63437 380.45 190.63437Q379.7469 190.63437 379.325 191.04062Q378.91876 191.44687 378.91876 192.10312L377.825 192.10312Q377.825 191.0875 378.5594 190.41562Q379.3094 189.74374 380.45 189.74374Q381.65314 189.74374 382.34064 190.38437Q383.02814 191.025 383.02814 192.16562Q383.02814 192.72812 382.66876 193.24374Q382.3094 193.75937 381.6844 194.025Q382.3875 194.24374 382.7625 194.75937Q383.15314 195.275 383.15314 196.025Q383.15314 197.16562 382.40314 197.85312Q381.65314 198.525 380.45 198.525Q379.2625 198.525 378.4969 197.86874Q377.7469 197.2125 377.7469 196.15L378.84064 196.15Q378.84064 196.82187 379.27814 197.22812Q379.71564 197.63437 380.46564 197.63437Q381.2469 197.63437 381.65314 197.22812Q382.075 196.80624 382.075 196.04062Q382.075 195.30624 381.6219 194.91562Q381.16876 194.50937 380.29376 194.49374L379.48126 194.49374L379.48126 193.60312ZM390.2625 194.75937Q390.2625 196.66562 389.60626 197.60312Q388.96564 198.525 387.575 198.525Q386.21564 198.525 385.5594 197.61874Q384.90314 196.7125 384.8719 194.9L384.8719 193.4625Q384.8719 191.57187 385.5125 190.66562Q386.16876 189.74374 387.5594 189.74374Q388.9344 189.74374 389.59064 190.63437Q390.2469 191.50937 390.2625 193.35312L390.2625 194.75937ZM389.16876 193.275Q389.16876 191.9 388.77814 191.275Q388.40314 190.63437 387.5594 190.63437Q386.73126 190.63437 386.34064 191.275Q385.96564 191.9 385.96564 193.19687L385.96564 194.93124Q385.96564 196.30624 386.35626 196.97812Q386.7625 197.63437 387.575 197.63437Q388.3719 197.63437 388.7625 197.00937Q389.15314 196.38437 389.16876 195.05624L389.16876 193.275ZM397.2625 194.75937Q397.2625 196.66562 396.60626 197.60312Q395.96564 198.525 394.575 198.525Q393.21564 198.525 392.5594 197.61874Q391.90314 196.7125 391.8719 194.9L391.8719 193.4625Q391.8719 191.57187 392.5125 190.66562Q393.16876 189.74374 394.5594 189.74374Q395.9344 189.74374 396.59064 190.63437Q397.2469 191.50937 397.2625 193.35312L397.2625 194.75937ZM396.16876 193.275Q396.16876 191.9 395.77814 191.275Q395.40314 190.63437 394.5594 190.63437Q393.73126 190.63437 393.34064 191.275Q392.96564 191.9 392.96564 193.19687L392.96564 194.93124Q392.96564 196.30624 393.35626 196.97812Q393.7625 197.63437 394.575 197.63437Q395.3719 197.63437 395.7625 197.00937Q396.15314 196.38437 396.16876 195.05624L396.16876 193.275ZM404.2625 194.75937Q404.2625 196.66562 403.60626 197.60312Q402.96564 198.525 401.575 198.525Q400.21564 198.525 399.5594 197.61874Q398.90314 196.7125 398.8719 194.9L398.8719 193.4625Q398.8719 191.57187 399.5125 190.66562Q400.16876 189.74374 401.5594 189.74374Q402.9344 189.74374 403.59064 190.63437Q404.2469 191.50937 404.2625 193.35312L404.2625 194.75937ZM403.16876 193.275Q403.16876 191.9 402.77814 191.275Q402.40314 190.63437 401.5594 190.63437Q400.73126 190.63437 400.34064 191.275Q399.96564 191.9 399.96564 193.19687L399.96564 194.93124Q399.96564 196.30624 400.35626 196.97812Q400.7625 197.63437 401.575 197.63437Q402.3719 197.63437 402.7625 197.00937Q403.15314 196.38437 403.16876 195.05624L403.16876 193.275ZM411.35626 194.43124L410.3094 195.50937L410.3094 198.4L409.1844 198.4L409.1844 189.86874L410.3094 189.86874L410.3094 194.0875L414.10626 189.86874L415.46564 189.86874L412.10626 193.63437L415.73126 198.4L414.3875 198.4L411.35626 194.43124ZM417.1844 198.4L417.1844 189.86874L419.98126 189.86874Q421.3719 189.86874 422.0594 190.44687Q422.7625 191.00937 422.7625 192.13437Q422.7625 192.74374 422.41876 193.2125Q422.09064 193.66562 421.4969 193.91562Q422.2 194.10312 422.59064 194.65Q422.9969 195.18124 422.9969 195.93124Q422.9969 197.0875 422.2469 197.74374Q421.5125 198.4 420.15314 198.4L417.1844 198.4ZM418.3094 194.41562L418.3094 197.47812L420.16876 197.47812Q420.96564 197.47812 421.41876 197.07187Q421.8719 196.66562 421.8719 195.94687Q421.8719 194.41562 420.1844 194.41562L418.3094 194.41562ZM418.3094 193.50937L420.0125 193.50937Q420.7469 193.50937 421.1844 193.15Q421.6375 192.775 421.6375 192.13437Q421.6375 191.43124 421.23126 191.11874Q420.825 190.79062 419.98126 190.79062L418.3094 190.79062L418.3094 193.50937Z" fill-rule="nonzero"/></svg>