<svg version="1.1" viewBox="0.0 0.0 516.0 212.0" fill="none" stroke="none" stroke-linecap="square" stroke-miterlimit="10" width="516" height="212" xmlns:xlink="http://www.w3.org/1999/xlink" xmlns="http://www.w3.org/2000/svg"><path fill="#ffffff" d="M0 0L516.0 0L516.0 212.0L0 212.0L0 0Z" fill-rule="nonzero"/><path fill="#ffffff" d="M0 0L516.0 0L516.0 212.0L0 212.0L0 0Z" fill-rule="nonzero"/><path stroke="#333333" stroke-width="1.0" stroke-linecap="butt" d="M84.5 10.5L84.5 180.5" fill-rule="nonzero"/><path stroke="#cccccc" stroke-width="1.0" stroke-linecap="butt" d="M155.5 10.5L155.5 180.5" fill-rule="nonzero"/><path stroke="#cccccc" stroke-width="1.0" stroke-linecap="butt" d="M227.5 10.5L227.5 180.5" fill-rule="nonzero"/><path stroke="#cccccc" stroke-width="1.0" stroke-linecap="butt" d="M298.5 10.5L298.5 180.5" fill-rule="nonzero"/><path stroke="#cccccc" stroke-width="1.0" stroke-linecap="butt" d="M369.5 10.5L369.5 180.5" fill-rule="nonzero"/><path stroke="#cccccc" stroke-width="1.0" stroke-linecap="butt" d="M441.5 10.5L441.5 180.5" fill-rule="nonzero"/><clipPath id="id_0"><path d="M84.6 10.6L505.4 10.6L505.4 180.4L84.6 180.4L84.6 10.6Z" clip-rule="nonzero"/></clipPath><path stroke="#000000" stroke-width="0.0" stroke-linecap="butt" stroke-opacity="0.0" clip-path="url(#id_0)" d="M85.0 43.0L85.0 22.0L161.0 22.0C162.10457 22.0 163.0 22.89543 163.0 24.0L163.0 41.0C163.0 42.10457 162.10457 43.0 161.0 43.0Z" fill-rule="nonzero"/><path fill="#b0ebf3" clip-path="url(#id_0)" d="M85.0 43.0L85.0 22.0L161.0 22.0C162.10457 22.0 163.0 22.89543 163.0 24.0L163.0 41.0C163.0 42.10457 162.10457 43.0 161.0 43.0Z" fill-rule="nonzero"/><path stroke="#000000" stroke-width="0.0" stroke-linecap="butt" stroke-opacity="0.0" clip-path="url(#id_0)" d="M85.0 75.0L85.0 54.0L218.0 54.0C219.10457 54.0 220.0 54.89543 220.0 56.0L220.0 73.0C220.0 74.10457 219.10457 75.0 218.0 75.0Z" fill-rule="nonzero"/><path fill="#87d1c3" clip-path="url(#id_0)" d="M85.0 75.0L85.0 54.0L218.0 54.0C219.10457 54.0 220.0 54.89543 220.0 56.0L220.0 73.0C220.0 74.10457 219.10457 75.0 218.0 75.0Z" fill-rule="nonzero"/><path stroke="#000000" stroke-width="0.0" stroke-linecap="butt" stroke-opacity="0.0" clip-path="url(#id_0)" d="M85.0 107.0L85.0 86.0L297.0 86.0C298.10458 86.0 299.0 86.89543 299.0 88.0L299.0 105.0C299.0 106.10457 298.10458 107.0 297.0 107.0Z" fill-rule="nonzero"/><path fill="#87d1c3" clip-path="url(#id_0)" d="M85.0 107.0L85.0 86.0L297.0 86.0C298.10458 86.0 299.0 86.89543 299.0 88.0L299.0 105.0C299.0 106.10457 298.10458 107.0 297.0 107.0Z" fill-rule="nonzero"/><path stroke="#000000" stroke-width="0.0" stroke-linecap="butt" stroke-opacity="0.0" clip-path="url(#id_0)" d="M85.0 138.0L85.0 117.0L375.0 117.0C376.10458 117.0 377.0 117.89543 377.0 119.0L377.0 136.0C377.0 137.10457 376.10458 138.0 375.0 138.0Z" fill-rule="nonzero"/><path fill="#a6dc6c" clip-path="url(#id_0)" d="M85.0 138.0L85.0 117.0L375.0 117.0C376.10458 117.0 377.0 117.89543 377.0 119.0L377.0 136.0C377.0 137.10457 376.10458 138.0 375.0 138.0Z" fill-rule="nonzero"/><path stroke="#000000" stroke-width="0.0" stroke-linecap="butt" stroke-opacity="0.0" clip-path="url(#id_0)" d="M85.0 170.0L85.0 149.0L503.0 149.0C504.10458 149.0 505.0 149.89543 505.0 151.0L505.0 168.0C505.0 169.10457 504.10458 170.0 503.0 170.0Z" fill-rule="nonzero"/><path fill="#ffa2a2" clip-path="url(#id_0)" d="M85.0 170.0L85.0 149.0L503.0 149.0C504.10458 149.0 505.0 149.89543 505.0 151.0L505.0 168.0C505.0 169.10457 504.10458 170.0 503.0 170.0Z" fill-rule="nonzero"/><path stroke="#b0ebf3" stroke-width="3.0" stroke-linejoin="round" stroke-linecap="round" d="M145.51987 36.5L144.44174 36.5L144.44174 29.28125L142.25424 30.078125L142.25424 29.09375L145.36362 27.921875L145.51987 27.921875L145.51987 36.5ZM149.09799 35.9375Q149.09799 35.65625 149.25424 35.46875Q149.42612 35.28125 149.75424 35.28125Q150.09799 35.28125 150.26987 35.46875Q150.44174 35.65625 150.44174 35.9375Q150.44174 36.203125 150.26987 36.390625Q150.09799 36.5625 149.75424 36.5625Q149.42612 36.5625 149.25424 36.390625Q149.09799 36.203125 149.09799 35.9375ZM155.51987 36.5L154.44174 36.5L154.44174 29.28125L152.25424 30.078125L152.25424 29.09375L155.36362 27.921875L155.51987 27.921875L155.51987 36.5Z" fill-rule="nonzero"/><path fill="#000000" d="M145.51987 36.5L144.44174 36.5L144.44174 29.28125L142.25424 30.078125L142.25424 29.09375L145.36362 27.921875L145.51987 27.921875L145.51987 36.5ZM149.09799 35.9375Q149.09799 35.65625 149.25424 35.46875Q149.42612 35.28125 149.75424 35.28125Q150.09799 35.28125 150.26987 35.46875Q150.44174 35.65625 150.44174 35.9375Q150.44174 36.203125 150.26987 36.390625Q150.09799 36.5625 149.75424 36.5625Q149.42612 36.5625 149.25424 36.390625Q149.09799 36.203125 149.09799 35.9375ZM155.51987 36.5L154.44174 36.5L154.44174 29.28125L152.25424 30.078125L152.25424 29.09375L155.36362 27.921875L155.51987 27.921875L155.51987 36.5Z" fill-rule="nonzero"/><path stroke="#87d1c3" stroke-width="3.0" stroke-linejoin="round" stroke-linecap="round" d="M202.57748 68.5L201.49936 68.5L201.49936 61.28125L199.31186 62.078125L199.31186 61.09375L202.42123 59.921875L202.57748 59.921875L202.57748 68.5ZM206.15561 67.9375Q206.15561 67.65625 206.31186 67.46875Q206.48373 67.28125 206.81186 67.28125Q207.15561 67.28125 207.32748 67.46875Q207.49936 67.65625 207.49936 67.9375Q207.49936 68.203125 207.32748 68.390625Q207.15561 68.5625 206.81186 68.5625Q206.48373 68.5625 206.31186 68.390625Q206.15561 68.203125 206.15561 67.9375ZM213.17123 64.75Q212.84311 65.15625 212.35873 65.40625Q211.88998 65.640625 211.32748 65.640625Q210.59311 65.640625 210.04623 65.28125Q209.49936 64.921875 209.20248 64.265625Q208.90561 63.59375 208.90561 62.796875Q208.90561 61.953125 209.21811 61.265625Q209.54623 60.578125 210.13998 60.21875Q210.74936 59.84375 211.54623 59.84375Q212.81186 59.84375 213.53061 60.796875Q214.26498 61.75 214.26498 63.375L214.26498 63.6875Q214.26498 66.1875 213.28061 67.328125Q212.29623 68.46875 210.31186 68.5L210.09311 68.5L210.09311 67.59375L210.32748 67.59375Q211.67123 67.5625 212.38998 66.890625Q213.10873 66.21875 213.17123 64.75ZM211.49936 64.75Q212.04623 64.75 212.49936 64.421875Q212.96811 64.078125 213.18686 63.59375L213.18686 63.15625Q213.18686 62.09375 212.71811 61.421875Q212.24936 60.75 211.54623 60.75Q210.82748 60.75 210.38998 61.296875Q209.96811 61.84375 209.96811 62.75Q209.96811 63.625 210.37436 64.1875Q210.79623 64.75 211.49936 64.75Z" fill-rule="nonzero"/><path fill="#000000" d="M202.57748 68.5L201.49936 68.5L201.49936 61.28125L199.31186 62.078125L199.31186 61.09375L202.42123 59.921875L202.57748 59.921875L202.57748 68.5ZM206.15561 67.9375Q206.15561 67.65625 206.31186 67.46875Q206.48373 67.28125 206.81186 67.28125Q207.15561 67.28125 207.32748 67.46875Q207.49936 67.65625 207.49936 67.9375Q207.49936 68.203125 207.32748 68.390625Q207.15561 68.5625 206.81186 68.5625Q206.48373 68.5625 206.31186 68.390625Q206.15561 68.203125 206.15561 67.9375ZM213.17123 64.75Q212.84311 65.15625 212.35873 65.40625Q211.88998 65.640625 211.32748 65.640625Q210.59311 65.640625 210.04623 65.28125Q209.49936 64.921875 209.20248 64.265625Q208.90561 63.59375 208.90561 62.796875Q208.90561 61.953125 209.21811 61.265625Q209.54623 60.578125 210.13998 60.21875Q210.74936 59.84375 211.54623 59.84375Q212.81186 59.84375 213.53061 60.796875Q214.26498 61.75 214.26498 63.375L214.26498 63.6875Q214.26498 66.1875 213.28061 67.328125Q212.29623 68.46875 210.31186 68.5L210.09311 68.5L210.09311 67.59375L210.32748 67.59375Q211.67123 67.5625 212.38998 66.890625Q213.10873 66.21875 213.17123 64.75ZM211.49936 64.75Q212.04623 64.75 212.49936 64.421875Q212.96811 64.078125 213.18686 63.59375L213.18686 63.15625Q213.18686 62.09375 212.71811 61.421875Q212.24936 60.75 211.54623 60.75Q210.82748 60.75 210.38998 61.296875Q209.96811 61.84375 209.96811 62.75Q209.96811 63.625 210.37436 64.1875Q210.79623 64.75 211.49936 64.75Z" fill-rule="nonzero"/><path stroke="#87d1c3" stroke-width="3.0" stroke-linejoin="round" stroke-linecap="round" d="M289.04736 95.703125L289.85986 95.703125Q290.6411 95.6875 291.0786 95.296875Q291.5161 94.90625 291.5161 94.234375Q291.5161 92.734375 290.0161 92.734375Q289.313 92.734375 288.8911 93.140625Q288.48486 93.546875 288.48486 94.203125L287.3911 94.203125Q287.3911 93.1875 288.1255 92.515625Q288.8755 91.84375 290.0161 91.84375Q291.21924 91.84375 291.90674 92.484375Q292.59424 93.125 292.59424 94.265625Q292.59424 94.828125 292.23486 95.34375Q291.8755 95.859375 291.2505 96.125Q291.9536 96.34375 292.3286 96.859375Q292.71924 97.375 292.71924 98.125Q292.71924 99.265625 291.96924 99.953125Q291.21924 100.625 290.0161 100.625Q288.8286 100.625 288.063 99.96875Q287.313 99.3125 287.313 98.25L288.40674 98.25Q288.40674 98.921875 288.84424 99.328125Q289.28174 99.734375 290.03174 99.734375Q290.813 99.734375 291.21924 99.328125Q291.6411 98.90625 291.6411 98.140625Q291.6411 97.40625 291.188 97.015625Q290.73486 96.609375 289.85986 96.59375L289.04736 96.59375L289.04736 95.703125Z" fill-rule="nonzero"/><path fill="#000000" d="M289.04736 95.703125L289.85986 95.703125Q290.6411 95.6875 291.0786 95.296875Q291.5161 94.90625 291.5161 94.234375Q291.5161 92.734375 290.0161 92.734375Q289.313 92.734375 288.8911 93.140625Q288.48486 93.546875 288.48486 94.203125L287.3911 94.203125Q287.3911 93.1875 288.1255 92.515625Q288.8755 91.84375 290.0161 91.84375Q291.21924 91.84375 291.90674 92.484375Q292.59424 93.125 292.59424 94.265625Q292.59424 94.828125 292.23486 95.34375Q291.8755 95.859375 291.2505 96.125Q291.9536 96.34375 292.3286 96.859375Q292.71924 97.375 292.71924 98.125Q292.71924 99.265625 291.96924 99.953125Q291.21924 100.625 290.0161 100.625Q288.8286 100.625 288.063 99.96875Q287.313 99.3125 287.313 98.25L288.40674 98.25Q288.40674 98.921875 288.84424 99.328125Q289.28174 99.734375 290.03174 99.734375Q290.813 99.734375 291.21924 99.328125Q291.6411 98.90625 291.6411 98.140625Q291.6411 97.40625 291.188 97.015625Q290.73486 96.609375 289.85986 96.59375L289.04736 96.59375L289.04736 95.703125Z" fill-rule="nonzero"/><path stroke="#a6dc6c" stroke-width="3.0" stroke-linejoin="round" stroke-linecap="round" d="M360.5016 128.64062L361.6891 128.64062L361.6891 129.51562L360.5016 129.51562L360.5016 131.5L359.42346 131.5L359.42346 129.51562L355.53284 129.51562L355.53284 128.875L359.34534 122.96875L360.5016 122.96875L360.5016 128.64062ZM356.7672 128.64062L359.42346 128.64062L359.42346 124.453125L359.28284 124.6875L356.7672 128.64062ZM363.0641 130.9375Q363.0641 130.65625 363.22034 130.46875Q363.3922 130.28125 363.72034 130.28125Q364.0641 130.28125 364.23596 130.46875Q364.40784 130.65625 364.40784 130.9375Q364.40784 131.20312 364.23596 131.39062Q364.0641 131.5625 363.72034 131.5625Q363.3922 131.5625 363.22034 131.39062Q363.0641 131.20312 363.0641 130.9375ZM369.48596 131.5L368.40784 131.5L368.40784 124.28125L366.22034 125.078125L366.22034 124.09375L369.3297 122.921875L369.48596 122.921875L369.48596 131.5Z" fill-rule="nonzero"/><path fill="#000000" d="M360.5016 128.64062L361.6891 128.64062L361.6891 129.51562L360.5016 129.51562L360.5016 131.5L359.42346 131.5L359.42346 129.51562L355.53284 129.51562L355.53284 128.875L359.34534 122.96875L360.5016 122.96875L360.5016 128.64062ZM356.7672 128.64062L359.42346 128.64062L359.42346 124.453125L359.28284 124.6875L356.7672 128.64062ZM363.0641 130.9375Q363.0641 130.65625 363.22034 130.46875Q363.3922 130.28125 363.72034 130.28125Q364.0641 130.28125 364.23596 130.46875Q364.40784 130.65625 364.40784 130.9375Q364.40784 131.20312 364.23596 131.39062Q364.0641 131.5625 363.72034 131.5625Q363.3922 131.5625 363.22034 131.39062Q363.0641 131.20312 363.0641 130.9375ZM369.48596 131.5L368.40784 131.5L368.40784 124.28125L366.22034 125.078125L366.22034 124.09375L369.3297 122.921875L369.48596 122.921875L369.48596 131.5Z" fill-rule="nonzero"/><path stroke="#ffa2a2" stroke-width="3.0" stroke-linejoin="round" stroke-linecap="round" d="M484.80313 159.21875L485.24063 154.96875L489.61563 154.96875L489.61563 155.96875L486.1625 155.96875L485.89688 158.29688Q486.5375 157.92188 487.33438 157.92188Q488.49063 157.92188 489.17813 158.70312Q489.86563 159.46875 489.86563 160.78125Q489.86563 162.09375 489.14688 162.85938Q488.44376 163.625 487.1625 163.625Q486.0375 163.625 485.31876 163.0Q484.6 162.35938 484.50626 161.25L485.52188 161.25Q485.63126 161.98438 486.05313 162.35938Q486.475 162.73438 487.1625 162.73438Q487.9125 162.73438 488.35 162.21875Q488.7875 161.70312 488.7875 160.79688Q488.7875 159.9375 488.31876 159.42188Q487.85 158.90625 487.06876 158.90625Q486.36563 158.90625 485.95938 159.20312L485.67813 159.4375L484.80313 159.21875ZM491.44376 162.9375Q491.44376 162.65625 491.6 162.46875Q491.77188 162.28125 492.1 162.28125Q492.44376 162.28125 492.61563 162.46875Q492.7875 162.65625 492.7875 162.9375Q492.7875 163.20312 492.61563 163.39062Q492.44376 163.5625 492.1 163.5625Q491.77188 163.5625 491.6 163.39062Q491.44376 163.20312 491.44376 162.9375ZM498.45938 159.75Q498.13126 160.15625 497.64688 160.40625Q497.17813 160.64062 496.61563 160.64062Q495.88126 160.64062 495.33438 160.28125Q494.7875 159.92188 494.49063 159.26562Q494.19376 158.59375 494.19376 157.79688Q494.19376 156.95312 494.50626 156.26562Q494.83438 155.57812 495.42813 155.21875Q496.0375 154.84375 496.83438 154.84375Q498.1 154.84375 498.81876 155.79688Q499.55313 156.75 499.55313 158.375L499.55313 158.6875Q499.55313 161.1875 498.56876 162.32812Q497.58438 163.46875 495.6 163.5L495.38126 163.5L495.38126 162.59375L495.61563 162.59375Q496.95938 162.5625 497.67813 161.89062Q498.39688 161.21875 498.45938 159.75ZM496.7875 159.75Q497.33438 159.75 497.7875 159.42188Q498.25626 159.07812 498.475 158.59375L498.475 158.15625Q498.475 157.09375 498.00626 156.42188Q497.5375 155.75 496.83438 155.75Q496.11563 155.75 495.67813 156.29688Q495.25626 156.84375 495.25626 157.75Q495.25626 158.625 495.6625 159.1875Q496.08438 159.75 496.7875 159.75Z" fill-rule="nonzero"/><path fill="#000000" d="M484.80313 159.21875L485.24063 154.96875L489.61563 154.96875L489.61563 155.96875L486.1625 155.96875L485.89688 158.29688Q486.5375 157.92188 487.33438 157.92188Q488.49063 157.92188 489.17813 158.70312Q489.86563 159.46875 489.86563 160.78125Q489.86563 162.09375 489.14688 162.85938Q488.44376 163.625 487.1625 163.625Q486.0375 163.625 485.31876 163.0Q484.6 162.35938 484.50626 161.25L485.52188 161.25Q485.63126 161.98438 486.05313 162.35938Q486.475 162.73438 487.1625 162.73438Q487.9125 162.73438 488.35 162.21875Q488.7875 161.70312 488.7875 160.79688Q488.7875 159.9375 488.31876 159.42188Q487.85 158.90625 487.06876 158.90625Q486.36563 158.90625 485.95938 159.20312L485.67813 159.4375L484.80313 159.21875ZM491.44376 162.9375Q491.44376 162.65625 491.6 162.46875Q491.77188 162.28125 492.1 162.28125Q492.44376 162.28125 492.61563 162.46875Q492.7875 162.65625 492.7875 162.9375Q492.7875 163.20312 492.61563 163.39062Q492.44376 163.5625 492.1 163.5625Q491.77188 163.5625 491.6 163.39062Q491.44376 163.20312 491.44376 162.9375ZM498.45938 159.75Q498.13126 160.15625 497.64688 160.40625Q497.17813 160.64062 496.61563 160.64062Q495.88126 160.64062 495.33438 160.28125Q494.7875 159.92188 494.49063 159.26562Q494.19376 158.59375 494.19376 157.79688Q494.19376 156.95312 494.50626 156.26562Q494.83438 155.57812 495.42813 155.21875Q496.0375 154.84375 496.83438 154.84375Q498.1 154.84375 498.81876 155.79688Q499.55313 156.75 499.55313 158.375L499.55313 158.6875Q499.55313 161.1875 498.56876 162.32812Q497.58438 163.46875 495.6 163.5L495.38126 163.5L495.38126 162.59375L495.61563 162.59375Q496.95938 162.5625 497.67813 161.89062Q498.39688 161.21875 498.45938 159.75ZM496.7875 159.75Q497.33438 159.75 497.7875 159.42188Q498.25626 159.07812 498.475 158.59375L498.475 158.15625Q498.475 157.09375 498.00626 156.42188Q497.5375 155.75 496.83438 155.75Q496.11563 155.75 495.67813 156.29688Q495.25626 156.84375 495.25626 157.75Q495.25626 158.625 495.6625 159.1875Q496.08438 159.75 496.7875 159.75Z" fill-rule="nonzero"/><path fill="#757575" d="M23.1 32.72649Q21.6625 32.304615 20.990625 31.69524Q20.334375 31.085865 20.334375 30.19524Q20.334375 29.19524 21.13125 28.53899Q21.94375 27.867115 23.240625 27.867115Q24.115625 27.867115 24.803125 28.210865Q25.490625 28.554615 25.865625 29.148365Q26.25625 29.742115 26.25625 30.460865L25.115625 30.460865Q25.115625 29.679615 24.615625 29.242115Q24.13125 28.804615 23.240625 28.804615Q22.4125 28.804615 21.94375 29.179615Q21.475 29.53899 21.475 30.179615Q21.475 30.710865 21.9125 31.07024Q22.365625 31.429615 23.428125 31.72649Q24.490625 32.023365 25.084375 32.38274Q25.69375 32.742115 25.975 33.22649Q26.271875 33.710865 26.271875 34.35149Q26.271875 35.398365 25.459375 36.023365Q24.646875 36.648365 23.303125 36.648365Q22.4125 36.648365 21.646875 36.304615Q20.896875 35.960865 20.475 35.38274Q20.06875 34.78899 20.06875 34.054615L21.19375 34.054615Q21.19375 34.82024 21.771875 35.273365Q22.35 35.72649 23.303125 35.72649Q24.19375 35.72649 24.6625 35.367115Q25.13125 34.992115 25.13125 34.367115Q25.13125 33.742115 24.69375 33.398365Q24.25625 33.054615 23.1 32.72649ZM29.490625 34.929615L30.975 30.179615L32.13125 30.179615L29.584375 37.50774Q28.990625 39.085865 27.709375 39.085865L27.490625 39.07024L27.1 38.992115L27.1 38.117115L27.38125 38.13274Q27.94375 38.13274 28.240625 37.91399Q28.553125 37.69524 28.75625 37.10149L28.990625 36.44524L26.725 30.179615L27.9125 30.179615L29.490625 34.929615ZM34.44375 30.179615L34.475 30.88274Q35.1625 30.07024 36.35 30.07024Q37.678123 30.07024 38.1625 31.085865Q38.475 30.63274 38.975 30.35149Q39.490623 30.07024 40.178123 30.07024Q42.271873 30.07024 42.303123 32.273365L42.303123 36.523365L41.225 36.523365L41.225 32.335865Q41.225 31.66399 40.9125 31.335865Q40.6 30.992115 39.865623 30.992115Q39.25625 30.992115 38.85 31.35149Q38.459373 31.710865 38.396873 32.32024L38.396873 36.523365L37.31875 36.523365L37.31875 32.367115Q37.31875 30.992115 35.959373 30.992115Q34.896873 30.992115 34.50625 31.898365L34.50625 36.523365L33.4125 36.523365L33.4125 30.179615L34.44375 30.179615ZM45.6 36.523365L44.521873 36.523365L44.521873 27.523365L45.6 27.523365L45.6 36.523365ZM50.053123 36.648365Q48.75625 36.648365 47.94375 35.804615Q47.146873 34.94524 47.146873 33.523365L47.146873 33.335865Q47.146873 32.38274 47.50625 31.648365Q47.865623 30.898365 48.50625 30.492115Q49.1625 30.07024 49.9125 30.07024Q51.146873 30.07024 51.834373 30.88274Q52.521873 31.69524 52.521873 33.210865L52.521873 33.66399L48.225 33.66399Q48.25625 34.60149 48.771873 35.179615Q49.303123 35.75774 50.115623 35.75774Q50.678123 35.75774 51.06875 35.523365Q51.475 35.28899 51.7875 34.898365L52.44375 35.41399Q51.646873 36.648365 50.053123 36.648365ZM49.9125 30.960865Q49.25625 30.960865 48.803123 31.44524Q48.365623 31.91399 48.271873 32.773365L51.44375 32.773365L51.44375 32.69524Q51.396873 31.867115 50.990623 31.41399Q50.6 30.960865 49.9125 30.960865ZM55.553123 32.492115L56.959373 30.179615L58.225 30.179615L56.146873 33.32024L58.2875 36.523365L57.0375 36.523365L55.56875 34.148365L54.1 36.523365L52.834373 36.523365L54.975 33.32024L52.9125 30.179615L54.1625 30.179615L55.553123 32.492115ZM66.88125 33.66399L68.06875 33.66399L68.06875 34.53899L66.88125 34.53899L66.88125 36.523365L65.80312 36.523365L65.80312 34.53899L61.9125 34.53899L61.9125 33.898365L65.725 27.992115L66.88125 27.992115L66.88125 33.66399ZM63.146873 33.66399L65.80312 33.66399L65.80312 29.47649L65.6625 29.710865L63.146873 33.66399ZM69.44375 35.960865Q69.44375 35.679615 69.6 35.492115Q69.77187 35.304615 70.1 35.304615Q70.44375 35.304615 70.61562 35.492115Q70.7875 35.679615 70.7875 35.960865Q70.7875 36.22649 70.61562 36.41399Q70.44375 36.585865 70.1 36.585865Q69.77187 36.585865 69.6 36.41399Q69.44375 36.22649 69.44375 35.960865ZM75.86562 36.523365L74.7875 36.523365L74.7875 29.304615L72.6 30.10149L72.6 29.117115L75.70937 27.94524L75.86562 27.94524L75.86562 36.523365Z" fill-rule="nonzero"/><path fill="#757575" d="M14.1 64.464806Q12.6625 64.04293 11.990625 63.433556Q11.334375 62.82418 11.334375 61.933556Q11.334375 60.933556 12.13125 60.277306Q12.94375 59.60543 14.240625 59.60543Q15.115625 59.60543 15.803125 59.94918Q16.490625 60.29293 16.865625 60.88668Q17.25625 61.48043 17.25625 62.19918L16.115625 62.19918Q16.115625 61.41793 15.615625 60.98043Q15.13125 60.54293 14.240625 60.54293Q13.4125 60.54293 12.94375 60.91793Q12.475 61.277306 12.475 61.91793Q12.475 62.44918 12.9125 62.808556Q13.365625 63.16793 14.428125 63.464806Q15.490625 63.76168 16.084375 64.121056Q16.69375 64.48043 16.975 64.964806Q17.271875 65.44918 17.271875 66.089806Q17.271875 67.13668 16.459375 67.76168Q15.646875 68.38668 14.303125 68.38668Q13.4125 68.38668 12.646875 68.04293Q11.896875 67.69918 11.475 67.121056Q11.06875 66.527306 11.06875 65.79293L12.19375 65.79293Q12.19375 66.558556 12.771875 67.01168Q13.35 67.464806 14.303125 67.464806Q15.19375 67.464806 15.6625 67.10543Q16.13125 66.73043 16.13125 66.10543Q16.13125 65.48043 15.69375 65.13668Q15.25625 64.79293 14.1 64.464806ZM20.490625 66.66793L21.975 61.91793L23.13125 61.91793L20.584375 69.246056Q19.990625 70.82418 18.709375 70.82418L18.490625 70.808556L18.1 70.73043L18.1 69.85543L18.38125 69.871056Q18.94375 69.871056 19.240625 69.652306Q19.553125 69.433556 19.75625 68.839806L19.990625 68.183556L17.725 61.91793L18.9125 61.91793L20.490625 66.66793ZM25.44375 61.91793L25.475 62.621056Q26.1625 61.808556 27.35 61.808556Q28.678125 61.808556 29.1625 62.82418Q29.475 62.371056 29.975 62.089806Q30.490625 61.808556 31.178125 61.808556Q33.271873 61.808556 33.303123 64.01168L33.303123 68.26168L32.225 68.26168L32.225 64.07418Q32.225 63.402306 31.9125 63.07418Q31.6 62.73043 30.865625 62.73043Q30.25625 62.73043 29.85 63.089806Q29.459375 63.44918 29.396875 64.058556L29.396875 68.26168L28.31875 68.26168L28.31875 64.10543Q28.31875 62.73043 26.959375 62.73043Q25.896875 62.73043 25.50625 63.63668L25.50625 68.26168L24.4125 68.26168L24.4125 61.91793L25.44375 61.91793ZM35.959373 68.26168L35.959373 62.76168L34.959373 62.76168L34.959373 61.91793L35.959373 61.91793L35.959373 61.277306Q35.959373 60.246056 36.490623 59.69918Q37.0375 59.13668 38.0375 59.13668Q38.4125 59.13668 38.7875 59.23043L38.725 60.121056Q38.44375 60.058556 38.146873 60.058556Q37.615623 60.058556 37.31875 60.371056Q37.0375 60.683556 37.0375 61.246056L37.0375 61.91793L38.396873 61.91793L38.396873 62.76168L37.0375 62.76168L37.0375 68.26168L35.959373 68.26168ZM39.13125 65.027306Q39.13125 64.10543 39.490623 63.35543Q39.865623 62.60543 40.521873 62.214806Q41.178123 61.808556 42.00625 61.808556Q43.303123 61.808556 44.1 62.69918Q44.9125 63.589806 44.9125 65.089806L44.9125 65.16793Q44.9125 66.089806 44.553123 66.82418Q44.19375 67.558556 43.5375 67.98043Q42.88125 68.38668 42.021873 68.38668Q40.740623 68.38668 39.928123 67.496056Q39.13125 66.589806 39.13125 65.10543L39.13125 65.027306ZM40.225 65.16793Q40.225 66.214806 40.709373 66.85543Q41.209373 67.496056 42.021873 67.496056Q42.85 67.496056 43.334373 66.85543Q43.81875 66.19918 43.81875 65.027306Q43.81875 63.996056 43.31875 63.35543Q42.834373 62.69918 42.00625 62.69918Q41.209373 62.69918 40.709373 63.339806Q40.225 63.964806 40.225 65.16793ZM47.44375 61.91793L47.475 62.714806Q48.209373 61.808556 49.38125 61.808556Q51.396873 61.808556 51.4125 64.07418L51.4125 68.26168L50.31875 68.26168L50.31875 64.058556Q50.31875 63.38668 50.00625 63.058556Q49.709373 62.73043 49.053123 62.73043Q48.521873 62.73043 48.115623 63.01168Q47.725 63.29293 47.50625 63.746056L47.50625 68.26168L46.428123 68.26168L46.428123 61.91793L47.44375 61.91793ZM55.490623 66.66793L56.975 61.91793L58.13125 61.91793L55.584373 69.246056Q54.990623 70.82418 53.709373 70.82418L53.490623 70.808556L53.1 70.73043L53.1 69.85543L53.38125 69.871056Q53.94375 69.871056 54.240623 69.652306Q54.553123 69.433556 54.75625 68.839806L54.990623 68.183556L52.725 61.91793L53.9125 61.91793L55.490623 66.66793ZM66.88125 65.402306L68.06875 65.402306L68.06875 66.277306L66.88125 66.277306L66.88125 68.26168L65.80312 68.26168L65.80312 66.277306L61.9125 66.277306L61.9125 65.63668L65.725 59.73043L66.88125 59.73043L66.88125 65.402306ZM63.146873 65.402306L65.80312 65.402306L65.80312 61.214806L65.6625 61.44918L63.146873 65.402306ZM69.44375 67.69918Q69.44375 67.41793 69.6 67.23043Q69.77187 67.04293 70.1 67.04293Q70.44375 67.04293 70.61562 67.23043Q70.7875 67.41793 70.7875 67.69918Q70.7875 67.964806 70.61562 68.152306Q70.44375 68.32418 70.1 68.32418Q69.77187 68.32418 69.6 68.152306Q69.44375 67.964806 69.44375 67.69918ZM77.89687 68.26168L72.30312 68.26168L72.30312 67.48043L75.25625 64.19918Q75.9125 63.44918 76.1625 62.996056Q76.4125 62.527306 76.4125 62.027306Q76.4125 61.35543 76.00625 60.933556Q75.61562 60.496056 74.92812 60.496056Q74.13125 60.496056 73.67812 60.964806Q73.225 61.41793 73.225 62.246056L72.14687 62.246056Q72.14687 61.058556 72.89687 60.339806Q73.6625 59.60543 74.92812 59.60543Q76.13125 59.60543 76.81875 60.23043Q77.50625 60.85543 77.50625 61.902306Q77.50625 63.152306 75.89687 64.902306L73.61562 67.371056L77.89687 67.371056L77.89687 68.26168Z" fill-rule="nonzero"/><path fill="#757575" d="M14.1 96.203125Q12.6625 95.78125 11.990625 95.171875Q11.334375 94.5625 11.334375 93.671875Q11.334375 92.671875 12.13125 92.015625Q12.94375 91.34375 14.240625 91.34375Q15.115625 91.34375 15.803125 91.6875Q16.490625 92.03125 16.865625 92.625Q17.25625 93.21875 17.25625 93.9375L16.115625 93.9375Q16.115625 93.15625 15.615625 92.71875Q15.13125 92.28125 14.240625 92.28125Q13.4125 92.28125 12.94375 92.65625Q12.475 93.015625 12.475 93.65625Q12.475 94.1875 12.9125 94.546875Q13.365625 94.90625 14.428125 95.203125Q15.490625 95.5 16.084375 95.859375Q16.69375 96.21875 16.975 96.703125Q17.271875 97.1875 17.271875 97.828125Q17.271875 98.875 16.459375 99.5Q15.646875 100.125 14.303125 100.125Q13.4125 100.125 12.646875 99.78125Q11.896875 99.4375 11.475 98.859375Q11.06875 98.265625 11.06875 97.53125L12.19375 97.53125Q12.19375 98.296875 12.771875 98.75Q13.35 99.203125 14.303125 99.203125Q15.19375 99.203125 15.6625 98.84375Q16.13125 98.46875 16.13125 97.84375Q16.13125 97.21875 15.69375 96.875Q15.25625 96.53125 14.1 96.203125ZM20.490625 98.40625L21.975 93.65625L23.13125 93.65625L20.584375 100.984375Q19.990625 102.5625 18.709375 102.5625L18.490625 102.546875L18.1 102.46875L18.1 101.59375L18.38125 101.609375Q18.94375 101.609375 19.240625 101.390625Q19.553125 101.171875 19.75625 100.578125L19.990625 99.921875L17.725 93.65625L18.9125 93.65625L20.490625 98.40625ZM25.44375 93.65625L25.475 94.359375Q26.1625 93.546875 27.35 93.546875Q28.678125 93.546875 29.1625 94.5625Q29.475 94.109375 29.975 93.828125Q30.490625 93.546875 31.178125 93.546875Q33.271873 93.546875 33.303123 95.75L33.303123 100.0L32.225 100.0L32.225 95.8125Q32.225 95.140625 31.9125 94.8125Q31.6 94.46875 30.865625 94.46875Q30.25625 94.46875 29.85 94.828125Q29.459375 95.1875 29.396875 95.796875L29.396875 100.0L28.31875 100.0L28.31875 95.84375Q28.31875 94.46875 26.959375 94.46875Q25.896875 94.46875 25.50625 95.375L25.50625 100.0L24.4125 100.0L24.4125 93.65625L25.44375 93.65625ZM35.959373 100.0L35.959373 94.5L34.959373 94.5L34.959373 93.65625L35.959373 93.65625L35.959373 93.015625Q35.959373 91.984375 36.490623 91.4375Q37.0375 90.875 38.0375 90.875Q38.4125 90.875 38.7875 90.96875L38.725 91.859375Q38.44375 91.796875 38.146873 91.796875Q37.615623 91.796875 37.31875 92.109375Q37.0375 92.421875 37.0375 92.984375L37.0375 93.65625L38.396873 93.65625L38.396873 94.5L37.0375 94.5L37.0375 100.0L35.959373 100.0ZM39.13125 96.765625Q39.13125 95.84375 39.490623 95.09375Q39.865623 94.34375 40.521873 93.953125Q41.178123 93.546875 42.00625 93.546875Q43.303123 93.546875 44.1 94.4375Q44.9125 95.328125 44.9125 96.828125L44.9125 96.90625Q44.9125 97.828125 44.553123 98.5625Q44.19375 99.296875 43.5375 99.71875Q42.88125 100.125 42.021873 100.125Q40.740623 100.125 39.928123 99.234375Q39.13125 98.328125 39.13125 96.84375L39.13125 96.765625ZM40.225 96.90625Q40.225 97.953125 40.709373 98.59375Q41.209373 99.234375 42.021873 99.234375Q42.85 99.234375 43.334373 98.59375Q43.81875 97.9375 43.81875 96.765625Q43.81875 95.734375 43.31875 95.09375Q42.834373 94.4375 42.00625 94.4375Q41.209373 94.4375 40.709373 95.078125Q40.225 95.703125 40.225 96.90625ZM47.44375 93.65625L47.475 94.453125Q48.209373 93.546875 49.38125 93.546875Q51.396873 93.546875 51.4125 95.8125L51.4125 100.0L50.31875 100.0L50.31875 95.796875Q50.31875 95.125 50.00625 94.796875Q49.709373 94.46875 49.053123 94.46875Q48.521873 94.46875 48.115623 94.75Q47.725 95.03125 47.50625 95.484375L47.50625 100.0L46.428123 100.0L46.428123 93.65625L47.44375 93.65625ZM55.490623 98.40625L56.975 93.65625L58.13125 93.65625L55.584373 100.984375Q54.990623 102.5625 53.709373 102.5625L53.490623 102.546875L53.1 102.46875L53.1 101.59375L53.38125 101.609375Q53.94375 101.609375 54.240623 101.390625Q54.553123 101.171875 54.75625 100.578125L54.990623 99.921875L52.725 93.65625L53.9125 93.65625L55.490623 98.40625ZM63.88125 95.203125L64.69375 95.203125Q65.475 95.1875 65.9125 94.796875Q66.35 94.40625 66.35 93.734375Q66.35 92.234375 64.85 92.234375Q64.14687 92.234375 63.725 92.640625Q63.31875 93.046875 63.31875 93.703125L62.225 93.703125Q62.225 92.6875 62.959373 92.015625Q63.709373 91.34375 64.85 91.34375Q66.05312 91.34375 66.74062 91.984375Q67.42812 92.625 67.42812 93.765625Q67.42812 94.328125 67.06875 94.84375Q66.70937 95.359375 66.08437 95.625Q66.7875 95.84375 67.1625 96.359375Q67.55312 96.875 67.55312 97.625Q67.55312 98.765625 66.80312 99.453125Q66.05312 100.125 64.85 100.125Q63.6625 100.125 62.896873 99.46875Q62.146873 98.8125 62.146873 97.75L63.240623 97.75Q63.240623 98.421875 63.678123 98.828125Q64.11562 99.234375 64.86562 99.234375Q65.64687 99.234375 66.05312 98.828125Q66.475 98.40625 66.475 97.640625Q66.475 96.90625 66.02187 96.515625Q65.56875 96.109375 64.69375 96.09375L63.88125 96.09375L63.88125 95.203125ZM69.44375 99.4375Q69.44375 99.15625 69.6 98.96875Q69.77187 98.78125 70.1 98.78125Q70.44375 98.78125 70.61562 98.96875Q70.7875 99.15625 70.7875 99.4375Q70.7875 99.703125 70.61562 99.890625Q70.44375 100.0625 70.1 100.0625Q69.77187 100.0625 69.6 99.890625Q69.44375 99.703125 69.44375 99.4375ZM76.88125 97.140625L78.06875 97.140625L78.06875 98.015625L76.88125 98.015625L76.88125 100.0L75.80312 100.0L75.80312 98.015625L71.9125 98.015625L71.9125 97.375L75.725 91.46875L76.88125 91.46875L76.88125 97.140625ZM73.14687 97.140625L75.80312 97.140625L75.80312 92.953125L75.6625 93.1875L73.14687 97.140625Z" fill-rule="nonzero"/><path fill="#757575" d="M33.428123 130.81644L38.31875 130.81644L38.31875 131.73831L32.1 131.73831L32.1 130.89456L36.7875 124.12894L32.178123 124.12894L32.178123 123.20706L38.13125 123.20706L38.13125 124.03519L33.428123 130.81644ZM42.053123 131.86331Q40.75625 131.86331 39.94375 131.01956Q39.146873 130.16019 39.146873 128.73831L39.146873 128.55081Q39.146873 127.59769 39.50625 126.86331Q39.865623 126.11331 40.50625 125.70706Q41.1625 125.28519 41.9125 125.28519Q43.146873 125.28519 43.834373 126.09769Q44.521873 126.91019 44.521873 128.42581L44.521873 128.87894L40.225 128.87894Q40.25625 129.81644 40.771873 130.39456Q41.303123 130.97269 42.115623 130.97269Q42.678123 130.97269 43.06875 130.73831Q43.475 130.50394 43.7875 130.11331L44.44375 130.62894Q43.646873 131.86331 42.053123 131.86331ZM41.9125 126.17581Q41.25625 126.17581 40.803123 126.66019Q40.365623 127.12894 40.271873 127.98831L43.44375 127.98831L43.44375 127.91019Q43.396873 127.08206 42.990623 126.62894Q42.6 126.17581 41.9125 126.17581ZM46.44375 125.39456L46.475 126.19144Q47.209373 125.28519 48.38125 125.28519Q50.396873 125.28519 50.4125 127.55081L50.4125 131.73831L49.31875 131.73831L49.31875 127.53519Q49.31875 126.86331 49.00625 126.53519Q48.709373 126.20706 48.053123 126.20706Q47.521873 126.20706 47.115623 126.48831Q46.725 126.76956 46.50625 127.22269L46.50625 131.73831L45.428123 131.73831L45.428123 125.39456L46.44375 125.39456ZM52.1625 128.51956Q52.1625 127.05081 52.85 126.17581Q53.5375 125.28519 54.6625 125.28519Q55.771873 125.28519 56.428123 126.03519L56.428123 122.73831L57.50625 122.73831L57.50625 131.73831L56.50625 131.73831L56.459373 131.05081Q55.803123 131.86331 54.646873 131.86331Q53.553123 131.86331 52.85 130.95706Q52.1625 130.05081 52.1625 128.59769L52.1625 128.51956ZM53.240623 128.64456Q53.240623 129.72269 53.678123 130.33206Q54.13125 130.94144 54.9125 130.94144Q55.94375 130.94144 56.428123 130.00394L56.428123 127.09769Q55.94375 126.20706 54.928123 126.20706Q54.13125 126.20706 53.678123 126.81644Q53.240623 127.42581 53.240623 128.64456ZM63.88125 126.94144L64.69375 126.94144Q65.475 126.92581 65.9125 126.53519Q66.35 126.14456 66.35 125.47269Q66.35 123.97269 64.85 123.97269Q64.14687 123.97269 63.725 124.37894Q63.31875 124.78519 63.31875 125.44144L62.225 125.44144Q62.225 124.42581 62.959373 123.75394Q63.709373 123.08206 64.85 123.08206Q66.05312 123.08206 66.74062 123.72269Q67.42812 124.36331 67.42812 125.50394Q67.42812 126.06644 67.06875 126.58206Q66.70937 127.09769 66.08437 127.36331Q66.7875 127.58206 67.1625 128.09769Q67.55312 128.61331 67.55312 129.36331Q67.55312 130.50394 66.80312 131.19144Q66.05312 131.86331 64.85 131.86331Q63.6625 131.86331 62.896873 131.20706Q62.146873 130.55081 62.146873 129.48831L63.240623 129.48831Q63.240623 130.16019 63.678123 130.56644Q64.11562 130.97269 64.86562 130.97269Q65.64687 130.97269 66.05312 130.56644Q66.475 130.14456 66.475 129.37894Q66.475 128.64456 66.02187 128.25394Q65.56875 127.84769 64.69375 127.83206L63.88125 127.83206L63.88125 126.94144ZM69.44375 131.17581Q69.44375 130.89456 69.6 130.70706Q69.77187 130.51956 70.1 130.51956Q70.44375 130.51956 70.61562 130.70706Q70.7875 130.89456 70.7875 131.17581Q70.7875 131.44144 70.61562 131.62894Q70.44375 131.80081 70.1 131.80081Q69.77187 131.80081 69.6 131.62894Q69.44375 131.44144 69.44375 131.17581ZM77.6625 128.09769Q77.6625 130.00394 77.00625 130.94144Q76.36562 131.86331 74.975 131.86331Q73.61562 131.86331 72.95937 130.95706Q72.30312 130.05081 72.27187 128.23831L72.27187 126.80081Q72.27187 124.91019 72.9125 124.00394Q73.56875 123.08206 74.95937 123.08206Q76.33437 123.08206 76.99062 123.97269Q77.64687 124.84769 77.6625 126.69144L77.6625 128.09769ZM76.56875 126.61331Q76.56875 125.23831 76.17812 124.61331Q75.80312 123.97269 74.95937 123.97269Q74.13125 123.97269 73.74062 124.61331Q73.36562 125.23831 73.36562 126.53519L73.36562 128.26956Q73.36562 129.64456 73.75625 130.31644Q74.1625 130.97269 74.975 130.97269Q75.77187 130.97269 76.1625 130.34769Q76.55312 129.72269 76.56875 128.39456L76.56875 126.61331Z" fill-rule="nonzero"/><path fill="#757575" d="M21.725 162.55476L25.771875 162.55476L25.771875 163.47664L20.584375 163.47664L20.584375 154.94539L21.725 154.94539L21.725 162.55476ZM30.334375 163.47664Q30.240625 163.28914 30.178125 162.80476Q29.428125 163.60164 28.38125 163.60164Q27.44375 163.60164 26.834375 163.07039Q26.240625 162.53914 26.240625 161.71101Q26.240625 160.72664 26.990625 160.17976Q27.740625 159.63289 29.115625 159.63289L30.1625 159.63289L30.1625 159.13289Q30.1625 158.57039 29.81875 158.24226Q29.490625 157.89851 28.81875 157.89851Q28.240625 157.89851 27.85 158.19539Q27.459375 158.47664 27.459375 158.89851L26.365625 158.89851Q26.365625 158.41414 26.69375 157.97664Q27.0375 157.53914 27.615625 157.28914Q28.19375 157.02351 28.88125 157.02351Q29.990625 157.02351 30.6 157.57039Q31.225 158.11726 31.25625 159.07039L31.25625 161.99226Q31.25625 162.86726 31.475 163.38289L31.475 163.47664L30.334375 163.47664ZM28.5375 162.64851Q29.053125 162.64851 29.50625 162.38289Q29.959375 162.11726 30.1625 161.69539L30.1625 160.39851L29.31875 160.39851Q27.31875 160.39851 27.31875 161.57039Q27.31875 162.07039 27.6625 162.36726Q28.00625 162.64851 28.5375 162.64851ZM36.490623 158.10164Q36.240623 158.07039 35.959373 158.07039Q34.88125 158.07039 34.50625 158.97664L34.50625 163.47664L33.428123 163.47664L33.428123 157.13289L34.475 157.13289L34.490623 157.86726Q35.021873 157.02351 36.00625 157.02351Q36.31875 157.02351 36.490623 157.10164L36.490623 158.10164ZM41.334373 163.47664Q41.240623 163.28914 41.178123 162.80476Q40.428123 163.60164 39.38125 163.60164Q38.44375 163.60164 37.834373 163.07039Q37.240623 162.53914 37.240623 161.71101Q37.240623 160.72664 37.990623 160.17976Q38.740623 159.63289 40.115623 159.63289L41.1625 159.63289L41.1625 159.13289Q41.1625 158.57039 40.81875 158.24226Q40.490623 157.89851 39.81875 157.89851Q39.240623 157.89851 38.85 158.19539Q38.459373 158.47664 38.459373 158.89851L37.365623 158.89851Q37.365623 158.41414 37.69375 157.97664Q38.0375 157.53914 38.615623 157.28914Q39.19375 157.02351 39.88125 157.02351Q40.990623 157.02351 41.6 157.57039Q42.225 158.11726 42.25625 159.07039L42.25625 161.99226Q42.25625 162.86726 42.475 163.38289L42.475 163.47664L41.334373 163.47664ZM39.5375 162.64851Q40.053123 162.64851 40.50625 162.38289Q40.959373 162.11726 41.1625 161.69539L41.1625 160.39851L40.31875 160.39851Q38.31875 160.39851 38.31875 161.57039Q38.31875 162.07039 38.6625 162.36726Q39.00625 162.64851 39.5375 162.64851ZM46.50625 162.00789L48.084373 157.13289L49.19375 157.13289L46.9125 163.47664L46.084373 163.47664L43.7875 157.13289L44.896873 157.13289L46.50625 162.00789ZM53.053123 163.60164Q51.75625 163.60164 50.94375 162.75789Q50.146873 161.89851 50.146873 160.47664L50.146873 160.28914Q50.146873 159.33601 50.50625 158.60164Q50.865623 157.85164 51.50625 157.44539Q52.1625 157.02351 52.9125 157.02351Q54.146873 157.02351 54.834373 157.83601Q55.521873 158.64851 55.521873 160.16414L55.521873 160.61726L51.225 160.61726Q51.25625 161.55476 51.771873 162.13289Q52.303123 162.71101 53.115623 162.71101Q53.678123 162.71101 54.06875 162.47664Q54.475 162.24226 54.7875 161.85164L55.44375 162.36726Q54.646873 163.60164 53.053123 163.60164ZM52.9125 157.91414Q52.25625 157.91414 51.803123 158.39851Q51.365623 158.86726 51.271873 159.72664L54.44375 159.72664L54.44375 159.64851Q54.396873 158.82039 53.990623 158.36726Q53.6 157.91414 52.9125 157.91414ZM57.6 163.47664L56.521873 163.47664L56.521873 154.47664L57.6 154.47664L57.6 163.47664ZM62.803123 159.19539L63.240623 154.94539L67.61562 154.94539L67.61562 155.94539L64.1625 155.94539L63.896873 158.27351Q64.5375 157.89851 65.33437 157.89851Q66.49062 157.89851 67.17812 158.67976Q67.86562 159.44539 67.86562 160.75789Q67.86562 162.07039 67.14687 162.83601Q66.44375 163.60164 65.1625 163.60164Q64.0375 163.60164 63.31875 162.97664Q62.6 162.33601 62.50625 161.22664L63.521873 161.22664Q63.63125 161.96101 64.05312 162.33601Q64.475 162.71101 65.1625 162.71101Q65.9125 162.71101 66.35 162.19539Q66.7875 161.67976 66.7875 160.77351Q66.7875 159.91414 66.31875 159.39851Q65.85 158.88289 65.06875 158.88289Q64.36562 158.88289 63.959373 159.17976L63.678123 159.41414L62.803123 159.19539ZM69.44375 162.91414Q69.44375 162.63289 69.6 162.44539Q69.77187 162.25789 70.1 162.25789Q70.44375 162.25789 70.61562 162.44539Q70.7875 162.63289 70.7875 162.91414Q70.7875 163.17976 70.61562 163.36726Q70.44375 163.53914 70.1 163.53914Q69.77187 163.53914 69.6 163.36726Q69.44375 163.17976 69.44375 162.91414ZM77.81875 155.55476L74.2875 163.47664L73.14687 163.47664L76.6625 155.83601L72.05312 155.83601L72.05312 154.94539L77.81875 154.94539L77.81875 155.55476Z" fill-rule="nonzero"/><path fill="#757575" d="M77.1625 194.75937Q77.1625 196.66562 76.50625 197.60312Q75.86562 198.525 74.475 198.525Q73.11562 198.525 72.45937 197.61874Q71.80312 196.7125 71.77187 194.9L71.77187 193.4625Q71.77187 191.57187 72.4125 190.66562Q73.06875 189.74374 74.45937 189.74374Q75.83437 189.74374 76.49062 190.63437Q77.14687 191.50937 77.1625 193.35312L77.1625 194.75937ZM76.06875 193.275Q76.06875 191.9 75.67812 191.275Q75.30312 190.63437 74.45937 190.63437Q73.63125 190.63437 73.24062 191.275Q72.86562 191.9 72.86562 193.19687L72.86562 194.93124Q72.86562 196.30624 73.25625 196.97812Q73.6625 197.63437 74.475 197.63437Q75.27187 197.63437 75.6625 197.00937Q76.05312 196.38437 76.06875 195.05624L76.06875 193.275ZM82.94375 192.05624L82.975 192.75937Q83.6625 191.94687 84.85 191.94687Q86.17812 191.94687 86.6625 192.9625Q86.975 192.50937 87.475 192.22812Q87.99062 191.94687 88.67812 191.94687Q90.77187 191.94687 90.80312 194.15L90.80312 198.4L89.725 198.4L89.725 194.2125Q89.725 193.54062 89.4125 193.2125Q89.1 192.86874 88.36562 192.86874Q87.75625 192.86874 87.35 193.22812Q86.95937 193.5875 86.89687 194.19687L86.89687 198.4L85.81875 198.4L85.81875 194.24374Q85.81875 192.86874 84.45937 192.86874Q83.39687 192.86874 83.00625 193.775L83.00625 198.4L81.9125 198.4L81.9125 192.05624L82.94375 192.05624ZM96.61562 196.7125Q96.61562 196.275 96.27187 196.04062Q95.94375 195.79062 95.11562 195.61874Q94.30312 195.44687 93.81875 195.19687Q93.33437 194.94687 93.1 194.61874Q92.88125 194.275 92.88125 193.80624Q92.88125 193.025 93.5375 192.49374Q94.19375 191.94687 95.225 191.94687Q96.30312 191.94687 96.95937 192.50937Q97.63125 193.05624 97.63125 193.91562L96.55312 193.91562Q96.55312 193.47812 96.1625 193.16562Q95.7875 192.8375 95.225 192.8375Q94.63125 192.8375 94.2875 193.10312Q93.95937 193.35312 93.95937 193.75937Q93.95937 194.15 94.27187 194.35312Q94.58437 194.55624 95.39687 194.74374Q96.20937 194.91562 96.70937 195.16562Q97.20937 195.41562 97.44375 195.775Q97.69375 196.13437 97.69375 196.63437Q97.69375 197.49374 97.00625 198.00937Q96.33437 198.525 95.25625 198.525Q94.49062 198.525 93.89687 198.25937Q93.31875 197.97812 92.99062 197.49374Q92.6625 197.00937 92.6625 196.44687L93.74062 196.44687Q93.77187 196.99374 94.17812 197.32187Q94.58437 197.63437 95.25625 197.63437Q95.86562 197.63437 96.24062 197.38437Q96.61562 197.13437 96.61562 196.7125Z" fill-rule="nonzero"/><path fill="#757575" d="M146.68765 198.4L145.60953 198.4L145.60953 191.18124L143.42203 191.97812L143.42203 190.99374L146.5314 189.82187L146.68765 189.82187L146.68765 198.4ZM154.26578 192.05624L154.29703 192.75937Q154.98453 191.94687 156.17203 191.94687Q157.50015 191.94687 157.98453 192.9625Q158.29703 192.50937 158.79703 192.22812Q159.31265 191.94687 160.00015 191.94687Q162.0939 191.94687 162.12515 194.15L162.12515 198.4L161.04703 198.4L161.04703 194.2125Q161.04703 193.54062 160.73453 193.2125Q160.42203 192.86874 159.68765 192.86874Q159.07828 192.86874 158.67203 193.22812Q158.2814 193.5875 158.2189 194.19687L158.2189 198.4L157.14078 198.4L157.14078 194.24374Q157.14078 192.86874 155.7814 192.86874Q154.7189 192.86874 154.32828 193.775L154.32828 198.4L153.23453 198.4L153.23453 192.05624L154.26578 192.05624ZM167.93765 196.7125Q167.93765 196.275 167.5939 196.04062Q167.26578 195.79062 166.43765 195.61874Q165.62515 195.44687 165.14078 195.19687Q164.6564 194.94687 164.42203 194.61874Q164.20328 194.275 164.20328 193.80624Q164.20328 193.025 164.85953 192.49374Q165.51578 191.94687 166.54703 191.94687Q167.62515 191.94687 168.2814 192.50937Q168.95328 193.05624 168.95328 193.91562L167.87515 193.91562Q167.87515 193.47812 167.48453 193.16562Q167.10953 192.8375 166.54703 192.8375Q165.95328 192.8375 165.60953 193.10312Q165.2814 193.35312 165.2814 193.75937Q165.2814 194.15 165.5939 194.35312Q165.9064 194.55624 166.7189 194.74374Q167.5314 194.91562 168.0314 195.16562Q168.5314 195.41562 168.76578 195.775Q169.01578 196.13437 169.01578 196.63437Q169.01578 197.49374 168.32828 198.00937Q167.6564 198.525 166.57828 198.525Q165.81265 198.525 165.2189 198.25937Q164.64078 197.97812 164.31265 197.49374Q163.98453 197.00937 163.98453 196.44687L165.06265 196.44687Q165.0939 196.99374 165.50015 197.32187Q165.9064 197.63437 166.57828 197.63437Q167.18765 197.63437 167.56265 197.38437Q167.93765 197.13437 167.93765 196.7125Z" fill-rule="nonzero"/><path fill="#757575" d="M220.04094 198.4L214.44719 198.4L214.44719 197.61874L217.40031 194.3375Q218.05656 193.5875 218.30656 193.13437Q218.55656 192.66562 218.55656 192.16562Q218.55656 191.49374 218.15031 191.07187Q217.75969 190.63437 217.07219 190.63437Q216.27531 190.63437 215.82219 191.10312Q215.36906 191.55624 215.36906 192.38437L214.29094 192.38437Q214.29094 191.19687 215.04094 190.47812Q215.80656 189.74374 217.07219 189.74374Q218.27531 189.74374 218.96281 190.36874Q219.65031 190.99374 219.65031 192.04062Q219.65031 193.29062 218.04094 195.04062L215.75969 197.50937L220.04094 197.50937L220.04094 198.4ZM225.58781 192.05624L225.61906 192.75937Q226.30656 191.94687 227.49406 191.94687Q228.82219 191.94687 229.30656 192.9625Q229.61906 192.50937 230.11906 192.22812Q230.63469 191.94687 231.32219 191.94687Q233.41594 191.94687 233.44719 194.15L233.44719 198.4L232.36906 198.4L232.36906 194.2125Q232.36906 193.54062 232.05656 193.2125Q231.74406 192.86874 231.00969 192.86874Q230.40031 192.86874 229.99406 193.22812Q229.60344 193.5875 229.54094 194.19687L229.54094 198.4L228.46281 198.4L228.46281 194.24374Q228.46281 192.86874 227.10344 192.86874Q226.04094 192.86874 225.65031 193.775L225.65031 198.4L224.55656 198.4L224.55656 192.05624L225.58781 192.05624ZM239.25969 196.7125Q239.25969 196.275 238.91594 196.04062Q238.58781 195.79062 237.75969 195.61874Q236.94719 195.44687 236.46281 195.19687Q235.97844 194.94687 235.74406 194.61874Q235.52531 194.275 235.52531 193.80624Q235.52531 193.025 236.18156 192.49374Q236.83781 191.94687 237.86906 191.94687Q238.94719 191.94687 239.60344 192.50937Q240.27531 193.05624 240.27531 193.91562L239.19719 193.91562Q239.19719 193.47812 238.80656 193.16562Q238.43156 192.8375 237.86906 192.8375Q237.27531 192.8375 236.93156 193.10312Q236.60344 193.35312 236.60344 193.75937Q236.60344 194.15 236.91594 194.35312Q237.22844 194.55624 238.04094 194.74374Q238.85344 194.91562 239.35344 195.16562Q239.85344 195.41562 240.08781 195.775Q240.33781 196.13437 240.33781 196.63437Q240.33781 197.49374 239.65031 198.00937Q238.97844 198.525 237.90031 198.525Q237.13469 198.525 236.54094 198.25937Q235.96281 197.97812 235.63469 197.49374Q235.30656 197.00937 235.30656 196.44687L236.38469 196.44687Q236.41594 196.99374 236.82219 197.32187Q237.22844 197.63437 237.90031 197.63437Q238.50969 197.63437 238.88469 197.38437Q239.25969 197.13437 239.25969 196.7125Z" fill-rule="nonzero"/><path fill="#757575" d="M287.34735 193.60312L288.15985 193.60312Q288.9411 193.5875 289.3786 193.19687Q289.8161 192.80624 289.8161 192.13437Q289.8161 190.63437 288.3161 190.63437Q287.61298 190.63437 287.1911 191.04062Q286.78485 191.44687 286.78485 192.10312L285.6911 192.10312Q285.6911 191.0875 286.42548 190.41562Q287.17548 189.74374 288.3161 189.74374Q289.51923 189.74374 290.20673 190.38437Q290.89423 191.025 290.89423 192.16562Q290.89423 192.72812 290.53485 193.24374Q290.17548 193.75937 289.55048 194.025Q290.2536 194.24374 290.6286 194.75937Q291.01923 195.275 291.01923 196.025Q291.01923 197.16562 290.26923 197.85312Q289.51923 198.525 288.3161 198.525Q287.1286 198.525 286.36298 197.86874Q285.61298 197.2125 285.61298 196.15L286.70673 196.15Q286.70673 196.82187 287.14423 197.22812Q287.58173 197.63437 288.33173 197.63437Q289.11298 197.63437 289.51923 197.22812Q289.9411 196.80624 289.9411 196.04062Q289.9411 195.30624 289.48798 194.91562Q289.03485 194.50937 288.15985 194.49374L287.34735 194.49374L287.34735 193.60312ZM296.90985 192.05624L296.9411 192.75937Q297.6286 191.94687 298.8161 191.94687Q300.14423 191.94687 300.6286 192.9625Q300.9411 192.50937 301.4411 192.22812Q301.95673 191.94687 302.64423 191.94687Q304.73798 191.94687 304.76923 194.15L304.76923 198.4L303.6911 198.4L303.6911 194.2125Q303.6911 193.54062 303.3786 193.2125Q303.0661 192.86874 302.33173 192.86874Q301.72235 192.86874 301.3161 193.22812Q300.92548 193.5875 300.86298 194.19687L300.86298 198.4L299.78485 198.4L299.78485 194.24374Q299.78485 192.86874 298.42548 192.86874Q297.36298 192.86874 296.97235 193.775L296.97235 198.4L295.8786 198.4L295.8786 192.05624L296.90985 192.05624ZM310.58173 196.7125Q310.58173 196.275 310.23798 196.04062Q309.90985 195.79062 309.08173 195.61874Q308.26923 195.44687 307.78485 195.19687Q307.30048 194.94687 307.0661 194.61874Q306.84735 194.275 306.84735 193.80624Q306.84735 193.025 307.5036 192.49374Q308.15985 191.94687 309.1911 191.94687Q310.26923 191.94687 310.92548 192.50937Q311.59735 193.05624 311.59735 193.91562L310.51923 193.91562Q310.51923 193.47812 310.1286 193.16562Q309.7536 192.8375 309.1911 192.8375Q308.59735 192.8375 308.2536 193.10312Q307.92548 193.35312 307.92548 193.75937Q307.92548 194.15 308.23798 194.35312Q308.55048 194.55624 309.36298 194.74374Q310.17548 194.91562 310.67548 195.16562Q311.17548 195.41562 311.40985 195.775Q311.65985 196.13437 311.65985 196.63437Q311.65985 197.49374 310.97235 198.00937Q310.30048 198.525 309.22235 198.525Q308.45673 198.525 307.86298 198.25937Q307.28485 197.97812 306.95673 197.49374Q306.6286 197.00937 306.6286 196.44687L307.70673 196.44687Q307.73798 196.99374 308.14423 197.32187Q308.55048 197.63437 309.22235 197.63437Q309.83173 197.63437 310.20673 197.38437Q310.58173 197.13437 310.58173 196.7125Z" fill-rule="nonzero"/><path fill="#757575" d="M361.66937 195.54062L362.85687 195.54062L362.85687 196.41562L361.66937 196.41562L361.66937 198.4L360.59125 198.4L360.59125 196.41562L356.70062 196.41562L356.70062 195.775L360.51312 189.86874L361.66937 189.86874L361.66937 195.54062ZM357.935 195.54062L360.59125 195.54062L360.59125 191.35312L360.45062 191.5875L357.935 195.54062ZM368.23187 192.05624L368.26312 192.75937Q368.95062 191.94687 370.13812 191.94687Q371.46625 191.94687 371.95062 192.9625Q372.26312 192.50937 372.76312 192.22812Q373.27875 191.94687 373.96625 191.94687Q376.06 191.94687 376.09125 194.15L376.09125 198.4L375.01312 198.4L375.01312 194.2125Q375.01312 193.54062 374.70062 193.2125Q374.38812 192.86874 373.65375 192.86874Q373.04437 192.86874 372.63812 193.22812Q372.2475 193.5875 372.185 194.19687L372.185 198.4L371.10687 198.4L371.10687 194.24374Q371.10687 192.86874 369.7475 192.86874Q368.685 192.86874 368.29437 193.775L368.29437 198.4L367.20062 198.4L367.20062 192.05624L368.23187 192.05624ZM381.90375 196.7125Q381.90375 196.275 381.56 196.04062Q381.23187 195.79062 380.40375 195.61874Q379.59125 195.44687 379.10687 195.19687Q378.6225 194.94687 378.38812 194.61874Q378.16937 194.275 378.16937 193.80624Q378.16937 193.025 378.82562 192.49374Q379.48187 191.94687 380.51312 191.94687Q381.59125 191.94687 382.2475 192.50937Q382.91937 193.05624 382.91937 193.91562L381.84125 193.91562Q381.84125 193.47812 381.45062 193.16562Q381.07562 192.8375 380.51312 192.8375Q379.91937 192.8375 379.57562 193.10312Q379.2475 193.35312 379.2475 193.75937Q379.2475 194.15 379.56 194.35312Q379.8725 194.55624 380.685 194.74374Q381.4975 194.91562 381.9975 195.16562Q382.4975 195.41562 382.73187 195.775Q382.98187 196.13437 382.98187 196.63437Q382.98187 197.49374 382.29437 198.00937Q381.6225 198.525 380.54437 198.525Q379.77875 198.525 379.185 198.25937Q378.60687 197.97812 378.27875 197.49374Q377.95062 197.00937 377.95062 196.44687L379.02875 196.44687Q379.06 196.99374 379.46625 197.32187Q379.8725 197.63437 380.54437 197.63437Q381.15375 197.63437 381.52875 197.38437Q381.90375 197.13437 381.90375 196.7125Z" fill-rule="nonzero"/><path fill="#757575" d="M428.9133 194.11874L429.3508 189.86874L433.7258 189.86874L433.7258 190.86874L430.27267 190.86874L430.00705 193.19687Q430.64767 192.82187 431.44455 192.82187Q432.6008 192.82187 433.2883 193.60312Q433.9758 194.36874 433.9758 195.68124Q433.9758 196.99374 433.25705 197.75937Q432.55392 198.525 431.27267 198.525Q430.14767 198.525 429.42892 197.9Q428.71017 197.25937 428.61642 196.15L429.63205 196.15Q429.74142 196.88437 430.1633 197.25937Q430.58517 197.63437 431.27267 197.63437Q432.02267 197.63437 432.46017 197.11874Q432.89767 196.60312 432.89767 195.69687Q432.89767 194.8375 432.42892 194.32187Q431.96017 193.80624 431.17892 193.80624Q430.4758 193.80624 430.06955 194.10312L429.7883 194.3375L428.9133 194.11874ZM439.55392 192.05624L439.58517 192.75937Q440.27267 191.94687 441.46017 191.94687Q442.7883 191.94687 443.27267 192.9625Q443.58517 192.50937 444.08517 192.22812Q444.6008 191.94687 445.2883 191.94687Q447.38205 191.94687 447.4133 194.15L447.4133 198.4L446.33517 198.4L446.33517 194.2125Q446.33517 193.54062 446.02267 193.2125Q445.71017 192.86874 444.9758 192.86874Q444.36642 192.86874 443.96017 193.22812Q443.56955 193.5875 443.50705 194.19687L443.50705 198.4L442.42892 198.4L442.42892 194.24374Q442.42892 192.86874 441.06955 192.86874Q440.00705 192.86874 439.61642 193.775L439.61642 198.4L438.52267 198.4L438.52267 192.05624L439.55392 192.05624ZM453.2258 196.7125Q453.2258 196.275 452.88205 196.04062Q452.55392 195.79062 451.7258 195.61874Q450.9133 195.44687 450.42892 195.19687Q449.94455 194.94687 449.71017 194.61874Q449.49142 194.275 449.49142 193.80624Q449.49142 193.025 450.14767 192.49374Q450.80392 191.94687 451.83517 191.94687Q452.9133 191.94687 453.56955 192.50937Q454.24142 193.05624 454.24142 193.91562L453.1633 193.91562Q453.1633 193.47812 452.77267 193.16562Q452.39767 192.8375 451.83517 192.8375Q451.24142 192.8375 450.89767 193.10312Q450.56955 193.35312 450.56955 193.75937Q450.56955 194.15 450.88205 194.35312Q451.19455 194.55624 452.00705 194.74374Q452.81955 194.91562 453.31955 195.16562Q453.81955 195.41562 454.05392 195.775Q454.30392 196.13437 454.30392 196.63437Q454.30392 197.49374 453.61642 198.00937Q452.94455 198.525 451.86642 198.525Q451.1008 198.525 450.50705 198.25937Q449.92892 197.97812 449.6008 197.49374Q449.27267 197.00937 449.27267 196.44687L450.3508 196.44687Q450.38205 196.99374 450.7883 197.32187Q451.19455 197.63437 451.86642 197.63437Q452.4758 197.63437 452.8508 197.38437Q453.2258 197.13437 453.2258 196.7125Z" fill-rule="nonzero"/></svg>