<svg version="1.1" viewBox="0.0 0.0 515.0 222.0" fill="none" stroke="none" stroke-linecap="square" stroke-miterlimit="10" width="515" height="222" xmlns:xlink="http://www.w3.org/1999/xlink" xmlns="http://www.w3.org/2000/svg"><path fill="#ffffff" d="M0 0L515.0 0L515.0 222.0L0 222.0L0 0Z" fill-rule="nonzero"/><path fill="#ffffff" d="M0 0L515.0 0L515.0 222.0L0 222.0L0 0Z" fill-rule="nonzero"/><path stroke="#333333" stroke-width="1.0" stroke-linecap="butt" d="M85.5 11.5L85.5 189.5" fill-rule="nonzero"/><path stroke="#cccccc" stroke-width="1.0" stroke-linecap="butt" d="M156.5 11.5L156.5 189.5" fill-rule="nonzero"/><path stroke="#cccccc" stroke-width="1.0" stroke-linecap="butt" d="M227.5 11.5L227.5 189.5" fill-rule="nonzero"/><path stroke="#cccccc" stroke-width="1.0" stroke-linecap="butt" d="M298.5 11.5L298.5 189.5" fill-rule="nonzero"/><path stroke="#cccccc" stroke-width="1.0" stroke-linecap="butt" d="M369.5 11.5L369.5 189.5" fill-rule="nonzero"/><path stroke="#cccccc" stroke-width="1.0" stroke-linecap="butt" d="M440.5 11.5L440.5 189.5" fill-rule="nonzero"/><clipPath id="id_0"><path d="M85.1 11.1L503.9 11.1L503.9 189.9L85.1 189.9L85.1 11.1Z" clip-rule="nonzero"/></clipPath><path stroke="#000000" stroke-width="0.0" stroke-linecap="butt" stroke-opacity="0.0" clip-path="url(#id_0)" d="M85.0 45.0L85.0 23.0L161.0 23.0C162.10457 23.0 163.0 23.89543 163.0 25.0L163.0 43.0C163.0 44.10457 162.10457 45.0 161.0 45.0Z" fill-rule="nonzero"/><path fill="#b0ebf3" clip-path="url(#id_0)" d="M85.0 45.0L85.0 23.0L161.0 23.0C162.10457 23.0 163.0 23.89543 163.0 25.0L163.0 43.0C163.0 44.10457 162.10457 45.0 161.0 45.0Z" fill-rule="nonzero"/><path stroke="#000000" stroke-width="0.0" stroke-linecap="butt" stroke-opacity="0.0" clip-path="url(#id_0)" d="M85.0 78.0L85.0 56.0L218.0 56.0C219.10457 56.0 220.0 56.89543 220.0 58.0L220.0 76.0C220.0 77.10457 219.10457 78.0 218.0 78.0Z" fill-rule="nonzero"/><path fill="#87d1c3" clip-path="url(#id_0)" d="M85.0 78.0L85.0 56.0L218.0 56.0C219.10457 56.0 220.0 56.89543 220.0 58.0L220.0 76.0C220.0 77.10457 219.10457 78.0 218.0 78.0Z" fill-rule="nonzero"/><path stroke="#000000" stroke-width="0.0" stroke-linecap="butt" stroke-opacity="0.0" clip-path="url(#id_0)" d="M85.0 112.0L85.0 90.0L296.0 90.0C297.10458 90.0 298.0 90.89543 298.0 92.0L298.0 110.0C298.0 111.10457 297.10458 112.0 296.0 112.0Z" fill-rule="nonzero"/><path fill="#87d1c3" clip-path="url(#id_0)" d="M85.0 112.0L85.0 90.0L296.0 90.0C297.10458 90.0 298.0 90.89543 298.0 92.0L298.0 110.0C298.0 111.10457 297.10458 112.0 296.0 112.0Z" fill-rule="nonzero"/><path stroke="#000000" stroke-width="0.0" stroke-linecap="butt" stroke-opacity="0.0" clip-path="url(#id_0)" d="M85.0 145.0L85.0 123.0L374.0 123.0C375.10458 123.0 376.0 123.89543 376.0 125.0L376.0 143.0C376.0 144.10457 375.10458 145.0 374.0 145.0Z" fill-rule="nonzero"/><path fill="#a6dc6c" clip-path="url(#id_0)" d="M85.0 145.0L85.0 123.0L374.0 123.0C375.10458 123.0 376.0 123.89543 376.0 125.0L376.0 143.0C376.0 144.10457 375.10458 145.0 374.0 145.0Z" fill-rule="nonzero"/><path stroke="#000000" stroke-width="0.0" stroke-linecap="butt" stroke-opacity="0.0" clip-path="url(#id_0)" d="M85.0 178.0L85.0 156.0L502.0 156.0C503.10458 156.0 504.0 156.89543 504.0 158.0L504.0 176.0C504.0 177.10457 503.10458 178.0 502.0 178.0Z" fill-rule="nonzero"/><path fill="#ffa2a2" clip-path="url(#id_0)" d="M85.0 178.0L85.0 156.0L502.0 156.0C503.10458 156.0 504.0 156.89543 504.0 158.0L504.0 176.0C504.0 177.10457 503.10458 178.0 502.0 178.0Z" fill-rule="nonzero"/><path stroke="#b0ebf3" stroke-width="3.0" stroke-linejoin="round" stroke-linecap="round" d="M145.64699 38.5L144.56886 38.5L144.56886 31.28125L142.38136 32.078125L142.38136 31.09375L145.49074 29.921875L145.64699 29.921875L145.64699 38.5ZM149.22511 37.9375Q149.22511 37.65625 149.38136 37.46875Q149.55324 37.28125 149.88136 37.28125Q150.22511 37.28125 150.39699 37.46875Q150.56886 37.65625 150.56886 37.9375Q150.56886 38.203125 150.39699 38.390625Q150.22511 38.5625 149.88136 38.5625Q149.55324 38.5625 149.38136 38.390625Q149.22511 38.203125 149.22511 37.9375ZM155.64699 38.5L154.56886 38.5L154.56886 31.28125L152.38136 32.078125L152.38136 31.09375L155.49074 29.921875L155.64699 29.921875L155.64699 38.5Z" fill-rule="nonzero"/><path fill="#000000" d="M145.64699 38.5L144.56886 38.5L144.56886 31.28125L142.38136 32.078125L142.38136 31.09375L145.49074 29.921875L145.64699 29.921875L145.64699 38.5ZM149.22511 37.9375Q149.22511 37.65625 149.38136 37.46875Q149.55324 37.28125 149.88136 37.28125Q150.22511 37.28125 150.39699 37.46875Q150.56886 37.65625 150.56886 37.9375Q150.56886 38.203125 150.39699 38.390625Q150.22511 38.5625 149.88136 38.5625Q149.55324 38.5625 149.38136 38.390625Q149.22511 38.203125 149.22511 37.9375ZM155.64699 38.5L154.56886 38.5L154.56886 31.28125L152.38136 32.078125L152.38136 31.09375L155.49074 29.921875L155.64699 29.921875L155.64699 38.5Z" fill-rule="nonzero"/><path stroke="#87d1c3" stroke-width="3.0" stroke-linejoin="round" stroke-linecap="round" d="M202.43343 71.5L201.3553 71.5L201.3553 64.28125L199.1678 65.078125L199.1678 64.09375L202.27718 62.921875L202.43343 62.921875L202.43343 71.5ZM206.01155 70.9375Q206.01155 70.65625 206.1678 70.46875Q206.33968 70.28125 206.6678 70.28125Q207.01155 70.28125 207.18343 70.46875Q207.3553 70.65625 207.3553 70.9375Q207.3553 71.203125 207.18343 71.390625Q207.01155 71.5625 206.6678 71.5625Q206.33968 71.5625 206.1678 71.390625Q206.01155 71.203125 206.01155 70.9375ZM213.02718 67.75Q212.69905 68.15625 212.21468 68.40625Q211.74593 68.640625 211.18343 68.640625Q210.44905 68.640625 209.90218 68.28125Q209.3553 67.921875 209.05843 67.265625Q208.76155 66.59375 208.76155 65.796875Q208.76155 64.953125 209.07405 64.265625Q209.40218 63.578125 209.99593 63.21875Q210.6053 62.84375 211.40218 62.84375Q212.6678 62.84375 213.38655 63.796875Q214.12093 64.75 214.12093 66.375L214.12093 66.6875Q214.12093 69.1875 213.13655 70.328125Q212.15218 71.46875 210.1678 71.5L209.94905 71.5L209.94905 70.59375L210.18343 70.59375Q211.52718 70.5625 212.24593 69.890625Q212.96468 69.21875 213.02718 67.75ZM211.3553 67.75Q211.90218 67.75 212.3553 67.421875Q212.82405 67.078125 213.0428 66.59375L213.0428 66.15625Q213.0428 65.09375 212.57405 64.421875Q212.1053 63.75 211.40218 63.75Q210.68343 63.75 210.24593 64.296875Q209.82405 64.84375 209.82405 65.75Q209.82405 66.625 210.2303 67.1875Q210.65218 67.75 211.3553 67.75Z" fill-rule="nonzero"/><path fill="#000000" d="M202.43343 71.5L201.3553 71.5L201.3553 64.28125L199.1678 65.078125L199.1678 64.09375L202.27718 62.921875L202.43343 62.921875L202.43343 71.5ZM206.01155 70.9375Q206.01155 70.65625 206.1678 70.46875Q206.33968 70.28125 206.6678 70.28125Q207.01155 70.28125 207.18343 70.46875Q207.3553 70.65625 207.3553 70.9375Q207.3553 71.203125 207.18343 71.390625Q207.01155 71.5625 206.6678 71.5625Q206.33968 71.5625 206.1678 71.390625Q206.01155 71.203125 206.01155 70.9375ZM213.02718 67.75Q212.69905 68.15625 212.21468 68.40625Q211.74593 68.640625 211.18343 68.640625Q210.44905 68.640625 209.90218 68.28125Q209.3553 67.921875 209.05843 67.265625Q208.76155 66.59375 208.76155 65.796875Q208.76155 64.953125 209.07405 64.265625Q209.40218 63.578125 209.99593 63.21875Q210.6053 62.84375 211.40218 62.84375Q212.6678 62.84375 213.38655 63.796875Q214.12093 64.75 214.12093 66.375L214.12093 66.6875Q214.12093 69.1875 213.13655 70.328125Q212.15218 71.46875 210.1678 71.5L209.94905 71.5L209.94905 70.59375L210.18343 70.59375Q211.52718 70.5625 212.24593 69.890625Q212.96468 69.21875 213.02718 67.75ZM211.3553 67.75Q211.90218 67.75 212.3553 67.421875Q212.82405 67.078125 213.0428 66.59375L213.0428 66.15625Q213.0428 65.09375 212.57405 64.421875Q212.1053 63.75 211.40218 63.75Q210.68343 63.75 210.24593 64.296875Q209.82405 64.84375 209.82405 65.75Q209.82405 66.625 210.2303 67.1875Q210.65218 67.75 211.3553 67.75Z" fill-rule="nonzero"/><path stroke="#87d1c3" stroke-width="3.0" stroke-linejoin="round" stroke-linecap="round" d="M288.5304 100.703125L289.3429 100.703125Q290.12415 100.6875 290.56165 100.296875Q290.99915 99.90625 290.99915 99.234375Q290.99915 97.734375 289.49915 97.734375Q288.79602 97.734375 288.37415 98.140625Q287.9679 98.546875 287.9679 99.203125L286.87415 99.203125Q286.87415 98.1875 287.60852 97.515625Q288.35852 96.84375 289.49915 96.84375Q290.70227 96.84375 291.38977 97.484375Q292.07727 98.125 292.07727 99.265625Q292.07727 99.828125 291.7179 100.34375Q291.35852 100.859375 290.73352 101.125Q291.43665 101.34375 291.81165 101.859375Q292.20227 102.375 292.20227 103.125Q292.20227 104.265625 291.45227 104.953125Q290.70227 105.625 289.49915 105.625Q288.31165 105.625 287.54602 104.96875Q286.79602 104.3125 286.79602 103.25L287.88977 103.25Q287.88977 103.921875 288.32727 104.328125Q288.76477 104.734375 289.51477 104.734375Q290.29602 104.734375 290.70227 104.328125Q291.12415 103.90625 291.12415 103.140625Q291.12415 102.40625 290.67102 102.015625Q290.2179 101.609375 289.3429 101.59375L288.5304 101.59375L288.5304 100.703125Z" fill-rule="nonzero"/><path fill="#000000" d="M288.5304 100.703125L289.3429 100.703125Q290.12415 100.6875 290.56165 100.296875Q290.99915 99.90625 290.99915 99.234375Q290.99915 97.734375 289.49915 97.734375Q288.79602 97.734375 288.37415 98.140625Q287.9679 98.546875 287.9679 99.203125L286.87415 99.203125Q286.87415 98.1875 287.60852 97.515625Q288.35852 96.84375 289.49915 96.84375Q290.70227 96.84375 291.38977 97.484375Q292.07727 98.125 292.07727 99.265625Q292.07727 99.828125 291.7179 100.34375Q291.35852 100.859375 290.73352 101.125Q291.43665 101.34375 291.81165 101.859375Q292.20227 102.375 292.20227 103.125Q292.20227 104.265625 291.45227 104.953125Q290.70227 105.625 289.49915 105.625Q288.31165 105.625 287.54602 104.96875Q286.79602 104.3125 286.79602 103.25L287.88977 103.25Q287.88977 103.921875 288.32727 104.328125Q288.76477 104.734375 289.51477 104.734375Q290.29602 104.734375 290.70227 104.328125Q291.12415 103.90625 291.12415 103.140625Q291.12415 102.40625 290.67102 102.015625Q290.2179 101.609375 289.3429 101.59375L288.5304 101.59375L288.5304 100.703125Z" fill-rule="nonzero"/><path stroke="#a6dc6c" stroke-width="3.0" stroke-linejoin="round" stroke-linecap="round" d="M359.61176 135.64062L360.79926 135.64062L360.79926 136.51562L359.61176 136.51562L359.61176 138.5L358.53363 138.5L358.53363 136.51562L354.643 136.51562L354.643 135.875L358.4555 129.96875L359.61176 129.96875L359.61176 135.64062ZM355.87738 135.64062L358.53363 135.64062L358.53363 131.45312L358.393 131.6875L355.87738 135.64062ZM362.17426 137.9375Q362.17426 137.65625 362.3305 137.46875Q362.50238 137.28125 362.8305 137.28125Q363.17426 137.28125 363.34613 137.46875Q363.518 137.65625 363.518 137.9375Q363.518 138.20312 363.34613 138.39062Q363.17426 138.5625 362.8305 138.5625Q362.50238 138.5625 362.3305 138.39062Q362.17426 138.20312 362.17426 137.9375ZM368.59613 138.5L367.518 138.5L367.518 131.28125L365.3305 132.07812L365.3305 131.09375L368.43988 129.92188L368.59613 129.92188L368.59613 138.5Z" fill-rule="nonzero"/><path fill="#000000" d="M359.61176 135.64062L360.79926 135.64062L360.79926 136.51562L359.61176 136.51562L359.61176 138.5L358.53363 138.5L358.53363 136.51562L354.643 136.51562L354.643 135.875L358.4555 129.96875L359.61176 129.96875L359.61176 135.64062ZM355.87738 135.64062L358.53363 135.64062L358.53363 131.45312L358.393 131.6875L355.87738 135.64062ZM362.17426 137.9375Q362.17426 137.65625 362.3305 137.46875Q362.50238 137.28125 362.8305 137.28125Q363.17426 137.28125 363.34613 137.46875Q363.518 137.65625 363.518 137.9375Q363.518 138.20312 363.34613 138.39062Q363.17426 138.5625 362.8305 138.5625Q362.50238 138.5625 362.3305 138.39062Q362.17426 138.20312 362.17426 137.9375ZM368.59613 138.5L367.518 138.5L367.518 131.28125L365.3305 132.07812L365.3305 131.09375L368.43988 129.92188L368.59613 129.92188L368.59613 138.5Z" fill-rule="nonzero"/><path stroke="#ffa2a2" stroke-width="3.0" stroke-linejoin="round" stroke-linecap="round" d="M483.30313 167.21875L483.74063 162.96875L488.11563 162.96875L488.11563 163.96875L484.6625 163.96875L484.39688 166.29688Q485.0375 165.92188 485.83438 165.92188Q486.99063 165.92188 487.67813 166.70312Q488.36563 167.46875 488.36563 168.78125Q488.36563 170.09375 487.64688 170.85938Q486.94376 171.625 485.6625 171.625Q484.5375 171.625 483.81876 171.0Q483.1 170.35938 483.00626 169.25L484.02188 169.25Q484.13126 169.98438 484.55313 170.35938Q484.975 170.73438 485.6625 170.73438Q486.4125 170.73438 486.85 170.21875Q487.2875 169.70312 487.2875 168.79688Q487.2875 167.9375 486.81876 167.42188Q486.35 166.90625 485.56876 166.90625Q484.86563 166.90625 484.45938 167.20312L484.17813 167.4375L483.30313 167.21875ZM489.94376 170.9375Q489.94376 170.65625 490.1 170.46875Q490.27188 170.28125 490.6 170.28125Q490.94376 170.28125 491.11563 170.46875Q491.2875 170.65625 491.2875 170.9375Q491.2875 171.20312 491.11563 171.39062Q490.94376 171.5625 490.6 171.5625Q490.27188 171.5625 490.1 171.39062Q489.94376 171.20312 489.94376 170.9375ZM496.95938 167.75Q496.63126 168.15625 496.14688 168.40625Q495.67813 168.64062 495.11563 168.64062Q494.38126 168.64062 493.83438 168.28125Q493.2875 167.92188 492.99063 167.26562Q492.69376 166.59375 492.69376 165.79688Q492.69376 164.95312 493.00626 164.26562Q493.33438 163.57812 493.92813 163.21875Q494.5375 162.84375 495.33438 162.84375Q496.6 162.84375 497.31876 163.79688Q498.05313 164.75 498.05313 166.375L498.05313 166.6875Q498.05313 169.1875 497.06876 170.32812Q496.08438 171.46875 494.1 171.5L493.88126 171.5L493.88126 170.59375L494.11563 170.59375Q495.45938 170.5625 496.17813 169.89062Q496.89688 169.21875 496.95938 167.75ZM495.2875 167.75Q495.83438 167.75 496.2875 167.42188Q496.75626 167.07812 496.975 166.59375L496.975 166.15625Q496.975 165.09375 496.50626 164.42188Q496.0375 163.75 495.33438 163.75Q494.61563 163.75 494.17813 164.29688Q493.75626 164.84375 493.75626 165.75Q493.75626 166.625 494.1625 167.1875Q494.58438 167.75 495.2875 167.75Z" fill-rule="nonzero"/><path fill="#000000" d="M483.30313 167.21875L483.74063 162.96875L488.11563 162.96875L488.11563 163.96875L484.6625 163.96875L484.39688 166.29688Q485.0375 165.92188 485.83438 165.92188Q486.99063 165.92188 487.67813 166.70312Q488.36563 167.46875 488.36563 168.78125Q488.36563 170.09375 487.64688 170.85938Q486.94376 171.625 485.6625 171.625Q484.5375 171.625 483.81876 171.0Q483.1 170.35938 483.00626 169.25L484.02188 169.25Q484.13126 169.98438 484.55313 170.35938Q484.975 170.73438 485.6625 170.73438Q486.4125 170.73438 486.85 170.21875Q487.2875 169.70312 487.2875 168.79688Q487.2875 167.9375 486.81876 167.42188Q486.35 166.90625 485.56876 166.90625Q484.86563 166.90625 484.45938 167.20312L484.17813 167.4375L483.30313 167.21875ZM489.94376 170.9375Q489.94376 170.65625 490.1 170.46875Q490.27188 170.28125 490.6 170.28125Q490.94376 170.28125 491.11563 170.46875Q491.2875 170.65625 491.2875 170.9375Q491.2875 171.20312 491.11563 171.39062Q490.94376 171.5625 490.6 171.5625Q490.27188 171.5625 490.1 171.39062Q489.94376 171.20312 489.94376 170.9375ZM496.95938 167.75Q496.63126 168.15625 496.14688 168.40625Q495.67813 168.64062 495.11563 168.64062Q494.38126 168.64062 493.83438 168.28125Q493.2875 167.92188 492.99063 167.26562Q492.69376 166.59375 492.69376 165.79688Q492.69376 164.95312 493.00626 164.26562Q493.33438 163.57812 493.92813 163.21875Q494.5375 162.84375 495.33438 162.84375Q496.6 162.84375 497.31876 163.79688Q498.05313 164.75 498.05313 166.375L498.05313 166.6875Q498.05313 169.1875 497.06876 170.32812Q496.08438 171.46875 494.1 171.5L493.88126 171.5L493.88126 170.59375L494.11563 170.59375Q495.45938 170.5625 496.17813 169.89062Q496.89688 169.21875 496.95938 167.75ZM495.2875 167.75Q495.83438 167.75 496.2875 167.42188Q496.75626 167.07812 496.975 166.59375L496.975 166.15625Q496.975 165.09375 496.50626 164.42188Q496.0375 163.75 495.33438 163.75Q494.61563 163.75 494.17813 164.29688Q493.75626 164.84375 493.75626 165.75Q493.75626 166.625 494.1625 167.1875Q494.58438 167.75 495.2875 167.75Z" fill-rule="nonzero"/><path fill="#757575" d="M23.6 34.362003Q22.1625 33.94013 21.490625 33.330753Q20.834375 32.72138 20.834375 31.830753Q20.834375 30.830753 21.63125 30.174503Q22.44375 29.502628 23.740625 29.502628Q24.615625 29.502628 25.303125 29.846378Q25.990625 30.190128 26.365625 30.783878Q26.75625 31.377628 26.75625 32.09638L25.615625 32.09638Q25.615625 31.315128 25.115625 30.877628Q24.63125 30.440128 23.740625 30.440128Q22.9125 30.440128 22.44375 30.815128Q21.975 31.174503 21.975 31.815128Q21.975 32.34638 22.4125 32.705753Q22.865625 33.06513 23.928125 33.362003Q24.990625 33.65888 25.584375 34.018253Q26.19375 34.37763 26.475 34.862003Q26.771875 35.34638 26.771875 35.987003Q26.771875 37.03388 25.959375 37.65888Q25.146875 38.28388 23.803125 38.28388Q22.9125 38.28388 22.146875 37.94013Q21.396875 37.59638 20.975 37.018253Q20.56875 36.424503 20.56875 35.69013L21.69375 35.69013Q21.69375 36.455753 22.271875 36.90888Q22.85 37.362003 23.803125 37.362003Q24.69375 37.362003 25.1625 37.00263Q25.63125 36.62763 25.63125 36.00263Q25.63125 35.37763 25.19375 35.03388Q24.75625 34.69013 23.6 34.362003ZM29.990625 36.56513L31.475 31.815128L32.63125 31.815128L30.084375 39.143253Q29.490625 40.72138 28.209375 40.72138L27.990625 40.705753L27.6 40.62763L27.6 39.75263L27.88125 39.768253Q28.44375 39.768253 28.740625 39.549503Q29.053125 39.330753 29.25625 38.737003L29.490625 38.080753L27.225 31.815128L28.4125 31.815128L29.990625 36.56513ZM34.94375 31.815128L34.975 32.518253Q35.6625 31.705753 36.85 31.705753Q38.178123 31.705753 38.6625 32.72138Q38.975 32.268253 39.475 31.987003Q39.990623 31.705753 40.678123 31.705753Q42.771873 31.705753 42.803123 33.90888L42.803123 38.15888L41.725 38.15888L41.725 33.97138Q41.725 33.299503 41.4125 32.97138Q41.1 32.62763 40.365623 32.62763Q39.75625 32.62763 39.35 32.987003Q38.959373 33.34638 38.896873 33.955753L38.896873 38.15888L37.81875 38.15888L37.81875 34.00263Q37.81875 32.62763 36.459373 32.62763Q35.396873 32.62763 35.00625 33.53388L35.00625 38.15888L33.9125 38.15888L33.9125 31.815128L34.94375 31.815128ZM46.1 38.15888L45.021873 38.15888L45.021873 29.158878L46.1 29.158878L46.1 38.15888ZM50.553123 38.28388Q49.25625 38.28388 48.44375 37.44013Q47.646873 36.580753 47.646873 35.15888L47.646873 34.97138Q47.646873 34.018253 48.00625 33.28388Q48.365623 32.53388 49.00625 32.12763Q49.6625 31.705753 50.4125 31.705753Q51.646873 31.705753 52.334373 32.518253Q53.021873 33.330753 53.021873 34.84638L53.021873 35.299503L48.725 35.299503Q48.75625 36.237003 49.271873 36.81513Q49.803123 37.393253 50.615623 37.393253Q51.178123 37.393253 51.56875 37.15888Q51.975 36.924503 52.2875 36.53388L52.94375 37.049503Q52.146873 38.28388 50.553123 38.28388ZM50.4125 32.59638Q49.75625 32.59638 49.303123 33.080753Q48.865623 33.549503 48.771873 34.40888L51.94375 34.40888L51.94375 34.330753Q51.896873 33.50263 51.490623 33.049503Q51.1 32.59638 50.4125 32.59638ZM56.053123 34.12763L57.459373 31.815128L58.725 31.815128L56.646873 34.955753L58.7875 38.15888L57.5375 38.15888L56.06875 35.78388L54.6 38.15888L53.334373 38.15888L55.475 34.955753L53.4125 31.815128L54.6625 31.815128L56.053123 34.12763ZM67.38125 35.299503L68.56875 35.299503L68.56875 36.174503L67.38125 36.174503L67.38125 38.15888L66.30312 38.15888L66.30312 36.174503L62.4125 36.174503L62.4125 35.53388L66.225 29.627628L67.38125 29.627628L67.38125 35.299503ZM63.646873 35.299503L66.30312 35.299503L66.30312 31.112003L66.1625 31.346378L63.646873 35.299503ZM69.94375 37.59638Q69.94375 37.31513 70.1 37.12763Q70.27187 36.94013 70.6 36.94013Q70.94375 36.94013 71.11562 37.12763Q71.2875 37.31513 71.2875 37.59638Q71.2875 37.862003 71.11562 38.049503Q70.94375 38.22138 70.6 38.22138Q70.27187 38.22138 70.1 38.049503Q69.94375 37.862003 69.94375 37.59638ZM76.36562 38.15888L75.2875 38.15888L75.2875 30.940128L73.1 31.737003L73.1 30.752628L76.20937 29.580753L76.36562 29.580753L76.36562 38.15888Z" fill-rule="nonzero"/><path fill="#757575" d="M14.6 67.78256Q13.1625 67.36069 12.490625 66.75131Q11.834375 66.14194 11.834375 65.25131Q11.834375 64.25131 12.63125 63.595062Q13.44375 62.923187 14.740625 62.923187Q15.615625 62.923187 16.303125 63.266937Q16.990625 63.610687 17.365625 64.20444Q17.75625 64.79819 17.75625 65.51694L16.615625 65.51694Q16.615625 64.73569 16.115625 64.29819Q15.63125 63.860687 14.740625 63.860687Q13.9125 63.860687 13.44375 64.23569Q12.975 64.59506 12.975 65.23569Q12.975 65.76694 13.4125 66.12631Q13.865625 66.48569 14.928125 66.78256Q15.990625 67.07944 16.584375 67.43881Q17.19375 67.79819 17.475 68.28256Q17.771875 68.76694 17.771875 69.40756Q17.771875 70.45444 16.959375 71.07944Q16.146875 71.70444 14.803125 71.70444Q13.9125 71.70444 13.146875 71.36069Q12.396875 71.01694 11.975 70.43881Q11.56875 69.84506 11.56875 69.11069L12.69375 69.11069Q12.69375 69.87631 13.271875 70.32944Q13.85 70.78256 14.803125 70.78256Q15.69375 70.78256 16.1625 70.42319Q16.63125 70.04819 16.63125 69.42319Q16.63125 68.79819 16.19375 68.45444Q15.75625 68.11069 14.6 67.78256ZM20.990625 69.98569L22.475 65.23569L23.63125 65.23569L21.084375 72.56381Q20.490625 74.14194 19.209375 74.14194L18.990625 74.12631L18.6 74.04819L18.6 73.17319L18.88125 73.18881Q19.44375 73.18881 19.740625 72.97006Q20.053125 72.75131 20.25625 72.15756L20.490625 71.50131L18.225 65.23569L19.4125 65.23569L20.990625 69.98569ZM25.94375 65.23569L25.975 65.93881Q26.6625 65.12631 27.85 65.12631Q29.178125 65.12631 29.6625 66.14194Q29.975 65.68881 30.475 65.40756Q30.990625 65.12631 31.678125 65.12631Q33.771873 65.12631 33.803123 67.32944L33.803123 71.57944L32.725 71.57944L32.725 67.39194Q32.725 66.72006 32.4125 66.39194Q32.1 66.04819 31.365625 66.04819Q30.75625 66.04819 30.35 66.40756Q29.959375 66.76694 29.896875 67.37631L29.896875 71.57944L28.81875 71.57944L28.81875 67.42319Q28.81875 66.04819 27.459375 66.04819Q26.396875 66.04819 26.00625 66.95444L26.00625 71.57944L24.9125 71.57944L24.9125 65.23569L25.94375 65.23569ZM36.459373 71.57944L36.459373 66.07944L35.459373 66.07944L35.459373 65.23569L36.459373 65.23569L36.459373 64.59506Q36.459373 63.563812 36.990623 63.016937Q37.5375 62.454437 38.5375 62.454437Q38.9125 62.454437 39.2875 62.548187L39.225 63.438812Q38.94375 63.376312 38.646873 63.376312Q38.115623 63.376312 37.81875 63.688812Q37.5375 64.00131 37.5375 64.56381L37.5375 65.23569L38.896873 65.23569L38.896873 66.07944L37.5375 66.07944L37.5375 71.57944L36.459373 71.57944ZM39.63125 68.34506Q39.63125 67.42319 39.990623 66.67319Q40.365623 65.92319 41.021873 65.53256Q41.678123 65.12631 42.50625 65.12631Q43.803123 65.12631 44.6 66.01694Q45.4125 66.90756 45.4125 68.40756L45.4125 68.48569Q45.4125 69.40756 45.053123 70.14194Q44.69375 70.87631 44.0375 71.29819Q43.38125 71.70444 42.521873 71.70444Q41.240623 71.70444 40.428123 70.81381Q39.63125 69.90756 39.63125 68.42319L39.63125 68.34506ZM40.725 68.48569Q40.725 69.53256 41.209373 70.17319Q41.709373 70.81381 42.521873 70.81381Q43.35 70.81381 43.834373 70.17319Q44.31875 69.51694 44.31875 68.34506Q44.31875 67.31381 43.81875 66.67319Q43.334373 66.01694 42.50625 66.01694Q41.709373 66.01694 41.209373 66.65756Q40.725 67.28256 40.725 68.48569ZM47.94375 65.23569L47.975 66.03256Q48.709373 65.12631 49.88125 65.12631Q51.896873 65.12631 51.9125 67.39194L51.9125 71.57944L50.81875 71.57944L50.81875 67.37631Q50.81875 66.70444 50.50625 66.37631Q50.209373 66.04819 49.553123 66.04819Q49.021873 66.04819 48.615623 66.32944Q48.225 66.61069 48.00625 67.06381L48.00625 71.57944L46.928123 71.57944L46.928123 65.23569L47.94375 65.23569ZM55.990623 69.98569L57.475 65.23569L58.63125 65.23569L56.084373 72.56381Q55.490623 74.14194 54.209373 74.14194L53.990623 74.12631L53.6 74.04819L53.6 73.17319L53.88125 73.18881Q54.44375 73.18881 54.740623 72.97006Q55.053123 72.75131 55.25625 72.15756L55.490623 71.50131L53.225 65.23569L54.4125 65.23569L55.990623 69.98569ZM67.38125 68.72006L68.56875 68.72006L68.56875 69.59506L67.38125 69.59506L67.38125 71.57944L66.30312 71.57944L66.30312 69.59506L62.4125 69.59506L62.4125 68.95444L66.225 63.048187L67.38125 63.048187L67.38125 68.72006ZM63.646873 68.72006L66.30312 68.72006L66.30312 64.53256L66.1625 64.76694L63.646873 68.72006ZM69.94375 71.01694Q69.94375 70.73569 70.1 70.54819Q70.27187 70.36069 70.6 70.36069Q70.94375 70.36069 71.11562 70.54819Q71.2875 70.73569 71.2875 71.01694Q71.2875 71.28256 71.11562 71.47006Q70.94375 71.64194 70.6 71.64194Q70.27187 71.64194 70.1 71.47006Q69.94375 71.28256 69.94375 71.01694ZM78.39687 71.57944L72.80312 71.57944L72.80312 70.79819L75.75625 67.51694Q76.4125 66.76694 76.6625 66.31381Q76.9125 65.84506 76.9125 65.34506Q76.9125 64.67319 76.50625 64.25131Q76.11562 63.813812 75.42812 63.813812Q74.63125 63.813812 74.17812 64.28256Q73.725 64.73569 73.725 65.56381L72.64687 65.56381Q72.64687 64.37631 73.39687 63.657562Q74.1625 62.923187 75.42812 62.923187Q76.63125 62.923187 77.31875 63.548187Q78.00625 64.17319 78.00625 65.22006Q78.00625 66.47006 76.39687 68.22006L74.11562 70.68881L78.39687 70.68881L78.39687 71.57944Z" fill-rule="nonzero"/><path fill="#757575" d="M14.6 101.203125Q13.1625 100.78125 12.490625 100.171875Q11.834375 99.5625 11.834375 98.671875Q11.834375 97.671875 12.63125 97.015625Q13.44375 96.34375 14.740625 96.34375Q15.615625 96.34375 16.303125 96.6875Q16.990625 97.03125 17.365625 97.625Q17.75625 98.21875 17.75625 98.9375L16.615625 98.9375Q16.615625 98.15625 16.115625 97.71875Q15.63125 97.28125 14.740625 97.28125Q13.9125 97.28125 13.44375 97.65625Q12.975 98.015625 12.975 98.65625Q12.975 99.1875 13.4125 99.546875Q13.865625 99.90625 14.928125 100.203125Q15.990625 100.5 16.584375 100.859375Q17.19375 101.21875 17.475 101.703125Q17.771875 102.1875 17.771875 102.828125Q17.771875 103.875 16.959375 104.5Q16.146875 105.125 14.803125 105.125Q13.9125 105.125 13.146875 104.78125Q12.396875 104.4375 11.975 103.859375Q11.56875 103.265625 11.56875 102.53125L12.69375 102.53125Q12.69375 103.296875 13.271875 103.75Q13.85 104.203125 14.803125 104.203125Q15.69375 104.203125 16.1625 103.84375Q16.63125 103.46875 16.63125 102.84375Q16.63125 102.21875 16.19375 101.875Q15.75625 101.53125 14.6 101.203125ZM20.990625 103.40625L22.475 98.65625L23.63125 98.65625L21.084375 105.984375Q20.490625 107.5625 19.209375 107.5625L18.990625 107.546875L18.6 107.46875L18.6 106.59375L18.88125 106.609375Q19.44375 106.609375 19.740625 106.390625Q20.053125 106.171875 20.25625 105.578125L20.490625 104.921875L18.225 98.65625L19.4125 98.65625L20.990625 103.40625ZM25.94375 98.65625L25.975 99.359375Q26.6625 98.546875 27.85 98.546875Q29.178125 98.546875 29.6625 99.5625Q29.975 99.109375 30.475 98.828125Q30.990625 98.546875 31.678125 98.546875Q33.771873 98.546875 33.803123 100.75L33.803123 105.0L32.725 105.0L32.725 100.8125Q32.725 100.140625 32.4125 99.8125Q32.1 99.46875 31.365625 99.46875Q30.75625 99.46875 30.35 99.828125Q29.959375 100.1875 29.896875 100.796875L29.896875 105.0L28.81875 105.0L28.81875 100.84375Q28.81875 99.46875 27.459375 99.46875Q26.396875 99.46875 26.00625 100.375L26.00625 105.0L24.9125 105.0L24.9125 98.65625L25.94375 98.65625ZM36.459373 105.0L36.459373 99.5L35.459373 99.5L35.459373 98.65625L36.459373 98.65625L36.459373 98.015625Q36.459373 96.984375 36.990623 96.4375Q37.5375 95.875 38.5375 95.875Q38.9125 95.875 39.2875 95.96875L39.225 96.859375Q38.94375 96.796875 38.646873 96.796875Q38.115623 96.796875 37.81875 97.109375Q37.5375 97.421875 37.5375 97.984375L37.5375 98.65625L38.896873 98.65625L38.896873 99.5L37.5375 99.5L37.5375 105.0L36.459373 105.0ZM39.63125 101.765625Q39.63125 100.84375 39.990623 100.09375Q40.365623 99.34375 41.021873 98.953125Q41.678123 98.546875 42.50625 98.546875Q43.803123 98.546875 44.6 99.4375Q45.4125 100.328125 45.4125 101.828125L45.4125 101.90625Q45.4125 102.828125 45.053123 103.5625Q44.69375 104.296875 44.0375 104.71875Q43.38125 105.125 42.521873 105.125Q41.240623 105.125 40.428123 104.234375Q39.63125 103.328125 39.63125 101.84375L39.63125 101.765625ZM40.725 101.90625Q40.725 102.953125 41.209373 103.59375Q41.709373 104.234375 42.521873 104.234375Q43.35 104.234375 43.834373 103.59375Q44.31875 102.9375 44.31875 101.765625Q44.31875 100.734375 43.81875 100.09375Q43.334373 99.4375 42.50625 99.4375Q41.709373 99.4375 41.209373 100.078125Q40.725 100.703125 40.725 101.90625ZM47.94375 98.65625L47.975 99.453125Q48.709373 98.546875 49.88125 98.546875Q51.896873 98.546875 51.9125 100.8125L51.9125 105.0L50.81875 105.0L50.81875 100.796875Q50.81875 100.125 50.50625 99.796875Q50.209373 99.46875 49.553123 99.46875Q49.021873 99.46875 48.615623 99.75Q48.225 100.03125 48.00625 100.484375L48.00625 105.0L46.928123 105.0L46.928123 98.65625L47.94375 98.65625ZM55.990623 103.40625L57.475 98.65625L58.63125 98.65625L56.084373 105.984375Q55.490623 107.5625 54.209373 107.5625L53.990623 107.546875L53.6 107.46875L53.6 106.59375L53.88125 106.609375Q54.44375 106.609375 54.740623 106.390625Q55.053123 106.171875 55.25625 105.578125L55.490623 104.921875L53.225 98.65625L54.4125 98.65625L55.990623 103.40625ZM64.38125 100.203125L65.19375 100.203125Q65.975 100.1875 66.4125 99.796875Q66.85 99.40625 66.85 98.734375Q66.85 97.234375 65.35 97.234375Q64.64687 97.234375 64.225 97.640625Q63.81875 98.046875 63.81875 98.703125L62.725 98.703125Q62.725 97.6875 63.459373 97.015625Q64.20937 96.34375 65.35 96.34375Q66.55312 96.34375 67.24062 96.984375Q67.92812 97.625 67.92812 98.765625Q67.92812 99.328125 67.56875 99.84375Q67.20937 100.359375 66.58437 100.625Q67.2875 100.84375 67.6625 101.359375Q68.05312 101.875 68.05312 102.625Q68.05312 103.765625 67.30312 104.453125Q66.55312 105.125 65.35 105.125Q64.1625 105.125 63.396873 104.46875Q62.646873 103.8125 62.646873 102.75L63.740623 102.75Q63.740623 103.421875 64.17812 103.828125Q64.61562 104.234375 65.36562 104.234375Q66.14687 104.234375 66.55312 103.828125Q66.975 103.40625 66.975 102.640625Q66.975 101.90625 66.52187 101.515625Q66.06875 101.109375 65.19375 101.09375L64.38125 101.09375L64.38125 100.203125ZM69.94375 104.4375Q69.94375 104.15625 70.1 103.96875Q70.27187 103.78125 70.6 103.78125Q70.94375 103.78125 71.11562 103.96875Q71.2875 104.15625 71.2875 104.4375Q71.2875 104.703125 71.11562 104.890625Q70.94375 105.0625 70.6 105.0625Q70.27187 105.0625 70.1 104.890625Q69.94375 104.703125 69.94375 104.4375ZM77.38125 102.140625L78.56875 102.140625L78.56875 103.015625L77.38125 103.015625L77.38125 105.0L76.30312 105.0L76.30312 103.015625L72.4125 103.015625L72.4125 102.375L76.225 96.46875L77.38125 96.46875L77.38125 102.140625ZM73.64687 102.140625L76.30312 102.140625L76.30312 97.953125L76.1625 98.1875L73.64687 102.140625Z" fill-rule="nonzero"/><path fill="#757575" d="M33.928123 137.49869L38.81875 137.49869L38.81875 138.42056L32.6 138.42056L32.6 137.57681L37.2875 130.81119L32.678123 130.81119L32.678123 129.88931L38.63125 129.88931L38.63125 130.71744L33.928123 137.49869ZM42.553123 138.54556Q41.25625 138.54556 40.44375 137.70181Q39.646873 136.84244 39.646873 135.42056L39.646873 135.23306Q39.646873 134.27994 40.00625 133.54556Q40.365623 132.79556 41.00625 132.38931Q41.6625 131.96744 42.4125 131.96744Q43.646873 131.96744 44.334373 132.77994Q45.021873 133.59244 45.021873 135.10806L45.021873 135.56119L40.725 135.56119Q40.75625 136.49869 41.271873 137.07681Q41.803123 137.65494 42.615623 137.65494Q43.178123 137.65494 43.56875 137.42056Q43.975 137.18619 44.2875 136.79556L44.94375 137.31119Q44.146873 138.54556 42.553123 138.54556ZM42.4125 132.85806Q41.75625 132.85806 41.303123 133.34244Q40.865623 133.81119 40.771873 134.67056L43.94375 134.67056L43.94375 134.59244Q43.896873 133.76431 43.490623 133.31119Q43.1 132.85806 42.4125 132.85806ZM46.94375 132.07681L46.975 132.87369Q47.709373 131.96744 48.88125 131.96744Q50.896873 131.96744 50.9125 134.23306L50.9125 138.42056L49.81875 138.42056L49.81875 134.21744Q49.81875 133.54556 49.50625 133.21744Q49.209373 132.88931 48.553123 132.88931Q48.021873 132.88931 47.615623 133.17056Q47.225 133.45181 47.00625 133.90494L47.00625 138.42056L45.928123 138.42056L45.928123 132.07681L46.94375 132.07681ZM52.6625 135.20181Q52.6625 133.73306 53.35 132.85806Q54.0375 131.96744 55.1625 131.96744Q56.271873 131.96744 56.928123 132.71744L56.928123 129.42056L58.00625 129.42056L58.00625 138.42056L57.00625 138.42056L56.959373 137.73306Q56.303123 138.54556 55.146873 138.54556Q54.053123 138.54556 53.35 137.63931Q52.6625 136.73306 52.6625 135.27994L52.6625 135.20181ZM53.740623 135.32681Q53.740623 136.40494 54.178123 137.01431Q54.63125 137.62369 55.4125 137.62369Q56.44375 137.62369 56.928123 136.68619L56.928123 133.77994Q56.44375 132.88931 55.428123 132.88931Q54.63125 132.88931 54.178123 133.49869Q53.740623 134.10806 53.740623 135.32681ZM64.38125 133.62369L65.19375 133.62369Q65.975 133.60806 66.4125 133.21744Q66.85 132.82681 66.85 132.15494Q66.85 130.65494 65.35 130.65494Q64.64687 130.65494 64.225 131.06119Q63.81875 131.46744 63.81875 132.12369L62.725 132.12369Q62.725 131.10806 63.459373 130.43619Q64.20937 129.76431 65.35 129.76431Q66.55312 129.76431 67.24062 130.40494Q67.92812 131.04556 67.92812 132.18619Q67.92812 132.74869 67.56875 133.26431Q67.20937 133.77994 66.58437 134.04556Q67.2875 134.26431 67.6625 134.77994Q68.05312 135.29556 68.05312 136.04556Q68.05312 137.18619 67.30312 137.87369Q66.55312 138.54556 65.35 138.54556Q64.1625 138.54556 63.396873 137.88931Q62.646873 137.23306 62.646873 136.17056L63.740623 136.17056Q63.740623 136.84244 64.17812 137.24869Q64.61562 137.65494 65.36562 137.65494Q66.14687 137.65494 66.55312 137.24869Q66.975 136.82681 66.975 136.06119Q66.975 135.32681 66.52187 134.93619Q66.06875 134.52994 65.19375 134.51431L64.38125 134.51431L64.38125 133.62369ZM69.94375 137.85806Q69.94375 137.57681 70.1 137.38931Q70.27187 137.20181 70.6 137.20181Q70.94375 137.20181 71.11562 137.38931Q71.2875 137.57681 71.2875 137.85806Q71.2875 138.12369 71.11562 138.31119Q70.94375 138.48306 70.6 138.48306Q70.27187 138.48306 70.1 138.31119Q69.94375 138.12369 69.94375 137.85806ZM78.1625 134.77994Q78.1625 136.68619 77.50625 137.62369Q76.86562 138.54556 75.475 138.54556Q74.11562 138.54556 73.45937 137.63931Q72.80312 136.73306 72.77187 134.92056L72.77187 133.48306Q72.77187 131.59244 73.4125 130.68619Q74.06875 129.76431 75.45937 129.76431Q76.83437 129.76431 77.49062 130.65494Q78.14687 131.52994 78.1625 133.37369L78.1625 134.77994ZM77.06875 133.29556Q77.06875 131.92056 76.67812 131.29556Q76.30312 130.65494 75.45937 130.65494Q74.63125 130.65494 74.24062 131.29556Q73.86562 131.92056 73.86562 133.21744L73.86562 134.95181Q73.86562 136.32681 74.25625 136.99869Q74.6625 137.65494 75.475 137.65494Q76.27187 137.65494 76.6625 137.02994Q77.05312 136.40494 77.06875 135.07681L77.06875 133.29556Z" fill-rule="nonzero"/><path fill="#757575" d="M22.225 170.91925L26.271875 170.91925L26.271875 171.84113L21.084375 171.84113L21.084375 163.30988L22.225 163.30988L22.225 170.91925ZM30.834375 171.84113Q30.740625 171.65363 30.678125 171.16925Q29.928125 171.96613 28.88125 171.96613Q27.94375 171.96613 27.334375 171.43488Q26.740625 170.90363 26.740625 170.0755Q26.740625 169.09113 27.490625 168.54425Q28.240625 167.99738 29.615625 167.99738L30.6625 167.99738L30.6625 167.49738Q30.6625 166.93488 30.31875 166.60675Q29.990625 166.263 29.31875 166.263Q28.740625 166.263 28.35 166.55988Q27.959375 166.84113 27.959375 167.263L26.865625 167.263Q26.865625 166.77863 27.19375 166.34113Q27.5375 165.90363 28.115625 165.65363Q28.69375 165.388 29.38125 165.388Q30.490625 165.388 31.1 165.93488Q31.725 166.48175 31.75625 167.43488L31.75625 170.35675Q31.75625 171.23175 31.975 171.74738L31.975 171.84113L30.834375 171.84113ZM29.0375 171.013Q29.553125 171.013 30.00625 170.74738Q30.459375 170.48175 30.6625 170.05988L30.6625 168.763L29.81875 168.763Q27.81875 168.763 27.81875 169.93488Q27.81875 170.43488 28.1625 170.73175Q28.50625 171.013 29.0375 171.013ZM36.990623 166.46613Q36.740623 166.43488 36.459373 166.43488Q35.38125 166.43488 35.00625 167.34113L35.00625 171.84113L33.928123 171.84113L33.928123 165.49738L34.975 165.49738L34.990623 166.23175Q35.521873 165.388 36.50625 165.388Q36.81875 165.388 36.990623 165.46613L36.990623 166.46613ZM41.834373 171.84113Q41.740623 171.65363 41.678123 171.16925Q40.928123 171.96613 39.88125 171.96613Q38.94375 171.96613 38.334373 171.43488Q37.740623 170.90363 37.740623 170.0755Q37.740623 169.09113 38.490623 168.54425Q39.240623 167.99738 40.615623 167.99738L41.6625 167.99738L41.6625 167.49738Q41.6625 166.93488 41.31875 166.60675Q40.990623 166.263 40.31875 166.263Q39.740623 166.263 39.35 166.55988Q38.959373 166.84113 38.959373 167.263L37.865623 167.263Q37.865623 166.77863 38.19375 166.34113Q38.5375 165.90363 39.115623 165.65363Q39.69375 165.388 40.38125 165.388Q41.490623 165.388 42.1 165.93488Q42.725 166.48175 42.75625 167.43488L42.75625 170.35675Q42.75625 171.23175 42.975 171.74738L42.975 171.84113L41.834373 171.84113ZM40.0375 171.013Q40.553123 171.013 41.00625 170.74738Q41.459373 170.48175 41.6625 170.05988L41.6625 168.763L40.81875 168.763Q38.81875 168.763 38.81875 169.93488Q38.81875 170.43488 39.1625 170.73175Q39.50625 171.013 40.0375 171.013ZM47.00625 170.37238L48.584373 165.49738L49.69375 165.49738L47.4125 171.84113L46.584373 171.84113L44.2875 165.49738L45.396873 165.49738L47.00625 170.37238ZM53.553123 171.96613Q52.25625 171.96613 51.44375 171.12238Q50.646873 170.263 50.646873 168.84113L50.646873 168.65363Q50.646873 167.7005 51.00625 166.96613Q51.365623 166.21613 52.00625 165.80988Q52.6625 165.388 53.4125 165.388Q54.646873 165.388 55.334373 166.2005Q56.021873 167.013 56.021873 168.52863L56.021873 168.98175L51.725 168.98175Q51.75625 169.91925 52.271873 170.49738Q52.803123 171.0755 53.615623 171.0755Q54.178123 171.0755 54.56875 170.84113Q54.975 170.60675 55.2875 170.21613L55.94375 170.73175Q55.146873 171.96613 53.553123 171.96613ZM53.4125 166.27863Q52.75625 166.27863 52.303123 166.763Q51.865623 167.23175 51.771873 168.09113L54.94375 168.09113L54.94375 168.013Q54.896873 167.18488 54.490623 166.73175Q54.1 166.27863 53.4125 166.27863ZM58.1 171.84113L57.021873 171.84113L57.021873 162.84113L58.1 162.84113L58.1 171.84113ZM63.303123 167.55988L63.740623 163.30988L68.11562 163.30988L68.11562 164.30988L64.6625 164.30988L64.39687 166.638Q65.0375 166.263 65.83437 166.263Q66.99062 166.263 67.67812 167.04425Q68.36562 167.80988 68.36562 169.12238Q68.36562 170.43488 67.64687 171.2005Q66.94375 171.96613 65.6625 171.96613Q64.5375 171.96613 63.81875 171.34113Q63.1 170.7005 63.00625 169.59113L64.02187 169.59113Q64.13125 170.3255 64.55312 170.7005Q64.975 171.0755 65.6625 171.0755Q66.4125 171.0755 66.85 170.55988Q67.2875 170.04425 67.2875 169.138Q67.2875 168.27863 66.81875 167.763Q66.35 167.24738 65.56875 167.24738Q64.86562 167.24738 64.45937 167.54425L64.17812 167.77863L63.303123 167.55988ZM69.94375 171.27863Q69.94375 170.99738 70.1 170.80988Q70.27187 170.62238 70.6 170.62238Q70.94375 170.62238 71.11562 170.80988Q71.2875 170.99738 71.2875 171.27863Q71.2875 171.54425 71.11562 171.73175Q70.94375 171.90363 70.6 171.90363Q70.27187 171.90363 70.1 171.73175Q69.94375 171.54425 69.94375 171.27863ZM78.31875 163.91925L74.7875 171.84113L73.64687 171.84113L77.1625 164.2005L72.55312 164.2005L72.55312 163.30988L78.31875 163.30988L78.31875 163.91925Z" fill-rule="nonzero"/><path fill="#757575" d="M77.6625 204.25937Q77.6625 206.16562 77.00625 207.10312Q76.36562 208.025 74.975 208.025Q73.61562 208.025 72.95937 207.11874Q72.30312 206.2125 72.27187 204.4L72.27187 202.9625Q72.27187 201.07187 72.9125 200.16562Q73.56875 199.24374 74.95937 199.24374Q76.33437 199.24374 76.99062 200.13437Q77.64687 201.00937 77.6625 202.85312L77.6625 204.25937ZM76.56875 202.775Q76.56875 201.4 76.17812 200.775Q75.80312 200.13437 74.95937 200.13437Q74.13125 200.13437 73.74062 200.775Q73.36562 201.4 73.36562 202.69687L73.36562 204.43124Q73.36562 205.80624 73.75625 206.47812Q74.1625 207.13437 74.975 207.13437Q75.77187 207.13437 76.1625 206.50937Q76.55312 205.88437 76.56875 204.55624L76.56875 202.775ZM83.44375 201.55624L83.475 202.25937Q84.1625 201.44687 85.35 201.44687Q86.67812 201.44687 87.1625 202.4625Q87.475 202.00937 87.975 201.72812Q88.49062 201.44687 89.17812 201.44687Q91.27187 201.44687 91.30312 203.65L91.30312 207.9L90.225 207.9L90.225 203.7125Q90.225 203.04062 89.9125 202.7125Q89.6 202.36874 88.86562 202.36874Q88.25625 202.36874 87.85 202.72812Q87.45937 203.0875 87.39687 203.69687L87.39687 207.9L86.31875 207.9L86.31875 203.74374Q86.31875 202.36874 84.95937 202.36874Q83.89687 202.36874 83.50625 203.275L83.50625 207.9L82.4125 207.9L82.4125 201.55624L83.44375 201.55624ZM97.11562 206.2125Q97.11562 205.775 96.77187 205.54062Q96.44375 205.29062 95.61562 205.11874Q94.80312 204.94687 94.31875 204.69687Q93.83437 204.44687 93.6 204.11874Q93.38125 203.775 93.38125 203.30624Q93.38125 202.525 94.0375 201.99374Q94.69375 201.44687 95.725 201.44687Q96.80312 201.44687 97.45937 202.00937Q98.13125 202.55624 98.13125 203.41562L97.05312 203.41562Q97.05312 202.97812 96.6625 202.66562Q96.2875 202.3375 95.725 202.3375Q95.13125 202.3375 94.7875 202.60312Q94.45937 202.85312 94.45937 203.25937Q94.45937 203.65 94.77187 203.85312Q95.08437 204.05624 95.89687 204.24374Q96.70937 204.41562 97.20937 204.66562Q97.70937 204.91562 97.94375 205.275Q98.19375 205.63437 98.19375 206.13437Q98.19375 206.99374 97.50625 207.50937Q96.83437 208.025 95.75625 208.025Q94.99062 208.025 94.39687 207.75937Q93.81875 207.47812 93.49062 206.99374Q93.1625 206.50937 93.1625 205.94687L94.24062 205.94687Q94.27187 206.49374 94.67812 206.82187Q95.08437 207.13437 95.75625 207.13437Q96.36562 207.13437 96.74062 206.88437Q97.11562 206.63437 97.11562 206.2125Z" fill-rule="nonzero"/><path fill="#757575" d="M146.84868 207.9L145.77055 207.9L145.77055 200.68124L143.58305 201.47812L143.58305 200.49374L146.69243 199.32187L146.84868 199.32187L146.84868 207.9ZM154.4268 201.55624L154.45805 202.25937Q155.14555 201.44687 156.33305 201.44687Q157.66118 201.44687 158.14555 202.4625Q158.45805 202.00937 158.95805 201.72812Q159.47368 201.44687 160.16118 201.44687Q162.25493 201.44687 162.28618 203.65L162.28618 207.9L161.20805 207.9L161.20805 203.7125Q161.20805 203.04062 160.89555 202.7125Q160.58305 202.36874 159.84868 202.36874Q159.2393 202.36874 158.83305 202.72812Q158.44243 203.0875 158.37993 203.69687L158.37993 207.9L157.3018 207.9L157.3018 203.74374Q157.3018 202.36874 155.94243 202.36874Q154.87993 202.36874 154.4893 203.275L154.4893 207.9L153.39555 207.9L153.39555 201.55624L154.4268 201.55624ZM168.09868 206.2125Q168.09868 205.775 167.75493 205.54062Q167.4268 205.29062 166.59868 205.11874Q165.78618 204.94687 165.3018 204.69687Q164.81743 204.44687 164.58305 204.11874Q164.3643 203.775 164.3643 203.30624Q164.3643 202.525 165.02055 201.99374Q165.6768 201.44687 166.70805 201.44687Q167.78618 201.44687 168.44243 202.00937Q169.1143 202.55624 169.1143 203.41562L168.03618 203.41562Q168.03618 202.97812 167.64555 202.66562Q167.27055 202.3375 166.70805 202.3375Q166.1143 202.3375 165.77055 202.60312Q165.44243 202.85312 165.44243 203.25937Q165.44243 203.65 165.75493 203.85312Q166.06743 204.05624 166.87993 204.24374Q167.69243 204.41562 168.19243 204.66562Q168.69243 204.91562 168.9268 205.275Q169.1768 205.63437 169.1768 206.13437Q169.1768 206.99374 168.4893 207.50937Q167.81743 208.025 166.7393 208.025Q165.97368 208.025 165.37993 207.75937Q164.8018 207.47812 164.47368 206.99374Q164.14555 206.50937 164.14555 205.94687L165.22368 205.94687Q165.25493 206.49374 165.66118 206.82187Q166.06743 207.13437 166.7393 207.13437Q167.34868 207.13437 167.72368 206.88437Q168.09868 206.63437 168.09868 206.2125Z" fill-rule="nonzero"/><path fill="#757575" d="M219.86298 207.9L214.26923 207.9L214.26923 207.11874L217.22235 203.8375Q217.8786 203.0875 218.1286 202.63437Q218.3786 202.16562 218.3786 201.66562Q218.3786 200.99374 217.97235 200.57187Q217.58173 200.13437 216.89423 200.13437Q216.09735 200.13437 215.64423 200.60312Q215.1911 201.05624 215.1911 201.88437L214.11298 201.88437Q214.11298 200.69687 214.86298 199.97812Q215.6286 199.24374 216.89423 199.24374Q218.09735 199.24374 218.78485 199.86874Q219.47235 200.49374 219.47235 201.54062Q219.47235 202.79062 217.86298 204.54062L215.58173 207.00937L219.86298 207.00937L219.86298 207.9ZM225.40985 201.55624L225.4411 202.25937Q226.1286 201.44687 227.3161 201.44687Q228.64423 201.44687 229.1286 202.4625Q229.4411 202.00937 229.9411 201.72812Q230.45673 201.44687 231.14423 201.44687Q233.23798 201.44687 233.26923 203.65L233.26923 207.9L232.1911 207.9L232.1911 203.7125Q232.1911 203.04062 231.8786 202.7125Q231.5661 202.36874 230.83173 202.36874Q230.22235 202.36874 229.8161 202.72812Q229.42548 203.0875 229.36298 203.69687L229.36298 207.9L228.28485 207.9L228.28485 203.74374Q228.28485 202.36874 226.92548 202.36874Q225.86298 202.36874 225.47235 203.275L225.47235 207.9L224.3786 207.9L224.3786 201.55624L225.40985 201.55624ZM239.08173 206.2125Q239.08173 205.775 238.73798 205.54062Q238.40985 205.29062 237.58173 205.11874Q236.76923 204.94687 236.28485 204.69687Q235.80048 204.44687 235.5661 204.11874Q235.34735 203.775 235.34735 203.30624Q235.34735 202.525 236.0036 201.99374Q236.65985 201.44687 237.6911 201.44687Q238.76923 201.44687 239.42548 202.00937Q240.09735 202.55624 240.09735 203.41562L239.01923 203.41562Q239.01923 202.97812 238.6286 202.66562Q238.2536 202.3375 237.6911 202.3375Q237.09735 202.3375 236.7536 202.60312Q236.42548 202.85312 236.42548 203.25937Q236.42548 203.65 236.73798 203.85312Q237.05048 204.05624 237.86298 204.24374Q238.67548 204.41562 239.17548 204.66562Q239.67548 204.91562 239.90985 205.275Q240.15985 205.63437 240.15985 206.13437Q240.15985 206.99374 239.47235 207.50937Q238.80048 208.025 237.72235 208.025Q236.95673 208.025 236.36298 207.75937Q235.78485 207.47812 235.45673 206.99374Q235.1286 206.50937 235.1286 205.94687L236.20673 205.94687Q236.23798 206.49374 236.64423 206.82187Q237.05048 207.13437 237.72235 207.13437Q238.33173 207.13437 238.70673 206.88437Q239.08173 206.63437 239.08173 206.2125Z" fill-rule="nonzero"/><path fill="#757575" d="M286.8304 203.10312L287.6429 203.10312Q288.42416 203.0875 288.86166 202.69687Q289.29916 202.30624 289.29916 201.63437Q289.29916 200.13437 287.79916 200.13437Q287.09604 200.13437 286.67416 200.54062Q286.2679 200.94687 286.2679 201.60312L285.17416 201.60312Q285.17416 200.5875 285.90854 199.91562Q286.65854 199.24374 287.79916 199.24374Q289.0023 199.24374 289.6898 199.88437Q290.3773 200.525 290.3773 201.66562Q290.3773 202.22812 290.0179 202.74374Q289.65854 203.25937 289.03354 203.525Q289.73666 203.74374 290.11166 204.25937Q290.5023 204.775 290.5023 205.525Q290.5023 206.66562 289.7523 207.35312Q289.0023 208.025 287.79916 208.025Q286.61166 208.025 285.84604 207.36874Q285.09604 206.7125 285.09604 205.65L286.1898 205.65Q286.1898 206.32187 286.6273 206.72812Q287.0648 207.13437 287.8148 207.13437Q288.59604 207.13437 289.0023 206.72812Q289.42416 206.30624 289.42416 205.54062Q289.42416 204.80624 288.97104 204.41562Q288.5179 204.00937 287.6429 203.99374L286.8304 203.99374L286.8304 203.10312ZM296.3929 201.55624L296.42416 202.25937Q297.11166 201.44687 298.29916 201.44687Q299.6273 201.44687 300.11166 202.4625Q300.42416 202.00937 300.92416 201.72812Q301.4398 201.44687 302.1273 201.44687Q304.22104 201.44687 304.2523 203.65L304.2523 207.9L303.17416 207.9L303.17416 203.7125Q303.17416 203.04062 302.86166 202.7125Q302.54916 202.36874 301.8148 202.36874Q301.2054 202.36874 300.79916 202.72812Q300.40854 203.0875 300.34604 203.69687L300.34604 207.9L299.2679 207.9L299.2679 203.74374Q299.2679 202.36874 297.90854 202.36874Q296.84604 202.36874 296.4554 203.275L296.4554 207.9L295.36166 207.9L295.36166 201.55624L296.3929 201.55624ZM310.0648 206.2125Q310.0648 205.775 309.72104 205.54062Q309.3929 205.29062 308.5648 205.11874Q307.7523 204.94687 307.2679 204.69687Q306.78354 204.44687 306.54916 204.11874Q306.3304 203.775 306.3304 203.30624Q306.3304 202.525 306.98666 201.99374Q307.6429 201.44687 308.67416 201.44687Q309.7523 201.44687 310.40854 202.00937Q311.0804 202.55624 311.0804 203.41562L310.0023 203.41562Q310.0023 202.97812 309.61166 202.66562Q309.23666 202.3375 308.67416 202.3375Q308.0804 202.3375 307.73666 202.60312Q307.40854 202.85312 307.40854 203.25937Q307.40854 203.65 307.72104 203.85312Q308.03354 204.05624 308.84604 204.24374Q309.65854 204.41562 310.15854 204.66562Q310.65854 204.91562 310.8929 205.275Q311.1429 205.63437 311.1429 206.13437Q311.1429 206.99374 310.4554 207.50937Q309.78354 208.025 308.7054 208.025Q307.9398 208.025 307.34604 207.75937Q306.7679 207.47812 306.4398 206.99374Q306.11166 206.50937 306.11166 205.94687L307.1898 205.94687Q307.22104 206.49374 307.6273 206.82187Q308.03354 207.13437 308.7054 207.13437Q309.3148 207.13437 309.6898 206.88437Q310.0648 206.63437 310.0648 206.2125Z" fill-rule="nonzero"/><path fill="#757575" d="M360.81345 205.04062L362.00095 205.04062L362.00095 205.91562L360.81345 205.91562L360.81345 207.9L359.73532 207.9L359.73532 205.91562L355.8447 205.91562L355.8447 205.275L359.6572 199.36874L360.81345 199.36874L360.81345 205.04062ZM357.07907 205.04062L359.73532 205.04062L359.73532 200.85312L359.5947 201.0875L357.07907 205.04062ZM367.37595 201.55624L367.4072 202.25937Q368.0947 201.44687 369.2822 201.44687Q370.61032 201.44687 371.0947 202.4625Q371.4072 202.00937 371.9072 201.72812Q372.42282 201.44687 373.11032 201.44687Q375.20407 201.44687 375.23532 203.65L375.23532 207.9L374.1572 207.9L374.1572 203.7125Q374.1572 203.04062 373.8447 202.7125Q373.5322 202.36874 372.79782 202.36874Q372.18845 202.36874 371.7822 202.72812Q371.39157 203.0875 371.32907 203.69687L371.32907 207.9L370.25095 207.9L370.25095 203.74374Q370.25095 202.36874 368.89157 202.36874Q367.82907 202.36874 367.43845 203.275L367.43845 207.9L366.3447 207.9L366.3447 201.55624L367.37595 201.55624ZM381.04782 206.2125Q381.04782 205.775 380.70407 205.54062Q380.37595 205.29062 379.54782 205.11874Q378.73532 204.94687 378.25095 204.69687Q377.76657 204.44687 377.5322 204.11874Q377.31345 203.775 377.31345 203.30624Q377.31345 202.525 377.9697 201.99374Q378.62595 201.44687 379.6572 201.44687Q380.73532 201.44687 381.39157 202.00937Q382.06345 202.55624 382.06345 203.41562L380.98532 203.41562Q380.98532 202.97812 380.5947 202.66562Q380.2197 202.3375 379.6572 202.3375Q379.06345 202.3375 378.7197 202.60312Q378.39157 202.85312 378.39157 203.25937Q378.39157 203.65 378.70407 203.85312Q379.01657 204.05624 379.82907 204.24374Q380.64157 204.41562 381.14157 204.66562Q381.64157 204.91562 381.87595 205.275Q382.12595 205.63437 382.12595 206.13437Q382.12595 206.99374 381.43845 207.50937Q380.76657 208.025 379.68845 208.025Q378.92282 208.025 378.32907 207.75937Q377.75095 207.47812 377.42282 206.99374Q377.0947 206.50937 377.0947 205.94687L378.17282 205.94687Q378.20407 206.49374 378.61032 206.82187Q379.01657 207.13437 379.68845 207.13437Q380.29782 207.13437 380.67282 206.88437Q381.04782 206.63437 381.04782 206.2125Z" fill-rule="nonzero"/><path fill="#757575" d="M427.71838 203.61874L428.15588 199.36874L432.53088 199.36874L432.53088 200.36874L429.07776 200.36874L428.81213 202.69687Q429.45276 202.32187 430.24963 202.32187Q431.40588 202.32187 432.09338 203.10312Q432.78088 203.86874 432.78088 205.18124Q432.78088 206.49374 432.06213 207.25937Q431.359 208.025 430.07776 208.025Q428.95276 208.025 428.234 207.4Q427.51526 206.75937 427.4215 205.65L428.43713 205.65Q428.5465 206.38437 428.96838 206.75937Q429.39026 207.13437 430.07776 207.13437Q430.82776 207.13437 431.26526 206.61874Q431.70276 206.10312 431.70276 205.19687Q431.70276 204.3375 431.234 203.82187Q430.76526 203.30624 429.984 203.30624Q429.28088 203.30624 428.87463 203.60312L428.59338 203.8375L427.71838 203.61874ZM438.359 201.55624L438.39026 202.25937Q439.07776 201.44687 440.26526 201.44687Q441.59338 201.44687 442.07776 202.4625Q442.39026 202.00937 442.89026 201.72812Q443.40588 201.44687 444.09338 201.44687Q446.18713 201.44687 446.21838 203.65L446.21838 207.9L445.14026 207.9L445.14026 203.7125Q445.14026 203.04062 444.82776 202.7125Q444.51526 202.36874 443.78088 202.36874Q443.1715 202.36874 442.76526 202.72812Q442.37463 203.0875 442.31213 203.69687L442.31213 207.9L441.234 207.9L441.234 203.74374Q441.234 202.36874 439.87463 202.36874Q438.81213 202.36874 438.4215 203.275L438.4215 207.9L437.32776 207.9L437.32776 201.55624L438.359 201.55624ZM452.03088 206.2125Q452.03088 205.775 451.68713 205.54062Q451.359 205.29062 450.53088 205.11874Q449.71838 204.94687 449.234 204.69687Q448.74963 204.44687 448.51526 204.11874Q448.2965 203.775 448.2965 203.30624Q448.2965 202.525 448.95276 201.99374Q449.609 201.44687 450.64026 201.44687Q451.71838 201.44687 452.37463 202.00937Q453.0465 202.55624 453.0465 203.41562L451.96838 203.41562Q451.96838 202.97812 451.57776 202.66562Q451.20276 202.3375 450.64026 202.3375Q450.0465 202.3375 449.70276 202.60312Q449.37463 202.85312 449.37463 203.25937Q449.37463 203.65 449.68713 203.85312Q449.99963 204.05624 450.81213 204.24374Q451.62463 204.41562 452.12463 204.66562Q452.62463 204.91562 452.859 205.275Q453.109 205.63437 453.109 206.13437Q453.109 206.99374 452.4215 207.50937Q451.74963 208.025 450.6715 208.025Q449.90588 208.025 449.31213 207.75937Q448.734 207.47812 448.40588 206.99374Q448.07776 206.50937 448.07776 205.94687L449.15588 205.94687Q449.18713 206.49374 449.59338 206.82187Q449.99963 207.13437 450.6715 207.13437Q451.28088 207.13437 451.65588 206.88437Q452.03088 206.63437 452.03088 206.2125Z" fill-rule="nonzero"/></svg>