<svg version="1.1" viewBox="0.0 0.0 707.0 265.0" fill="none" stroke="none" stroke-linecap="square" stroke-miterlimit="10" width="707" height="265" xmlns:xlink="http://www.w3.org/1999/xlink" xmlns="http://www.w3.org/2000/svg"><path fill="#ffffff" d="M0 0L707.0 0L707.0 265.0L0 265.0L0 0Z" fill-rule="nonzero"/><path fill="#ffffff" d="M0 0L707.0 0L707.0 265.0L0 265.0L0 0Z" fill-rule="nonzero"/><path stroke="#333333" stroke-width="1.0" stroke-linecap="butt" d="M87.5 13.5L87.5 206.5" fill-rule="nonzero"/><path stroke="#cccccc" stroke-width="1.0" stroke-linecap="butt" d="M190.5 13.5L190.5 206.5" fill-rule="nonzero"/><path stroke="#cccccc" stroke-width="1.0" stroke-linecap="butt" d="M292.5 13.5L292.5 206.5" fill-rule="nonzero"/><path stroke="#cccccc" stroke-width="1.0" stroke-linecap="butt" d="M395.5 13.5L395.5 206.5" fill-rule="nonzero"/><path stroke="#cccccc" stroke-width="1.0" stroke-linecap="butt" d="M498.5 13.5L498.5 206.5" fill-rule="nonzero"/><path stroke="#cccccc" stroke-width="1.0" stroke-linecap="butt" d="M601.5 13.5L601.5 206.5" fill-rule="nonzero"/><clipPath id="id_0"><path d="M87.25 13.25L693.75 13.25L693.75 206.91667L87.25 206.91667L87.25 13.25Z" clip-rule="nonzero"/></clipPath><path stroke="#000000" stroke-width="0.0" stroke-linecap="butt" stroke-opacity="0.0" clip-path="url(#id_0)" d="M87.0 50.0L87.0 26.0L198.0 26.0C199.10457 26.0 200.0 26.89543 200.0 28.0L200.0 48.0C200.0 49.10457 199.10457 50.0 198.0 50.0Z" fill-rule="nonzero"/><path fill="#b0ebf3" clip-path="url(#id_0)" d="M87.0 50.0L87.0 26.0L198.0 26.0C199.10457 26.0 200.0 26.89543 200.0 28.0L200.0 48.0C200.0 49.10457 199.10457 50.0 198.0 50.0Z" fill-rule="nonzero"/><path stroke="#000000" stroke-width="0.0" stroke-linecap="butt" stroke-opacity="0.0" clip-path="url(#id_0)" d="M87.0 86.0L87.0 62.0L281.0 62.0C282.10458 62.0 283.0 62.89543 283.0 64.0L283.0 84.0C283.0 85.10457 282.10458 86.0 281.0 86.0Z" fill-rule="nonzero"/><path fill="#38d1b6" clip-path="url(#id_0)" d="M87.0 86.0L87.0 62.0L281.0 62.0C282.10458 62.0 283.0 62.89543 283.0 64.0L283.0 84.0C283.0 85.10457 282.10458 86.0 281.0 86.0Z" fill-rule="nonzero"/><path stroke="#000000" stroke-width="0.0" stroke-linecap="butt" stroke-opacity="0.0" clip-path="url(#id_0)" d="M87.0 122.0L87.0 98.0L394.0 98.0C395.10458 98.0 396.0 98.89543 396.0 100.0L396.0 120.0C396.0 121.10457 395.10458 122.0 394.0 122.0Z" fill-rule="nonzero"/><path fill="#38d1b6" clip-path="url(#id_0)" d="M87.0 122.0L87.0 98.0L394.0 98.0C395.10458 98.0 396.0 98.89543 396.0 100.0L396.0 120.0C396.0 121.10457 395.10458 122.0 394.0 122.0Z" fill-rule="nonzero"/><path stroke="#000000" stroke-width="0.0" stroke-linecap="butt" stroke-opacity="0.0" clip-path="url(#id_0)" d="M87.0 158.0L87.0 134.0L507.0 134.0C508.10458 134.0 509.0 134.89543 509.0 136.0L509.0 156.0C509.0 157.10457 508.10458 158.0 507.0 158.0Z" fill-rule="nonzero"/><path fill="#79d504" clip-path="url(#id_0)" d="M87.0 158.0L87.0 134.0L507.0 134.0C508.10458 134.0 509.0 134.89543 509.0 136.0L509.0 156.0C509.0 157.10457 508.10458 158.0 507.0 158.0Z" fill-rule="nonzero"/><path stroke="#000000" stroke-width="0.0" stroke-linecap="butt" stroke-opacity="0.0" clip-path="url(#id_0)" d="M87.0 194.0L87.0 170.0L692.0 170.0C693.10455 170.0 694.0 170.89543 694.0 172.0L694.0 192.0C694.0 193.10457 693.10455 194.0 692.0 194.0Z" fill-rule="nonzero"/><path fill="#ff6863" clip-path="url(#id_0)" d="M87.0 194.0L87.0 170.0L692.0 170.0C693.10455 170.0 694.0 170.89543 694.0 172.0L694.0 192.0C694.0 193.10457 693.10455 194.0 692.0 194.0Z" fill-rule="nonzero"/><path stroke="#b0ebf3" stroke-width="3.0" stroke-linejoin="round" stroke-linecap="round" d="M182.7919 42.5L181.71378 42.5L181.71378 35.28125L179.52628 36.078125L179.52628 35.09375L182.63565 33.921875L182.7919 33.921875L182.7919 42.5ZM186.37003 41.9375Q186.37003 41.65625 186.52628 41.46875Q186.69815 41.28125 187.02628 41.28125Q187.37003 41.28125 187.5419 41.46875Q187.71378 41.65625 187.71378 41.9375Q187.71378 42.203125 187.5419 42.390625Q187.37003 42.5625 187.02628 42.5625Q186.69815 42.5625 186.52628 42.390625Q186.37003 42.203125 186.37003 41.9375ZM192.7919 42.5L191.71378 42.5L191.71378 35.28125L189.52628 36.078125L189.52628 35.09375L192.63565 33.921875L192.7919 33.921875L192.7919 42.5Z" fill-rule="nonzero"/><path fill="#000000" d="M182.7919 42.5L181.71378 42.5L181.71378 35.28125L179.52628 36.078125L179.52628 35.09375L182.63565 33.921875L182.7919 33.921875L182.7919 42.5ZM186.37003 41.9375Q186.37003 41.65625 186.52628 41.46875Q186.69815 41.28125 187.02628 41.28125Q187.37003 41.28125 187.5419 41.46875Q187.71378 41.65625 187.71378 41.9375Q187.71378 42.203125 187.5419 42.390625Q187.37003 42.5625 187.02628 42.5625Q186.69815 42.5625 186.52628 42.390625Q186.37003 42.203125 186.37003 41.9375ZM192.7919 42.5L191.71378 42.5L191.71378 35.28125L189.52628 36.078125L189.52628 35.09375L192.63565 33.921875L192.7919 33.921875L192.7919 42.5Z" fill-rule="nonzero"/><path stroke="#38d1b6" stroke-width="3.0" stroke-linejoin="round" stroke-linecap="round" d="M265.02917 78.5L263.95105 78.5L263.95105 71.28125L261.76355 72.078125L261.76355 71.09375L264.87292 69.921875L265.02917 69.921875L265.02917 78.5ZM268.6073 77.9375Q268.6073 77.65625 268.76355 77.46875Q268.93542 77.28125 269.26355 77.28125Q269.6073 77.28125 269.77917 77.46875Q269.95105 77.65625 269.95105 77.9375Q269.95105 78.203125 269.77917 78.390625Q269.6073 78.5625 269.26355 78.5625Q268.93542 78.5625 268.76355 78.390625Q268.6073 78.203125 268.6073 77.9375ZM275.62292 74.75Q275.2948 75.15625 274.81042 75.40625Q274.34167 75.640625 273.77917 75.640625Q273.0448 75.640625 272.49792 75.28125Q271.95105 74.921875 271.65417 74.265625Q271.3573 73.59375 271.3573 72.796875Q271.3573 71.953125 271.6698 71.265625Q271.99792 70.578125 272.59167 70.21875Q273.20105 69.84375 273.99792 69.84375Q275.26355 69.84375 275.9823 70.796875Q276.71667 71.75 276.71667 73.375L276.71667 73.6875Q276.71667 76.1875 275.7323 77.328125Q274.74792 78.46875 272.76355 78.5L272.5448 78.5L272.5448 77.59375L272.77917 77.59375Q274.12292 77.5625 274.84167 76.890625Q275.56042 76.21875 275.62292 74.75ZM273.95105 74.75Q274.49792 74.75 274.95105 74.421875Q275.4198 74.078125 275.63855 73.59375L275.63855 73.15625Q275.63855 72.09375 275.1698 71.421875Q274.70105 70.75 273.99792 70.75Q273.27917 70.75 272.84167 71.296875Q272.4198 71.84375 272.4198 72.75Q272.4198 73.625 272.82605 74.1875Q273.24792 74.75 273.95105 74.75Z" fill-rule="nonzero"/><path fill="#000000" d="M265.02917 78.5L263.95105 78.5L263.95105 71.28125L261.76355 72.078125L261.76355 71.09375L264.87292 69.921875L265.02917 69.921875L265.02917 78.5ZM268.6073 77.9375Q268.6073 77.65625 268.76355 77.46875Q268.93542 77.28125 269.26355 77.28125Q269.6073 77.28125 269.77917 77.46875Q269.95105 77.65625 269.95105 77.9375Q269.95105 78.203125 269.77917 78.390625Q269.6073 78.5625 269.26355 78.5625Q268.93542 78.5625 268.76355 78.390625Q268.6073 78.203125 268.6073 77.9375ZM275.62292 74.75Q275.2948 75.15625 274.81042 75.40625Q274.34167 75.640625 273.77917 75.640625Q273.0448 75.640625 272.49792 75.28125Q271.95105 74.921875 271.65417 74.265625Q271.3573 73.59375 271.3573 72.796875Q271.3573 71.953125 271.6698 71.265625Q271.99792 70.578125 272.59167 70.21875Q273.20105 69.84375 273.99792 69.84375Q275.26355 69.84375 275.9823 70.796875Q276.71667 71.75 276.71667 73.375L276.71667 73.6875Q276.71667 76.1875 275.7323 77.328125Q274.74792 78.46875 272.76355 78.5L272.5448 78.5L272.5448 77.59375L272.77917 77.59375Q274.12292 77.5625 274.84167 76.890625Q275.56042 76.21875 275.62292 74.75ZM273.95105 74.75Q274.49792 74.75 274.95105 74.421875Q275.4198 74.078125 275.63855 73.59375L275.63855 73.15625Q275.63855 72.09375 275.1698 71.421875Q274.70105 70.75 273.99792 70.75Q273.27917 70.75 272.84167 71.296875Q272.4198 71.84375 272.4198 72.75Q272.4198 73.625 272.82605 74.1875Q273.24792 74.75 273.95105 74.75Z" fill-rule="nonzero"/><path stroke="#38d1b6" stroke-width="3.0" stroke-linejoin="round" stroke-linecap="round" d="M386.1211 109.703125L386.9336 109.703125Q387.71484 109.6875 388.15234 109.296875Q388.58984 108.90625 388.58984 108.234375Q388.58984 106.734375 387.08984 106.734375Q386.38672 106.734375 385.96484 107.140625Q385.5586 107.546875 385.5586 108.203125L384.46484 108.203125Q384.46484 107.1875 385.19922 106.515625Q385.94922 105.84375 387.08984 105.84375Q388.29297 105.84375 388.98047 106.484375Q389.66797 107.125 389.66797 108.265625Q389.66797 108.828125 389.3086 109.34375Q388.94922 109.859375 388.32422 110.125Q389.02734 110.34375 389.40234 110.859375Q389.79297 111.375 389.79297 112.125Q389.79297 113.265625 389.04297 113.953125Q388.29297 114.625 387.08984 114.625Q385.90234 114.625 385.13672 113.96875Q384.38672 113.3125 384.38672 112.25L385.48047 112.25Q385.48047 112.921875 385.91797 113.328125Q386.35547 113.734375 387.10547 113.734375Q387.88672 113.734375 388.29297 113.328125Q388.71484 112.90625 388.71484 112.140625Q388.71484 111.40625 388.26172 111.015625Q387.8086 110.609375 386.9336 110.59375L386.1211 110.59375L386.1211 109.703125Z" fill-rule="nonzero"/><path fill="#000000" d="M386.1211 109.703125L386.9336 109.703125Q387.71484 109.6875 388.15234 109.296875Q388.58984 108.90625 388.58984 108.234375Q388.58984 106.734375 387.08984 106.734375Q386.38672 106.734375 385.96484 107.140625Q385.5586 107.546875 385.5586 108.203125L384.46484 108.203125Q384.46484 107.1875 385.19922 106.515625Q385.94922 105.84375 387.08984 105.84375Q388.29297 105.84375 388.98047 106.484375Q389.66797 107.125 389.66797 108.265625Q389.66797 108.828125 389.3086 109.34375Q388.94922 109.859375 388.32422 110.125Q389.02734 110.34375 389.40234 110.859375Q389.79297 111.375 389.79297 112.125Q389.79297 113.265625 389.04297 113.953125Q388.29297 114.625 387.08984 114.625Q385.90234 114.625 385.13672 113.96875Q384.38672 113.3125 384.38672 112.25L385.48047 112.25Q385.48047 112.921875 385.91797 113.328125Q386.35547 113.734375 387.10547 113.734375Q387.88672 113.734375 388.29297 113.328125Q388.71484 112.90625 388.71484 112.140625Q388.71484 111.40625 388.26172 111.015625Q387.8086 110.609375 386.9336 110.59375L386.1211 110.59375L386.1211 109.703125Z" fill-rule="nonzero"/><path stroke="#79d504" stroke-width="3.0" stroke-linejoin="round" stroke-linecap="round" d="M492.19736 147.64062L493.38486 147.64062L493.38486 148.51562L492.19736 148.51562L492.19736 150.5L491.11923 150.5L491.11923 148.51562L487.2286 148.51562L487.2286 147.875L491.0411 141.96875L492.19736 141.96875L492.19736 147.64062ZM488.46298 147.64062L491.11923 147.64062L491.11923 143.45312L490.9786 143.6875L488.46298 147.64062ZM494.75986 149.9375Q494.75986 149.65625 494.9161 149.46875Q495.08798 149.28125 495.4161 149.28125Q495.75986 149.28125 495.93173 149.46875Q496.1036 149.65625 496.1036 149.9375Q496.1036 150.20312 495.93173 150.39062Q495.75986 150.5625 495.4161 150.5625Q495.08798 150.5625 494.9161 150.39062Q494.75986 150.20312 494.75986 149.9375ZM501.18173 150.5L500.1036 150.5L500.1036 143.28125L497.9161 144.07812L497.9161 143.09375L501.02548 141.92188L501.18173 141.92188L501.18173 150.5Z" fill-rule="nonzero"/><path fill="#000000" d="M492.19736 147.64062L493.38486 147.64062L493.38486 148.51562L492.19736 148.51562L492.19736 150.5L491.11923 150.5L491.11923 148.51562L487.2286 148.51562L487.2286 147.875L491.0411 141.96875L492.19736 141.96875L492.19736 147.64062ZM488.46298 147.64062L491.11923 147.64062L491.11923 143.45312L490.9786 143.6875L488.46298 147.64062ZM494.75986 149.9375Q494.75986 149.65625 494.9161 149.46875Q495.08798 149.28125 495.4161 149.28125Q495.75986 149.28125 495.93173 149.46875Q496.1036 149.65625 496.1036 149.9375Q496.1036 150.20312 495.93173 150.39062Q495.75986 150.5625 495.4161 150.5625Q495.08798 150.5625 494.9161 150.39062Q494.75986 150.20312 494.75986 149.9375ZM501.18173 150.5L500.1036 150.5L500.1036 143.28125L497.9161 144.07812L497.9161 143.09375L501.02548 141.92188L501.18173 141.92188L501.18173 150.5Z" fill-rule="nonzero"/><path stroke="#ff6863" stroke-width="3.0" stroke-linejoin="round" stroke-linecap="round" d="M673.15314 182.21875L673.59064 177.96875L677.96564 177.96875L677.96564 178.96875L674.5125 178.96875L674.2469 181.29688Q674.8875 180.92188 675.6844 180.92188Q676.84064 180.92188 677.52814 181.70312Q678.21564 182.46875 678.21564 183.78125Q678.21564 185.09375 677.4969 185.85938Q676.79376 186.625 675.5125 186.625Q674.3875 186.625 673.66876 186.0Q672.95 185.35938 672.85626 184.25L673.8719 184.25Q673.98126 184.98438 674.40314 185.35938Q674.825 185.73438 675.5125 185.73438Q676.2625 185.73438 676.7 185.21875Q677.1375 184.70312 677.1375 183.79688Q677.1375 182.9375 676.66876 182.42188Q676.2 181.90625 675.41876 181.90625Q674.71564 181.90625 674.3094 182.20312L674.02814 182.4375L673.15314 182.21875ZM679.79376 185.9375Q679.79376 185.65625 679.95 185.46875Q680.1219 185.28125 680.45 185.28125Q680.79376 185.28125 680.96564 185.46875Q681.1375 185.65625 681.1375 185.9375Q681.1375 186.20312 680.96564 186.39062Q680.79376 186.5625 680.45 186.5625Q680.1219 186.5625 679.95 186.39062Q679.79376 186.20312 679.79376 185.9375ZM686.8094 182.75Q686.48126 183.15625 685.9969 183.40625Q685.52814 183.64062 684.96564 183.64062Q684.23126 183.64062 683.6844 183.28125Q683.1375 182.92188 682.84064 182.26562Q682.54376 181.59375 682.54376 180.79688Q682.54376 179.95312 682.85626 179.26562Q683.1844 178.57812 683.77814 178.21875Q684.3875 177.84375 685.1844 177.84375Q686.45 177.84375 687.16876 178.79688Q687.90314 179.75 687.90314 181.375L687.90314 181.6875Q687.90314 184.1875 686.91876 185.32812Q685.9344 186.46875 683.95 186.5L683.73126 186.5L683.73126 185.59375L683.96564 185.59375Q685.3094 185.5625 686.02814 184.89062Q686.7469 184.21875 686.8094 182.75ZM685.1375 182.75Q685.6844 182.75 686.1375 182.42188Q686.60626 182.07812 686.825 181.59375L686.825 181.15625Q686.825 180.09375 686.35626 179.42188Q685.8875 178.75 685.1844 178.75Q684.46564 178.75 684.02814 179.29688Q683.60626 179.84375 683.60626 180.75Q683.60626 181.625 684.0125 182.1875Q684.4344 182.75 685.1375 182.75Z" fill-rule="nonzero"/><path fill="#000000" d="M673.15314 182.21875L673.59064 177.96875L677.96564 177.96875L677.96564 178.96875L674.5125 178.96875L674.2469 181.29688Q674.8875 180.92188 675.6844 180.92188Q676.84064 180.92188 677.52814 181.70312Q678.21564 182.46875 678.21564 183.78125Q678.21564 185.09375 677.4969 185.85938Q676.79376 186.625 675.5125 186.625Q674.3875 186.625 673.66876 186.0Q672.95 185.35938 672.85626 184.25L673.8719 184.25Q673.98126 184.98438 674.40314 185.35938Q674.825 185.73438 675.5125 185.73438Q676.2625 185.73438 676.7 185.21875Q677.1375 184.70312 677.1375 183.79688Q677.1375 182.9375 676.66876 182.42188Q676.2 181.90625 675.41876 181.90625Q674.71564 181.90625 674.3094 182.20312L674.02814 182.4375L673.15314 182.21875ZM679.79376 185.9375Q679.79376 185.65625 679.95 185.46875Q680.1219 185.28125 680.45 185.28125Q680.79376 185.28125 680.96564 185.46875Q681.1375 185.65625 681.1375 185.9375Q681.1375 186.20312 680.96564 186.39062Q680.79376 186.5625 680.45 186.5625Q680.1219 186.5625 679.95 186.39062Q679.79376 186.20312 679.79376 185.9375ZM686.8094 182.75Q686.48126 183.15625 685.9969 183.40625Q685.52814 183.64062 684.96564 183.64062Q684.23126 183.64062 683.6844 183.28125Q683.1375 182.92188 682.84064 182.26562Q682.54376 181.59375 682.54376 180.79688Q682.54376 179.95312 682.85626 179.26562Q683.1844 178.57812 683.77814 178.21875Q684.3875 177.84375 685.1844 177.84375Q686.45 177.84375 687.16876 178.79688Q687.90314 179.75 687.90314 181.375L687.90314 181.6875Q687.90314 184.1875 686.91876 185.32812Q685.9344 186.46875 683.95 186.5L683.73126 186.5L683.73126 185.59375L683.96564 185.59375Q685.3094 185.5625 686.02814 184.89062Q686.7469 184.21875 686.8094 182.75ZM685.1375 182.75Q685.6844 182.75 686.1375 182.42188Q686.60626 182.07812 686.825 181.59375L686.825 181.15625Q686.825 180.09375 686.35626 179.42188Q685.8875 178.75 685.1844 178.75Q684.46564 178.75 684.02814 179.29688Q683.60626 179.84375 683.60626 180.75Q683.60626 181.625 684.0125 182.1875Q684.4344 182.75 685.1375 182.75Z" fill-rule="nonzero"/><path fill="#757575" d="M25.75 38.387703Q24.3125 37.965828 23.640625 37.356453Q22.984375 36.747078 22.984375 35.856453Q22.984375 34.856453 23.78125 34.200203Q24.59375 33.528328 25.890625 33.528328Q26.765625 33.528328 27.453125 33.872078Q28.140625 34.215828 28.515625 34.809578Q28.90625 35.403328 28.90625 36.122078L27.765625 36.122078Q27.765625 35.340828 27.265625 34.903328Q26.78125 34.465828 25.890625 34.465828Q25.0625 34.465828 24.59375 34.840828Q24.125 35.200203 24.125 35.840828Q24.125 36.372078 24.5625 36.731453Q25.015625 37.090828 26.078125 37.387703Q27.140625 37.684578 27.734375 38.043953Q28.34375 38.403328 28.625 38.887703Q28.921875 39.372078 28.921875 40.012703Q28.921875 41.059578 28.109375 41.684578Q27.296875 42.309578 25.953125 42.309578Q25.0625 42.309578 24.296875 41.965828Q23.546875 41.622078 23.125 41.043953Q22.71875 40.450203 22.71875 39.715828L23.84375 39.715828Q23.84375 40.481453 24.421875 40.934578Q25.0 41.387703 25.953125 41.387703Q26.84375 41.387703 27.3125 41.028328Q27.78125 40.653328 27.78125 40.028328Q27.78125 39.403328 27.34375 39.059578Q26.90625 38.715828 25.75 38.387703ZM32.140625 40.590828L33.625 35.840828L34.78125 35.840828L32.234375 43.168953Q31.640625 44.747078 30.359375 44.747078L30.140625 44.731453L29.75 44.653328L29.75 43.778328L30.03125 43.793953Q30.59375 43.793953 30.890625 43.575203Q31.203125 43.356453 31.40625 42.762703L31.640625 42.106453L29.375 35.840828L30.5625 35.840828L32.140625 40.590828ZM37.09375 35.840828L37.125 36.543953Q37.8125 35.731453 39.0 35.731453Q40.328125 35.731453 40.8125 36.747078Q41.125 36.293953 41.625 36.012703Q42.140625 35.731453 42.828125 35.731453Q44.921875 35.731453 44.953125 37.934578L44.953125 42.184578L43.875 42.184578L43.875 37.997078Q43.875 37.325203 43.5625 36.997078Q43.25 36.653328 42.515625 36.653328Q41.90625 36.653328 41.5 37.012703Q41.109375 37.372078 41.046875 37.981453L41.046875 42.184578L39.96875 42.184578L39.96875 38.028328Q39.96875 36.653328 38.609375 36.653328Q37.546875 36.653328 37.15625 37.559578L37.15625 42.184578L36.0625 42.184578L36.0625 35.840828L37.09375 35.840828ZM48.25 42.184578L47.171875 42.184578L47.171875 33.184578L48.25 33.184578L48.25 42.184578ZM52.703125 42.309578Q51.40625 42.309578 50.59375 41.465828Q49.796875 40.606453 49.796875 39.184578L49.796875 38.997078Q49.796875 38.043953 50.15625 37.309578Q50.515625 36.559578 51.15625 36.153328Q51.8125 35.731453 52.5625 35.731453Q53.796875 35.731453 54.484375 36.543953Q55.171875 37.356453 55.171875 38.872078L55.171875 39.325203L50.875 39.325203Q50.90625 40.262703 51.421875 40.840828Q51.953125 41.418953 52.765625 41.418953Q53.328125 41.418953 53.71875 41.184578Q54.125 40.950203 54.4375 40.559578L55.09375 41.075203Q54.296875 42.309578 52.703125 42.309578ZM52.5625 36.622078Q51.90625 36.622078 51.453125 37.106453Q51.015625 37.575203 50.921875 38.434578L54.09375 38.434578L54.09375 38.356453Q54.046875 37.528328 53.640625 37.075203Q53.25 36.622078 52.5625 36.622078ZM58.203125 38.153328L59.609375 35.840828L60.875 35.840828L58.796875 38.981453L60.9375 42.184578L59.6875 42.184578L58.21875 39.809578L56.75 42.184578L55.484375 42.184578L57.625 38.981453L55.5625 35.840828L56.8125 35.840828L58.203125 38.153328ZM69.53125 39.325203L70.71875 39.325203L70.71875 40.200203L69.53125 40.200203L69.53125 42.184578L68.453125 42.184578L68.453125 40.200203L64.5625 40.200203L64.5625 39.559578L68.375 33.653328L69.53125 33.653328L69.53125 39.325203ZM65.796875 39.325203L68.453125 39.325203L68.453125 35.137703L68.3125 35.372078L65.796875 39.325203ZM72.09375 41.622078Q72.09375 41.340828 72.25 41.153328Q72.421875 40.965828 72.75 40.965828Q73.09375 40.965828 73.265625 41.153328Q73.4375 41.340828 73.4375 41.622078Q73.4375 41.887703 73.265625 42.075203Q73.09375 42.247078 72.75 42.247078Q72.421875 42.247078 72.25 42.075203Q72.09375 41.887703 72.09375 41.622078ZM78.515625 42.184578L77.4375 42.184578L77.4375 34.965828L75.25 35.762703L75.25 34.778328L78.359375 33.606453L78.515625 33.606453L78.515625 42.184578Z" fill-rule="nonzero"/><path fill="#757575" d="M16.75 74.58708Q15.3125 74.16521 14.640625 73.55583Q13.984375 72.94646 13.984375 72.05583Q13.984375 71.05583 14.78125 70.39958Q15.59375 69.72771 16.890625 69.72771Q17.765625 69.72771 18.453125 70.07146Q19.140625 70.41521 19.515625 71.00896Q19.90625 71.60271 19.90625 72.32146L18.765625 72.32146Q18.765625 71.54021 18.265625 71.10271Q17.78125 70.66521 16.890625 70.66521Q16.0625 70.66521 15.59375 71.04021Q15.125 71.39958 15.125 72.04021Q15.125 72.57146 15.5625 72.93083Q16.015625 73.29021 17.078125 73.58708Q18.140625 73.88396 18.734375 74.24333Q19.34375 74.60271 19.625 75.08708Q19.921875 75.57146 19.921875 76.21208Q19.921875 77.25896 19.109375 77.88396Q18.296875 78.50896 16.953125 78.50896Q16.0625 78.50896 15.296875 78.16521Q14.546875 77.82146 14.125 77.24333Q13.71875 76.64958 13.71875 75.91521L14.84375 75.91521Q14.84375 76.68083 15.421875 77.13396Q16.0 77.58708 16.953125 77.58708Q17.84375 77.58708 18.3125 77.22771Q18.78125 76.85271 18.78125 76.22771Q18.78125 75.60271 18.34375 75.25896Q17.90625 74.91521 16.75 74.58708ZM23.140625 76.79021L24.625 72.04021L25.78125 72.04021L23.234375 79.36833Q22.640625 80.94646 21.359375 80.94646L21.140625 80.93083L20.75 80.85271L20.75 79.97771L21.03125 79.99333Q21.59375 79.99333 21.890625 79.77458Q22.203125 79.55583 22.40625 78.96208L22.640625 78.30583L20.375 72.04021L21.5625 72.04021L23.140625 76.79021ZM28.09375 72.04021L28.125 72.74333Q28.8125 71.93083 30.0 71.93083Q31.328125 71.93083 31.8125 72.94646Q32.125 72.49333 32.625 72.21208Q33.140625 71.93083 33.828125 71.93083Q35.921875 71.93083 35.953125 74.13396L35.953125 78.38396L34.875 78.38396L34.875 74.19646Q34.875 73.52458 34.5625 73.19646Q34.25 72.85271 33.515625 72.85271Q32.90625 72.85271 32.5 73.21208Q32.109375 73.57146 32.046875 74.18083L32.046875 78.38396L30.96875 78.38396L30.96875 74.22771Q30.96875 72.85271 29.609375 72.85271Q28.546875 72.85271 28.15625 73.75896L28.15625 78.38396L27.0625 78.38396L27.0625 72.04021L28.09375 72.04021ZM38.609375 78.38396L38.609375 72.88396L37.609375 72.88396L37.609375 72.04021L38.609375 72.04021L38.609375 71.39958Q38.609375 70.36833 39.140625 69.82146Q39.6875 69.25896 40.6875 69.25896Q41.0625 69.25896 41.4375 69.35271L41.375 70.24333Q41.09375 70.18083 40.796875 70.18083Q40.265625 70.18083 39.96875 70.49333Q39.6875 70.80583 39.6875 71.36833L39.6875 72.04021L41.046875 72.04021L41.046875 72.88396L39.6875 72.88396L39.6875 78.38396L38.609375 78.38396ZM41.78125 75.14958Q41.78125 74.22771 42.140625 73.47771Q42.515625 72.72771 43.171875 72.33708Q43.828125 71.93083 44.65625 71.93083Q45.953125 71.93083 46.75 72.82146Q47.5625 73.71208 47.5625 75.21208L47.5625 75.29021Q47.5625 76.21208 47.203125 76.94646Q46.84375 77.68083 46.1875 78.10271Q45.53125 78.50896 44.671875 78.50896Q43.390625 78.50896 42.578125 77.61833Q41.78125 76.71208 41.78125 75.22771L41.78125 75.14958ZM42.875 75.29021Q42.875 76.33708 43.359375 76.97771Q43.859375 77.61833 44.671875 77.61833Q45.5 77.61833 45.984375 76.97771Q46.46875 76.32146 46.46875 75.14958Q46.46875 74.11833 45.96875 73.47771Q45.484375 72.82146 44.65625 72.82146Q43.859375 72.82146 43.359375 73.46208Q42.875 74.08708 42.875 75.29021ZM50.09375 72.04021L50.125 72.83708Q50.859375 71.93083 52.03125 71.93083Q54.046875 71.93083 54.0625 74.19646L54.0625 78.38396L52.96875 78.38396L52.96875 74.18083Q52.96875 73.50896 52.65625 73.18083Q52.359375 72.85271 51.703125 72.85271Q51.171875 72.85271 50.765625 73.13396Q50.375 73.41521 50.15625 73.86833L50.15625 78.38396L49.078125 78.38396L49.078125 72.04021L50.09375 72.04021ZM58.140625 76.79021L59.625 72.04021L60.78125 72.04021L58.234375 79.36833Q57.640625 80.94646 56.359375 80.94646L56.140625 80.93083L55.75 80.85271L55.75 79.97771L56.03125 79.99333Q56.59375 79.99333 56.890625 79.77458Q57.203125 79.55583 57.40625 78.96208L57.640625 78.30583L55.375 72.04021L56.5625 72.04021L58.140625 76.79021ZM69.53125 75.52458L70.71875 75.52458L70.71875 76.39958L69.53125 76.39958L69.53125 78.38396L68.453125 78.38396L68.453125 76.39958L64.5625 76.39958L64.5625 75.75896L68.375 69.85271L69.53125 69.85271L69.53125 75.52458ZM65.796875 75.52458L68.453125 75.52458L68.453125 71.33708L68.3125 71.57146L65.796875 75.52458ZM72.09375 77.82146Q72.09375 77.54021 72.25 77.35271Q72.421875 77.16521 72.75 77.16521Q73.09375 77.16521 73.265625 77.35271Q73.4375 77.54021 73.4375 77.82146Q73.4375 78.08708 73.265625 78.27458Q73.09375 78.44646 72.75 78.44646Q72.421875 78.44646 72.25 78.27458Q72.09375 78.08708 72.09375 77.82146ZM80.546875 78.38396L74.953125 78.38396L74.953125 77.60271L77.90625 74.32146Q78.5625 73.57146 78.8125 73.11833Q79.0625 72.64958 79.0625 72.14958Q79.0625 71.47771 78.65625 71.05583Q78.265625 70.61833 77.578125 70.61833Q76.78125 70.61833 76.328125 71.08708Q75.875 71.54021 75.875 72.36833L74.796875 72.36833Q74.796875 71.18083 75.546875 70.46208Q76.3125 69.72771 77.578125 69.72771Q78.78125 69.72771 79.46875 70.35271Q80.15625 70.97771 80.15625 72.02458Q80.15625 73.27458 78.546875 75.02458L76.265625 77.49333L80.546875 77.49333L80.546875 78.38396Z" fill-rule="nonzero"/><path fill="#757575" d="M16.75 110.78646Q15.3125 110.364586 14.640625 109.75521Q13.984375 109.145836 13.984375 108.25521Q13.984375 107.25521 14.78125 106.59896Q15.59375 105.927086 16.890625 105.927086Q17.765625 105.927086 18.453125 106.270836Q19.140625 106.614586 19.515625 107.208336Q19.90625 107.802086 19.90625 108.520836L18.765625 108.520836Q18.765625 107.739586 18.265625 107.302086Q17.78125 106.864586 16.890625 106.864586Q16.0625 106.864586 15.59375 107.239586Q15.125 107.59896 15.125 108.239586Q15.125 108.770836 15.5625 109.13021Q16.015625 109.489586 17.078125 109.78646Q18.140625 110.083336 18.734375 110.44271Q19.34375 110.802086 19.625 111.28646Q19.921875 111.770836 19.921875 112.41146Q19.921875 113.458336 19.109375 114.083336Q18.296875 114.708336 16.953125 114.708336Q16.0625 114.708336 15.296875 114.364586Q14.546875 114.020836 14.125 113.44271Q13.71875 112.84896 13.71875 112.114586L14.84375 112.114586Q14.84375 112.88021 15.421875 113.333336Q16.0 113.78646 16.953125 113.78646Q17.84375 113.78646 18.3125 113.427086Q18.78125 113.052086 18.78125 112.427086Q18.78125 111.802086 18.34375 111.458336Q17.90625 111.114586 16.75 110.78646ZM23.140625 112.989586L24.625 108.239586L25.78125 108.239586L23.234375 115.56771Q22.640625 117.145836 21.359375 117.145836L21.140625 117.13021L20.75 117.052086L20.75 116.177086L21.03125 116.19271Q21.59375 116.19271 21.890625 115.97396Q22.203125 115.75521 22.40625 115.16146L22.640625 114.50521L20.375 108.239586L21.5625 108.239586L23.140625 112.989586ZM28.09375 108.239586L28.125 108.94271Q28.8125 108.13021 30.0 108.13021Q31.328125 108.13021 31.8125 109.145836Q32.125 108.69271 32.625 108.41146Q33.140625 108.13021 33.828125 108.13021Q35.921875 108.13021 35.953125 110.333336L35.953125 114.583336L34.875 114.583336L34.875 110.395836Q34.875 109.72396 34.5625 109.395836Q34.25 109.052086 33.515625 109.052086Q32.90625 109.052086 32.5 109.41146Q32.109375 109.770836 32.046875 110.38021L32.046875 114.583336L30.96875 114.583336L30.96875 110.427086Q30.96875 109.052086 29.609375 109.052086Q28.546875 109.052086 28.15625 109.958336L28.15625 114.583336L27.0625 114.583336L27.0625 108.239586L28.09375 108.239586ZM38.609375 114.583336L38.609375 109.083336L37.609375 109.083336L37.609375 108.239586L38.609375 108.239586L38.609375 107.59896Q38.609375 106.56771 39.140625 106.020836Q39.6875 105.458336 40.6875 105.458336Q41.0625 105.458336 41.4375 105.552086L41.375 106.44271Q41.09375 106.38021 40.796875 106.38021Q40.265625 106.38021 39.96875 106.69271Q39.6875 107.00521 39.6875 107.56771L39.6875 108.239586L41.046875 108.239586L41.046875 109.083336L39.6875 109.083336L39.6875 114.583336L38.609375 114.583336ZM41.78125 111.34896Q41.78125 110.427086 42.140625 109.677086Q42.515625 108.927086 43.171875 108.53646Q43.828125 108.13021 44.65625 108.13021Q45.953125 108.13021 46.75 109.020836Q47.5625 109.91146 47.5625 111.41146L47.5625 111.489586Q47.5625 112.41146 47.203125 113.145836Q46.84375 113.88021 46.1875 114.302086Q45.53125 114.708336 44.671875 114.708336Q43.390625 114.708336 42.578125 113.81771Q41.78125 112.91146 41.78125 111.427086L41.78125 111.34896ZM42.875 111.489586Q42.875 112.53646 43.359375 113.177086Q43.859375 113.81771 44.671875 113.81771Q45.5 113.81771 45.984375 113.177086Q46.46875 112.520836 46.46875 111.34896Q46.46875 110.31771 45.96875 109.677086Q45.484375 109.020836 44.65625 109.020836Q43.859375 109.020836 43.359375 109.66146Q42.875 110.28646 42.875 111.489586ZM50.09375 108.239586L50.125 109.03646Q50.859375 108.13021 52.03125 108.13021Q54.046875 108.13021 54.0625 110.395836L54.0625 114.583336L52.96875 114.583336L52.96875 110.38021Q52.96875 109.708336 52.65625 109.38021Q52.359375 109.052086 51.703125 109.052086Q51.171875 109.052086 50.765625 109.333336Q50.375 109.614586 50.15625 110.06771L50.15625 114.583336L49.078125 114.583336L49.078125 108.239586L50.09375 108.239586ZM58.140625 112.989586L59.625 108.239586L60.78125 108.239586L58.234375 115.56771Q57.640625 117.145836 56.359375 117.145836L56.140625 117.13021L55.75 117.052086L55.75 116.177086L56.03125 116.19271Q56.59375 116.19271 56.890625 115.97396Q57.203125 115.75521 57.40625 115.16146L57.640625 114.50521L55.375 108.239586L56.5625 108.239586L58.140625 112.989586ZM66.53125 109.78646L67.34375 109.78646Q68.125 109.770836 68.5625 109.38021Q69.0 108.989586 69.0 108.31771Q69.0 106.81771 67.5 106.81771Q66.796875 106.81771 66.375 107.22396Q65.96875 107.63021 65.96875 108.28646L64.875 108.28646Q64.875 107.270836 65.609375 106.59896Q66.359375 105.927086 67.5 105.927086Q68.703125 105.927086 69.390625 106.56771Q70.078125 107.208336 70.078125 108.34896Q70.078125 108.91146 69.71875 109.427086Q69.359375 109.94271 68.734375 110.208336Q69.4375 110.427086 69.8125 110.94271Q70.203125 111.458336 70.203125 112.208336Q70.203125 113.34896 69.453125 114.03646Q68.703125 114.708336 67.5 114.708336Q66.3125 114.708336 65.546875 114.052086Q64.796875 113.395836 64.796875 112.333336L65.890625 112.333336Q65.890625 113.00521 66.328125 113.41146Q66.765625 113.81771 67.515625 113.81771Q68.296875 113.81771 68.703125 113.41146Q69.125 112.989586 69.125 112.22396Q69.125 111.489586 68.671875 111.09896Q68.21875 110.69271 67.34375 110.677086L66.53125 110.677086L66.53125 109.78646ZM72.09375 114.020836Q72.09375 113.739586 72.25 113.552086Q72.421875 113.364586 72.75 113.364586Q73.09375 113.364586 73.265625 113.552086Q73.4375 113.739586 73.4375 114.020836Q73.4375 114.28646 73.265625 114.47396Q73.09375 114.645836 72.75 114.645836Q72.421875 114.645836 72.25 114.47396Q72.09375 114.28646 72.09375 114.020836ZM79.53125 111.72396L80.71875 111.72396L80.71875 112.59896L79.53125 112.59896L79.53125 114.583336L78.453125 114.583336L78.453125 112.59896L74.5625 112.59896L74.5625 111.958336L78.375 106.052086L79.53125 106.052086L79.53125 111.72396ZM75.796875 111.72396L78.453125 111.72396L78.453125 107.53646L78.3125 107.770836L75.796875 111.72396Z" fill-rule="nonzero"/><path fill="#757575" d="M36.078125 149.86084L40.96875 149.86084L40.96875 150.78271L34.75 150.78271L34.75 149.93896L39.4375 143.17334L34.828125 143.17334L34.828125 142.25146L40.78125 142.25146L40.78125 143.07959L36.078125 149.86084ZM44.703125 150.90771Q43.40625 150.90771 42.59375 150.06396Q41.796875 149.20459 41.796875 147.78271L41.796875 147.59521Q41.796875 146.64209 42.15625 145.90771Q42.515625 145.15771 43.15625 144.75146Q43.8125 144.32959 44.5625 144.32959Q45.796875 144.32959 46.484375 145.14209Q47.171875 145.95459 47.171875 147.47021L47.171875 147.92334L42.875 147.92334Q42.90625 148.86084 43.421875 149.43896Q43.953125 150.01709 44.765625 150.01709Q45.328125 150.01709 45.71875 149.78271Q46.125 149.54834 46.4375 149.15771L47.09375 149.67334Q46.296875 150.90771 44.703125 150.90771ZM44.5625 145.22021Q43.90625 145.22021 43.453125 145.70459Q43.015625 146.17334 42.921875 147.03271L46.09375 147.03271L46.09375 146.95459Q46.046875 146.12646 45.640625 145.67334Q45.25 145.22021 44.5625 145.22021ZM49.09375 144.43896L49.125 145.23584Q49.859375 144.32959 51.03125 144.32959Q53.046875 144.32959 53.0625 146.59521L53.0625 150.78271L51.96875 150.78271L51.96875 146.57959Q51.96875 145.90771 51.65625 145.57959Q51.359375 145.25146 50.703125 145.25146Q50.171875 145.25146 49.765625 145.53271Q49.375 145.81396 49.15625 146.26709L49.15625 150.78271L48.078125 150.78271L48.078125 144.43896L49.09375 144.43896ZM54.8125 147.56396Q54.8125 146.09521 55.5 145.22021Q56.1875 144.32959 57.3125 144.32959Q58.421875 144.32959 59.078125 145.07959L59.078125 141.78271L60.15625 141.78271L60.15625 150.78271L59.15625 150.78271L59.109375 150.09521Q58.453125 150.90771 57.296875 150.90771Q56.203125 150.90771 55.5 150.00146Q54.8125 149.09521 54.8125 147.64209L54.8125 147.56396ZM55.890625 147.68896Q55.890625 148.76709 56.328125 149.37646Q56.78125 149.98584 57.5625 149.98584Q58.59375 149.98584 59.078125 149.04834L59.078125 146.14209Q58.59375 145.25146 57.578125 145.25146Q56.78125 145.25146 56.328125 145.86084Q55.890625 146.47021 55.890625 147.68896ZM66.53125 145.98584L67.34375 145.98584Q68.125 145.97021 68.5625 145.57959Q69.0 145.18896 69.0 144.51709Q69.0 143.01709 67.5 143.01709Q66.796875 143.01709 66.375 143.42334Q65.96875 143.82959 65.96875 144.48584L64.875 144.48584Q64.875 143.47021 65.609375 142.79834Q66.359375 142.12646 67.5 142.12646Q68.703125 142.12646 69.390625 142.76709Q70.078125 143.40771 70.078125 144.54834Q70.078125 145.11084 69.71875 145.62646Q69.359375 146.14209 68.734375 146.40771Q69.4375 146.62646 69.8125 147.14209Q70.203125 147.65771 70.203125 148.40771Q70.203125 149.54834 69.453125 150.23584Q68.703125 150.90771 67.5 150.90771Q66.3125 150.90771 65.546875 150.25146Q64.796875 149.59521 64.796875 148.53271L65.890625 148.53271Q65.890625 149.20459 66.328125 149.61084Q66.765625 150.01709 67.515625 150.01709Q68.296875 150.01709 68.703125 149.61084Q69.125 149.18896 69.125 148.42334Q69.125 147.68896 68.671875 147.29834Q68.21875 146.89209 67.34375 146.87646L66.53125 146.87646L66.53125 145.98584ZM72.09375 150.22021Q72.09375 149.93896 72.25 149.75146Q72.421875 149.56396 72.75 149.56396Q73.09375 149.56396 73.265625 149.75146Q73.4375 149.93896 73.4375 150.22021Q73.4375 150.48584 73.265625 150.67334Q73.09375 150.84521 72.75 150.84521Q72.421875 150.84521 72.25 150.67334Q72.09375 150.48584 72.09375 150.22021ZM80.3125 147.14209Q80.3125 149.04834 79.65625 149.98584Q79.015625 150.90771 77.625 150.90771Q76.265625 150.90771 75.609375 150.00146Q74.953125 149.09521 74.921875 147.28271L74.921875 145.84521Q74.921875 143.95459 75.5625 143.04834Q76.21875 142.12646 77.609375 142.12646Q78.984375 142.12646 79.640625 143.01709Q80.296875 143.89209 80.3125 145.73584L80.3125 147.14209ZM79.21875 145.65771Q79.21875 144.28271 78.828125 143.65771Q78.453125 143.01709 77.609375 143.01709Q76.78125 143.01709 76.390625 143.65771Q76.015625 144.28271 76.015625 145.57959L76.015625 147.31396Q76.015625 148.68896 76.40625 149.36084Q76.8125 150.01709 77.625 150.01709Q78.421875 150.01709 78.8125 149.39209Q79.203125 148.76709 79.21875 147.43896L79.21875 145.65771Z" fill-rule="nonzero"/><path fill="#757575" d="M24.375 186.06021L28.421875 186.06021L28.421875 186.98209L23.234375 186.98209L23.234375 178.45084L24.375 178.45084L24.375 186.06021ZM32.984375 186.98209Q32.890625 186.79459 32.828125 186.31021Q32.078125 187.10709 31.03125 187.10709Q30.09375 187.10709 29.484375 186.57584Q28.890625 186.04459 28.890625 185.21646Q28.890625 184.23209 29.640625 183.68521Q30.390625 183.13834 31.765625 183.13834L32.8125 183.13834L32.8125 182.63834Q32.8125 182.07584 32.46875 181.74771Q32.140625 181.40396 31.46875 181.40396Q30.890625 181.40396 30.5 181.70084Q30.109375 181.98209 30.109375 182.40396L29.015625 182.40396Q29.015625 181.91959 29.34375 181.48209Q29.6875 181.04459 30.265625 180.79459Q30.84375 180.52896 31.53125 180.52896Q32.640625 180.52896 33.25 181.07584Q33.875 181.62271 33.90625 182.57584L33.90625 185.49771Q33.90625 186.37271 34.125 186.88834L34.125 186.98209L32.984375 186.98209ZM31.1875 186.15396Q31.703125 186.15396 32.15625 185.88834Q32.609375 185.62271 32.8125 185.20084L32.8125 183.90396L31.96875 183.90396Q29.96875 183.90396 29.96875 185.07584Q29.96875 185.57584 30.3125 185.87271Q30.65625 186.15396 31.1875 186.15396ZM39.140625 181.60709Q38.890625 181.57584 38.609375 181.57584Q37.53125 181.57584 37.15625 182.48209L37.15625 186.98209L36.078125 186.98209L36.078125 180.63834L37.125 180.63834L37.140625 181.37271Q37.671875 180.52896 38.65625 180.52896Q38.96875 180.52896 39.140625 180.60709L39.140625 181.60709ZM43.984375 186.98209Q43.890625 186.79459 43.828125 186.31021Q43.078125 187.10709 42.03125 187.10709Q41.09375 187.10709 40.484375 186.57584Q39.890625 186.04459 39.890625 185.21646Q39.890625 184.23209 40.640625 183.68521Q41.390625 183.13834 42.765625 183.13834L43.8125 183.13834L43.8125 182.63834Q43.8125 182.07584 43.46875 181.74771Q43.140625 181.40396 42.46875 181.40396Q41.890625 181.40396 41.5 181.70084Q41.109375 181.98209 41.109375 182.40396L40.015625 182.40396Q40.015625 181.91959 40.34375 181.48209Q40.6875 181.04459 41.265625 180.79459Q41.84375 180.52896 42.53125 180.52896Q43.640625 180.52896 44.25 181.07584Q44.875 181.62271 44.90625 182.57584L44.90625 185.49771Q44.90625 186.37271 45.125 186.88834L45.125 186.98209L43.984375 186.98209ZM42.1875 186.15396Q42.703125 186.15396 43.15625 185.88834Q43.609375 185.62271 43.8125 185.20084L43.8125 183.90396L42.96875 183.90396Q40.96875 183.90396 40.96875 185.07584Q40.96875 185.57584 41.3125 185.87271Q41.65625 186.15396 42.1875 186.15396ZM49.15625 185.51334L50.734375 180.63834L51.84375 180.63834L49.5625 186.98209L48.734375 186.98209L46.4375 180.63834L47.546875 180.63834L49.15625 185.51334ZM55.703125 187.10709Q54.40625 187.10709 53.59375 186.26334Q52.796875 185.40396 52.796875 183.98209L52.796875 183.79459Q52.796875 182.84146 53.15625 182.10709Q53.515625 181.35709 54.15625 180.95084Q54.8125 180.52896 55.5625 180.52896Q56.796875 180.52896 57.484375 181.34146Q58.171875 182.15396 58.171875 183.66959L58.171875 184.12271L53.875 184.12271Q53.90625 185.06021 54.421875 185.63834Q54.953125 186.21646 55.765625 186.21646Q56.328125 186.21646 56.71875 185.98209Q57.125 185.74771 57.4375 185.35709L58.09375 185.87271Q57.296875 187.10709 55.703125 187.10709ZM55.5625 181.41959Q54.90625 181.41959 54.453125 181.90396Q54.015625 182.37271 53.921875 183.23209L57.09375 183.23209L57.09375 183.15396Q57.046875 182.32584 56.640625 181.87271Q56.25 181.41959 55.5625 181.41959ZM60.25 186.98209L59.171875 186.98209L59.171875 177.98209L60.25 177.98209L60.25 186.98209ZM65.453125 182.70084L65.890625 178.45084L70.265625 178.45084L70.265625 179.45084L66.8125 179.45084L66.546875 181.77896Q67.1875 181.40396 67.984375 181.40396Q69.140625 181.40396 69.828125 182.18521Q70.515625 182.95084 70.515625 184.26334Q70.515625 185.57584 69.796875 186.34146Q69.09375 187.10709 67.8125 187.10709Q66.6875 187.10709 65.96875 186.48209Q65.25 185.84146 65.15625 184.73209L66.171875 184.73209Q66.28125 185.46646 66.703125 185.84146Q67.125 186.21646 67.8125 186.21646Q68.5625 186.21646 69.0 185.70084Q69.4375 185.18521 69.4375 184.27896Q69.4375 183.41959 68.96875 182.90396Q68.5 182.38834 67.71875 182.38834Q67.015625 182.38834 66.609375 182.68521L66.328125 182.91959L65.453125 182.70084ZM72.09375 186.41959Q72.09375 186.13834 72.25 185.95084Q72.421875 185.76334 72.75 185.76334Q73.09375 185.76334 73.265625 185.95084Q73.4375 186.13834 73.4375 186.41959Q73.4375 186.68521 73.265625 186.87271Q73.09375 187.04459 72.75 187.04459Q72.421875 187.04459 72.25 186.87271Q72.09375 186.68521 72.09375 186.41959ZM80.46875 179.06021L76.9375 186.98209L75.796875 186.98209L79.3125 179.34146L74.703125 179.34146L74.703125 178.45084L80.46875 178.45084L80.46875 179.06021Z" fill-rule="nonzero"/><path fill="#757575" d="M89.8125 221.27605Q89.8125 223.1823 89.15625 224.1198Q88.515625 225.04167 87.125 225.04167Q85.765625 225.04167 85.109375 224.13542Q84.453125 223.22917 84.421875 221.41667L84.421875 219.97917Q84.421875 218.08855 85.0625 217.1823Q85.71875 216.26042 87.109375 216.26042Q88.484375 216.26042 89.140625 217.15105Q89.796875 218.02605 89.8125 219.8698L89.8125 221.27605ZM88.71875 219.79167Q88.71875 218.41667 88.328125 217.79167Q87.953125 217.15105 87.109375 217.15105Q86.28125 217.15105 85.890625 217.79167Q85.515625 218.41667 85.515625 219.71355L85.515625 221.44792Q85.515625 222.82292 85.90625 223.4948Q86.3125 224.15105 87.125 224.15105Q87.921875 224.15105 88.3125 223.52605Q88.703125 222.90105 88.71875 221.57292L88.71875 219.79167Z" fill-rule="nonzero"/><path fill="#757575" d="M190.81224 224.91667L189.73412 224.91667L189.73412 217.69792L187.54662 218.4948L187.54662 217.51042L190.65599 216.33855L190.81224 216.33855L190.81224 224.91667Z" fill-rule="nonzero"/><path fill="#757575" d="M295.6401 224.91667L290.04636 224.91667L290.04636 224.13542L292.99948 220.85417Q293.65573 220.10417 293.90573 219.65105Q294.15573 219.1823 294.15573 218.6823Q294.15573 218.01042 293.74948 217.58855Q293.35886 217.15105 292.67136 217.15105Q291.87448 217.15105 291.42136 217.6198Q290.96823 218.07292 290.96823 218.90105L289.8901 218.90105Q289.8901 217.71355 290.6401 216.9948Q291.40573 216.26042 292.67136 216.26042Q293.87448 216.26042 294.56198 216.88542Q295.24948 217.51042 295.24948 218.5573Q295.24948 219.8073 293.6401 221.5573L291.35886 224.02605L295.6401 224.02605L295.6401 224.91667Z" fill-rule="nonzero"/><path fill="#757575" d="M394.42108 220.1198L395.23358 220.1198Q396.01483 220.10417 396.45233 219.71355Q396.88983 219.32292 396.88983 218.65105Q396.88983 217.15105 395.38983 217.15105Q394.6867 217.15105 394.26483 217.5573Q393.85858 217.96355 393.85858 218.6198L392.76483 218.6198Q392.76483 217.60417 393.4992 216.9323Q394.2492 216.26042 395.38983 216.26042Q396.59296 216.26042 397.28046 216.90105Q397.96796 217.54167 397.96796 218.6823Q397.96796 219.2448 397.60858 219.76042Q397.2492 220.27605 396.6242 220.54167Q397.32733 220.76042 397.70233 221.27605Q398.09296 221.79167 398.09296 222.54167Q398.09296 223.6823 397.34296 224.3698Q396.59296 225.04167 395.38983 225.04167Q394.20233 225.04167 393.4367 224.38542Q392.6867 223.72917 392.6867 222.66667L393.78046 222.66667Q393.78046 223.33855 394.21796 223.7448Q394.65546 224.15105 395.40546 224.15105Q396.1867 224.15105 396.59296 223.7448Q397.01483 223.32292 397.01483 222.5573Q397.01483 221.82292 396.5617 221.4323Q396.10858 221.02605 395.23358 221.01042L394.42108 221.01042L394.42108 220.1198Z" fill-rule="nonzero"/><path fill="#757575" d="M500.21768 222.0573L501.40518 222.0573L501.40518 222.9323L500.21768 222.9323L500.21768 224.91667L499.13956 224.91667L499.13956 222.9323L495.24893 222.9323L495.24893 222.29167L499.06143 216.38542L500.21768 216.38542L500.21768 222.0573ZM496.4833 222.0573L499.13956 222.0573L499.13956 217.8698L498.99893 218.10417L496.4833 222.0573Z" fill-rule="nonzero"/><path fill="#757575" d="M598.93616 220.63542L599.37366 216.38542L603.74866 216.38542L603.74866 217.38542L600.29553 217.38542L600.0299 219.71355Q600.67053 219.33855 601.4674 219.33855Q602.62366 219.33855 603.31116 220.1198Q603.99866 220.88542 603.99866 222.19792Q603.99866 223.51042 603.2799 224.27605Q602.5768 225.04167 601.29553 225.04167Q600.17053 225.04167 599.4518 224.41667Q598.73303 223.77605 598.6393 222.66667L599.6549 222.66667Q599.7643 223.40105 600.18616 223.77605Q600.60803 224.15105 601.29553 224.15105Q602.04553 224.15105 602.48303 223.63542Q602.92053 223.1198 602.92053 222.21355Q602.92053 221.35417 602.4518 220.83855Q601.98303 220.32292 601.2018 220.32292Q600.49866 220.32292 600.0924 220.6198L599.81116 220.85417L598.93616 220.63542Z" fill-rule="nonzero"/><path fill="#000000" fill-opacity="0.0" d="M241.0 239.25C241.0 238.69771 241.44771 238.25 242.0 238.25L252.0 238.25C252.55229 238.25 253.0 238.69771 253.0 239.25L253.0 249.25C253.0 249.80229 252.55229 250.25 252.0 250.25L242.0 250.25C241.44771 250.25 241.0 249.80229 241.0 249.25Z" fill-rule="nonzero"/><path fill="#757575" d="M265.125 245.29688L263.10938 245.29688L263.10938 248.75L261.98438 248.75L261.98438 240.21875L264.8125 240.21875Q266.25 240.21875 267.01562 240.875Q267.79688 241.53125 267.79688 242.78125Q267.79688 243.57812 267.35938 244.17188Q266.9375 244.76562 266.17188 245.0625L268.17188 248.67188L268.17188 248.75L266.96875 248.75L265.125 245.29688ZM263.10938 244.375L264.84375 244.375Q265.6875 244.375 266.17188 243.95312Q266.67188 243.51562 266.67188 242.78125Q266.67188 242.0 266.20312 241.57812Q265.73438 241.15625 264.84375 241.14062L263.10938 241.14062L263.10938 244.375ZM271.45312 248.875Q270.15625 248.875 269.34375 248.03125Q268.54688 247.17188 268.54688 245.75L268.54688 245.5625Q268.54688 244.60938 268.90625 243.875Q269.26562 243.125 269.90625 242.71875Q270.5625 242.29688 271.3125 242.29688Q272.54688 242.29688 273.23438 243.10938Q273.92188 243.92188 273.92188 245.4375L273.92188 245.89062L269.625 245.89062Q269.65625 246.82812 270.17188 247.40625Q270.70312 247.98438 271.51562 247.98438Q272.07812 247.98438 272.46875 247.75Q272.875 247.51562 273.1875 247.125L273.84375 247.64062Q273.04688 248.875 271.45312 248.875ZM271.3125 243.1875Q270.65625 243.1875 270.20312 243.67188Q269.76562 244.14062 269.67188 245.0L272.84375 245.0L272.84375 244.92188Q272.79688 244.09375 272.39062 243.64062Q272.0 243.1875 271.3125 243.1875ZM278.51562 247.0625Q278.51562 246.625 278.17188 246.39062Q277.84375 246.14062 277.01562 245.96875Q276.20312 245.79688 275.71875 245.54688Q275.23438 245.29688 275.0 244.96875Q274.78125 244.625 274.78125 244.15625Q274.78125 243.375 275.4375 242.84375Q276.09375 242.29688 277.125 242.29688Q278.20312 242.29688 278.85938 242.85938Q279.53125 243.40625 279.53125 244.26562L278.45312 244.26562Q278.45312 243.82812 278.0625 243.51562Q277.6875 243.1875 277.125 243.1875Q276.53125 243.1875 276.1875 243.45312Q275.85938 243.70312 275.85938 244.10938Q275.85938 244.5 276.17188 244.70312Q276.48438 244.90625 277.29688 245.09375Q278.10938 245.26562 278.60938 245.51562Q279.10938 245.76562 279.34375 246.125Q279.59375 246.48438 279.59375 246.98438Q279.59375 247.84375 278.90625 248.35938Q278.23438 248.875 277.15625 248.875Q276.39062 248.875 275.79688 248.60938Q275.21875 248.32812 274.89062 247.84375Q274.5625 247.35938 274.5625 246.79688L275.64062 246.79688Q275.67188 247.34375 276.07812 247.67188Q276.48438 247.98438 277.15625 247.98438Q277.76562 247.98438 278.14062 247.73438Q278.51562 247.48438 278.51562 247.0625ZM286.17188 245.65625Q286.17188 247.09375 285.51562 247.98438Q284.85938 248.875 283.71875 248.875Q282.5625 248.875 281.90625 248.14062L281.90625 251.1875L280.82812 251.1875L280.82812 242.40625L281.8125 242.40625L281.85938 243.10938Q282.53125 242.29688 283.70312 242.29688Q284.84375 242.29688 285.5 243.15625Q286.17188 244.01562 286.17188 245.54688L286.17188 245.65625ZM285.09375 245.53125Q285.09375 244.45312 284.625 243.84375Q284.17188 243.21875 283.375 243.21875Q282.39062 243.21875 281.90625 244.07812L281.90625 247.10938Q282.39062 247.98438 283.39062 247.98438Q284.17188 247.98438 284.625 247.375Q285.09375 246.75 285.09375 245.53125ZM287.53125 245.51562Q287.53125 244.59375 287.89062 243.84375Q288.26562 243.09375 288.92188 242.70312Q289.57812 242.29688 290.40625 242.29688Q291.70312 242.29688 292.5 243.1875Q293.3125 244.07812 293.3125 245.57812L293.3125 245.65625Q293.3125 246.57812 292.95312 247.3125Q292.59375 248.04688 291.9375 248.46875Q291.28125 248.875 290.42188 248.875Q289.14062 248.875 288.32812 247.98438Q287.53125 247.07812 287.53125 245.59375L287.53125 245.51562ZM288.625 245.65625Q288.625 246.70312 289.10938 247.34375Q289.60938 247.98438 290.42188 247.98438Q291.25 247.98438 291.73438 247.34375Q292.21875 246.6875 292.21875 245.51562Q292.21875 244.48438 291.71875 243.84375Q291.23438 243.1875 290.40625 243.1875Q289.60938 243.1875 289.10938 243.82812Q288.625 244.45312 288.625 245.65625ZM295.84375 242.40625L295.875 243.20312Q296.60938 242.29688 297.78125 242.29688Q299.79688 242.29688 299.8125 244.5625L299.8125 248.75L298.71875 248.75L298.71875 244.54688Q298.71875 243.875 298.40625 243.54688Q298.10938 243.21875 297.45312 243.21875Q296.92188 243.21875 296.51562 243.5Q296.125 243.78125 295.90625 244.23438L295.90625 248.75L294.82812 248.75L294.82812 242.40625L295.84375 242.40625ZM305.51562 247.0625Q305.51562 246.625 305.17188 246.39062Q304.84375 246.14062 304.01562 245.96875Q303.20312 245.79688 302.71875 245.54688Q302.23438 245.29688 302.0 244.96875Q301.78125 244.625 301.78125 244.15625Q301.78125 243.375 302.4375 242.84375Q303.09375 242.29688 304.125 242.29688Q305.20312 242.29688 305.85938 242.85938Q306.53125 243.40625 306.53125 244.26562L305.45312 244.26562Q305.45312 243.82812 305.0625 243.51562Q304.6875 243.1875 304.125 243.1875Q303.53125 243.1875 303.1875 243.45312Q302.85938 243.70312 302.85938 244.10938Q302.85938 244.5 303.17188 244.70312Q303.48438 244.90625 304.29688 245.09375Q305.10938 245.26562 305.60938 245.51562Q306.10938 245.76562 306.34375 246.125Q306.59375 246.48438 306.59375 246.98438Q306.59375 247.84375 305.90625 248.35938Q305.23438 248.875 304.15625 248.875Q303.39062 248.875 302.79688 248.60938Q302.21875 248.32812 301.89062 247.84375Q301.5625 247.35938 301.5625 246.79688L302.64062 246.79688Q302.67188 247.34375 303.07812 247.67188Q303.48438 247.98438 304.15625 247.98438Q304.76562 247.98438 305.14062 247.73438Q305.51562 247.48438 305.51562 247.0625ZM310.45312 248.875Q309.15625 248.875 308.34375 248.03125Q307.54688 247.17188 307.54688 245.75L307.54688 245.5625Q307.54688 244.60938 307.90625 243.875Q308.26562 243.125 308.90625 242.71875Q309.5625 242.29688 310.3125 242.29688Q311.54688 242.29688 312.23438 243.10938Q312.92188 243.92188 312.92188 245.4375L312.92188 245.89062L308.625 245.89062Q308.65625 246.82812 309.17188 247.40625Q309.70312 247.98438 310.51562 247.98438Q311.07812 247.98438 311.46875 247.75Q311.875 247.51562 312.1875 247.125L312.84375 247.64062Q312.04688 248.875 310.45312 248.875ZM310.3125 243.1875Q309.65625 243.1875 309.20312 243.67188Q308.76562 244.14062 308.67188 245.0L311.84375 245.0L311.84375 244.92188Q311.79688 244.09375 311.39062 243.64062Q311.0 243.1875 310.3125 243.1875ZM322.89062 241.14062L320.14062 241.14062L320.14062 248.75L319.03125 248.75L319.03125 241.14062L316.28125 241.14062L316.28125 240.21875L322.89062 240.21875L322.89062 241.14062ZM325.0 248.75L323.92188 248.75L323.92188 242.40625L325.0 242.40625L325.0 248.75ZM323.82812 240.73438Q323.82812 240.46875 323.98438 240.28125Q324.15625 240.09375 324.46875 240.09375Q324.78125 240.09375 324.9375 240.28125Q325.10938 240.46875 325.10938 240.73438Q325.10938 240.98438 324.9375 241.17188Q324.78125 241.34375 324.46875 241.34375Q324.15625 241.34375 323.98438 241.17188Q323.82812 240.98438 323.82812 240.73438ZM327.84375 242.40625L327.875 243.10938Q328.5625 242.29688 329.75 242.29688Q331.07812 242.29688 331.5625 243.3125Q331.875 242.85938 332.375 242.57812Q332.89062 242.29688 333.57812 242.29688Q335.67188 242.29688 335.70312 244.5L335.70312 248.75L334.625 248.75L334.625 244.5625Q334.625 243.89062 334.3125 243.5625Q334.0 243.21875 333.26562 243.21875Q332.65625 243.21875 332.25 243.57812Q331.85938 243.9375 331.79688 244.54688L331.79688 248.75L330.71875 248.75L330.71875 244.59375Q330.71875 243.21875 329.35938 243.21875Q328.29688 243.21875 327.90625 244.125L327.90625 248.75L326.8125 248.75L326.8125 242.40625L327.84375 242.40625ZM340.45312 248.875Q339.15625 248.875 338.34375 248.03125Q337.54688 247.17188 337.54688 245.75L337.54688 245.5625Q337.54688 244.60938 337.90625 243.875Q338.26562 243.125 338.90625 242.71875Q339.5625 242.29688 340.3125 242.29688Q341.54688 242.29688 342.23438 243.10938Q342.92188 243.92188 342.92188 245.4375L342.92188 245.89062L338.625 245.89062Q338.65625 246.82812 339.17188 247.40625Q339.70312 247.98438 340.51562 247.98438Q341.07812 247.98438 341.46875 247.75Q341.875 247.51562 342.1875 247.125L342.84375 247.64062Q342.04688 248.875 340.45312 248.875ZM340.3125 243.1875Q339.65625 243.1875 339.20312 243.67188Q338.76562 244.14062 338.67188 245.0L341.84375 245.0L341.84375 244.92188Q341.79688 244.09375 341.39062 243.64062Q341.0 243.1875 340.3125 243.1875ZM347.35938 248.75L347.35938 243.25L346.35938 243.25L346.35938 242.40625L347.35938 242.40625L347.35938 241.76562Q347.35938 240.73438 347.89062 240.1875Q348.4375 239.625 349.4375 239.625Q349.8125 239.625 350.1875 239.71875L350.125 240.60938Q349.84375 240.54688 349.54688 240.54688Q349.01562 240.54688 348.71875 240.85938Q348.4375 241.17188 348.4375 241.73438L348.4375 242.40625L349.79688 242.40625L349.79688 243.25L348.4375 243.25L348.4375 248.75L347.35938 248.75ZM350.53125 245.51562Q350.53125 244.59375 350.89062 243.84375Q351.26562 243.09375 351.92188 242.70312Q352.57812 242.29688 353.40625 242.29688Q354.70312 242.29688 355.5 243.1875Q356.3125 244.07812 356.3125 245.57812L356.3125 245.65625Q356.3125 246.57812 355.95312 247.3125Q355.59375 248.04688 354.9375 248.46875Q354.28125 248.875 353.42188 248.875Q352.14062 248.875 351.32812 247.98438Q350.53125 247.07812 350.53125 245.59375L350.53125 245.51562ZM351.625 245.65625Q351.625 246.70312 352.10938 247.34375Q352.60938 247.98438 353.42188 247.98438Q354.25 247.98438 354.73438 247.34375Q355.21875 246.6875 355.21875 245.51562Q355.21875 244.48438 354.71875 243.84375Q354.23438 243.1875 353.40625 243.1875Q352.60938 243.1875 352.10938 243.82812Q351.625 244.45312 351.625 245.65625ZM360.89062 243.375Q360.64062 243.34375 360.35938 243.34375Q359.28125 243.34375 358.90625 244.25L358.90625 248.75L357.82812 248.75L357.82812 242.40625L358.875 242.40625L358.89062 243.14062Q359.42188 242.29688 360.40625 242.29688Q360.71875 242.29688 360.89062 242.375L360.89062 243.375ZM368.125 245.29688L366.10938 245.29688L366.10938 248.75L364.98438 248.75L364.98438 240.21875L367.8125 240.21875Q369.25 240.21875 370.01562 240.875Q370.79688 241.53125 370.79688 242.78125Q370.79688 243.57812 370.35938 244.17188Q369.9375 244.76562 369.17188 245.0625L371.17188 248.67188L371.17188 248.75L369.96875 248.75L368.125 245.29688ZM366.10938 244.375L367.84375 244.375Q368.6875 244.375 369.17188 243.95312Q369.67188 243.51562 369.67188 242.78125Q369.67188 242.0 369.20312 241.57812Q368.73438 241.15625 367.84375 241.14062L366.10938 241.14062L366.10938 244.375ZM376.8125 244.8125L373.10938 244.8125L373.10938 247.82812L377.40625 247.82812L377.40625 248.75L371.98438 248.75L371.98438 240.21875L377.35938 240.21875L377.35938 241.14062L373.10938 241.14062L373.10938 243.89062L376.8125 243.89062L376.8125 244.8125ZM381.5 244.95312Q380.0625 244.53125 379.39062 243.92188Q378.73438 243.3125 378.73438 242.42188Q378.73438 241.42188 379.53125 240.76562Q380.34375 240.09375 381.64062 240.09375Q382.51562 240.09375 383.20312 240.4375Q383.89062 240.78125 384.26562 241.375Q384.65625 241.96875 384.65625 242.6875L383.51562 242.6875Q383.51562 241.90625 383.01562 241.46875Q382.53125 241.03125 381.64062 241.03125Q380.8125 241.03125 380.34375 241.40625Q379.875 241.76562 379.875 242.40625Q379.875 242.9375 380.3125 243.29688Q380.76562 243.65625 381.82812 243.95312Q382.89062 244.25 383.48438 244.60938Q384.09375 244.96875 384.375 245.45312Q384.67188 245.9375 384.67188 246.57812Q384.67188 247.625 383.85938 248.25Q383.04688 248.875 381.70312 248.875Q380.8125 248.875 380.04688 248.53125Q379.29688 248.1875 378.875 247.60938Q378.46875 247.01562 378.46875 246.28125L379.59375 246.28125Q379.59375 247.04688 380.17188 247.5Q380.75 247.95312 381.70312 247.95312Q382.59375 247.95312 383.0625 247.59375Q383.53125 247.21875 383.53125 246.59375Q383.53125 245.96875 383.09375 245.625Q382.65625 245.28125 381.5 244.95312ZM391.89062 241.14062L389.14062 241.14062L389.14062 248.75L388.03125 248.75L388.03125 241.14062L385.28125 241.14062L385.28125 240.21875L391.89062 240.21875L391.89062 241.14062ZM399.125 245.29688L397.10938 245.29688L397.10938 248.75L395.98438 248.75L395.98438 240.21875L398.8125 240.21875Q400.25 240.21875 401.01562 240.875Q401.79688 241.53125 401.79688 242.78125Q401.79688 243.57812 401.35938 244.17188Q400.9375 244.76562 400.17188 245.0625L402.17188 248.67188L402.17188 248.75L400.96875 248.75L399.125 245.29688ZM397.10938 244.375L398.84375 244.375Q399.6875 244.375 400.17188 243.95312Q400.67188 243.51562 400.67188 242.78125Q400.67188 242.0 400.20312 241.57812Q399.73438 241.15625 398.84375 241.14062L397.10938 241.14062L397.10938 244.375ZM405.45312 248.875Q404.15625 248.875 403.34375 248.03125Q402.54688 247.17188 402.54688 245.75L402.54688 245.5625Q402.54688 244.60938 402.90625 243.875Q403.26562 243.125 403.90625 242.71875Q404.5625 242.29688 405.3125 242.29688Q406.54688 242.29688 407.23438 243.10938Q407.92188 243.92188 407.92188 245.4375L407.92188 245.89062L403.625 245.89062Q403.65625 246.82812 404.17188 247.40625Q404.70312 247.98438 405.51562 247.98438Q406.07812 247.98438 406.46875 247.75Q406.875 247.51562 407.1875 247.125L407.84375 247.64062Q407.04688 248.875 405.45312 248.875ZM405.3125 243.1875Q404.65625 243.1875 404.20312 243.67188Q403.76562 244.14062 403.67188 245.0L406.84375 245.0L406.84375 244.92188Q406.79688 244.09375 406.39062 243.64062Q406.0 243.1875 405.3125 243.1875ZM408.5625 245.53125Q408.5625 244.03125 409.23438 243.17188Q409.92188 242.29688 411.07812 242.29688Q412.20312 242.29688 412.85938 243.04688L412.90625 242.40625L413.90625 242.40625L413.90625 251.1875L412.8125 251.1875L412.8125 248.15625Q412.15625 248.875 411.07812 248.875Q409.92188 248.875 409.23438 247.98438Q408.5625 247.07812 408.5625 245.60938L408.5625 245.53125ZM409.64062 245.65625Q409.64062 246.73438 410.09375 247.35938Q410.5625 247.98438 411.34375 247.98438Q412.3125 247.98438 412.8125 247.125L412.8125 244.01562Q412.29688 243.1875 411.35938 243.1875Q410.5625 243.1875 410.09375 243.8125Q409.64062 244.4375 409.64062 245.65625ZM419.73438 248.125Q419.10938 248.875 417.875 248.875Q416.85938 248.875 416.32812 248.28125Q415.79688 247.6875 415.79688 246.53125L415.79688 242.40625L416.875 242.40625L416.875 246.5Q416.875 247.95312 418.04688 247.95312Q419.29688 247.95312 419.70312 247.01562L419.70312 242.40625L420.79688 242.40625L420.79688 248.75L419.76562 248.75L419.73438 248.125ZM425.45312 248.875Q424.15625 248.875 423.34375 248.03125Q422.54688 247.17188 422.54688 245.75L422.54688 245.5625Q422.54688 244.60938 422.90625 243.875Q423.26562 243.125 423.90625 242.71875Q424.5625 242.29688 425.3125 242.29688Q426.54688 242.29688 427.23438 243.10938Q427.92188 243.92188 427.92188 245.4375L427.92188 245.89062L423.625 245.89062Q423.65625 246.82812 424.17188 247.40625Q424.70312 247.98438 425.51562 247.98438Q426.07812 247.98438 426.46875 247.75Q426.875 247.51562 427.1875 247.125L427.84375 247.64062Q427.04688 248.875 425.45312 248.875ZM425.3125 243.1875Q424.65625 243.1875 424.20312 243.67188Q423.76562 244.14062 423.67188 245.0L426.84375 245.0L426.84375 244.92188Q426.79688 244.09375 426.39062 243.64062Q426.0 243.1875 425.3125 243.1875ZM432.51562 247.0625Q432.51562 246.625 432.17188 246.39062Q431.84375 246.14062 431.01562 245.96875Q430.20312 245.79688 429.71875 245.54688Q429.23438 245.29688 429.0 244.96875Q428.78125 244.625 428.78125 244.15625Q428.78125 243.375 429.4375 242.84375Q430.09375 242.29688 431.125 242.29688Q432.20312 242.29688 432.85938 242.85938Q433.53125 243.40625 433.53125 244.26562L432.45312 244.26562Q432.45312 243.82812 432.0625 243.51562Q431.6875 243.1875 431.125 243.1875Q430.53125 243.1875 430.1875 243.45312Q429.85938 243.70312 429.85938 244.10938Q429.85938 244.5 430.17188 244.70312Q430.48438 244.90625 431.29688 245.09375Q432.10938 245.26562 432.60938 245.51562Q433.10938 245.76562 433.34375 246.125Q433.59375 246.48438 433.59375 246.98438Q433.59375 247.84375 432.90625 248.35938Q432.23438 248.875 431.15625 248.875Q430.39062 248.875 429.79688 248.60938Q429.21875 248.32812 428.89062 247.84375Q428.5625 247.35938 428.5625 246.79688L429.64062 246.79688Q429.67188 247.34375 430.07812 247.67188Q430.48438 247.98438 431.15625 247.98438Q431.76562 247.98438 432.14062 247.73438Q432.51562 247.48438 432.51562 247.0625ZM436.29688 240.875L436.29688 242.40625L437.46875 242.40625L437.46875 243.25L436.29688 243.25L436.29688 247.17188Q436.29688 247.5625 436.45312 247.75Q436.60938 247.9375 436.98438 247.9375Q437.17188 247.9375 437.5 247.875L437.5 248.75Q437.07812 248.875 436.67188 248.875Q435.95312 248.875 435.57812 248.4375Q435.20312 247.98438 435.20312 247.17188L435.20312 243.25L434.04688 243.25L434.04688 242.40625L435.20312 242.40625L435.20312 240.875L436.29688 240.875ZM442.03125 249.48438L441.10938 249.48438L444.67188 240.21875L445.59375 240.21875L442.03125 249.48438ZM450.84375 242.40625L450.875 243.10938Q451.5625 242.29688 452.75 242.29688Q454.07812 242.29688 454.5625 243.3125Q454.875 242.85938 455.375 242.57812Q455.89062 242.29688 456.57812 242.29688Q458.67188 242.29688 458.70312 244.5L458.70312 248.75L457.625 248.75L457.625 244.5625Q457.625 243.89062 457.3125 243.5625Q457.0 243.21875 456.26562 243.21875Q455.65625 243.21875 455.25 243.57812Q454.85938 243.9375 454.79688 244.54688L454.79688 248.75L453.71875 248.75L453.71875 244.59375Q453.71875 243.21875 452.35938 243.21875Q451.29688 243.21875 450.90625 244.125L450.90625 248.75L449.8125 248.75L449.8125 242.40625L450.84375 242.40625ZM464.51562 247.0625Q464.51562 246.625 464.17188 246.39062Q463.84375 246.14062 463.01562 245.96875Q462.20312 245.79688 461.71875 245.54688Q461.23438 245.29688 461.0 244.96875Q460.78125 244.625 460.78125 244.15625Q460.78125 243.375 461.4375 242.84375Q462.09375 242.29688 463.125 242.29688Q464.20312 242.29688 464.85938 242.85938Q465.53125 243.40625 465.53125 244.26562L464.45312 244.26562Q464.45312 243.82812 464.0625 243.51562Q463.6875 243.1875 463.125 243.1875Q462.53125 243.1875 462.1875 243.45312Q461.85938 243.70312 461.85938 244.10938Q461.85938 244.5 462.17188 244.70312Q462.48438 244.90625 463.29688 245.09375Q464.10938 245.26562 464.60938 245.51562Q465.10938 245.76562 465.34375 246.125Q465.59375 246.48438 465.59375 246.98438Q465.59375 247.84375 464.90625 248.35938Q464.23438 248.875 463.15625 248.875Q462.39062 248.875 461.79688 248.60938Q461.21875 248.32812 460.89062 247.84375Q460.5625 247.35938 460.5625 246.79688L461.64062 246.79688Q461.67188 247.34375 462.07812 247.67188Q462.48438 247.98438 463.15625 247.98438Q463.76562 247.98438 464.14062 247.73438Q464.51562 247.48438 464.51562 247.0625Z" fill-rule="nonzero"/></svg>