<svg version="1.1" viewBox="0.0 0.0 515.0 260.0" fill="none" stroke="none" stroke-linecap="square" stroke-miterlimit="10" width="515" height="260" xmlns:xlink="http://www.w3.org/1999/xlink" xmlns="http://www.w3.org/2000/svg"><path fill="#ffffff" d="M0 0L515.0 0L515.0 260.0L0 260.0L0 0Z" fill-rule="nonzero"/><path fill="#ffffff" d="M0 0L515.0 0L515.0 260.0L0 260.0L0 0Z" fill-rule="nonzero"/><path stroke="#333333" stroke-width="1.0" stroke-linecap="butt" d="M87.5 13.5L87.5 226.5" fill-rule="nonzero"/><path stroke="#cccccc" stroke-width="1.0" stroke-linecap="butt" d="M157.5 13.5L157.5 226.5" fill-rule="nonzero"/><path stroke="#cccccc" stroke-width="1.0" stroke-linecap="butt" d="M227.5 13.5L227.5 226.5" fill-rule="nonzero"/><path stroke="#cccccc" stroke-width="1.0" stroke-linecap="butt" d="M298.5 13.5L298.5 226.5" fill-rule="nonzero"/><path stroke="#cccccc" stroke-width="1.0" stroke-linecap="butt" d="M368.5 13.5L368.5 226.5" fill-rule="nonzero"/><path stroke="#cccccc" stroke-width="1.0" stroke-linecap="butt" d="M438.5 13.5L438.5 226.5" fill-rule="nonzero"/><clipPath id="id_0"><path d="M87.0 13.0L502.0 13.0L502.0 226.0L87.0 226.0L87.0 13.0Z" clip-rule="nonzero"/></clipPath><path stroke="#000000" stroke-width="0.0" stroke-linecap="butt" stroke-opacity="0.0" clip-path="url(#id_0)" d="M87.0 53.0L87.0 27.0L162.0 27.0C163.10457 27.0 164.0 27.89543 164.0 29.0L164.0 51.0C164.0 52.10457 163.10457 53.0 162.0 53.0Z" fill-rule="nonzero"/><path fill="#b0ebf3" clip-path="url(#id_0)" d="M87.0 53.0L87.0 27.0L162.0 27.0C163.10457 27.0 164.0 27.89543 164.0 29.0L164.0 51.0C164.0 52.10457 163.10457 53.0 162.0 53.0Z" fill-rule="nonzero"/><path stroke="#000000" stroke-width="0.0" stroke-linecap="butt" stroke-opacity="0.0" clip-path="url(#id_0)" d="M87.0 93.0L87.0 67.0L219.0 67.0C220.10457 67.0 221.0 67.89543 221.0 69.0L221.0 91.0C221.0 92.10457 220.10457 93.0 219.0 93.0Z" fill-rule="nonzero"/><path fill="#38d1b6" clip-path="url(#id_0)" d="M87.0 93.0L87.0 67.0L219.0 67.0C220.10457 67.0 221.0 67.89543 221.0 69.0L221.0 91.0C221.0 92.10457 220.10457 93.0 219.0 93.0Z" fill-rule="nonzero"/><path stroke="#000000" stroke-width="0.0" stroke-linecap="butt" stroke-opacity="0.0" clip-path="url(#id_0)" d="M87.0 132.0L87.0 106.0L296.0 106.0C297.10458 106.0 298.0 106.89543 298.0 108.0L298.0 130.0C298.0 131.10457 297.10458 132.0 296.0 132.0Z" fill-rule="nonzero"/><path fill="#38d1b6" clip-path="url(#id_0)" d="M87.0 132.0L87.0 106.0L296.0 106.0C297.10458 106.0 298.0 106.89543 298.0 108.0L298.0 130.0C298.0 131.10457 297.10458 132.0 296.0 132.0Z" fill-rule="nonzero"/><path stroke="#000000" stroke-width="0.0" stroke-linecap="butt" stroke-opacity="0.0" clip-path="url(#id_0)" d="M87.0 172.0L87.0 146.0L373.0 146.0C374.10458 146.0 375.0 146.89543 375.0 148.0L375.0 170.0C375.0 171.10457 374.10458 172.0 373.0 172.0Z" fill-rule="nonzero"/><path fill="#79d504" clip-path="url(#id_0)" d="M87.0 172.0L87.0 146.0L373.0 146.0C374.10458 146.0 375.0 146.89543 375.0 148.0L375.0 170.0C375.0 171.10457 374.10458 172.0 373.0 172.0Z" fill-rule="nonzero"/><path stroke="#000000" stroke-width="0.0" stroke-linecap="butt" stroke-opacity="0.0" clip-path="url(#id_0)" d="M87.0 212.0L87.0 186.0L500.0 186.0C501.10458 186.0 502.0 186.89543 502.0 188.0L502.0 210.0C502.0 211.10457 501.10458 212.0 500.0 212.0Z" fill-rule="nonzero"/><path fill="#ff6863" clip-path="url(#id_0)" d="M87.0 212.0L87.0 186.0L500.0 186.0C501.10458 186.0 502.0 186.89543 502.0 188.0L502.0 210.0C502.0 211.10457 501.10458 212.0 500.0 212.0Z" fill-rule="nonzero"/><path stroke="#b0ebf3" stroke-width="3.0" stroke-linejoin="round" stroke-linecap="round" d="M146.8385 44.5L145.76038 44.5L145.76038 37.28125L143.57288 38.078125L143.57288 37.09375L146.68225 35.921875L146.8385 35.921875L146.8385 44.5ZM150.41663 43.9375Q150.41663 43.65625 150.57288 43.46875Q150.74475 43.28125 151.07288 43.28125Q151.41663 43.28125 151.5885 43.46875Q151.76038 43.65625 151.76038 43.9375Q151.76038 44.203125 151.5885 44.390625Q151.41663 44.5625 151.07288 44.5625Q150.74475 44.5625 150.57288 44.390625Q150.41663 44.203125 150.41663 43.9375ZM156.8385 44.5L155.76038 44.5L155.76038 37.28125L153.57288 38.078125L153.57288 37.09375L156.68225 35.921875L156.8385 35.921875L156.8385 44.5Z" fill-rule="nonzero"/><path fill="#000000" d="M146.8385 44.5L145.76038 44.5L145.76038 37.28125L143.57288 38.078125L143.57288 37.09375L146.68225 35.921875L146.8385 35.921875L146.8385 44.5ZM150.41663 43.9375Q150.41663 43.65625 150.57288 43.46875Q150.74475 43.28125 151.07288 43.28125Q151.41663 43.28125 151.5885 43.46875Q151.76038 43.65625 151.76038 43.9375Q151.76038 44.203125 151.5885 44.390625Q151.41663 44.5625 151.07288 44.5625Q150.74475 44.5625 150.57288 44.390625Q150.41663 44.203125 150.41663 43.9375ZM156.8385 44.5L155.76038 44.5L155.76038 37.28125L153.57288 38.078125L153.57288 37.09375L156.68225 35.921875L156.8385 35.921875L156.8385 44.5Z" fill-rule="nonzero"/><path stroke="#38d1b6" stroke-width="3.0" stroke-linejoin="round" stroke-linecap="round" d="M203.1097 84.5L202.03157 84.5L202.03157 77.28125L199.84407 78.078125L199.84407 77.09375L202.95345 75.921875L203.1097 75.921875L203.1097 84.5ZM206.68782 83.9375Q206.68782 83.65625 206.84407 83.46875Q207.01595 83.28125 207.34407 83.28125Q207.68782 83.28125 207.8597 83.46875Q208.03157 83.65625 208.03157 83.9375Q208.03157 84.203125 207.8597 84.390625Q207.68782 84.5625 207.34407 84.5625Q207.01595 84.5625 206.84407 84.390625Q206.68782 84.203125 206.68782 83.9375ZM213.70345 80.75Q213.37532 81.15625 212.89095 81.40625Q212.4222 81.640625 211.8597 81.640625Q211.12532 81.640625 210.57845 81.28125Q210.03157 80.921875 209.7347 80.265625Q209.43782 79.59375 209.43782 78.796875Q209.43782 77.953125 209.75032 77.265625Q210.07845 76.578125 210.6722 76.21875Q211.28157 75.84375 212.07845 75.84375Q213.34407 75.84375 214.06282 76.796875Q214.7972 77.75 214.7972 79.375L214.7972 79.6875Q214.7972 82.1875 213.81282 83.328125Q212.82845 84.46875 210.84407 84.5L210.62532 84.5L210.62532 83.59375L210.8597 83.59375Q212.20345 83.5625 212.9222 82.890625Q213.64095 82.21875 213.70345 80.75ZM212.03157 80.75Q212.57845 80.75 213.03157 80.421875Q213.50032 80.078125 213.71907 79.59375L213.71907 79.15625Q213.71907 78.09375 213.25032 77.421875Q212.78157 76.75 212.07845 76.75Q211.3597 76.75 210.9222 77.296875Q210.50032 77.84375 210.50032 78.75Q210.50032 79.625 210.90657 80.1875Q211.32845 80.75 212.03157 80.75Z" fill-rule="nonzero"/><path fill="#000000" d="M203.1097 84.5L202.03157 84.5L202.03157 77.28125L199.84407 78.078125L199.84407 77.09375L202.95345 75.921875L203.1097 75.921875L203.1097 84.5ZM206.68782 83.9375Q206.68782 83.65625 206.84407 83.46875Q207.01595 83.28125 207.34407 83.28125Q207.68782 83.28125 207.8597 83.46875Q208.03157 83.65625 208.03157 83.9375Q208.03157 84.203125 207.8597 84.390625Q207.68782 84.5625 207.34407 84.5625Q207.01595 84.5625 206.84407 84.390625Q206.68782 84.203125 206.68782 83.9375ZM213.70345 80.75Q213.37532 81.15625 212.89095 81.40625Q212.4222 81.640625 211.8597 81.640625Q211.12532 81.640625 210.57845 81.28125Q210.03157 80.921875 209.7347 80.265625Q209.43782 79.59375 209.43782 78.796875Q209.43782 77.953125 209.75032 77.265625Q210.07845 76.578125 210.6722 76.21875Q211.28157 75.84375 212.07845 75.84375Q213.34407 75.84375 214.06282 76.796875Q214.7972 77.75 214.7972 79.375L214.7972 79.6875Q214.7972 82.1875 213.81282 83.328125Q212.82845 84.46875 210.84407 84.5L210.62532 84.5L210.62532 83.59375L210.8597 83.59375Q212.20345 83.5625 212.9222 82.890625Q213.64095 82.21875 213.70345 80.75ZM212.03157 80.75Q212.57845 80.75 213.03157 80.421875Q213.50032 80.078125 213.71907 79.59375L213.71907 79.15625Q213.71907 78.09375 213.25032 77.421875Q212.78157 76.75 212.07845 76.75Q211.3597 76.75 210.9222 77.296875Q210.50032 77.84375 210.50032 78.75Q210.50032 79.625 210.90657 80.1875Q211.32845 80.75 212.03157 80.75Z" fill-rule="nonzero"/><path stroke="#38d1b6" stroke-width="3.0" stroke-linejoin="round" stroke-linecap="round" d="M288.4982 118.703125L289.3107 118.703125Q290.09195 118.6875 290.52945 118.296875Q290.96695 117.90625 290.96695 117.234375Q290.96695 115.734375 289.46695 115.734375Q288.76382 115.734375 288.34195 116.140625Q287.9357 116.546875 287.9357 117.203125L286.84195 117.203125Q286.84195 116.1875 287.57632 115.515625Q288.32632 114.84375 289.46695 114.84375Q290.67007 114.84375 291.35757 115.484375Q292.04507 116.125 292.04507 117.265625Q292.04507 117.828125 291.6857 118.34375Q291.32632 118.859375 290.70132 119.125Q291.40445 119.34375 291.77945 119.859375Q292.17007 120.375 292.17007 121.125Q292.17007 122.265625 291.42007 122.953125Q290.67007 123.625 289.46695 123.625Q288.27945 123.625 287.51382 122.96875Q286.76382 122.3125 286.76382 121.25L287.85757 121.25Q287.85757 121.921875 288.29507 122.328125Q288.73257 122.734375 289.48257 122.734375Q290.26382 122.734375 290.67007 122.328125Q291.09195 121.90625 291.09195 121.140625Q291.09195 120.40625 290.63882 120.015625Q290.1857 119.609375 289.3107 119.59375L288.4982 119.59375L288.4982 118.703125Z" fill-rule="nonzero"/><path fill="#000000" d="M288.4982 118.703125L289.3107 118.703125Q290.09195 118.6875 290.52945 118.296875Q290.96695 117.90625 290.96695 117.234375Q290.96695 115.734375 289.46695 115.734375Q288.76382 115.734375 288.34195 116.140625Q287.9357 116.546875 287.9357 117.203125L286.84195 117.203125Q286.84195 116.1875 287.57632 115.515625Q288.32632 114.84375 289.46695 114.84375Q290.67007 114.84375 291.35757 115.484375Q292.04507 116.125 292.04507 117.265625Q292.04507 117.828125 291.6857 118.34375Q291.32632 118.859375 290.70132 119.125Q291.40445 119.34375 291.77945 119.859375Q292.17007 120.375 292.17007 121.125Q292.17007 122.265625 291.42007 122.953125Q290.67007 123.625 289.46695 123.625Q288.27945 123.625 287.51382 122.96875Q286.76382 122.3125 286.76382 121.25L287.85757 121.25Q287.85757 121.921875 288.29507 122.328125Q288.73257 122.734375 289.48257 122.734375Q290.26382 122.734375 290.67007 122.328125Q291.09195 121.90625 291.09195 121.140625Q291.09195 120.40625 290.63882 120.015625Q290.1857 119.609375 289.3107 119.59375L288.4982 119.59375L288.4982 118.703125Z" fill-rule="nonzero"/><path stroke="#79d504" stroke-width="3.0" stroke-linejoin="round" stroke-linecap="round" d="M358.8711 160.64062L360.0586 160.64062L360.0586 161.51562L358.8711 161.51562L358.8711 163.5L357.79297 163.5L357.79297 161.51562L353.90234 161.51562L353.90234 160.875L357.71484 154.96875L358.8711 154.96875L358.8711 160.64062ZM355.13672 160.64062L357.79297 160.64062L357.79297 156.45312L357.65234 156.6875L355.13672 160.64062ZM361.4336 162.9375Q361.4336 162.65625 361.58984 162.46875Q361.76172 162.28125 362.08984 162.28125Q362.4336 162.28125 362.60547 162.46875Q362.77734 162.65625 362.77734 162.9375Q362.77734 163.20312 362.60547 163.39062Q362.4336 163.5625 362.08984 163.5625Q361.76172 163.5625 361.58984 163.39062Q361.4336 163.20312 361.4336 162.9375ZM367.85547 163.5L366.77734 163.5L366.77734 156.28125L364.58984 157.07812L364.58984 156.09375L367.69922 154.92188L367.85547 154.92188L367.85547 163.5Z" fill-rule="nonzero"/><path fill="#000000" d="M358.8711 160.64062L360.0586 160.64062L360.0586 161.51562L358.8711 161.51562L358.8711 163.5L357.79297 163.5L357.79297 161.51562L353.90234 161.51562L353.90234 160.875L357.71484 154.96875L358.8711 154.96875L358.8711 160.64062ZM355.13672 160.64062L357.79297 160.64062L357.79297 156.45312L357.65234 156.6875L355.13672 160.64062ZM361.4336 162.9375Q361.4336 162.65625 361.58984 162.46875Q361.76172 162.28125 362.08984 162.28125Q362.4336 162.28125 362.60547 162.46875Q362.77734 162.65625 362.77734 162.9375Q362.77734 163.20312 362.60547 163.39062Q362.4336 163.5625 362.08984 163.5625Q361.76172 163.5625 361.58984 163.39062Q361.4336 163.20312 361.4336 162.9375ZM367.85547 163.5L366.77734 163.5L366.77734 156.28125L364.58984 157.07812L364.58984 156.09375L367.69922 154.92188L367.85547 154.92188L367.85547 163.5Z" fill-rule="nonzero"/><path stroke="#ff6863" stroke-width="3.0" stroke-linejoin="round" stroke-linecap="round" d="M481.40314 199.21875L481.84064 194.96875L486.21564 194.96875L486.21564 195.96875L482.7625 195.96875L482.4969 198.29688Q483.1375 197.92188 483.9344 197.92188Q485.09064 197.92188 485.77814 198.70312Q486.46564 199.46875 486.46564 200.78125Q486.46564 202.09375 485.7469 202.85938Q485.04376 203.625 483.7625 203.625Q482.6375 203.625 481.91876 203.0Q481.2 202.35938 481.10626 201.25L482.1219 201.25Q482.23126 201.98438 482.65314 202.35938Q483.075 202.73438 483.7625 202.73438Q484.5125 202.73438 484.95 202.21875Q485.3875 201.70312 485.3875 200.79688Q485.3875 199.9375 484.91876 199.42188Q484.45 198.90625 483.66876 198.90625Q482.96564 198.90625 482.5594 199.20312L482.27814 199.4375L481.40314 199.21875ZM488.04376 202.9375Q488.04376 202.65625 488.2 202.46875Q488.3719 202.28125 488.7 202.28125Q489.04376 202.28125 489.21564 202.46875Q489.3875 202.65625 489.3875 202.9375Q489.3875 203.20312 489.21564 203.39062Q489.04376 203.5625 488.7 203.5625Q488.3719 203.5625 488.2 203.39062Q488.04376 203.20312 488.04376 202.9375ZM495.0594 199.75Q494.73126 200.15625 494.2469 200.40625Q493.77814 200.64062 493.21564 200.64062Q492.48126 200.64062 491.9344 200.28125Q491.3875 199.92188 491.09064 199.26562Q490.79376 198.59375 490.79376 197.79688Q490.79376 196.95312 491.10626 196.26562Q491.4344 195.57812 492.02814 195.21875Q492.6375 194.84375 493.4344 194.84375Q494.7 194.84375 495.41876 195.79688Q496.15314 196.75 496.15314 198.375L496.15314 198.6875Q496.15314 201.1875 495.16876 202.32812Q494.1844 203.46875 492.2 203.5L491.98126 203.5L491.98126 202.59375L492.21564 202.59375Q493.5594 202.5625 494.27814 201.89062Q494.9969 201.21875 495.0594 199.75ZM493.3875 199.75Q493.9344 199.75 494.3875 199.42188Q494.85626 199.07812 495.075 198.59375L495.075 198.15625Q495.075 197.09375 494.60626 196.42188Q494.1375 195.75 493.4344 195.75Q492.71564 195.75 492.27814 196.29688Q491.85626 196.84375 491.85626 197.75Q491.85626 198.625 492.2625 199.1875Q492.6844 199.75 493.3875 199.75Z" fill-rule="nonzero"/><path fill="#000000" d="M481.40314 199.21875L481.84064 194.96875L486.21564 194.96875L486.21564 195.96875L482.7625 195.96875L482.4969 198.29688Q483.1375 197.92188 483.9344 197.92188Q485.09064 197.92188 485.77814 198.70312Q486.46564 199.46875 486.46564 200.78125Q486.46564 202.09375 485.7469 202.85938Q485.04376 203.625 483.7625 203.625Q482.6375 203.625 481.91876 203.0Q481.2 202.35938 481.10626 201.25L482.1219 201.25Q482.23126 201.98438 482.65314 202.35938Q483.075 202.73438 483.7625 202.73438Q484.5125 202.73438 484.95 202.21875Q485.3875 201.70312 485.3875 200.79688Q485.3875 199.9375 484.91876 199.42188Q484.45 198.90625 483.66876 198.90625Q482.96564 198.90625 482.5594 199.20312L482.27814 199.4375L481.40314 199.21875ZM488.04376 202.9375Q488.04376 202.65625 488.2 202.46875Q488.3719 202.28125 488.7 202.28125Q489.04376 202.28125 489.21564 202.46875Q489.3875 202.65625 489.3875 202.9375Q489.3875 203.20312 489.21564 203.39062Q489.04376 203.5625 488.7 203.5625Q488.3719 203.5625 488.2 203.39062Q488.04376 203.20312 488.04376 202.9375ZM495.0594 199.75Q494.73126 200.15625 494.2469 200.40625Q493.77814 200.64062 493.21564 200.64062Q492.48126 200.64062 491.9344 200.28125Q491.3875 199.92188 491.09064 199.26562Q490.79376 198.59375 490.79376 197.79688Q490.79376 196.95312 491.10626 196.26562Q491.4344 195.57812 492.02814 195.21875Q492.6375 194.84375 493.4344 194.84375Q494.7 194.84375 495.41876 195.79688Q496.15314 196.75 496.15314 198.375L496.15314 198.6875Q496.15314 201.1875 495.16876 202.32812Q494.1844 203.46875 492.2 203.5L491.98126 203.5L491.98126 202.59375L492.21564 202.59375Q493.5594 202.5625 494.27814 201.89062Q494.9969 201.21875 495.0594 199.75ZM493.3875 199.75Q493.9344 199.75 494.3875 199.42188Q494.85626 199.07812 495.075 198.59375L495.075 198.15625Q495.075 197.09375 494.60626 196.42188Q494.1375 195.75 493.4344 195.75Q492.71564 195.75 492.27814 196.29688Q491.85626 196.84375 491.85626 197.75Q491.85626 198.625 492.2625 199.1875Q492.6844 199.75 493.3875 199.75Z" fill-rule="nonzero"/><path fill="#757575" d="M25.5 40.576958Q24.0625 40.155083 23.390625 39.545708Q22.734375 38.936333 22.734375 38.045708Q22.734375 37.045708 23.53125 36.389458Q24.34375 35.717583 25.640625 35.717583Q26.515625 35.717583 27.203125 36.061333Q27.890625 36.405083 28.265625 36.998833Q28.65625 37.592583 28.65625 38.311333L27.515625 38.311333Q27.515625 37.530083 27.015625 37.092583Q26.53125 36.655083 25.640625 36.655083Q24.8125 36.655083 24.34375 37.030083Q23.875 37.389458 23.875 38.030083Q23.875 38.561333 24.3125 38.920708Q24.765625 39.280083 25.828125 39.576958Q26.890625 39.873833 27.484375 40.233208Q28.09375 40.592583 28.375 41.076958Q28.671875 41.561333 28.671875 42.201958Q28.671875 43.248833 27.859375 43.873833Q27.046875 44.498833 25.703125 44.498833Q24.8125 44.498833 24.046875 44.155083Q23.296875 43.811333 22.875 43.233208Q22.46875 42.639458 22.46875 41.905083L23.59375 41.905083Q23.59375 42.670708 24.171875 43.123833Q24.75 43.576958 25.703125 43.576958Q26.59375 43.576958 27.0625 43.217583Q27.53125 42.842583 27.53125 42.217583Q27.53125 41.592583 27.09375 41.248833Q26.65625 40.905083 25.5 40.576958ZM31.890625 42.780083L33.375 38.030083L34.53125 38.030083L31.984375 45.358208Q31.390625 46.936333 30.109375 46.936333L29.890625 46.920708L29.5 46.842583L29.5 45.967583L29.78125 45.983208Q30.34375 45.983208 30.640625 45.764458Q30.953125 45.545708 31.15625 44.951958L31.390625 44.295708L29.125 38.030083L30.3125 38.030083L31.890625 42.780083ZM36.84375 38.030083L36.875 38.733208Q37.5625 37.920708 38.75 37.920708Q40.078125 37.920708 40.5625 38.936333Q40.875 38.483208 41.375 38.201958Q41.890625 37.920708 42.578125 37.920708Q44.671875 37.920708 44.703125 40.123833L44.703125 44.373833L43.625 44.373833L43.625 40.186333Q43.625 39.514458 43.3125 39.186333Q43.0 38.842583 42.265625 38.842583Q41.65625 38.842583 41.25 39.201958Q40.859375 39.561333 40.796875 40.170708L40.796875 44.373833L39.71875 44.373833L39.71875 40.217583Q39.71875 38.842583 38.359375 38.842583Q37.296875 38.842583 36.90625 39.748833L36.90625 44.373833L35.8125 44.373833L35.8125 38.030083L36.84375 38.030083ZM48.0 44.373833L46.921875 44.373833L46.921875 35.373833L48.0 35.373833L48.0 44.373833ZM52.453125 44.498833Q51.15625 44.498833 50.34375 43.655083Q49.546875 42.795708 49.546875 41.373833L49.546875 41.186333Q49.546875 40.233208 49.90625 39.498833Q50.265625 38.748833 50.90625 38.342583Q51.5625 37.920708 52.3125 37.920708Q53.546875 37.920708 54.234375 38.733208Q54.921875 39.545708 54.921875 41.061333L54.921875 41.514458L50.625 41.514458Q50.65625 42.451958 51.171875 43.030083Q51.703125 43.608208 52.515625 43.608208Q53.078125 43.608208 53.46875 43.373833Q53.875 43.139458 54.1875 42.748833L54.84375 43.264458Q54.046875 44.498833 52.453125 44.498833ZM52.3125 38.811333Q51.65625 38.811333 51.203125 39.295708Q50.765625 39.764458 50.671875 40.623833L53.84375 40.623833L53.84375 40.545708Q53.796875 39.717583 53.390625 39.264458Q53.0 38.811333 52.3125 38.811333ZM57.953125 40.342583L59.359375 38.030083L60.625 38.030083L58.546875 41.170708L60.6875 44.373833L59.4375 44.373833L57.96875 41.998833L56.5 44.373833L55.234375 44.373833L57.375 41.170708L55.3125 38.030083L56.5625 38.030083L57.953125 40.342583ZM69.28125 41.514458L70.46875 41.514458L70.46875 42.389458L69.28125 42.389458L69.28125 44.373833L68.203125 44.373833L68.203125 42.389458L64.3125 42.389458L64.3125 41.748833L68.125 35.842583L69.28125 35.842583L69.28125 41.514458ZM65.546875 41.514458L68.203125 41.514458L68.203125 37.326958L68.0625 37.561333L65.546875 41.514458ZM71.84375 43.811333Q71.84375 43.530083 72.0 43.342583Q72.171875 43.155083 72.5 43.155083Q72.84375 43.155083 73.015625 43.342583Q73.1875 43.530083 73.1875 43.811333Q73.1875 44.076958 73.015625 44.264458Q72.84375 44.436333 72.5 44.436333Q72.171875 44.436333 72.0 44.264458Q71.84375 44.076958 71.84375 43.811333ZM78.265625 44.373833L77.1875 44.373833L77.1875 37.155083L75.0 37.951958L75.0 36.967583L78.109375 35.795708L78.265625 35.795708L78.265625 44.373833Z" fill-rule="nonzero"/><path fill="#757575" d="M16.5 80.39004Q15.0625 79.96816 14.390625 79.35879Q13.734375 78.74941 13.734375 77.85879Q13.734375 76.85879 14.53125 76.20254Q15.34375 75.53066 16.640625 75.53066Q17.515625 75.53066 18.203125 75.87441Q18.890625 76.21816 19.265625 76.81191Q19.65625 77.40566 19.65625 78.12441L18.515625 78.12441Q18.515625 77.34316 18.015625 76.90566Q17.53125 76.46816 16.640625 76.46816Q15.8125 76.46816 15.34375 76.84316Q14.875 77.20254 14.875 77.84316Q14.875 78.37441 15.3125 78.73379Q15.765625 79.09316 16.828125 79.39004Q17.890625 79.68691 18.484375 80.04629Q19.09375 80.40566 19.375 80.89004Q19.671875 81.37441 19.671875 82.01504Q19.671875 83.06191 18.859375 83.68691Q18.046875 84.31191 16.703125 84.31191Q15.8125 84.31191 15.046875 83.96816Q14.296875 83.62441 13.875 83.04629Q13.46875 82.45254 13.46875 81.71816L14.59375 81.71816Q14.59375 82.48379 15.171875 82.93691Q15.75 83.39004 16.703125 83.39004Q17.59375 83.39004 18.0625 83.03066Q18.53125 82.65566 18.53125 82.03066Q18.53125 81.40566 18.09375 81.06191Q17.65625 80.71816 16.5 80.39004ZM22.890625 82.59316L24.375 77.84316L25.53125 77.84316L22.984375 85.17129Q22.390625 86.74941 21.109375 86.74941L20.890625 86.73379L20.5 86.65566L20.5 85.78066L20.78125 85.79629Q21.34375 85.79629 21.640625 85.57754Q21.953125 85.35879 22.15625 84.76504L22.390625 84.10879L20.125 77.84316L21.3125 77.84316L22.890625 82.59316ZM27.84375 77.84316L27.875 78.54629Q28.5625 77.73379 29.75 77.73379Q31.078125 77.73379 31.5625 78.74941Q31.875 78.29629 32.375 78.01504Q32.890625 77.73379 33.578125 77.73379Q35.671875 77.73379 35.703125 79.93691L35.703125 84.18691L34.625 84.18691L34.625 79.99941Q34.625 79.32754 34.3125 78.99941Q34.0 78.65566 33.265625 78.65566Q32.65625 78.65566 32.25 79.01504Q31.859375 79.37441 31.796875 79.98379L31.796875 84.18691L30.71875 84.18691L30.71875 80.03066Q30.71875 78.65566 29.359375 78.65566Q28.296875 78.65566 27.90625 79.56191L27.90625 84.18691L26.8125 84.18691L26.8125 77.84316L27.84375 77.84316ZM38.359375 84.18691L38.359375 78.68691L37.359375 78.68691L37.359375 77.84316L38.359375 77.84316L38.359375 77.20254Q38.359375 76.17129 38.890625 75.62441Q39.4375 75.06191 40.4375 75.06191Q40.8125 75.06191 41.1875 75.15566L41.125 76.04629Q40.84375 75.98379 40.546875 75.98379Q40.015625 75.98379 39.71875 76.29629Q39.4375 76.60879 39.4375 77.17129L39.4375 77.84316L40.796875 77.84316L40.796875 78.68691L39.4375 78.68691L39.4375 84.18691L38.359375 84.18691ZM41.53125 80.95254Q41.53125 80.03066 41.890625 79.28066Q42.265625 78.53066 42.921875 78.14004Q43.578125 77.73379 44.40625 77.73379Q45.703125 77.73379 46.5 78.62441Q47.3125 79.51504 47.3125 81.01504L47.3125 81.09316Q47.3125 82.01504 46.953125 82.74941Q46.59375 83.48379 45.9375 83.90566Q45.28125 84.31191 44.421875 84.31191Q43.140625 84.31191 42.328125 83.42129Q41.53125 82.51504 41.53125 81.03066L41.53125 80.95254ZM42.625 81.09316Q42.625 82.14004 43.109375 82.78066Q43.609375 83.42129 44.421875 83.42129Q45.25 83.42129 45.734375 82.78066Q46.21875 82.12441 46.21875 80.95254Q46.21875 79.92129 45.71875 79.28066Q45.234375 78.62441 44.40625 78.62441Q43.609375 78.62441 43.109375 79.26504Q42.625 79.89004 42.625 81.09316ZM49.84375 77.84316L49.875 78.64004Q50.609375 77.73379 51.78125 77.73379Q53.796875 77.73379 53.8125 79.99941L53.8125 84.18691L52.71875 84.18691L52.71875 79.98379Q52.71875 79.31191 52.40625 78.98379Q52.109375 78.65566 51.453125 78.65566Q50.921875 78.65566 50.515625 78.93691Q50.125 79.21816 49.90625 79.67129L49.90625 84.18691L48.828125 84.18691L48.828125 77.84316L49.84375 77.84316ZM57.890625 82.59316L59.375 77.84316L60.53125 77.84316L57.984375 85.17129Q57.390625 86.74941 56.109375 86.74941L55.890625 86.73379L55.5 86.65566L55.5 85.78066L55.78125 85.79629Q56.34375 85.79629 56.640625 85.57754Q56.953125 85.35879 57.15625 84.76504L57.390625 84.10879L55.125 77.84316L56.3125 77.84316L57.890625 82.59316ZM69.28125 81.32754L70.46875 81.32754L70.46875 82.20254L69.28125 82.20254L69.28125 84.18691L68.203125 84.18691L68.203125 82.20254L64.3125 82.20254L64.3125 81.56191L68.125 75.65566L69.28125 75.65566L69.28125 81.32754ZM65.546875 81.32754L68.203125 81.32754L68.203125 77.14004L68.0625 77.37441L65.546875 81.32754ZM71.84375 83.62441Q71.84375 83.34316 72.0 83.15566Q72.171875 82.96816 72.5 82.96816Q72.84375 82.96816 73.015625 83.15566Q73.1875 83.34316 73.1875 83.62441Q73.1875 83.89004 73.015625 84.07754Q72.84375 84.24941 72.5 84.24941Q72.171875 84.24941 72.0 84.07754Q71.84375 83.89004 71.84375 83.62441ZM80.296875 84.18691L74.703125 84.18691L74.703125 83.40566L77.65625 80.12441Q78.3125 79.37441 78.5625 78.92129Q78.8125 78.45254 78.8125 77.95254Q78.8125 77.28066 78.40625 76.85879Q78.015625 76.42129 77.328125 76.42129Q76.53125 76.42129 76.078125 76.89004Q75.625 77.34316 75.625 78.17129L74.546875 78.17129Q74.546875 76.98379 75.296875 76.26504Q76.0625 75.53066 77.328125 75.53066Q78.53125 75.53066 79.21875 76.15566Q79.90625 76.78066 79.90625 77.82754Q79.90625 79.07754 78.296875 80.82754L76.015625 83.29629L80.296875 83.29629L80.296875 84.18691Z" fill-rule="nonzero"/><path fill="#757575" d="M16.5 120.203125Q15.0625 119.78125 14.390625 119.171875Q13.734375 118.5625 13.734375 117.671875Q13.734375 116.671875 14.53125 116.015625Q15.34375 115.34375 16.640625 115.34375Q17.515625 115.34375 18.203125 115.6875Q18.890625 116.03125 19.265625 116.625Q19.65625 117.21875 19.65625 117.9375L18.515625 117.9375Q18.515625 117.15625 18.015625 116.71875Q17.53125 116.28125 16.640625 116.28125Q15.8125 116.28125 15.34375 116.65625Q14.875 117.015625 14.875 117.65625Q14.875 118.1875 15.3125 118.546875Q15.765625 118.90625 16.828125 119.203125Q17.890625 119.5 18.484375 119.859375Q19.09375 120.21875 19.375 120.703125Q19.671875 121.1875 19.671875 121.828125Q19.671875 122.875 18.859375 123.5Q18.046875 124.125 16.703125 124.125Q15.8125 124.125 15.046875 123.78125Q14.296875 123.4375 13.875 122.859375Q13.46875 122.265625 13.46875 121.53125L14.59375 121.53125Q14.59375 122.296875 15.171875 122.75Q15.75 123.203125 16.703125 123.203125Q17.59375 123.203125 18.0625 122.84375Q18.53125 122.46875 18.53125 121.84375Q18.53125 121.21875 18.09375 120.875Q17.65625 120.53125 16.5 120.203125ZM22.890625 122.40625L24.375 117.65625L25.53125 117.65625L22.984375 124.984375Q22.390625 126.5625 21.109375 126.5625L20.890625 126.546875L20.5 126.46875L20.5 125.59375L20.78125 125.609375Q21.34375 125.609375 21.640625 125.390625Q21.953125 125.171875 22.15625 124.578125L22.390625 123.921875L20.125 117.65625L21.3125 117.65625L22.890625 122.40625ZM27.84375 117.65625L27.875 118.359375Q28.5625 117.546875 29.75 117.546875Q31.078125 117.546875 31.5625 118.5625Q31.875 118.109375 32.375 117.828125Q32.890625 117.546875 33.578125 117.546875Q35.671875 117.546875 35.703125 119.75L35.703125 124.0L34.625 124.0L34.625 119.8125Q34.625 119.140625 34.3125 118.8125Q34.0 118.46875 33.265625 118.46875Q32.65625 118.46875 32.25 118.828125Q31.859375 119.1875 31.796875 119.796875L31.796875 124.0L30.71875 124.0L30.71875 119.84375Q30.71875 118.46875 29.359375 118.46875Q28.296875 118.46875 27.90625 119.375L27.90625 124.0L26.8125 124.0L26.8125 117.65625L27.84375 117.65625ZM38.359375 124.0L38.359375 118.5L37.359375 118.5L37.359375 117.65625L38.359375 117.65625L38.359375 117.015625Q38.359375 115.984375 38.890625 115.4375Q39.4375 114.875 40.4375 114.875Q40.8125 114.875 41.1875 114.96875L41.125 115.859375Q40.84375 115.796875 40.546875 115.796875Q40.015625 115.796875 39.71875 116.109375Q39.4375 116.421875 39.4375 116.984375L39.4375 117.65625L40.796875 117.65625L40.796875 118.5L39.4375 118.5L39.4375 124.0L38.359375 124.0ZM41.53125 120.765625Q41.53125 119.84375 41.890625 119.09375Q42.265625 118.34375 42.921875 117.953125Q43.578125 117.546875 44.40625 117.546875Q45.703125 117.546875 46.5 118.4375Q47.3125 119.328125 47.3125 120.828125L47.3125 120.90625Q47.3125 121.828125 46.953125 122.5625Q46.59375 123.296875 45.9375 123.71875Q45.28125 124.125 44.421875 124.125Q43.140625 124.125 42.328125 123.234375Q41.53125 122.328125 41.53125 120.84375L41.53125 120.765625ZM42.625 120.90625Q42.625 121.953125 43.109375 122.59375Q43.609375 123.234375 44.421875 123.234375Q45.25 123.234375 45.734375 122.59375Q46.21875 121.9375 46.21875 120.765625Q46.21875 119.734375 45.71875 119.09375Q45.234375 118.4375 44.40625 118.4375Q43.609375 118.4375 43.109375 119.078125Q42.625 119.703125 42.625 120.90625ZM49.84375 117.65625L49.875 118.453125Q50.609375 117.546875 51.78125 117.546875Q53.796875 117.546875 53.8125 119.8125L53.8125 124.0L52.71875 124.0L52.71875 119.796875Q52.71875 119.125 52.40625 118.796875Q52.109375 118.46875 51.453125 118.46875Q50.921875 118.46875 50.515625 118.75Q50.125 119.03125 49.90625 119.484375L49.90625 124.0L48.828125 124.0L48.828125 117.65625L49.84375 117.65625ZM57.890625 122.40625L59.375 117.65625L60.53125 117.65625L57.984375 124.984375Q57.390625 126.5625 56.109375 126.5625L55.890625 126.546875L55.5 126.46875L55.5 125.59375L55.78125 125.609375Q56.34375 125.609375 56.640625 125.390625Q56.953125 125.171875 57.15625 124.578125L57.390625 123.921875L55.125 117.65625L56.3125 117.65625L57.890625 122.40625ZM66.28125 119.203125L67.09375 119.203125Q67.875 119.1875 68.3125 118.796875Q68.75 118.40625 68.75 117.734375Q68.75 116.234375 67.25 116.234375Q66.546875 116.234375 66.125 116.640625Q65.71875 117.046875 65.71875 117.703125L64.625 117.703125Q64.625 116.6875 65.359375 116.015625Q66.109375 115.34375 67.25 115.34375Q68.453125 115.34375 69.140625 115.984375Q69.828125 116.625 69.828125 117.765625Q69.828125 118.328125 69.46875 118.84375Q69.109375 119.359375 68.484375 119.625Q69.1875 119.84375 69.5625 120.359375Q69.953125 120.875 69.953125 121.625Q69.953125 122.765625 69.203125 123.453125Q68.453125 124.125 67.25 124.125Q66.0625 124.125 65.296875 123.46875Q64.546875 122.8125 64.546875 121.75L65.640625 121.75Q65.640625 122.421875 66.078125 122.828125Q66.515625 123.234375 67.265625 123.234375Q68.046875 123.234375 68.453125 122.828125Q68.875 122.40625 68.875 121.640625Q68.875 120.90625 68.421875 120.515625Q67.96875 120.109375 67.09375 120.09375L66.28125 120.09375L66.28125 119.203125ZM71.84375 123.4375Q71.84375 123.15625 72.0 122.96875Q72.171875 122.78125 72.5 122.78125Q72.84375 122.78125 73.015625 122.96875Q73.1875 123.15625 73.1875 123.4375Q73.1875 123.703125 73.015625 123.890625Q72.84375 124.0625 72.5 124.0625Q72.171875 124.0625 72.0 123.890625Q71.84375 123.703125 71.84375 123.4375ZM79.28125 121.140625L80.46875 121.140625L80.46875 122.015625L79.28125 122.015625L79.28125 124.0L78.203125 124.0L78.203125 122.015625L74.3125 122.015625L74.3125 121.375L78.125 115.46875L79.28125 115.46875L79.28125 121.140625ZM75.546875 121.140625L78.203125 121.140625L78.203125 116.953125L78.0625 117.1875L75.546875 121.140625Z" fill-rule="nonzero"/><path fill="#757575" d="M35.828125 162.8912L40.71875 162.8912L40.71875 163.81308L34.5 163.81308L34.5 162.96933L39.1875 156.2037L34.578125 156.2037L34.578125 155.28183L40.53125 155.28183L40.53125 156.10995L35.828125 162.8912ZM44.453125 163.93808Q43.15625 163.93808 42.34375 163.09433Q41.546875 162.23495 41.546875 160.81308L41.546875 160.62558Q41.546875 159.67245 41.90625 158.93808Q42.265625 158.18808 42.90625 157.78183Q43.5625 157.35995 44.3125 157.35995Q45.546875 157.35995 46.234375 158.17245Q46.921875 158.98495 46.921875 160.50058L46.921875 160.9537L42.625 160.9537Q42.65625 161.8912 43.171875 162.46933Q43.703125 163.04745 44.515625 163.04745Q45.078125 163.04745 45.46875 162.81308Q45.875 162.5787 46.1875 162.18808L46.84375 162.7037Q46.046875 163.93808 44.453125 163.93808ZM44.3125 158.25058Q43.65625 158.25058 43.203125 158.73495Q42.765625 159.2037 42.671875 160.06308L45.84375 160.06308L45.84375 159.98495Q45.796875 159.15683 45.390625 158.7037Q45.0 158.25058 44.3125 158.25058ZM48.84375 157.46933L48.875 158.2662Q49.609375 157.35995 50.78125 157.35995Q52.796875 157.35995 52.8125 159.62558L52.8125 163.81308L51.71875 163.81308L51.71875 159.60995Q51.71875 158.93808 51.40625 158.60995Q51.109375 158.28183 50.453125 158.28183Q49.921875 158.28183 49.515625 158.56308Q49.125 158.84433 48.90625 159.29745L48.90625 163.81308L47.828125 163.81308L47.828125 157.46933L48.84375 157.46933ZM54.5625 160.59433Q54.5625 159.12558 55.25 158.25058Q55.9375 157.35995 57.0625 157.35995Q58.171875 157.35995 58.828125 158.10995L58.828125 154.81308L59.90625 154.81308L59.90625 163.81308L58.90625 163.81308L58.859375 163.12558Q58.203125 163.93808 57.046875 163.93808Q55.953125 163.93808 55.25 163.03183Q54.5625 162.12558 54.5625 160.67245L54.5625 160.59433ZM55.640625 160.71933Q55.640625 161.79745 56.078125 162.40683Q56.53125 163.0162 57.3125 163.0162Q58.34375 163.0162 58.828125 162.0787L58.828125 159.17245Q58.34375 158.28183 57.328125 158.28183Q56.53125 158.28183 56.078125 158.8912Q55.640625 159.50058 55.640625 160.71933ZM66.28125 159.0162L67.09375 159.0162Q67.875 159.00058 68.3125 158.60995Q68.75 158.21933 68.75 157.54745Q68.75 156.04745 67.25 156.04745Q66.546875 156.04745 66.125 156.4537Q65.71875 156.85995 65.71875 157.5162L64.625 157.5162Q64.625 156.50058 65.359375 155.8287Q66.109375 155.15683 67.25 155.15683Q68.453125 155.15683 69.140625 155.79745Q69.828125 156.43808 69.828125 157.5787Q69.828125 158.1412 69.46875 158.65683Q69.109375 159.17245 68.484375 159.43808Q69.1875 159.65683 69.5625 160.17245Q69.953125 160.68808 69.953125 161.43808Q69.953125 162.5787 69.203125 163.2662Q68.453125 163.93808 67.25 163.93808Q66.0625 163.93808 65.296875 163.28183Q64.546875 162.62558 64.546875 161.56308L65.640625 161.56308Q65.640625 162.23495 66.078125 162.6412Q66.515625 163.04745 67.265625 163.04745Q68.046875 163.04745 68.453125 162.6412Q68.875 162.21933 68.875 161.4537Q68.875 160.71933 68.421875 160.3287Q67.96875 159.92245 67.09375 159.90683L66.28125 159.90683L66.28125 159.0162ZM71.84375 163.25058Q71.84375 162.96933 72.0 162.78183Q72.171875 162.59433 72.5 162.59433Q72.84375 162.59433 73.015625 162.78183Q73.1875 162.96933 73.1875 163.25058Q73.1875 163.5162 73.015625 163.7037Q72.84375 163.87558 72.5 163.87558Q72.171875 163.87558 72.0 163.7037Q71.84375 163.5162 71.84375 163.25058ZM80.0625 160.17245Q80.0625 162.0787 79.40625 163.0162Q78.765625 163.93808 77.375 163.93808Q76.015625 163.93808 75.359375 163.03183Q74.703125 162.12558 74.671875 160.31308L74.671875 158.87558Q74.671875 156.98495 75.3125 156.0787Q75.96875 155.15683 77.359375 155.15683Q78.734375 155.15683 79.390625 156.04745Q80.046875 156.92245 80.0625 158.7662L80.0625 160.17245ZM78.96875 158.68808Q78.96875 157.31308 78.578125 156.68808Q78.203125 156.04745 77.359375 156.04745Q76.53125 156.04745 76.140625 156.68808Q75.765625 157.31308 75.765625 158.60995L75.765625 160.34433Q75.765625 161.71933 76.15625 162.3912Q76.5625 163.04745 77.375 163.04745Q78.171875 163.04745 78.5625 162.42245Q78.953125 161.79745 78.96875 160.46933L78.96875 158.68808Z" fill-rule="nonzero"/><path fill="#757575" d="M24.125 202.7043L28.171875 202.7043L28.171875 203.62617L22.984375 203.62617L22.984375 195.09492L24.125 195.09492L24.125 202.7043ZM32.734375 203.62617Q32.640625 203.43867 32.578125 202.9543Q31.828125 203.75117 30.78125 203.75117Q29.84375 203.75117 29.234375 203.21992Q28.640625 202.68867 28.640625 201.86055Q28.640625 200.87617 29.390625 200.3293Q30.140625 199.78242 31.515625 199.78242L32.5625 199.78242L32.5625 199.28242Q32.5625 198.71992 32.21875 198.3918Q31.890625 198.04805 31.21875 198.04805Q30.640625 198.04805 30.25 198.34492Q29.859375 198.62617 29.859375 199.04805L28.765625 199.04805Q28.765625 198.56367 29.09375 198.12617Q29.4375 197.68867 30.015625 197.43867Q30.59375 197.17305 31.28125 197.17305Q32.390625 197.17305 33.0 197.71992Q33.625 198.2668 33.65625 199.21992L33.65625 202.1418Q33.65625 203.0168 33.875 203.53242L33.875 203.62617L32.734375 203.62617ZM30.9375 202.79805Q31.453125 202.79805 31.90625 202.53242Q32.359375 202.2668 32.5625 201.84492L32.5625 200.54805L31.71875 200.54805Q29.71875 200.54805 29.71875 201.71992Q29.71875 202.21992 30.0625 202.5168Q30.40625 202.79805 30.9375 202.79805ZM38.890625 198.25117Q38.640625 198.21992 38.359375 198.21992Q37.28125 198.21992 36.90625 199.12617L36.90625 203.62617L35.828125 203.62617L35.828125 197.28242L36.875 197.28242L36.890625 198.0168Q37.421875 197.17305 38.40625 197.17305Q38.71875 197.17305 38.890625 197.25117L38.890625 198.25117ZM43.734375 203.62617Q43.640625 203.43867 43.578125 202.9543Q42.828125 203.75117 41.78125 203.75117Q40.84375 203.75117 40.234375 203.21992Q39.640625 202.68867 39.640625 201.86055Q39.640625 200.87617 40.390625 200.3293Q41.140625 199.78242 42.515625 199.78242L43.5625 199.78242L43.5625 199.28242Q43.5625 198.71992 43.21875 198.3918Q42.890625 198.04805 42.21875 198.04805Q41.640625 198.04805 41.25 198.34492Q40.859375 198.62617 40.859375 199.04805L39.765625 199.04805Q39.765625 198.56367 40.09375 198.12617Q40.4375 197.68867 41.015625 197.43867Q41.59375 197.17305 42.28125 197.17305Q43.390625 197.17305 44.0 197.71992Q44.625 198.2668 44.65625 199.21992L44.65625 202.1418Q44.65625 203.0168 44.875 203.53242L44.875 203.62617L43.734375 203.62617ZM41.9375 202.79805Q42.453125 202.79805 42.90625 202.53242Q43.359375 202.2668 43.5625 201.84492L43.5625 200.54805L42.71875 200.54805Q40.71875 200.54805 40.71875 201.71992Q40.71875 202.21992 41.0625 202.5168Q41.40625 202.79805 41.9375 202.79805ZM48.90625 202.15742L50.484375 197.28242L51.59375 197.28242L49.3125 203.62617L48.484375 203.62617L46.1875 197.28242L47.296875 197.28242L48.90625 202.15742ZM55.453125 203.75117Q54.15625 203.75117 53.34375 202.90742Q52.546875 202.04805 52.546875 200.62617L52.546875 200.43867Q52.546875 199.48555 52.90625 198.75117Q53.265625 198.00117 53.90625 197.59492Q54.5625 197.17305 55.3125 197.17305Q56.546875 197.17305 57.234375 197.98555Q57.921875 198.79805 57.921875 200.31367L57.921875 200.7668L53.625 200.7668Q53.65625 201.7043 54.171875 202.28242Q54.703125 202.86055 55.515625 202.86055Q56.078125 202.86055 56.46875 202.62617Q56.875 202.3918 57.1875 202.00117L57.84375 202.5168Q57.046875 203.75117 55.453125 203.75117ZM55.3125 198.06367Q54.65625 198.06367 54.203125 198.54805Q53.765625 199.0168 53.671875 199.87617L56.84375 199.87617L56.84375 199.79805Q56.796875 198.96992 56.390625 198.5168Q56.0 198.06367 55.3125 198.06367ZM60.0 203.62617L58.921875 203.62617L58.921875 194.62617L60.0 194.62617L60.0 203.62617ZM65.203125 199.34492L65.640625 195.09492L70.015625 195.09492L70.015625 196.09492L66.5625 196.09492L66.296875 198.42305Q66.9375 198.04805 67.734375 198.04805Q68.890625 198.04805 69.578125 198.8293Q70.265625 199.59492 70.265625 200.90742Q70.265625 202.21992 69.546875 202.98555Q68.84375 203.75117 67.5625 203.75117Q66.4375 203.75117 65.71875 203.12617Q65.0 202.48555 64.90625 201.37617L65.921875 201.37617Q66.03125 202.11055 66.453125 202.48555Q66.875 202.86055 67.5625 202.86055Q68.3125 202.86055 68.75 202.34492Q69.1875 201.8293 69.1875 200.92305Q69.1875 200.06367 68.71875 199.54805Q68.25 199.03242 67.46875 199.03242Q66.765625 199.03242 66.359375 199.3293L66.078125 199.56367L65.203125 199.34492ZM71.84375 203.06367Q71.84375 202.78242 72.0 202.59492Q72.171875 202.40742 72.5 202.40742Q72.84375 202.40742 73.015625 202.59492Q73.1875 202.78242 73.1875 203.06367Q73.1875 203.3293 73.015625 203.5168Q72.84375 203.68867 72.5 203.68867Q72.171875 203.68867 72.0 203.5168Q71.84375 203.3293 71.84375 203.06367ZM80.21875 195.7043L76.6875 203.62617L75.546875 203.62617L79.0625 195.98555L74.453125 195.98555L74.453125 195.09492L80.21875 195.09492L80.21875 195.7043Z" fill-rule="nonzero"/><path fill="#757575" d="M79.5625 240.35938Q79.5625 242.26562 78.90625 243.20312Q78.265625 244.125 76.875 244.125Q75.515625 244.125 74.859375 243.21875Q74.203125 242.3125 74.171875 240.5L74.171875 239.0625Q74.171875 237.17188 74.8125 236.26562Q75.46875 235.34375 76.859375 235.34375Q78.234375 235.34375 78.890625 236.23438Q79.546875 237.10938 79.5625 238.95312L79.5625 240.35938ZM78.46875 238.875Q78.46875 237.5 78.078125 236.875Q77.703125 236.23438 76.859375 236.23438Q76.03125 236.23438 75.640625 236.875Q75.265625 237.5 75.265625 238.79688L75.265625 240.53125Q75.265625 241.90625 75.65625 242.57812Q76.0625 243.23438 76.875 243.23438Q77.671875 243.23438 78.0625 242.60938Q78.453125 241.98438 78.46875 240.65625L78.46875 238.875ZM85.34375 237.65625L85.375 238.35938Q86.0625 237.54688 87.25 237.54688Q88.578125 237.54688 89.0625 238.5625Q89.375 238.10938 89.875 237.82812Q90.390625 237.54688 91.078125 237.54688Q93.171875 237.54688 93.203125 239.75L93.203125 244.0L92.125 244.0L92.125 239.8125Q92.125 239.14062 91.8125 238.8125Q91.5 238.46875 90.765625 238.46875Q90.15625 238.46875 89.75 238.82812Q89.359375 239.1875 89.296875 239.79688L89.296875 244.0L88.21875 244.0L88.21875 239.84375Q88.21875 238.46875 86.859375 238.46875Q85.796875 238.46875 85.40625 239.375L85.40625 244.0L84.3125 244.0L84.3125 237.65625L85.34375 237.65625ZM99.015625 242.3125Q99.015625 241.875 98.671875 241.64062Q98.34375 241.39062 97.515625 241.21875Q96.703125 241.04688 96.21875 240.79688Q95.734375 240.54688 95.5 240.21875Q95.28125 239.875 95.28125 239.40625Q95.28125 238.625 95.9375 238.09375Q96.59375 237.54688 97.625 237.54688Q98.703125 237.54688 99.359375 238.10938Q100.03125 238.65625 100.03125 239.51562L98.953125 239.51562Q98.953125 239.07812 98.5625 238.76562Q98.1875 238.4375 97.625 238.4375Q97.03125 238.4375 96.6875 238.70312Q96.359375 238.95312 96.359375 239.35938Q96.359375 239.75 96.671875 239.95312Q96.984375 240.15625 97.796875 240.34375Q98.609375 240.51562 99.109375 240.76562Q99.609375 241.01562 99.84375 241.375Q100.09375 241.73438 100.09375 242.23438Q100.09375 243.09375 99.40625 243.60938Q98.734375 244.125 97.65625 244.125Q96.890625 244.125 96.296875 243.85938Q95.71875 243.57812 95.390625 243.09375Q95.0625 242.60938 95.0625 242.04688L96.140625 242.04688Q96.171875 242.59375 96.578125 242.92188Q96.984375 243.23438 97.65625 243.23438Q98.265625 243.23438 98.640625 242.98438Q99.015625 242.73438 99.015625 242.3125Z" fill-rule="nonzero"/><path fill="#757575" d="M148.10461 244.0L147.02649 244.0L147.02649 236.78125L144.83899 237.57812L144.83899 236.59375L147.94836 235.42188L148.10461 235.42188L148.10461 244.0ZM155.68274 237.65625L155.71399 238.35938Q156.40149 237.54688 157.58899 237.54688Q158.91711 237.54688 159.40149 238.5625Q159.71399 238.10938 160.21399 237.82812Q160.72961 237.54688 161.41711 237.54688Q163.51086 237.54688 163.54211 239.75L163.54211 244.0L162.46399 244.0L162.46399 239.8125Q162.46399 239.14062 162.15149 238.8125Q161.83899 238.46875 161.10461 238.46875Q160.49524 238.46875 160.08899 238.82812Q159.69836 239.1875 159.63586 239.79688L159.63586 244.0L158.55774 244.0L158.55774 239.84375Q158.55774 238.46875 157.19836 238.46875Q156.13586 238.46875 155.74524 239.375L155.74524 244.0L154.65149 244.0L154.65149 237.65625L155.68274 237.65625ZM169.35461 242.3125Q169.35461 241.875 169.01086 241.64062Q168.68274 241.39062 167.85461 241.21875Q167.04211 241.04688 166.55774 240.79688Q166.07336 240.54688 165.83899 240.21875Q165.62024 239.875 165.62024 239.40625Q165.62024 238.625 166.27649 238.09375Q166.93274 237.54688 167.96399 237.54688Q169.04211 237.54688 169.69836 238.10938Q170.37024 238.65625 170.37024 239.51562L169.29211 239.51562Q169.29211 239.07812 168.90149 238.76562Q168.52649 238.4375 167.96399 238.4375Q167.37024 238.4375 167.02649 238.70312Q166.69836 238.95312 166.69836 239.35938Q166.69836 239.75 167.01086 239.95312Q167.32336 240.15625 168.13586 240.34375Q168.94836 240.51562 169.44836 240.76562Q169.94836 241.01562 170.18274 241.375Q170.43274 241.73438 170.43274 242.23438Q170.43274 243.09375 169.74524 243.60938Q169.07336 244.125 167.99524 244.125Q167.22961 244.125 166.63586 243.85938Q166.05774 243.57812 165.72961 243.09375Q165.40149 242.60938 165.40149 242.04688L166.47961 242.04688Q166.51086 242.59375 166.91711 242.92188Q167.32336 243.23438 167.99524 243.23438Q168.60461 243.23438 168.97961 242.98438Q169.35461 242.73438 169.35461 242.3125Z" fill-rule="nonzero"/><path fill="#757575" d="M220.47484 244.0L214.88109 244.0L214.88109 243.21875L217.83421 239.9375Q218.49046 239.1875 218.74046 238.73438Q218.99046 238.26562 218.99046 237.76562Q218.99046 237.09375 218.58421 236.67188Q218.19359 236.23438 217.50609 236.23438Q216.70921 236.23438 216.25609 236.70312Q215.80296 237.15625 215.80296 237.98438L214.72484 237.98438Q214.72484 236.79688 215.47484 236.07812Q216.24046 235.34375 217.50609 235.34375Q218.70921 235.34375 219.39671 235.96875Q220.08421 236.59375 220.08421 237.64062Q220.08421 238.89062 218.47484 240.64062L216.19359 243.10938L220.47484 243.10938L220.47484 244.0ZM226.02171 237.65625L226.05296 238.35938Q226.74046 237.54688 227.92796 237.54688Q229.25609 237.54688 229.74046 238.5625Q230.05296 238.10938 230.55296 237.82812Q231.06859 237.54688 231.75609 237.54688Q233.84984 237.54688 233.88109 239.75L233.88109 244.0L232.80296 244.0L232.80296 239.8125Q232.80296 239.14062 232.49046 238.8125Q232.17796 238.46875 231.44359 238.46875Q230.83421 238.46875 230.42796 238.82812Q230.03734 239.1875 229.97484 239.79688L229.97484 244.0L228.89671 244.0L228.89671 239.84375Q228.89671 238.46875 227.53734 238.46875Q226.47484 238.46875 226.08421 239.375L226.08421 244.0L224.99046 244.0L224.99046 237.65625L226.02171 237.65625ZM239.69359 242.3125Q239.69359 241.875 239.34984 241.64062Q239.02171 241.39062 238.19359 241.21875Q237.38109 241.04688 236.89671 240.79688Q236.41234 240.54688 236.17796 240.21875Q235.95921 239.875 235.95921 239.40625Q235.95921 238.625 236.61546 238.09375Q237.27171 237.54688 238.30296 237.54688Q239.38109 237.54688 240.03734 238.10938Q240.70921 238.65625 240.70921 239.51562L239.63109 239.51562Q239.63109 239.07812 239.24046 238.76562Q238.86546 238.4375 238.30296 238.4375Q237.70921 238.4375 237.36546 238.70312Q237.03734 238.95312 237.03734 239.35938Q237.03734 239.75 237.34984 239.95312Q237.66234 240.15625 238.47484 240.34375Q239.28734 240.51562 239.78734 240.76562Q240.28734 241.01562 240.52171 241.375Q240.77171 241.73438 240.77171 242.23438Q240.77171 243.09375 240.08421 243.60938Q239.41234 244.125 238.33421 244.125Q237.56859 244.125 236.97484 243.85938Q236.39671 243.57812 236.06859 243.09375Q235.74046 242.60938 235.74046 242.04688L236.81859 242.04688Q236.84984 242.59375 237.25609 242.92188Q237.66234 243.23438 238.33421 243.23438Q238.94359 243.23438 239.31859 242.98438Q239.69359 242.73438 239.69359 242.3125Z" fill-rule="nonzero"/><path fill="#757575" d="M286.7982 239.20312L287.6107 239.20312Q288.39194 239.1875 288.82944 238.79688Q289.26694 238.40625 289.26694 237.73438Q289.26694 236.23438 287.76694 236.23438Q287.0638 236.23438 286.64194 236.64062Q286.2357 237.04688 286.2357 237.70312L285.14194 237.70312Q285.14194 236.6875 285.8763 236.01562Q286.6263 235.34375 287.76694 235.34375Q288.97006 235.34375 289.65756 235.98438Q290.34506 236.625 290.34506 237.76562Q290.34506 238.32812 289.9857 238.84375Q289.6263 239.35938 289.0013 239.625Q289.70444 239.84375 290.07944 240.35938Q290.47006 240.875 290.47006 241.625Q290.47006 242.76562 289.72006 243.45312Q288.97006 244.125 287.76694 244.125Q286.57944 244.125 285.8138 243.46875Q285.0638 242.8125 285.0638 241.75L286.15756 241.75Q286.15756 242.42188 286.59506 242.82812Q287.03256 243.23438 287.78256 243.23438Q288.5638 243.23438 288.97006 242.82812Q289.39194 242.40625 289.39194 241.64062Q289.39194 240.90625 288.9388 240.51562Q288.4857 240.10938 287.6107 240.09375L286.7982 240.09375L286.7982 239.20312ZM296.3607 237.65625L296.39194 238.35938Q297.07944 237.54688 298.26694 237.54688Q299.59506 237.54688 300.07944 238.5625Q300.39194 238.10938 300.89194 237.82812Q301.40756 237.54688 302.09506 237.54688Q304.1888 237.54688 304.22006 239.75L304.22006 244.0L303.14194 244.0L303.14194 239.8125Q303.14194 239.14062 302.82944 238.8125Q302.51694 238.46875 301.78256 238.46875Q301.1732 238.46875 300.76694 238.82812Q300.3763 239.1875 300.3138 239.79688L300.3138 244.0L299.2357 244.0L299.2357 239.84375Q299.2357 238.46875 297.8763 238.46875Q296.8138 238.46875 296.4232 239.375L296.4232 244.0L295.32944 244.0L295.32944 237.65625L296.3607 237.65625ZM310.03256 242.3125Q310.03256 241.875 309.6888 241.64062Q309.3607 241.39062 308.53256 241.21875Q307.72006 241.04688 307.2357 240.79688Q306.7513 240.54688 306.51694 240.21875Q306.2982 239.875 306.2982 239.40625Q306.2982 238.625 306.95444 238.09375Q307.6107 237.54688 308.64194 237.54688Q309.72006 237.54688 310.3763 238.10938Q311.0482 238.65625 311.0482 239.51562L309.97006 239.51562Q309.97006 239.07812 309.57944 238.76562Q309.20444 238.4375 308.64194 238.4375Q308.0482 238.4375 307.70444 238.70312Q307.3763 238.95312 307.3763 239.35938Q307.3763 239.75 307.6888 239.95312Q308.0013 240.15625 308.8138 240.34375Q309.6263 240.51562 310.1263 240.76562Q310.6263 241.01562 310.8607 241.375Q311.1107 241.73438 311.1107 242.23438Q311.1107 243.09375 310.4232 243.60938Q309.7513 244.125 308.6732 244.125Q307.90756 244.125 307.3138 243.85938Q306.7357 243.57812 306.40756 243.09375Q306.07944 242.60938 306.07944 242.04688L307.15756 242.04688Q307.1888 242.59375 307.59506 242.92188Q308.0013 243.23438 308.6732 243.23438Q309.28256 243.23438 309.65756 242.98438Q310.03256 242.73438 310.03256 242.3125Z" fill-rule="nonzero"/><path fill="#757575" d="M360.13718 241.14062L361.32468 241.14062L361.32468 242.01562L360.13718 242.01562L360.13718 244.0L359.05905 244.0L359.05905 242.01562L355.16843 242.01562L355.16843 241.375L358.98093 235.46875L360.13718 235.46875L360.13718 241.14062ZM356.4028 241.14062L359.05905 241.14062L359.05905 236.95312L358.91843 237.1875L356.4028 241.14062ZM366.69968 237.65625L366.73093 238.35938Q367.41843 237.54688 368.60593 237.54688Q369.93405 237.54688 370.41843 238.5625Q370.73093 238.10938 371.23093 237.82812Q371.74655 237.54688 372.43405 237.54688Q374.5278 237.54688 374.55905 239.75L374.55905 244.0L373.48093 244.0L373.48093 239.8125Q373.48093 239.14062 373.16843 238.8125Q372.85593 238.46875 372.12155 238.46875Q371.51218 238.46875 371.10593 238.82812Q370.7153 239.1875 370.6528 239.79688L370.6528 244.0L369.57468 244.0L369.57468 239.84375Q369.57468 238.46875 368.2153 238.46875Q367.1528 238.46875 366.76218 239.375L366.76218 244.0L365.66843 244.0L365.66843 237.65625L366.69968 237.65625ZM380.37155 242.3125Q380.37155 241.875 380.0278 241.64062Q379.69968 241.39062 378.87155 241.21875Q378.05905 241.04688 377.57468 240.79688Q377.0903 240.54688 376.85593 240.21875Q376.63718 239.875 376.63718 239.40625Q376.63718 238.625 377.29343 238.09375Q377.94968 237.54688 378.98093 237.54688Q380.05905 237.54688 380.7153 238.10938Q381.38718 238.65625 381.38718 239.51562L380.30905 239.51562Q380.30905 239.07812 379.91843 238.76562Q379.54343 238.4375 378.98093 238.4375Q378.38718 238.4375 378.04343 238.70312Q377.7153 238.95312 377.7153 239.35938Q377.7153 239.75 378.0278 239.95312Q378.3403 240.15625 379.1528 240.34375Q379.9653 240.51562 380.4653 240.76562Q380.9653 241.01562 381.19968 241.375Q381.44968 241.73438 381.44968 242.23438Q381.44968 243.09375 380.76218 243.60938Q380.0903 244.125 379.01218 244.125Q378.24655 244.125 377.6528 243.85938Q377.07468 243.57812 376.74655 243.09375Q376.41843 242.60938 376.41843 242.04688L377.49655 242.04688Q377.5278 242.59375 377.93405 242.92188Q378.3403 243.23438 379.01218 243.23438Q379.62155 243.23438 379.99655 242.98438Q380.37155 242.73438 380.37155 242.3125Z" fill-rule="nonzero"/><path fill="#757575" d="M426.39804 239.71875L426.83554 235.46875L431.21054 235.46875L431.21054 236.46875L427.75742 236.46875L427.4918 238.79688Q428.13242 238.42188 428.9293 238.42188Q430.08554 238.42188 430.77304 239.20312Q431.46054 239.96875 431.46054 241.28125Q431.46054 242.59375 430.7418 243.35938Q430.03867 244.125 428.75742 244.125Q427.63242 244.125 426.91367 243.5Q426.19492 242.85938 426.10117 241.75L427.1168 241.75Q427.22617 242.48438 427.64804 242.85938Q428.06992 243.23438 428.75742 243.23438Q429.50742 243.23438 429.94492 242.71875Q430.38242 242.20312 430.38242 241.29688Q430.38242 240.4375 429.91367 239.92188Q429.44492 239.40625 428.66367 239.40625Q427.96054 239.40625 427.5543 239.70312L427.27304 239.9375L426.39804 239.71875ZM437.03867 237.65625L437.06992 238.35938Q437.75742 237.54688 438.94492 237.54688Q440.27304 237.54688 440.75742 238.5625Q441.06992 238.10938 441.56992 237.82812Q442.08554 237.54688 442.77304 237.54688Q444.8668 237.54688 444.89804 239.75L444.89804 244.0L443.81992 244.0L443.81992 239.8125Q443.81992 239.14062 443.50742 238.8125Q443.19492 238.46875 442.46054 238.46875Q441.85117 238.46875 441.44492 238.82812Q441.0543 239.1875 440.9918 239.79688L440.9918 244.0L439.91367 244.0L439.91367 239.84375Q439.91367 238.46875 438.5543 238.46875Q437.4918 238.46875 437.10117 239.375L437.10117 244.0L436.00742 244.0L436.00742 237.65625L437.03867 237.65625ZM450.71054 242.3125Q450.71054 241.875 450.3668 241.64062Q450.03867 241.39062 449.21054 241.21875Q448.39804 241.04688 447.91367 240.79688Q447.4293 240.54688 447.19492 240.21875Q446.97617 239.875 446.97617 239.40625Q446.97617 238.625 447.63242 238.09375Q448.28867 237.54688 449.31992 237.54688Q450.39804 237.54688 451.0543 238.10938Q451.72617 238.65625 451.72617 239.51562L450.64804 239.51562Q450.64804 239.07812 450.25742 238.76562Q449.88242 238.4375 449.31992 238.4375Q448.72617 238.4375 448.38242 238.70312Q448.0543 238.95312 448.0543 239.35938Q448.0543 239.75 448.3668 239.95312Q448.6793 240.15625 449.4918 240.34375Q450.3043 240.51562 450.8043 240.76562Q451.3043 241.01562 451.53867 241.375Q451.78867 241.73438 451.78867 242.23438Q451.78867 243.09375 451.10117 243.60938Q450.4293 244.125 449.35117 244.125Q448.58554 244.125 447.9918 243.85938Q447.41367 243.57812 447.08554 243.09375Q446.75742 242.60938 446.75742 242.04688L447.83554 242.04688Q447.8668 242.59375 448.27304 242.92188Q448.6793 243.23438 449.35117 243.23438Q449.96054 243.23438 450.33554 242.98438Q450.71054 242.73438 450.71054 242.3125Z" fill-rule="nonzero"/></svg>