<svg version="1.1" viewBox="0.0 0.0 515.0 251.0" fill="none" stroke="none" stroke-linecap="square" stroke-miterlimit="10" width="515" height="251" xmlns:xlink="http://www.w3.org/1999/xlink" xmlns="http://www.w3.org/2000/svg"><path fill="#ffffff" d="M0 0L515.0 0L515.0 251.0L0 251.0L0 0Z" fill-rule="nonzero"/><path fill="#ffffff" d="M0 0L515.0 0L515.0 251.0L0 251.0L0 0Z" fill-rule="nonzero"/><path stroke="#333333" stroke-width="1.0" stroke-linecap="butt" d="M86.5 12.5L86.5 217.5" fill-rule="nonzero"/><path stroke="#cccccc" stroke-width="1.0" stroke-linecap="butt" d="M157.5 12.5L157.5 217.5" fill-rule="nonzero"/><path stroke="#cccccc" stroke-width="1.0" stroke-linecap="butt" d="M227.5 12.5L227.5 217.5" fill-rule="nonzero"/><path stroke="#cccccc" stroke-width="1.0" stroke-linecap="butt" d="M298.5 12.5L298.5 217.5" fill-rule="nonzero"/><path stroke="#cccccc" stroke-width="1.0" stroke-linecap="butt" d="M368.5 12.5L368.5 217.5" fill-rule="nonzero"/><path stroke="#cccccc" stroke-width="1.0" stroke-linecap="butt" d="M439.5 12.5L439.5 217.5" fill-rule="nonzero"/><clipPath id="id_0"><path d="M86.55 12.55L502.45 12.55L502.45 217.45L86.55 217.45L86.55 12.55Z" clip-rule="nonzero"/></clipPath><path stroke="#000000" stroke-width="0.0" stroke-linecap="butt" stroke-opacity="0.0" clip-path="url(#id_0)" d="M87.0 51.0L87.0 26.0L162.0 26.0C163.10457 26.0 164.0 26.89543 164.0 28.0L164.0 49.0C164.0 50.10457 163.10457 51.0 162.0 51.0Z" fill-rule="nonzero"/><path fill="#b0ebf3" clip-path="url(#id_0)" d="M87.0 51.0L87.0 26.0L162.0 26.0C163.10457 26.0 164.0 26.89543 164.0 28.0L164.0 49.0C164.0 50.10457 163.10457 51.0 162.0 51.0Z" fill-rule="nonzero"/><path stroke="#000000" stroke-width="0.0" stroke-linecap="butt" stroke-opacity="0.0" clip-path="url(#id_0)" d="M87.0 90.0L87.0 65.0L218.0 65.0C219.10457 65.0 220.0 65.89543 220.0 67.0L220.0 88.0C220.0 89.10457 219.10457 90.0 218.0 90.0Z" fill-rule="nonzero"/><path fill="#87d1c3" clip-path="url(#id_0)" d="M87.0 90.0L87.0 65.0L218.0 65.0C219.10457 65.0 220.0 65.89543 220.0 67.0L220.0 88.0C220.0 89.10457 219.10457 90.0 218.0 90.0Z" fill-rule="nonzero"/><path stroke="#000000" stroke-width="0.0" stroke-linecap="butt" stroke-opacity="0.0" clip-path="url(#id_0)" d="M87.0 128.0L87.0 103.0L296.0 103.0C297.10458 103.0 298.0 103.89543 298.0 105.0L298.0 126.0C298.0 127.10457 297.10458 128.0 296.0 128.0Z" fill-rule="nonzero"/><path fill="#87d1c3" clip-path="url(#id_0)" d="M87.0 128.0L87.0 103.0L296.0 103.0C297.10458 103.0 298.0 103.89543 298.0 105.0L298.0 126.0C298.0 127.10457 297.10458 128.0 296.0 128.0Z" fill-rule="nonzero"/><path stroke="#000000" stroke-width="0.0" stroke-linecap="butt" stroke-opacity="0.0" clip-path="url(#id_0)" d="M87.0 166.0L87.0 141.0L374.0 141.0C375.10458 141.0 376.0 141.89543 376.0 143.0L376.0 164.0C376.0 165.10457 375.10458 166.0 374.0 166.0Z" fill-rule="nonzero"/><path fill="#a6dc6c" clip-path="url(#id_0)" d="M87.0 166.0L87.0 141.0L374.0 141.0C375.10458 141.0 376.0 141.89543 376.0 143.0L376.0 164.0C376.0 165.10457 375.10458 166.0 374.0 166.0Z" fill-rule="nonzero"/><path stroke="#000000" stroke-width="0.0" stroke-linecap="butt" stroke-opacity="0.0" clip-path="url(#id_0)" d="M87.0 205.0L87.0 180.0L500.0 180.0C501.10458 180.0 502.0 180.89543 502.0 182.0L502.0 203.0C502.0 204.10457 501.10458 205.0 500.0 205.0Z" fill-rule="nonzero"/><path fill="#ffa2a2" clip-path="url(#id_0)" d="M87.0 205.0L87.0 180.0L500.0 180.0C501.10458 180.0 502.0 180.89543 502.0 182.0L502.0 203.0C502.0 204.10457 501.10458 205.0 500.0 205.0Z" fill-rule="nonzero"/><path stroke="#b0ebf3" stroke-width="3.0" stroke-linejoin="round" stroke-linecap="round" d="M146.5563 42.5L145.47818 42.5L145.47818 35.28125L143.29068 36.078125L143.29068 35.09375L146.40005 33.921875L146.5563 33.921875L146.5563 42.5ZM150.13443 41.9375Q150.13443 41.65625 150.29068 41.46875Q150.46255 41.28125 150.79068 41.28125Q151.13443 41.28125 151.3063 41.46875Q151.47818 41.65625 151.47818 41.9375Q151.47818 42.203125 151.3063 42.390625Q151.13443 42.5625 150.79068 42.5625Q150.46255 42.5625 150.29068 42.390625Q150.13443 42.203125 150.13443 41.9375ZM156.5563 42.5L155.47818 42.5L155.47818 35.28125L153.29068 36.078125L153.29068 35.09375L156.40005 33.921875L156.5563 33.921875L156.5563 42.5Z" fill-rule="nonzero"/><path fill="#000000" d="M146.5563 42.5L145.47818 42.5L145.47818 35.28125L143.29068 36.078125L143.29068 35.09375L146.40005 33.921875L146.5563 33.921875L146.5563 42.5ZM150.13443 41.9375Q150.13443 41.65625 150.29068 41.46875Q150.46255 41.28125 150.79068 41.28125Q151.13443 41.28125 151.3063 41.46875Q151.47818 41.65625 151.47818 41.9375Q151.47818 42.203125 151.3063 42.390625Q151.13443 42.5625 150.79068 42.5625Q150.46255 42.5625 150.29068 42.390625Q150.13443 42.203125 150.13443 41.9375ZM156.5563 42.5L155.47818 42.5L155.47818 35.28125L153.29068 36.078125L153.29068 35.09375L156.40005 33.921875L156.5563 33.921875L156.5563 42.5Z" fill-rule="nonzero"/><path stroke="#87d1c3" stroke-width="3.0" stroke-linejoin="round" stroke-linecap="round" d="M202.94952 81.5L201.8714 81.5L201.8714 74.28125L199.6839 75.078125L199.6839 74.09375L202.79327 72.921875L202.94952 72.921875L202.94952 81.5ZM206.52765 80.9375Q206.52765 80.65625 206.6839 80.46875Q206.85577 80.28125 207.1839 80.28125Q207.52765 80.28125 207.69952 80.46875Q207.8714 80.65625 207.8714 80.9375Q207.8714 81.203125 207.69952 81.390625Q207.52765 81.5625 207.1839 81.5625Q206.85577 81.5625 206.6839 81.390625Q206.52765 81.203125 206.52765 80.9375ZM213.54327 77.75Q213.21515 78.15625 212.73077 78.40625Q212.26202 78.640625 211.69952 78.640625Q210.96515 78.640625 210.41827 78.28125Q209.8714 77.921875 209.57452 77.265625Q209.27765 76.59375 209.27765 75.796875Q209.27765 74.953125 209.59015 74.265625Q209.91827 73.578125 210.51202 73.21875Q211.1214 72.84375 211.91827 72.84375Q213.1839 72.84375 213.90265 73.796875Q214.63702 74.75 214.63702 76.375L214.63702 76.6875Q214.63702 79.1875 213.65265 80.328125Q212.66827 81.46875 210.6839 81.5L210.46515 81.5L210.46515 80.59375L210.69952 80.59375Q212.04327 80.5625 212.76202 79.890625Q213.48077 79.21875 213.54327 77.75ZM211.8714 77.75Q212.41827 77.75 212.8714 77.421875Q213.34015 77.078125 213.5589 76.59375L213.5589 76.15625Q213.5589 75.09375 213.09015 74.421875Q212.6214 73.75 211.91827 73.75Q211.19952 73.75 210.76202 74.296875Q210.34015 74.84375 210.34015 75.75Q210.34015 76.625 210.7464 77.1875Q211.16827 77.75 211.8714 77.75Z" fill-rule="nonzero"/><path fill="#000000" d="M202.94952 81.5L201.8714 81.5L201.8714 74.28125L199.6839 75.078125L199.6839 74.09375L202.79327 72.921875L202.94952 72.921875L202.94952 81.5ZM206.52765 80.9375Q206.52765 80.65625 206.6839 80.46875Q206.85577 80.28125 207.1839 80.28125Q207.52765 80.28125 207.69952 80.46875Q207.8714 80.65625 207.8714 80.9375Q207.8714 81.203125 207.69952 81.390625Q207.52765 81.5625 207.1839 81.5625Q206.85577 81.5625 206.6839 81.390625Q206.52765 81.203125 206.52765 80.9375ZM213.54327 77.75Q213.21515 78.15625 212.73077 78.40625Q212.26202 78.640625 211.69952 78.640625Q210.96515 78.640625 210.41827 78.28125Q209.8714 77.921875 209.57452 77.265625Q209.27765 76.59375 209.27765 75.796875Q209.27765 74.953125 209.59015 74.265625Q209.91827 73.578125 210.51202 73.21875Q211.1214 72.84375 211.91827 72.84375Q213.1839 72.84375 213.90265 73.796875Q214.63702 74.75 214.63702 76.375L214.63702 76.6875Q214.63702 79.1875 213.65265 80.328125Q212.66827 81.46875 210.6839 81.5L210.46515 81.5L210.46515 80.59375L210.69952 80.59375Q212.04327 80.5625 212.76202 79.890625Q213.48077 79.21875 213.54327 77.75ZM211.8714 77.75Q212.41827 77.75 212.8714 77.421875Q213.34015 77.078125 213.5589 76.59375L213.5589 76.15625Q213.5589 75.09375 213.09015 74.421875Q212.6214 73.75 211.91827 73.75Q211.19952 73.75 210.76202 74.296875Q210.34015 74.84375 210.34015 75.75Q210.34015 76.625 210.7464 77.1875Q211.16827 77.75 211.8714 77.75Z" fill-rule="nonzero"/><path stroke="#87d1c3" stroke-width="3.0" stroke-linejoin="round" stroke-linecap="round" d="M288.50583 114.703125L289.31833 114.703125Q290.09958 114.6875 290.53708 114.296875Q290.97458 113.90625 290.97458 113.234375Q290.97458 111.734375 289.47458 111.734375Q288.77145 111.734375 288.34958 112.140625Q287.94333 112.546875 287.94333 113.203125L286.84958 113.203125Q286.84958 112.1875 287.58395 111.515625Q288.33395 110.84375 289.47458 110.84375Q290.6777 110.84375 291.3652 111.484375Q292.0527 112.125 292.0527 113.265625Q292.0527 113.828125 291.69333 114.34375Q291.33395 114.859375 290.70895 115.125Q291.41208 115.34375 291.78708 115.859375Q292.1777 116.375 292.1777 117.125Q292.1777 118.265625 291.4277 118.953125Q290.6777 119.625 289.47458 119.625Q288.28708 119.625 287.52145 118.96875Q286.77145 118.3125 286.77145 117.25L287.8652 117.25Q287.8652 117.921875 288.3027 118.328125Q288.7402 118.734375 289.4902 118.734375Q290.27145 118.734375 290.6777 118.328125Q291.09958 117.90625 291.09958 117.140625Q291.09958 116.40625 290.64645 116.015625Q290.19333 115.609375 289.31833 115.59375L288.50583 115.59375L288.50583 114.703125Z" fill-rule="nonzero"/><path fill="#000000" d="M288.50583 114.703125L289.31833 114.703125Q290.09958 114.6875 290.53708 114.296875Q290.97458 113.90625 290.97458 113.234375Q290.97458 111.734375 289.47458 111.734375Q288.77145 111.734375 288.34958 112.140625Q287.94333 112.546875 287.94333 113.203125L286.84958 113.203125Q286.84958 112.1875 287.58395 111.515625Q288.33395 110.84375 289.47458 110.84375Q290.6777 110.84375 291.3652 111.484375Q292.0527 112.125 292.0527 113.265625Q292.0527 113.828125 291.69333 114.34375Q291.33395 114.859375 290.70895 115.125Q291.41208 115.34375 291.78708 115.859375Q292.1777 116.375 292.1777 117.125Q292.1777 118.265625 291.4277 118.953125Q290.6777 119.625 289.47458 119.625Q288.28708 119.625 287.52145 118.96875Q286.77145 118.3125 286.77145 117.25L287.8652 117.25Q287.8652 117.921875 288.3027 118.328125Q288.7402 118.734375 289.4902 118.734375Q290.27145 118.734375 290.6777 118.328125Q291.09958 117.90625 291.09958 117.140625Q291.09958 116.40625 290.64645 116.015625Q290.19333 115.609375 289.31833 115.59375L288.50583 115.59375L288.50583 114.703125Z" fill-rule="nonzero"/><path stroke="#a6dc6c" stroke-width="3.0" stroke-linejoin="round" stroke-linecap="round" d="M359.0465 154.64062L360.234 154.64062L360.234 155.51562L359.0465 155.51562L359.0465 157.5L357.96838 157.5L357.96838 155.51562L354.07776 155.51562L354.07776 154.875L357.89026 148.96875L359.0465 148.96875L359.0465 154.64062ZM355.31213 154.64062L357.96838 154.64062L357.96838 150.45312L357.82776 150.6875L355.31213 154.64062ZM361.609 156.9375Q361.609 156.65625 361.76526 156.46875Q361.93713 156.28125 362.26526 156.28125Q362.609 156.28125 362.78088 156.46875Q362.95276 156.65625 362.95276 156.9375Q362.95276 157.20312 362.78088 157.39062Q362.609 157.5625 362.26526 157.5625Q361.93713 157.5625 361.76526 157.39062Q361.609 157.20312 361.609 156.9375ZM368.03088 157.5L366.95276 157.5L366.95276 150.28125L364.76526 151.07812L364.76526 150.09375L367.87463 148.92188L368.03088 148.92188L368.03088 157.5Z" fill-rule="nonzero"/><path fill="#000000" d="M359.0465 154.64062L360.234 154.64062L360.234 155.51562L359.0465 155.51562L359.0465 157.5L357.96838 157.5L357.96838 155.51562L354.07776 155.51562L354.07776 154.875L357.89026 148.96875L359.0465 148.96875L359.0465 154.64062ZM355.31213 154.64062L357.96838 154.64062L357.96838 150.45312L357.82776 150.6875L355.31213 154.64062ZM361.609 156.9375Q361.609 156.65625 361.76526 156.46875Q361.93713 156.28125 362.26526 156.28125Q362.609 156.28125 362.78088 156.46875Q362.95276 156.65625 362.95276 156.9375Q362.95276 157.20312 362.78088 157.39062Q362.609 157.5625 362.26526 157.5625Q361.93713 157.5625 361.76526 157.39062Q361.609 157.20312 361.609 156.9375ZM368.03088 157.5L366.95276 157.5L366.95276 150.28125L364.76526 151.07812L364.76526 150.09375L367.87463 148.92188L368.03088 148.92188L368.03088 157.5Z" fill-rule="nonzero"/><path stroke="#ffa2a2" stroke-width="3.0" stroke-linejoin="round" stroke-linecap="round" d="M481.85312 192.21875L482.29062 187.96875L486.66562 187.96875L486.66562 188.96875L483.2125 188.96875L482.94687 191.29688Q483.5875 190.92188 484.38437 190.92188Q485.54062 190.92188 486.22812 191.70312Q486.91562 192.46875 486.91562 193.78125Q486.91562 195.09375 486.19687 195.85938Q485.49374 196.625 484.2125 196.625Q483.0875 196.625 482.36874 196.0Q481.65 195.35938 481.55624 194.25L482.57187 194.25Q482.68124 194.98438 483.10312 195.35938Q483.525 195.73438 484.2125 195.73438Q484.9625 195.73438 485.4 195.21875Q485.8375 194.70312 485.8375 193.79688Q485.8375 192.9375 485.36874 192.42188Q484.9 191.90625 484.11874 191.90625Q483.41562 191.90625 483.00937 192.20312L482.72812 192.4375L481.85312 192.21875ZM488.49374 195.9375Q488.49374 195.65625 488.65 195.46875Q488.82187 195.28125 489.15 195.28125Q489.49374 195.28125 489.66562 195.46875Q489.8375 195.65625 489.8375 195.9375Q489.8375 196.20312 489.66562 196.39062Q489.49374 196.5625 489.15 196.5625Q488.82187 196.5625 488.65 196.39062Q488.49374 196.20312 488.49374 195.9375ZM495.50937 192.75Q495.18124 193.15625 494.69687 193.40625Q494.22812 193.64062 493.66562 193.64062Q492.93124 193.64062 492.38437 193.28125Q491.8375 192.92188 491.54062 192.26562Q491.24374 191.59375 491.24374 190.79688Q491.24374 189.95312 491.55624 189.26562Q491.88437 188.57812 492.47812 188.21875Q493.0875 187.84375 493.88437 187.84375Q495.15 187.84375 495.86874 188.79688Q496.60312 189.75 496.60312 191.375L496.60312 191.6875Q496.60312 194.1875 495.61874 195.32812Q494.63437 196.46875 492.65 196.5L492.43124 196.5L492.43124 195.59375L492.66562 195.59375Q494.00937 195.5625 494.72812 194.89062Q495.44687 194.21875 495.50937 192.75ZM493.8375 192.75Q494.38437 192.75 494.8375 192.42188Q495.30624 192.07812 495.525 191.59375L495.525 191.15625Q495.525 190.09375 495.05624 189.42188Q494.5875 188.75 493.88437 188.75Q493.16562 188.75 492.72812 189.29688Q492.30624 189.84375 492.30624 190.75Q492.30624 191.625 492.7125 192.1875Q493.13437 192.75 493.8375 192.75Z" fill-rule="nonzero"/><path fill="#000000" d="M481.85312 192.21875L482.29062 187.96875L486.66562 187.96875L486.66562 188.96875L483.2125 188.96875L482.94687 191.29688Q483.5875 190.92188 484.38437 190.92188Q485.54062 190.92188 486.22812 191.70312Q486.91562 192.46875 486.91562 193.78125Q486.91562 195.09375 486.19687 195.85938Q485.49374 196.625 484.2125 196.625Q483.0875 196.625 482.36874 196.0Q481.65 195.35938 481.55624 194.25L482.57187 194.25Q482.68124 194.98438 483.10312 195.35938Q483.525 195.73438 484.2125 195.73438Q484.9625 195.73438 485.4 195.21875Q485.8375 194.70312 485.8375 193.79688Q485.8375 192.9375 485.36874 192.42188Q484.9 191.90625 484.11874 191.90625Q483.41562 191.90625 483.00937 192.20312L482.72812 192.4375L481.85312 192.21875ZM488.49374 195.9375Q488.49374 195.65625 488.65 195.46875Q488.82187 195.28125 489.15 195.28125Q489.49374 195.28125 489.66562 195.46875Q489.8375 195.65625 489.8375 195.9375Q489.8375 196.20312 489.66562 196.39062Q489.49374 196.5625 489.15 196.5625Q488.82187 196.5625 488.65 196.39062Q488.49374 196.20312 488.49374 195.9375ZM495.50937 192.75Q495.18124 193.15625 494.69687 193.40625Q494.22812 193.64062 493.66562 193.64062Q492.93124 193.64062 492.38437 193.28125Q491.8375 192.92188 491.54062 192.26562Q491.24374 191.59375 491.24374 190.79688Q491.24374 189.95312 491.55624 189.26562Q491.88437 188.57812 492.47812 188.21875Q493.0875 187.84375 493.88437 187.84375Q495.15 187.84375 495.86874 188.79688Q496.60312 189.75 496.60312 191.375L496.60312 191.6875Q496.60312 194.1875 495.61874 195.32812Q494.63437 196.46875 492.65 196.5L492.43124 196.5L492.43124 195.59375L492.66562 195.59375Q494.00937 195.5625 494.72812 194.89062Q495.44687 194.21875 495.50937 192.75ZM493.8375 192.75Q494.38437 192.75 494.8375 192.42188Q495.30624 192.07812 495.525 191.59375L495.525 191.15625Q495.525 190.09375 495.05624 189.42188Q494.5875 188.75 493.88437 188.75Q493.16562 188.75 492.72812 189.29688Q492.30624 189.84375 492.30624 190.75Q492.30624 191.625 492.7125 192.1875Q493.13437 192.75 493.8375 192.75Z" fill-rule="nonzero"/><path fill="#757575" d="M25.05 39.104996Q23.6125 38.68312 22.940624 38.073746Q22.284374 37.46437 22.284374 36.573746Q22.284374 35.573746 23.08125 34.917496Q23.89375 34.24562 25.190624 34.24562Q26.065624 34.24562 26.753124 34.58937Q27.440624 34.93312 27.815624 35.52687Q28.20625 36.12062 28.20625 36.83937L27.065624 36.83937Q27.065624 36.05812 26.565624 35.62062Q26.08125 35.18312 25.190624 35.18312Q24.3625 35.18312 23.89375 35.55812Q23.425 35.917496 23.425 36.55812Q23.425 37.08937 23.8625 37.448746Q24.315624 37.80812 25.378124 38.104996Q26.440624 38.40187 27.034374 38.761246Q27.64375 39.12062 27.925 39.604996Q28.221874 40.08937 28.221874 40.729996Q28.221874 41.77687 27.409374 42.40187Q26.596874 43.02687 25.253124 43.02687Q24.3625 43.02687 23.596874 42.68312Q22.846874 42.33937 22.425 41.761246Q22.01875 41.167496 22.01875 40.43312L23.14375 40.43312Q23.14375 41.198746 23.721874 41.65187Q24.3 42.104996 25.253124 42.104996Q26.14375 42.104996 26.6125 41.74562Q27.08125 41.37062 27.08125 40.74562Q27.08125 40.12062 26.64375 39.77687Q26.20625 39.43312 25.05 39.104996ZM31.440624 41.30812L32.925 36.55812L34.08125 36.55812L31.534374 43.886246Q30.940624 45.46437 29.659374 45.46437L29.440624 45.448746L29.05 45.37062L29.05 44.49562L29.33125 44.511246Q29.89375 44.511246 30.190624 44.292496Q30.503124 44.073746 30.70625 43.479996L30.940624 42.823746L28.675 36.55812L29.8625 36.55812L31.440624 41.30812ZM36.39375 36.55812L36.425 37.261246Q37.1125 36.448746 38.3 36.448746Q39.628124 36.448746 40.1125 37.46437Q40.425 37.011246 40.925 36.729996Q41.440624 36.448746 42.128124 36.448746Q44.221874 36.448746 44.253124 38.65187L44.253124 42.90187L43.175 42.90187L43.175 38.71437Q43.175 38.042496 42.8625 37.71437Q42.55 37.37062 41.815624 37.37062Q41.20625 37.37062 40.8 37.729996Q40.409374 38.08937 40.346874 38.698746L40.346874 42.90187L39.26875 42.90187L39.26875 38.74562Q39.26875 37.37062 37.909374 37.37062Q36.846874 37.37062 36.45625 38.27687L36.45625 42.90187L35.3625 42.90187L35.3625 36.55812L36.39375 36.55812ZM47.55 42.90187L46.471874 42.90187L46.471874 33.90187L47.55 33.90187L47.55 42.90187ZM52.003124 43.02687Q50.70625 43.02687 49.89375 42.18312Q49.096874 41.323746 49.096874 39.90187L49.096874 39.71437Q49.096874 38.761246 49.45625 38.02687Q49.815624 37.27687 50.45625 36.87062Q51.1125 36.448746 51.8625 36.448746Q53.096874 36.448746 53.784374 37.261246Q54.471874 38.073746 54.471874 39.58937L54.471874 40.042496L50.175 40.042496Q50.20625 40.979996 50.721874 41.55812Q51.253124 42.136246 52.065624 42.136246Q52.628124 42.136246 53.01875 41.90187Q53.425 41.667496 53.7375 41.27687L54.39375 41.792496Q53.596874 43.02687 52.003124 43.02687ZM51.8625 37.33937Q51.20625 37.33937 50.753124 37.823746Q50.315624 38.292496 50.221874 39.15187L53.39375 39.15187L53.39375 39.073746Q53.346874 38.24562 52.940624 37.792496Q52.55 37.33937 51.8625 37.33937ZM57.503124 38.87062L58.909374 36.55812L60.175 36.55812L58.096874 39.698746L60.2375 42.90187L58.9875 42.90187L57.51875 40.52687L56.05 42.90187L54.784374 42.90187L56.925 39.698746L54.8625 36.55812L56.1125 36.55812L57.503124 38.87062ZM68.83125 40.042496L70.01875 40.042496L70.01875 40.917496L68.83125 40.917496L68.83125 42.90187L67.75313 42.90187L67.75313 40.917496L63.8625 40.917496L63.8625 40.27687L67.675 34.37062L68.83125 34.37062L68.83125 40.042496ZM65.09688 40.042496L67.75313 40.042496L67.75313 35.854996L67.6125 36.08937L65.09688 40.042496ZM71.39375 42.33937Q71.39375 42.05812 71.55 41.87062Q71.72188 41.68312 72.05 41.68312Q72.39375 41.68312 72.56563 41.87062Q72.7375 42.05812 72.7375 42.33937Q72.7375 42.604996 72.56563 42.792496Q72.39375 42.96437 72.05 42.96437Q71.72188 42.96437 71.55 42.792496Q71.39375 42.604996 71.39375 42.33937ZM77.81563 42.90187L76.7375 42.90187L76.7375 35.68312L74.55 36.479996L74.55 35.49562L77.65938 34.323746L77.81563 34.323746L77.81563 42.90187Z" fill-rule="nonzero"/><path fill="#757575" d="M16.05 77.40406Q14.6125 76.982185 13.940625 76.37281Q13.284375 75.763435 13.284375 74.87281Q13.284375 73.87281 14.08125 73.21656Q14.89375 72.544685 16.190624 72.544685Q17.065624 72.544685 17.753124 72.888435Q18.440624 73.232185 18.815624 73.825935Q19.20625 74.419685 19.20625 75.138435L18.065624 75.138435Q18.065624 74.357185 17.565624 73.919685Q17.08125 73.482185 16.190624 73.482185Q15.3625 73.482185 14.89375 73.857185Q14.425 74.21656 14.425 74.857185Q14.425 75.388435 14.8625 75.74781Q15.315625 76.107185 16.378124 76.40406Q17.440624 76.700935 18.034374 77.06031Q18.64375 77.419685 18.925 77.90406Q19.221874 78.388435 19.221874 79.02906Q19.221874 80.075935 18.409374 80.700935Q17.596874 81.325935 16.253124 81.325935Q15.3625 81.325935 14.596875 80.982185Q13.846875 80.638435 13.425 80.06031Q13.01875 79.46656 13.01875 78.732185L14.14375 78.732185Q14.14375 79.49781 14.721875 79.950935Q15.3 80.40406 16.253124 80.40406Q17.14375 80.40406 17.6125 80.044685Q18.08125 79.669685 18.08125 79.044685Q18.08125 78.419685 17.64375 78.075935Q17.20625 77.732185 16.05 77.40406ZM22.440624 79.607185L23.925 74.857185L25.08125 74.857185L22.534374 82.18531Q21.940624 83.763435 20.659374 83.763435L20.440624 83.74781L20.05 83.669685L20.05 82.794685L20.33125 82.81031Q20.89375 82.81031 21.190624 82.59156Q21.503124 82.37281 21.70625 81.77906L21.940624 81.12281L19.675 74.857185L20.8625 74.857185L22.440624 79.607185ZM27.39375 74.857185L27.425 75.56031Q28.1125 74.74781 29.3 74.74781Q30.628124 74.74781 31.1125 75.763435Q31.425 75.31031 31.925 75.02906Q32.440624 74.74781 33.128124 74.74781Q35.221874 74.74781 35.253124 76.950935L35.253124 81.200935L34.175 81.200935L34.175 77.013435Q34.175 76.34156 33.8625 76.013435Q33.55 75.669685 32.815624 75.669685Q32.20625 75.669685 31.8 76.02906Q31.409374 76.388435 31.346874 76.99781L31.346874 81.200935L30.26875 81.200935L30.26875 77.044685Q30.26875 75.669685 28.909374 75.669685Q27.846874 75.669685 27.45625 76.575935L27.45625 81.200935L26.3625 81.200935L26.3625 74.857185L27.39375 74.857185ZM37.909374 81.200935L37.909374 75.700935L36.909374 75.700935L36.909374 74.857185L37.909374 74.857185L37.909374 74.21656Q37.909374 73.18531 38.440624 72.638435Q38.9875 72.075935 39.9875 72.075935Q40.3625 72.075935 40.7375 72.169685L40.675 73.06031Q40.39375 72.99781 40.096874 72.99781Q39.565624 72.99781 39.26875 73.31031Q38.9875 73.62281 38.9875 74.18531L38.9875 74.857185L40.346874 74.857185L40.346874 75.700935L38.9875 75.700935L38.9875 81.200935L37.909374 81.200935ZM41.08125 77.96656Q41.08125 77.044685 41.440624 76.294685Q41.815624 75.544685 42.471874 75.15406Q43.128124 74.74781 43.95625 74.74781Q45.253124 74.74781 46.05 75.638435Q46.8625 76.52906 46.8625 78.02906L46.8625 78.107185Q46.8625 79.02906 46.503124 79.763435Q46.14375 80.49781 45.4875 80.919685Q44.83125 81.325935 43.971874 81.325935Q42.690624 81.325935 41.878124 80.43531Q41.08125 79.52906 41.08125 78.044685L41.08125 77.96656ZM42.175 78.107185Q42.175 79.15406 42.659374 79.794685Q43.159374 80.43531 43.971874 80.43531Q44.8 80.43531 45.284374 79.794685Q45.76875 79.138435 45.76875 77.96656Q45.76875 76.93531 45.26875 76.294685Q44.784374 75.638435 43.95625 75.638435Q43.159374 75.638435 42.659374 76.27906Q42.175 76.90406 42.175 78.107185ZM49.39375 74.857185L49.425 75.65406Q50.159374 74.74781 51.33125 74.74781Q53.346874 74.74781 53.3625 77.013435L53.3625 81.200935L52.26875 81.200935L52.26875 76.99781Q52.26875 76.325935 51.95625 75.99781Q51.659374 75.669685 51.003124 75.669685Q50.471874 75.669685 50.065624 75.950935Q49.675 76.232185 49.45625 76.68531L49.45625 81.200935L48.378124 81.200935L48.378124 74.857185L49.39375 74.857185ZM57.440624 79.607185L58.925 74.857185L60.08125 74.857185L57.534374 82.18531Q56.940624 83.763435 55.659374 83.763435L55.440624 83.74781L55.05 83.669685L55.05 82.794685L55.33125 82.81031Q55.89375 82.81031 56.190624 82.59156Q56.503124 82.37281 56.70625 81.77906L56.940624 81.12281L54.675 74.857185L55.8625 74.857185L57.440624 79.607185ZM68.83125 78.34156L70.01875 78.34156L70.01875 79.21656L68.83125 79.21656L68.83125 81.200935L67.75313 81.200935L67.75313 79.21656L63.8625 79.21656L63.8625 78.575935L67.675 72.669685L68.83125 72.669685L68.83125 78.34156ZM65.09688 78.34156L67.75313 78.34156L67.75313 74.15406L67.6125 74.388435L65.09688 78.34156ZM71.39375 80.638435Q71.39375 80.357185 71.55 80.169685Q71.72188 79.982185 72.05 79.982185Q72.39375 79.982185 72.56563 80.169685Q72.7375 80.357185 72.7375 80.638435Q72.7375 80.90406 72.56563 81.09156Q72.39375 81.263435 72.05 81.263435Q71.72188 81.263435 71.55 81.09156Q71.39375 80.90406 71.39375 80.638435ZM79.84688 81.200935L74.25313 81.200935L74.25313 80.419685L77.20625 77.138435Q77.8625 76.388435 78.1125 75.93531Q78.3625 75.46656 78.3625 74.96656Q78.3625 74.294685 77.95625 73.87281Q77.56563 73.43531 76.87813 73.43531Q76.08125 73.43531 75.62813 73.90406Q75.175 74.357185 75.175 75.18531L74.09688 75.18531Q74.09688 73.99781 74.84688 73.27906Q75.6125 72.544685 76.87813 72.544685Q78.08125 72.544685 78.76875 73.169685Q79.45625 73.794685 79.45625 74.84156Q79.45625 76.09156 77.84688 77.84156L75.56563 80.31031L79.84688 80.31031L79.84688 81.200935Z" fill-rule="nonzero"/><path fill="#757575" d="M16.05 115.703125Q14.6125 115.28125 13.940625 114.671875Q13.284375 114.0625 13.284375 113.171875Q13.284375 112.171875 14.08125 111.515625Q14.89375 110.84375 16.190624 110.84375Q17.065624 110.84375 17.753124 111.1875Q18.440624 111.53125 18.815624 112.125Q19.20625 112.71875 19.20625 113.4375L18.065624 113.4375Q18.065624 112.65625 17.565624 112.21875Q17.08125 111.78125 16.190624 111.78125Q15.3625 111.78125 14.89375 112.15625Q14.425 112.515625 14.425 113.15625Q14.425 113.6875 14.8625 114.046875Q15.315625 114.40625 16.378124 114.703125Q17.440624 115.0 18.034374 115.359375Q18.64375 115.71875 18.925 116.203125Q19.221874 116.6875 19.221874 117.328125Q19.221874 118.375 18.409374 119.0Q17.596874 119.625 16.253124 119.625Q15.3625 119.625 14.596875 119.28125Q13.846875 118.9375 13.425 118.359375Q13.01875 117.765625 13.01875 117.03125L14.14375 117.03125Q14.14375 117.796875 14.721875 118.25Q15.3 118.703125 16.253124 118.703125Q17.14375 118.703125 17.6125 118.34375Q18.08125 117.96875 18.08125 117.34375Q18.08125 116.71875 17.64375 116.375Q17.20625 116.03125 16.05 115.703125ZM22.440624 117.90625L23.925 113.15625L25.08125 113.15625L22.534374 120.484375Q21.940624 122.0625 20.659374 122.0625L20.440624 122.046875L20.05 121.96875L20.05 121.09375L20.33125 121.109375Q20.89375 121.109375 21.190624 120.890625Q21.503124 120.671875 21.70625 120.078125L21.940624 119.421875L19.675 113.15625L20.8625 113.15625L22.440624 117.90625ZM27.39375 113.15625L27.425 113.859375Q28.1125 113.046875 29.3 113.046875Q30.628124 113.046875 31.1125 114.0625Q31.425 113.609375 31.925 113.328125Q32.440624 113.046875 33.128124 113.046875Q35.221874 113.046875 35.253124 115.25L35.253124 119.5L34.175 119.5L34.175 115.3125Q34.175 114.640625 33.8625 114.3125Q33.55 113.96875 32.815624 113.96875Q32.20625 113.96875 31.8 114.328125Q31.409374 114.6875 31.346874 115.296875L31.346874 119.5L30.26875 119.5L30.26875 115.34375Q30.26875 113.96875 28.909374 113.96875Q27.846874 113.96875 27.45625 114.875L27.45625 119.5L26.3625 119.5L26.3625 113.15625L27.39375 113.15625ZM37.909374 119.5L37.909374 114.0L36.909374 114.0L36.909374 113.15625L37.909374 113.15625L37.909374 112.515625Q37.909374 111.484375 38.440624 110.9375Q38.9875 110.375 39.9875 110.375Q40.3625 110.375 40.7375 110.46875L40.675 111.359375Q40.39375 111.296875 40.096874 111.296875Q39.565624 111.296875 39.26875 111.609375Q38.9875 111.921875 38.9875 112.484375L38.9875 113.15625L40.346874 113.15625L40.346874 114.0L38.9875 114.0L38.9875 119.5L37.909374 119.5ZM41.08125 116.265625Q41.08125 115.34375 41.440624 114.59375Q41.815624 113.84375 42.471874 113.453125Q43.128124 113.046875 43.95625 113.046875Q45.253124 113.046875 46.05 113.9375Q46.8625 114.828125 46.8625 116.328125L46.8625 116.40625Q46.8625 117.328125 46.503124 118.0625Q46.14375 118.796875 45.4875 119.21875Q44.83125 119.625 43.971874 119.625Q42.690624 119.625 41.878124 118.734375Q41.08125 117.828125 41.08125 116.34375L41.08125 116.265625ZM42.175 116.40625Q42.175 117.453125 42.659374 118.09375Q43.159374 118.734375 43.971874 118.734375Q44.8 118.734375 45.284374 118.09375Q45.76875 117.4375 45.76875 116.265625Q45.76875 115.234375 45.26875 114.59375Q44.784374 113.9375 43.95625 113.9375Q43.159374 113.9375 42.659374 114.578125Q42.175 115.203125 42.175 116.40625ZM49.39375 113.15625L49.425 113.953125Q50.159374 113.046875 51.33125 113.046875Q53.346874 113.046875 53.3625 115.3125L53.3625 119.5L52.26875 119.5L52.26875 115.296875Q52.26875 114.625 51.95625 114.296875Q51.659374 113.96875 51.003124 113.96875Q50.471874 113.96875 50.065624 114.25Q49.675 114.53125 49.45625 114.984375L49.45625 119.5L48.378124 119.5L48.378124 113.15625L49.39375 113.15625ZM57.440624 117.90625L58.925 113.15625L60.08125 113.15625L57.534374 120.484375Q56.940624 122.0625 55.659374 122.0625L55.440624 122.046875L55.05 121.96875L55.05 121.09375L55.33125 121.109375Q55.89375 121.109375 56.190624 120.890625Q56.503124 120.671875 56.70625 120.078125L56.940624 119.421875L54.675 113.15625L55.8625 113.15625L57.440624 117.90625ZM65.83125 114.703125L66.64375 114.703125Q67.425 114.6875 67.8625 114.296875Q68.3 113.90625 68.3 113.234375Q68.3 111.734375 66.8 111.734375Q66.09688 111.734375 65.675 112.140625Q65.26875 112.546875 65.26875 113.203125L64.175 113.203125Q64.175 112.1875 64.90938 111.515625Q65.65938 110.84375 66.8 110.84375Q68.00313 110.84375 68.69063 111.484375Q69.37813 112.125 69.37813 113.265625Q69.37813 113.828125 69.01875 114.34375Q68.65938 114.859375 68.03438 115.125Q68.7375 115.34375 69.1125 115.859375Q69.50313 116.375 69.50313 117.125Q69.50313 118.265625 68.75313 118.953125Q68.00313 119.625 66.8 119.625Q65.6125 119.625 64.84688 118.96875Q64.09688 118.3125 64.09688 117.25L65.19063 117.25Q65.19063 117.921875 65.62813 118.328125Q66.06563 118.734375 66.81563 118.734375Q67.59688 118.734375 68.00313 118.328125Q68.425 117.90625 68.425 117.140625Q68.425 116.40625 67.97188 116.015625Q67.51875 115.609375 66.64375 115.59375L65.83125 115.59375L65.83125 114.703125ZM71.39375 118.9375Q71.39375 118.65625 71.55 118.46875Q71.72188 118.28125 72.05 118.28125Q72.39375 118.28125 72.56563 118.46875Q72.7375 118.65625 72.7375 118.9375Q72.7375 119.203125 72.56563 119.390625Q72.39375 119.5625 72.05 119.5625Q71.72188 119.5625 71.55 119.390625Q71.39375 119.203125 71.39375 118.9375ZM78.83125 116.640625L80.01875 116.640625L80.01875 117.515625L78.83125 117.515625L78.83125 119.5L77.75313 119.5L77.75313 117.515625L73.8625 117.515625L73.8625 116.875L77.675 110.96875L78.83125 110.96875L78.83125 116.640625ZM75.09688 116.640625L77.75313 116.640625L77.75313 112.453125L77.6125 112.6875L75.09688 116.640625Z" fill-rule="nonzero"/><path fill="#757575" d="M35.378124 156.8772L40.26875 156.8772L40.26875 157.79907L34.05 157.79907L34.05 156.95532L38.7375 150.1897L34.128124 150.1897L34.128124 149.26782L40.08125 149.26782L40.08125 150.09595L35.378124 156.8772ZM44.003124 157.92407Q42.70625 157.92407 41.89375 157.08032Q41.096874 156.22095 41.096874 154.79907L41.096874 154.61157Q41.096874 153.65845 41.45625 152.92407Q41.815624 152.17407 42.45625 151.76782Q43.1125 151.34595 43.8625 151.34595Q45.096874 151.34595 45.784374 152.15845Q46.471874 152.97095 46.471874 154.48657L46.471874 154.9397L42.175 154.9397Q42.20625 155.8772 42.721874 156.45532Q43.253124 157.03345 44.065624 157.03345Q44.628124 157.03345 45.01875 156.79907Q45.425 156.5647 45.7375 156.17407L46.39375 156.6897Q45.596874 157.92407 44.003124 157.92407ZM43.8625 152.23657Q43.20625 152.23657 42.753124 152.72095Q42.315624 153.1897 42.221874 154.04907L45.39375 154.04907L45.39375 153.97095Q45.346874 153.14282 44.940624 152.6897Q44.55 152.23657 43.8625 152.23657ZM48.39375 151.45532L48.425 152.2522Q49.159374 151.34595 50.33125 151.34595Q52.346874 151.34595 52.3625 153.61157L52.3625 157.79907L51.26875 157.79907L51.26875 153.59595Q51.26875 152.92407 50.95625 152.59595Q50.659374 152.26782 50.003124 152.26782Q49.471874 152.26782 49.065624 152.54907Q48.675 152.83032 48.45625 153.28345L48.45625 157.79907L47.378124 157.79907L47.378124 151.45532L48.39375 151.45532ZM54.1125 154.58032Q54.1125 153.11157 54.8 152.23657Q55.4875 151.34595 56.6125 151.34595Q57.721874 151.34595 58.378124 152.09595L58.378124 148.79907L59.45625 148.79907L59.45625 157.79907L58.45625 157.79907L58.409374 157.11157Q57.753124 157.92407 56.596874 157.92407Q55.503124 157.92407 54.8 157.01782Q54.1125 156.11157 54.1125 154.65845L54.1125 154.58032ZM55.190624 154.70532Q55.190624 155.78345 55.628124 156.39282Q56.08125 157.0022 56.8625 157.0022Q57.89375 157.0022 58.378124 156.0647L58.378124 153.15845Q57.89375 152.26782 56.878124 152.26782Q56.08125 152.26782 55.628124 152.8772Q55.190624 153.48657 55.190624 154.70532ZM65.83125 153.0022L66.64375 153.0022Q67.425 152.98657 67.8625 152.59595Q68.3 152.20532 68.3 151.53345Q68.3 150.03345 66.8 150.03345Q66.09688 150.03345 65.675 150.4397Q65.26875 150.84595 65.26875 151.5022L64.175 151.5022Q64.175 150.48657 64.90938 149.8147Q65.65938 149.14282 66.8 149.14282Q68.00313 149.14282 68.69063 149.78345Q69.37813 150.42407 69.37813 151.5647Q69.37813 152.1272 69.01875 152.64282Q68.65938 153.15845 68.03438 153.42407Q68.7375 153.64282 69.1125 154.15845Q69.50313 154.67407 69.50313 155.42407Q69.50313 156.5647 68.75313 157.2522Q68.00313 157.92407 66.8 157.92407Q65.6125 157.92407 64.84688 157.26782Q64.09688 156.61157 64.09688 155.54907L65.19063 155.54907Q65.19063 156.22095 65.62813 156.6272Q66.06563 157.03345 66.81563 157.03345Q67.59688 157.03345 68.00313 156.6272Q68.425 156.20532 68.425 155.4397Q68.425 154.70532 67.97188 154.3147Q67.51875 153.90845 66.64375 153.89282L65.83125 153.89282L65.83125 153.0022ZM71.39375 157.23657Q71.39375 156.95532 71.55 156.76782Q71.72188 156.58032 72.05 156.58032Q72.39375 156.58032 72.56563 156.76782Q72.7375 156.95532 72.7375 157.23657Q72.7375 157.5022 72.56563 157.6897Q72.39375 157.86157 72.05 157.86157Q71.72188 157.86157 71.55 157.6897Q71.39375 157.5022 71.39375 157.23657ZM79.6125 154.15845Q79.6125 156.0647 78.95625 157.0022Q78.31563 157.92407 76.925 157.92407Q75.56563 157.92407 74.90938 157.01782Q74.25313 156.11157 74.22188 154.29907L74.22188 152.86157Q74.22188 150.97095 74.8625 150.0647Q75.51875 149.14282 76.90938 149.14282Q78.28438 149.14282 78.94063 150.03345Q79.59688 150.90845 79.6125 152.7522L79.6125 154.15845ZM78.51875 152.67407Q78.51875 151.29907 78.12813 150.67407Q77.75313 150.03345 76.90938 150.03345Q76.08125 150.03345 75.69063 150.67407Q75.31563 151.29907 75.31563 152.59595L75.31563 154.33032Q75.31563 155.70532 75.70625 156.3772Q76.1125 157.03345 76.925 157.03345Q77.72188 157.03345 78.1125 156.40845Q78.50313 155.78345 78.51875 154.45532L78.51875 152.67407Z" fill-rule="nonzero"/><path fill="#757575" d="M23.675 195.17625L27.721874 195.17625L27.721874 196.09813L22.534374 196.09813L22.534374 187.56688L23.675 187.56688L23.675 195.17625ZM32.284374 196.09813Q32.190624 195.91063 32.128124 195.42625Q31.378124 196.22313 30.33125 196.22313Q29.39375 196.22313 28.784374 195.69188Q28.190624 195.16063 28.190624 194.3325Q28.190624 193.34813 28.940624 192.80125Q29.690624 192.25438 31.065624 192.25438L32.1125 192.25438L32.1125 191.75438Q32.1125 191.19188 31.76875 190.86375Q31.440624 190.52 30.76875 190.52Q30.190624 190.52 29.8 190.81688Q29.409374 191.09813 29.409374 191.52L28.315624 191.52Q28.315624 191.03563 28.64375 190.59813Q28.9875 190.16063 29.565624 189.91063Q30.14375 189.645 30.83125 189.645Q31.940624 189.645 32.55 190.19188Q33.175 190.73875 33.20625 191.69188L33.20625 194.61375Q33.20625 195.48875 33.425 196.00438L33.425 196.09813L32.284374 196.09813ZM30.4875 195.27Q31.003124 195.27 31.45625 195.00438Q31.909374 194.73875 32.1125 194.31688L32.1125 193.02L31.26875 193.02Q29.26875 193.02 29.26875 194.19188Q29.26875 194.69188 29.6125 194.98875Q29.95625 195.27 30.4875 195.27ZM38.440624 190.72313Q38.190624 190.69188 37.909374 190.69188Q36.83125 190.69188 36.45625 191.59813L36.45625 196.09813L35.378124 196.09813L35.378124 189.75438L36.425 189.75438L36.440624 190.48875Q36.971874 189.645 37.95625 189.645Q38.26875 189.645 38.440624 189.72313L38.440624 190.72313ZM43.284374 196.09813Q43.190624 195.91063 43.128124 195.42625Q42.378124 196.22313 41.33125 196.22313Q40.39375 196.22313 39.784374 195.69188Q39.190624 195.16063 39.190624 194.3325Q39.190624 193.34813 39.940624 192.80125Q40.690624 192.25438 42.065624 192.25438L43.1125 192.25438L43.1125 191.75438Q43.1125 191.19188 42.76875 190.86375Q42.440624 190.52 41.76875 190.52Q41.190624 190.52 40.8 190.81688Q40.409374 191.09813 40.409374 191.52L39.315624 191.52Q39.315624 191.03563 39.64375 190.59813Q39.9875 190.16063 40.565624 189.91063Q41.14375 189.645 41.83125 189.645Q42.940624 189.645 43.55 190.19188Q44.175 190.73875 44.20625 191.69188L44.20625 194.61375Q44.20625 195.48875 44.425 196.00438L44.425 196.09813L43.284374 196.09813ZM41.4875 195.27Q42.003124 195.27 42.45625 195.00438Q42.909374 194.73875 43.1125 194.31688L43.1125 193.02L42.26875 193.02Q40.26875 193.02 40.26875 194.19188Q40.26875 194.69188 40.6125 194.98875Q40.95625 195.27 41.4875 195.27ZM48.45625 194.62938L50.034374 189.75438L51.14375 189.75438L48.8625 196.09813L48.034374 196.09813L45.7375 189.75438L46.846874 189.75438L48.45625 194.62938ZM55.003124 196.22313Q53.70625 196.22313 52.89375 195.37938Q52.096874 194.52 52.096874 193.09813L52.096874 192.91063Q52.096874 191.9575 52.45625 191.22313Q52.815624 190.47313 53.45625 190.06688Q54.1125 189.645 54.8625 189.645Q56.096874 189.645 56.784374 190.4575Q57.471874 191.27 57.471874 192.78563L57.471874 193.23875L53.175 193.23875Q53.20625 194.17625 53.721874 194.75438Q54.253124 195.3325 55.065624 195.3325Q55.628124 195.3325 56.01875 195.09813Q56.425 194.86375 56.7375 194.47313L57.39375 194.98875Q56.596874 196.22313 55.003124 196.22313ZM54.8625 190.53563Q54.20625 190.53563 53.753124 191.02Q53.315624 191.48875 53.221874 192.34813L56.39375 192.34813L56.39375 192.27Q56.346874 191.44188 55.940624 190.98875Q55.55 190.53563 54.8625 190.53563ZM59.55 196.09813L58.471874 196.09813L58.471874 187.09813L59.55 187.09813L59.55 196.09813ZM64.75313 191.81688L65.19063 187.56688L69.56563 187.56688L69.56563 188.56688L66.1125 188.56688L65.84688 190.895Q66.4875 190.52 67.28438 190.52Q68.44063 190.52 69.12813 191.30125Q69.81563 192.06688 69.81563 193.37938Q69.81563 194.69188 69.09688 195.4575Q68.39375 196.22313 67.1125 196.22313Q65.9875 196.22313 65.26875 195.59813Q64.55 194.9575 64.45625 193.84813L65.47188 193.84813Q65.58125 194.5825 66.00313 194.9575Q66.425 195.3325 67.1125 195.3325Q67.8625 195.3325 68.3 194.81688Q68.7375 194.30125 68.7375 193.395Q68.7375 192.53563 68.26875 192.02Q67.8 191.50438 67.01875 191.50438Q66.31563 191.50438 65.90938 191.80125L65.62813 192.03563L64.75313 191.81688ZM71.39375 195.53563Q71.39375 195.25438 71.55 195.06688Q71.72188 194.87938 72.05 194.87938Q72.39375 194.87938 72.56563 195.06688Q72.7375 195.25438 72.7375 195.53563Q72.7375 195.80125 72.56563 195.98875Q72.39375 196.16063 72.05 196.16063Q71.72188 196.16063 71.55 195.98875Q71.39375 195.80125 71.39375 195.53563ZM79.76875 188.17625L76.2375 196.09813L75.09688 196.09813L78.6125 188.4575L74.00313 188.4575L74.00313 187.56688L79.76875 187.56688L79.76875 188.17625Z" fill-rule="nonzero"/><path fill="#757575" d="M79.1125 231.80937Q79.1125 233.71562 78.45625 234.65312Q77.81563 235.575 76.425 235.575Q75.06563 235.575 74.40938 234.66875Q73.75313 233.7625 73.72188 231.95L73.72188 230.5125Q73.72188 228.62187 74.3625 227.71562Q75.01875 226.79375 76.40938 226.79375Q77.78438 226.79375 78.44063 227.68437Q79.09688 228.55937 79.1125 230.40312L79.1125 231.80937ZM78.01875 230.325Q78.01875 228.95 77.62813 228.325Q77.25313 227.68437 76.40938 227.68437Q75.58125 227.68437 75.19063 228.325Q74.81563 228.95 74.81563 230.24687L74.81563 231.98125Q74.81563 233.35625 75.20625 234.02812Q75.6125 234.68437 76.425 234.68437Q77.22188 234.68437 77.6125 234.05937Q78.00313 233.43437 78.01875 232.10625L78.01875 230.325ZM84.89375 229.10625L84.925 229.80937Q85.6125 228.99687 86.8 228.99687Q88.12813 228.99687 88.6125 230.0125Q88.925 229.55937 89.425 229.27812Q89.94063 228.99687 90.62813 228.99687Q92.72188 228.99687 92.75313 231.2L92.75313 235.45L91.675 235.45L91.675 231.2625Q91.675 230.59062 91.3625 230.2625Q91.05 229.91875 90.31563 229.91875Q89.70625 229.91875 89.3 230.27812Q88.90938 230.6375 88.84688 231.24687L88.84688 235.45L87.76875 235.45L87.76875 231.29375Q87.76875 229.91875 86.40938 229.91875Q85.34688 229.91875 84.95625 230.825L84.95625 235.45L83.8625 235.45L83.8625 229.10625L84.89375 229.10625ZM98.56563 233.7625Q98.56563 233.325 98.22188 233.09062Q97.89375 232.84062 97.06563 232.66875Q96.25313 232.49687 95.76875 232.24687Q95.28438 231.99687 95.05 231.66875Q94.83125 231.325 94.83125 230.85625Q94.83125 230.075 95.4875 229.54375Q96.14375 228.99687 97.175 228.99687Q98.25313 228.99687 98.90938 229.55937Q99.58125 230.10625 99.58125 230.96562L98.50313 230.96562Q98.50313 230.52812 98.1125 230.21562Q97.7375 229.8875 97.175 229.8875Q96.58125 229.8875 96.2375 230.15312Q95.90938 230.40312 95.90938 230.80937Q95.90938 231.2 96.22188 231.40312Q96.53438 231.60625 97.34688 231.79375Q98.15938 231.96562 98.65938 232.21562Q99.15938 232.46562 99.39375 232.825Q99.64375 233.18437 99.64375 233.68437Q99.64375 234.54375 98.95625 235.05937Q98.28438 235.575 97.20625 235.575Q96.44063 235.575 95.84688 235.30937Q95.26875 235.02812 94.94063 234.54375Q94.6125 234.05937 94.6125 233.49687L95.69063 233.49687Q95.72188 234.04375 96.12813 234.37187Q96.53438 234.68437 97.20625 234.68437Q97.81563 234.68437 98.19063 234.43437Q98.56563 234.18437 98.56563 233.7625Z" fill-rule="nonzero"/><path fill="#757575" d="M147.80714 235.45L146.72902 235.45L146.72902 228.23125L144.54152 229.02812L144.54152 228.04375L147.6509 226.87187L147.80714 226.87187L147.80714 235.45ZM155.38527 229.10625L155.41652 229.80937Q156.10402 228.99687 157.29152 228.99687Q158.61964 228.99687 159.10402 230.0125Q159.41652 229.55937 159.91652 229.27812Q160.43214 228.99687 161.11964 228.99687Q163.2134 228.99687 163.24464 231.2L163.24464 235.45L162.16652 235.45L162.16652 231.2625Q162.16652 230.59062 161.85402 230.2625Q161.54152 229.91875 160.80714 229.91875Q160.19777 229.91875 159.79152 230.27812Q159.4009 230.6375 159.3384 231.24687L159.3384 235.45L158.26027 235.45L158.26027 231.29375Q158.26027 229.91875 156.9009 229.91875Q155.8384 229.91875 155.44777 230.825L155.44777 235.45L154.35402 235.45L154.35402 229.10625L155.38527 229.10625ZM169.05714 233.7625Q169.05714 233.325 168.7134 233.09062Q168.38527 232.84062 167.55714 232.66875Q166.74464 232.49687 166.26027 232.24687Q165.7759 231.99687 165.54152 231.66875Q165.32277 231.325 165.32277 230.85625Q165.32277 230.075 165.97902 229.54375Q166.63527 228.99687 167.66652 228.99687Q168.74464 228.99687 169.4009 229.55937Q170.07277 230.10625 170.07277 230.96562L168.99464 230.96562Q168.99464 230.52812 168.60402 230.21562Q168.22902 229.8875 167.66652 229.8875Q167.07277 229.8875 166.72902 230.15312Q166.4009 230.40312 166.4009 230.80937Q166.4009 231.2 166.7134 231.40312Q167.0259 231.60625 167.8384 231.79375Q168.6509 231.96562 169.1509 232.21562Q169.6509 232.46562 169.88527 232.825Q170.13527 233.18437 170.13527 233.68437Q170.13527 234.54375 169.44777 235.05937Q168.7759 235.575 167.69777 235.575Q166.93214 235.575 166.3384 235.30937Q165.76027 235.02812 165.43214 234.54375Q165.10402 234.05937 165.10402 233.49687L166.18214 233.49687Q166.2134 234.04375 166.61964 234.37187Q167.0259 234.68437 167.69777 234.68437Q168.30714 234.68437 168.68214 234.43437Q169.05714 234.18437 169.05714 233.7625Z" fill-rule="nonzero"/><path fill="#757575" d="M220.32993 235.45L214.73618 235.45L214.73618 234.66875L217.6893 231.3875Q218.34555 230.6375 218.59555 230.18437Q218.84555 229.71562 218.84555 229.21562Q218.84555 228.54375 218.4393 228.12187Q218.04868 227.68437 217.36118 227.68437Q216.5643 227.68437 216.11118 228.15312Q215.65805 228.60625 215.65805 229.43437L214.57993 229.43437Q214.57993 228.24687 215.32993 227.52812Q216.09555 226.79375 217.36118 226.79375Q218.5643 226.79375 219.2518 227.41875Q219.9393 228.04375 219.9393 229.09062Q219.9393 230.34062 218.32993 232.09062L216.04868 234.55937L220.32993 234.55937L220.32993 235.45ZM225.8768 229.10625L225.90805 229.80937Q226.59555 228.99687 227.78305 228.99687Q229.11118 228.99687 229.59555 230.0125Q229.90805 229.55937 230.40805 229.27812Q230.92368 228.99687 231.61118 228.99687Q233.70493 228.99687 233.73618 231.2L233.73618 235.45L232.65805 235.45L232.65805 231.2625Q232.65805 230.59062 232.34555 230.2625Q232.03305 229.91875 231.29868 229.91875Q230.6893 229.91875 230.28305 230.27812Q229.89243 230.6375 229.82993 231.24687L229.82993 235.45L228.7518 235.45L228.7518 231.29375Q228.7518 229.91875 227.39243 229.91875Q226.32993 229.91875 225.9393 230.825L225.9393 235.45L224.84555 235.45L224.84555 229.10625L225.8768 229.10625ZM239.54868 233.7625Q239.54868 233.325 239.20493 233.09062Q238.8768 232.84062 238.04868 232.66875Q237.23618 232.49687 236.7518 232.24687Q236.26743 231.99687 236.03305 231.66875Q235.8143 231.325 235.8143 230.85625Q235.8143 230.075 236.47055 229.54375Q237.1268 228.99687 238.15805 228.99687Q239.23618 228.99687 239.89243 229.55937Q240.5643 230.10625 240.5643 230.96562L239.48618 230.96562Q239.48618 230.52812 239.09555 230.21562Q238.72055 229.8875 238.15805 229.8875Q237.5643 229.8875 237.22055 230.15312Q236.89243 230.40312 236.89243 230.80937Q236.89243 231.2 237.20493 231.40312Q237.51743 231.60625 238.32993 231.79375Q239.14243 231.96562 239.64243 232.21562Q240.14243 232.46562 240.3768 232.825Q240.6268 233.18437 240.6268 233.68437Q240.6268 234.54375 239.9393 235.05937Q239.26743 235.575 238.1893 235.575Q237.42368 235.575 236.82993 235.30937Q236.2518 235.02812 235.92368 234.54375Q235.59555 234.05937 235.59555 233.49687L236.67368 233.49687Q236.70493 234.04375 237.11118 234.37187Q237.51743 234.68437 238.1893 234.68437Q238.79868 234.68437 239.17368 234.43437Q239.54868 234.18437 239.54868 233.7625Z" fill-rule="nonzero"/><path fill="#757575" d="M286.80582 230.65312L287.61832 230.65312Q288.39957 230.6375 288.83707 230.24687Q289.27457 229.85625 289.27457 229.18437Q289.27457 227.68437 287.77457 227.68437Q287.07144 227.68437 286.64957 228.09062Q286.24332 228.49687 286.24332 229.15312L285.14957 229.15312Q285.14957 228.1375 285.88394 227.46562Q286.63394 226.79375 287.77457 226.79375Q288.9777 226.79375 289.6652 227.43437Q290.3527 228.075 290.3527 229.21562Q290.3527 229.77812 289.99332 230.29375Q289.63394 230.80937 289.00894 231.075Q289.71207 231.29375 290.08707 231.80937Q290.4777 232.325 290.4777 233.075Q290.4777 234.21562 289.7277 234.90312Q288.9777 235.575 287.77457 235.575Q286.58707 235.575 285.82144 234.91875Q285.07144 234.2625 285.07144 233.2L286.1652 233.2Q286.1652 233.87187 286.6027 234.27812Q287.0402 234.68437 287.7902 234.68437Q288.57144 234.68437 288.9777 234.27812Q289.39957 233.85625 289.39957 233.09062Q289.39957 232.35625 288.94644 231.96562Q288.49332 231.55937 287.61832 231.54375L286.80582 231.54375L286.80582 230.65312ZM296.36832 229.10625L296.39957 229.80937Q297.08707 228.99687 298.27457 228.99687Q299.6027 228.99687 300.08707 230.0125Q300.39957 229.55937 300.89957 229.27812Q301.4152 228.99687 302.1027 228.99687Q304.19644 228.99687 304.2277 231.2L304.2277 235.45L303.14957 235.45L303.14957 231.2625Q303.14957 230.59062 302.83707 230.2625Q302.52457 229.91875 301.7902 229.91875Q301.18082 229.91875 300.77457 230.27812Q300.38394 230.6375 300.32144 231.24687L300.32144 235.45L299.24332 235.45L299.24332 231.29375Q299.24332 229.91875 297.88394 229.91875Q296.82144 229.91875 296.43082 230.825L296.43082 235.45L295.33707 235.45L295.33707 229.10625L296.36832 229.10625ZM310.0402 233.7625Q310.0402 233.325 309.69644 233.09062Q309.36832 232.84062 308.5402 232.66875Q307.7277 232.49687 307.24332 232.24687Q306.75894 231.99687 306.52457 231.66875Q306.30582 231.325 306.30582 230.85625Q306.30582 230.075 306.96207 229.54375Q307.61832 228.99687 308.64957 228.99687Q309.7277 228.99687 310.38394 229.55937Q311.05582 230.10625 311.05582 230.96562L309.9777 230.96562Q309.9777 230.52812 309.58707 230.21562Q309.21207 229.8875 308.64957 229.8875Q308.05582 229.8875 307.71207 230.15312Q307.38394 230.40312 307.38394 230.80937Q307.38394 231.2 307.69644 231.40312Q308.00894 231.60625 308.82144 231.79375Q309.63394 231.96562 310.13394 232.21562Q310.63394 232.46562 310.86832 232.825Q311.11832 233.18437 311.11832 233.68437Q311.11832 234.54375 310.43082 235.05937Q309.75894 235.575 308.68082 235.575Q307.9152 235.575 307.32144 235.30937Q306.74332 235.02812 306.4152 234.54375Q306.08707 234.05937 306.08707 233.49687L307.1652 233.49687Q307.19644 234.04375 307.6027 234.37187Q308.00894 234.68437 308.68082 234.68437Q309.2902 234.68437 309.6652 234.43437Q310.0402 234.18437 310.0402 233.7625Z" fill-rule="nonzero"/><path fill="#757575" d="M360.29736 232.59062L361.48486 232.59062L361.48486 233.46562L360.29736 233.46562L360.29736 235.45L359.21924 235.45L359.21924 233.46562L355.3286 233.46562L355.3286 232.825L359.1411 226.91875L360.29736 226.91875L360.29736 232.59062ZM356.563 232.59062L359.21924 232.59062L359.21924 228.40312L359.0786 228.6375L356.563 232.59062ZM366.85986 229.10625L366.8911 229.80937Q367.5786 228.99687 368.7661 228.99687Q370.09424 228.99687 370.5786 230.0125Q370.8911 229.55937 371.3911 229.27812Q371.90674 228.99687 372.59424 228.99687Q374.688 228.99687 374.71924 231.2L374.71924 235.45L373.6411 235.45L373.6411 231.2625Q373.6411 230.59062 373.3286 230.2625Q373.0161 229.91875 372.28174 229.91875Q371.67236 229.91875 371.2661 230.27812Q370.8755 230.6375 370.813 231.24687L370.813 235.45L369.73486 235.45L369.73486 231.29375Q369.73486 229.91875 368.3755 229.91875Q367.313 229.91875 366.92236 230.825L366.92236 235.45L365.8286 235.45L365.8286 229.10625L366.85986 229.10625ZM380.53174 233.7625Q380.53174 233.325 380.188 233.09062Q379.85986 232.84062 379.03174 232.66875Q378.21924 232.49687 377.73486 232.24687Q377.2505 231.99687 377.0161 231.66875Q376.79736 231.325 376.79736 230.85625Q376.79736 230.075 377.4536 229.54375Q378.10986 228.99687 379.1411 228.99687Q380.21924 228.99687 380.8755 229.55937Q381.54736 230.10625 381.54736 230.96562L380.46924 230.96562Q380.46924 230.52812 380.0786 230.21562Q379.7036 229.8875 379.1411 229.8875Q378.54736 229.8875 378.2036 230.15312Q377.8755 230.40312 377.8755 230.80937Q377.8755 231.2 378.188 231.40312Q378.5005 231.60625 379.313 231.79375Q380.1255 231.96562 380.6255 232.21562Q381.1255 232.46562 381.35986 232.825Q381.60986 233.18437 381.60986 233.68437Q381.60986 234.54375 380.92236 235.05937Q380.2505 235.575 379.17236 235.575Q378.40674 235.575 377.813 235.30937Q377.23486 235.02812 376.90674 234.54375Q376.5786 234.05937 376.5786 233.49687L377.65674 233.49687Q377.688 234.04375 378.09424 234.37187Q378.5005 234.68437 379.17236 234.68437Q379.78174 234.68437 380.15674 234.43437Q380.53174 234.18437 380.53174 233.7625Z" fill-rule="nonzero"/><path fill="#757575" d="M426.71075 231.16875L427.14825 226.91875L431.52325 226.91875L431.52325 227.91875L428.07013 227.91875L427.8045 230.24687Q428.44513 229.87187 429.242 229.87187Q430.39825 229.87187 431.08575 230.65312Q431.77325 231.41875 431.77325 232.73125Q431.77325 234.04375 431.0545 234.80937Q430.35138 235.575 429.07013 235.575Q427.94513 235.575 427.22638 234.95Q426.50763 234.30937 426.41388 233.2L427.4295 233.2Q427.53888 233.93437 427.96075 234.30937Q428.38263 234.68437 429.07013 234.68437Q429.82013 234.68437 430.25763 234.16875Q430.69513 233.65312 430.69513 232.74687Q430.69513 231.8875 430.22638 231.37187Q429.75763 230.85625 428.97638 230.85625Q428.27325 230.85625 427.867 231.15312L427.58575 231.3875L426.71075 231.16875ZM437.35138 229.10625L437.38263 229.80937Q438.07013 228.99687 439.25763 228.99687Q440.58575 228.99687 441.07013 230.0125Q441.38263 229.55937 441.88263 229.27812Q442.39825 228.99687 443.08575 228.99687Q445.1795 228.99687 445.21075 231.2L445.21075 235.45L444.13263 235.45L444.13263 231.2625Q444.13263 230.59062 443.82013 230.2625Q443.50763 229.91875 442.77325 229.91875Q442.16388 229.91875 441.75763 230.27812Q441.367 230.6375 441.3045 231.24687L441.3045 235.45L440.22638 235.45L440.22638 231.29375Q440.22638 229.91875 438.867 229.91875Q437.8045 229.91875 437.41388 230.825L437.41388 235.45L436.32013 235.45L436.32013 229.10625L437.35138 229.10625ZM451.02325 233.7625Q451.02325 233.325 450.6795 233.09062Q450.35138 232.84062 449.52325 232.66875Q448.71075 232.49687 448.22638 232.24687Q447.742 231.99687 447.50763 231.66875Q447.28888 231.325 447.28888 230.85625Q447.28888 230.075 447.94513 229.54375Q448.60138 228.99687 449.63263 228.99687Q450.71075 228.99687 451.367 229.55937Q452.03888 230.10625 452.03888 230.96562L450.96075 230.96562Q450.96075 230.52812 450.57013 230.21562Q450.19513 229.8875 449.63263 229.8875Q449.03888 229.8875 448.69513 230.15312Q448.367 230.40312 448.367 230.80937Q448.367 231.2 448.6795 231.40312Q448.992 231.60625 449.8045 231.79375Q450.617 231.96562 451.117 232.21562Q451.617 232.46562 451.85138 232.825Q452.10138 233.18437 452.10138 233.68437Q452.10138 234.54375 451.41388 235.05937Q450.742 235.575 449.66388 235.575Q448.89825 235.575 448.3045 235.30937Q447.72638 235.02812 447.39825 234.54375Q447.07013 234.05937 447.07013 233.49687L448.14825 233.49687Q448.1795 234.04375 448.58575 234.37187Q448.992 234.68437 449.66388 234.68437Q450.27325 234.68437 450.64825 234.43437Q451.02325 234.18437 451.02325 233.7625Z" fill-rule="nonzero"/></svg>