<svg version="1.1" viewBox="0.0 0.0 486.0 260.0" fill="none" stroke="none" stroke-linecap="square" stroke-miterlimit="10" width="486" height="260" xmlns:xlink="http://www.w3.org/1999/xlink" xmlns="http://www.w3.org/2000/svg"><path fill="#ffffff" d="M0 0L486.0 0L486.0 260.0L0 260.0L0 0Z" fill-rule="nonzero"/><path fill="#ffffff" d="M0 0L486.0 0L486.0 260.0L0 260.0L0 0Z" fill-rule="nonzero"/><path stroke="#333333" stroke-width="1.0" stroke-linecap="butt" d="M87.5 13.5L87.5 202.5" fill-rule="nonzero"/><path stroke="#cccccc" stroke-width="1.0" stroke-linecap="butt" d="M152.5 13.5L152.5 202.5" fill-rule="nonzero"/><path stroke="#cccccc" stroke-width="1.0" stroke-linecap="butt" d="M217.5 13.5L217.5 202.5" fill-rule="nonzero"/><path stroke="#cccccc" stroke-width="1.0" stroke-linecap="butt" d="M283.5 13.5L283.5 202.5" fill-rule="nonzero"/><path stroke="#cccccc" stroke-width="1.0" stroke-linecap="butt" d="M348.5 13.5L348.5 202.5" fill-rule="nonzero"/><path stroke="#cccccc" stroke-width="1.0" stroke-linecap="butt" d="M414.5 13.5L414.5 202.5" fill-rule="nonzero"/><clipPath id="id_0"><path d="M87.0 13.0L473.0 13.0L473.0 202.33333L87.0 202.33333L87.0 13.0Z" clip-rule="nonzero"/></clipPath><path stroke="#000000" stroke-width="0.0" stroke-linecap="butt" stroke-opacity="0.0" clip-path="url(#id_0)" d="M87.0 49.0L87.0 26.0L157.0 26.0C158.10457 26.0 159.0 26.89543 159.0 28.0L159.0 47.0C159.0 48.10457 158.10457 49.0 157.0 49.0Z" fill-rule="nonzero"/><path fill="#b0ebf3" clip-path="url(#id_0)" d="M87.0 49.0L87.0 26.0L157.0 26.0C158.10457 26.0 159.0 26.89543 159.0 28.0L159.0 47.0C159.0 48.10457 158.10457 49.0 157.0 49.0Z" fill-rule="nonzero"/><path stroke="#000000" stroke-width="0.0" stroke-linecap="butt" stroke-opacity="0.0" clip-path="url(#id_0)" d="M87.0 84.0L87.0 61.0L209.0 61.0C210.10457 61.0 211.0 61.89543 211.0 63.0L211.0 82.0C211.0 83.10457 210.10457 84.0 209.0 84.0Z" fill-rule="nonzero"/><path fill="#38d1b6" clip-path="url(#id_0)" d="M87.0 84.0L87.0 61.0L209.0 61.0C210.10457 61.0 211.0 61.89543 211.0 63.0L211.0 82.0C211.0 83.10457 210.10457 84.0 209.0 84.0Z" fill-rule="nonzero"/><path stroke="#000000" stroke-width="0.0" stroke-linecap="butt" stroke-opacity="0.0" clip-path="url(#id_0)" d="M87.0 120.0L87.0 97.0L281.0 97.0C282.10458 97.0 283.0 97.89543 283.0 99.0L283.0 118.0C283.0 119.10457 282.10458 120.0 281.0 120.0Z" fill-rule="nonzero"/><path fill="#38d1b6" clip-path="url(#id_0)" d="M87.0 120.0L87.0 97.0L281.0 97.0C282.10458 97.0 283.0 97.89543 283.0 99.0L283.0 118.0C283.0 119.10457 282.10458 120.0 281.0 120.0Z" fill-rule="nonzero"/><path stroke="#000000" stroke-width="0.0" stroke-linecap="butt" stroke-opacity="0.0" clip-path="url(#id_0)" d="M87.0 155.0L87.0 132.0L353.0 132.0C354.10458 132.0 355.0 132.89543 355.0 134.0L355.0 153.0C355.0 154.10457 354.10458 155.0 353.0 155.0Z" fill-rule="nonzero"/><path fill="#79d504" clip-path="url(#id_0)" d="M87.0 155.0L87.0 132.0L353.0 132.0C354.10458 132.0 355.0 132.89543 355.0 134.0L355.0 153.0C355.0 154.10457 354.10458 155.0 353.0 155.0Z" fill-rule="nonzero"/><path stroke="#000000" stroke-width="0.0" stroke-linecap="butt" stroke-opacity="0.0" clip-path="url(#id_0)" d="M87.0 190.0L87.0 167.0L471.0 167.0C472.10458 167.0 473.0 167.89543 473.0 169.0L473.0 188.0C473.0 189.10457 472.10458 190.0 471.0 190.0Z" fill-rule="nonzero"/><path fill="#ff6863" clip-path="url(#id_0)" d="M87.0 190.0L87.0 167.0L471.0 167.0C472.10458 167.0 473.0 167.89543 473.0 169.0L473.0 188.0C473.0 189.10457 472.10458 190.0 471.0 190.0Z" fill-rule="nonzero"/><path stroke="#b0ebf3" stroke-width="3.0" stroke-linejoin="round" stroke-linecap="round" d="M141.43173 41.5L140.3536 41.5L140.3536 34.28125L138.1661 35.078125L138.1661 34.09375L141.27548 32.921875L141.43173 32.921875L141.43173 41.5ZM145.00986 40.9375Q145.00986 40.65625 145.1661 40.46875Q145.33798 40.28125 145.6661 40.28125Q146.00986 40.28125 146.18173 40.46875Q146.3536 40.65625 146.3536 40.9375Q146.3536 41.203125 146.18173 41.390625Q146.00986 41.5625 145.6661 41.5625Q145.33798 41.5625 145.1661 41.390625Q145.00986 41.203125 145.00986 40.9375ZM151.43173 41.5L150.3536 41.5L150.3536 34.28125L148.1661 35.078125L148.1661 34.09375L151.27548 32.921875L151.43173 32.921875L151.43173 41.5Z" fill-rule="nonzero"/><path fill="#000000" d="M141.43173 41.5L140.3536 41.5L140.3536 34.28125L138.1661 35.078125L138.1661 34.09375L141.27548 32.921875L141.43173 32.921875L141.43173 41.5ZM145.00986 40.9375Q145.00986 40.65625 145.1661 40.46875Q145.33798 40.28125 145.6661 40.28125Q146.00986 40.28125 146.18173 40.46875Q146.3536 40.65625 146.3536 40.9375Q146.3536 41.203125 146.18173 41.390625Q146.00986 41.5625 145.6661 41.5625Q145.33798 41.5625 145.1661 41.390625Q145.00986 41.203125 145.00986 40.9375ZM151.43173 41.5L150.3536 41.5L150.3536 34.28125L148.1661 35.078125L148.1661 34.09375L151.27548 32.921875L151.43173 32.921875L151.43173 41.5Z" fill-rule="nonzero"/><path stroke="#38d1b6" stroke-width="3.0" stroke-linejoin="round" stroke-linecap="round" d="M193.7707 76.5L192.69258 76.5L192.69258 69.28125L190.50508 70.078125L190.50508 69.09375L193.61446 67.921875L193.7707 67.921875L193.7707 76.5ZM197.34883 75.9375Q197.34883 75.65625 197.50508 75.46875Q197.67696 75.28125 198.00508 75.28125Q198.34883 75.28125 198.5207 75.46875Q198.69258 75.65625 198.69258 75.9375Q198.69258 76.203125 198.5207 76.390625Q198.34883 76.5625 198.00508 76.5625Q197.67696 76.5625 197.50508 76.390625Q197.34883 76.203125 197.34883 75.9375ZM204.36446 72.75Q204.03633 73.15625 203.55196 73.40625Q203.0832 73.640625 202.5207 73.640625Q201.78633 73.640625 201.23946 73.28125Q200.69258 72.921875 200.3957 72.265625Q200.09883 71.59375 200.09883 70.796875Q200.09883 69.953125 200.41133 69.265625Q200.73946 68.578125 201.3332 68.21875Q201.94258 67.84375 202.73946 67.84375Q204.00508 67.84375 204.72383 68.796875Q205.4582 69.75 205.4582 71.375L205.4582 71.6875Q205.4582 74.1875 204.47383 75.328125Q203.48946 76.46875 201.50508 76.5L201.28633 76.5L201.28633 75.59375L201.5207 75.59375Q202.86446 75.5625 203.5832 74.890625Q204.30196 74.21875 204.36446 72.75ZM202.69258 72.75Q203.23946 72.75 203.69258 72.421875Q204.16133 72.078125 204.38008 71.59375L204.38008 71.15625Q204.38008 70.09375 203.91133 69.421875Q203.44258 68.75 202.73946 68.75Q202.0207 68.75 201.5832 69.296875Q201.16133 69.84375 201.16133 70.75Q201.16133 71.625 201.56758 72.1875Q201.98946 72.75 202.69258 72.75Z" fill-rule="nonzero"/><path fill="#000000" d="M193.7707 76.5L192.69258 76.5L192.69258 69.28125L190.50508 70.078125L190.50508 69.09375L193.61446 67.921875L193.7707 67.921875L193.7707 76.5ZM197.34883 75.9375Q197.34883 75.65625 197.50508 75.46875Q197.67696 75.28125 198.00508 75.28125Q198.34883 75.28125 198.5207 75.46875Q198.69258 75.65625 198.69258 75.9375Q198.69258 76.203125 198.5207 76.390625Q198.34883 76.5625 198.00508 76.5625Q197.67696 76.5625 197.50508 76.390625Q197.34883 76.203125 197.34883 75.9375ZM204.36446 72.75Q204.03633 73.15625 203.55196 73.40625Q203.0832 73.640625 202.5207 73.640625Q201.78633 73.640625 201.23946 73.28125Q200.69258 72.921875 200.3957 72.265625Q200.09883 71.59375 200.09883 70.796875Q200.09883 69.953125 200.41133 69.265625Q200.73946 68.578125 201.3332 68.21875Q201.94258 67.84375 202.73946 67.84375Q204.00508 67.84375 204.72383 68.796875Q205.4582 69.75 205.4582 71.375L205.4582 71.6875Q205.4582 74.1875 204.47383 75.328125Q203.48946 76.46875 201.50508 76.5L201.28633 76.5L201.28633 75.59375L201.5207 75.59375Q202.86446 75.5625 203.5832 74.890625Q204.30196 74.21875 204.36446 72.75ZM202.69258 72.75Q203.23946 72.75 203.69258 72.421875Q204.16133 72.078125 204.38008 71.59375L204.38008 71.15625Q204.38008 70.09375 203.91133 69.421875Q203.44258 68.75 202.73946 68.75Q202.0207 68.75 201.5832 69.296875Q201.16133 69.84375 201.16133 70.75Q201.16133 71.625 201.56758 72.1875Q201.98946 72.75 202.69258 72.75Z" fill-rule="nonzero"/><path stroke="#38d1b6" stroke-width="3.0" stroke-linejoin="round" stroke-linecap="round" d="M273.75244 107.703125L274.56494 107.703125Q275.3462 107.6875 275.7837 107.296875Q276.2212 106.90625 276.2212 106.234375Q276.2212 104.734375 274.7212 104.734375Q274.01807 104.734375 273.5962 105.140625Q273.18994 105.546875 273.18994 106.203125L272.0962 106.203125Q272.0962 105.1875 272.83057 104.515625Q273.58057 103.84375 274.7212 103.84375Q275.92432 103.84375 276.61182 104.484375Q277.29932 105.125 277.29932 106.265625Q277.29932 106.828125 276.93994 107.34375Q276.58057 107.859375 275.95557 108.125Q276.6587 108.34375 277.0337 108.859375Q277.42432 109.375 277.42432 110.125Q277.42432 111.265625 276.67432 111.953125Q275.92432 112.625 274.7212 112.625Q273.5337 112.625 272.76807 111.96875Q272.01807 111.3125 272.01807 110.25L273.11182 110.25Q273.11182 110.921875 273.54932 111.328125Q273.98682 111.734375 274.73682 111.734375Q275.51807 111.734375 275.92432 111.328125Q276.3462 110.90625 276.3462 110.140625Q276.3462 109.40625 275.89307 109.015625Q275.43994 108.609375 274.56494 108.59375L273.75244 108.59375L273.75244 107.703125Z" fill-rule="nonzero"/><path fill="#000000" d="M273.75244 107.703125L274.56494 107.703125Q275.3462 107.6875 275.7837 107.296875Q276.2212 106.90625 276.2212 106.234375Q276.2212 104.734375 274.7212 104.734375Q274.01807 104.734375 273.5962 105.140625Q273.18994 105.546875 273.18994 106.203125L272.0962 106.203125Q272.0962 105.1875 272.83057 104.515625Q273.58057 103.84375 274.7212 103.84375Q275.92432 103.84375 276.61182 104.484375Q277.29932 105.125 277.29932 106.265625Q277.29932 106.828125 276.93994 107.34375Q276.58057 107.859375 275.95557 108.125Q276.6587 108.34375 277.0337 108.859375Q277.42432 109.375 277.42432 110.125Q277.42432 111.265625 276.67432 111.953125Q275.92432 112.625 274.7212 112.625Q273.5337 112.625 272.76807 111.96875Q272.01807 111.3125 272.01807 110.25L273.11182 110.25Q273.11182 110.921875 273.54932 111.328125Q273.98682 111.734375 274.73682 111.734375Q275.51807 111.734375 275.92432 111.328125Q276.3462 110.90625 276.3462 110.140625Q276.3462 109.40625 275.89307 109.015625Q275.43994 108.609375 274.56494 108.59375L273.75244 108.59375L273.75244 107.703125Z" fill-rule="nonzero"/><path stroke="#79d504" stroke-width="3.0" stroke-linejoin="round" stroke-linecap="round" d="M338.71854 144.64062L339.90604 144.64062L339.90604 145.51562L338.71854 145.51562L338.71854 147.5L337.6404 147.5L337.6404 145.51562L333.7498 145.51562L333.7498 144.875L337.5623 138.96875L338.71854 138.96875L338.71854 144.64062ZM334.98416 144.64062L337.6404 144.64062L337.6404 140.45312L337.4998 140.6875L334.98416 144.64062ZM341.28104 146.9375Q341.28104 146.65625 341.4373 146.46875Q341.60916 146.28125 341.9373 146.28125Q342.28104 146.28125 342.4529 146.46875Q342.6248 146.65625 342.6248 146.9375Q342.6248 147.20312 342.4529 147.39062Q342.28104 147.5625 341.9373 147.5625Q341.60916 147.5625 341.4373 147.39062Q341.28104 147.20312 341.28104 146.9375ZM347.7029 147.5L346.6248 147.5L346.6248 140.28125L344.4373 141.07812L344.4373 140.09375L347.54666 138.92188L347.7029 138.92188L347.7029 147.5Z" fill-rule="nonzero"/><path fill="#000000" d="M338.71854 144.64062L339.90604 144.64062L339.90604 145.51562L338.71854 145.51562L338.71854 147.5L337.6404 147.5L337.6404 145.51562L333.7498 145.51562L333.7498 144.875L337.5623 138.96875L338.71854 138.96875L338.71854 144.64062ZM334.98416 144.64062L337.6404 144.64062L337.6404 140.45312L337.4998 140.6875L334.98416 144.64062ZM341.28104 146.9375Q341.28104 146.65625 341.4373 146.46875Q341.60916 146.28125 341.9373 146.28125Q342.28104 146.28125 342.4529 146.46875Q342.6248 146.65625 342.6248 146.9375Q342.6248 147.20312 342.4529 147.39062Q342.28104 147.5625 341.9373 147.5625Q341.60916 147.5625 341.4373 147.39062Q341.28104 147.20312 341.28104 146.9375ZM347.7029 147.5L346.6248 147.5L346.6248 140.28125L344.4373 141.07812L344.4373 140.09375L347.54666 138.92188L347.7029 138.92188L347.7029 147.5Z" fill-rule="nonzero"/><path stroke="#ff6863" stroke-width="3.0" stroke-linejoin="round" stroke-linecap="round" d="M452.40314 178.21875L452.84064 173.96875L457.21564 173.96875L457.21564 174.96875L453.7625 174.96875L453.4969 177.29688Q454.1375 176.92188 454.9344 176.92188Q456.09064 176.92188 456.77814 177.70312Q457.46564 178.46875 457.46564 179.78125Q457.46564 181.09375 456.7469 181.85938Q456.04376 182.625 454.7625 182.625Q453.6375 182.625 452.91876 182.0Q452.2 181.35938 452.10626 180.25L453.1219 180.25Q453.23126 180.98438 453.65314 181.35938Q454.075 181.73438 454.7625 181.73438Q455.5125 181.73438 455.95 181.21875Q456.3875 180.70312 456.3875 179.79688Q456.3875 178.9375 455.91876 178.42188Q455.45 177.90625 454.66876 177.90625Q453.96564 177.90625 453.5594 178.20312L453.27814 178.4375L452.40314 178.21875ZM459.04376 181.9375Q459.04376 181.65625 459.2 181.46875Q459.3719 181.28125 459.7 181.28125Q460.04376 181.28125 460.21564 181.46875Q460.3875 181.65625 460.3875 181.9375Q460.3875 182.20312 460.21564 182.39062Q460.04376 182.5625 459.7 182.5625Q459.3719 182.5625 459.2 182.39062Q459.04376 182.20312 459.04376 181.9375ZM466.0594 178.75Q465.73126 179.15625 465.2469 179.40625Q464.77814 179.64062 464.21564 179.64062Q463.48126 179.64062 462.9344 179.28125Q462.3875 178.92188 462.09064 178.26562Q461.79376 177.59375 461.79376 176.79688Q461.79376 175.95312 462.10626 175.26562Q462.4344 174.57812 463.02814 174.21875Q463.6375 173.84375 464.4344 173.84375Q465.7 173.84375 466.41876 174.79688Q467.15314 175.75 467.15314 177.375L467.15314 177.6875Q467.15314 180.1875 466.16876 181.32812Q465.1844 182.46875 463.2 182.5L462.98126 182.5L462.98126 181.59375L463.21564 181.59375Q464.5594 181.5625 465.27814 180.89062Q465.9969 180.21875 466.0594 178.75ZM464.3875 178.75Q464.9344 178.75 465.3875 178.42188Q465.85626 178.07812 466.075 177.59375L466.075 177.15625Q466.075 176.09375 465.60626 175.42188Q465.1375 174.75 464.4344 174.75Q463.71564 174.75 463.27814 175.29688Q462.85626 175.84375 462.85626 176.75Q462.85626 177.625 463.2625 178.1875Q463.6844 178.75 464.3875 178.75Z" fill-rule="nonzero"/><path fill="#000000" d="M452.40314 178.21875L452.84064 173.96875L457.21564 173.96875L457.21564 174.96875L453.7625 174.96875L453.4969 177.29688Q454.1375 176.92188 454.9344 176.92188Q456.09064 176.92188 456.77814 177.70312Q457.46564 178.46875 457.46564 179.78125Q457.46564 181.09375 456.7469 181.85938Q456.04376 182.625 454.7625 182.625Q453.6375 182.625 452.91876 182.0Q452.2 181.35938 452.10626 180.25L453.1219 180.25Q453.23126 180.98438 453.65314 181.35938Q454.075 181.73438 454.7625 181.73438Q455.5125 181.73438 455.95 181.21875Q456.3875 180.70312 456.3875 179.79688Q456.3875 178.9375 455.91876 178.42188Q455.45 177.90625 454.66876 177.90625Q453.96564 177.90625 453.5594 178.20312L453.27814 178.4375L452.40314 178.21875ZM459.04376 181.9375Q459.04376 181.65625 459.2 181.46875Q459.3719 181.28125 459.7 181.28125Q460.04376 181.28125 460.21564 181.46875Q460.3875 181.65625 460.3875 181.9375Q460.3875 182.20312 460.21564 182.39062Q460.04376 182.5625 459.7 182.5625Q459.3719 182.5625 459.2 182.39062Q459.04376 182.20312 459.04376 181.9375ZM466.0594 178.75Q465.73126 179.15625 465.2469 179.40625Q464.77814 179.64062 464.21564 179.64062Q463.48126 179.64062 462.9344 179.28125Q462.3875 178.92188 462.09064 178.26562Q461.79376 177.59375 461.79376 176.79688Q461.79376 175.95312 462.10626 175.26562Q462.4344 174.57812 463.02814 174.21875Q463.6375 173.84375 464.4344 173.84375Q465.7 173.84375 466.41876 174.79688Q467.15314 175.75 467.15314 177.375L467.15314 177.6875Q467.15314 180.1875 466.16876 181.32812Q465.1844 182.46875 463.2 182.5L462.98126 182.5L462.98126 181.59375L463.21564 181.59375Q464.5594 181.5625 465.27814 180.89062Q465.9969 180.21875 466.0594 178.75ZM464.3875 178.75Q464.9344 178.75 465.3875 178.42188Q465.85626 178.07812 466.075 177.59375L466.075 177.15625Q466.075 176.09375 465.60626 175.42188Q465.1375 174.75 464.4344 174.75Q463.71564 174.75 463.27814 175.29688Q462.85626 175.84375 462.85626 176.75Q462.85626 177.625 463.2625 178.1875Q463.6844 178.75 464.3875 178.75Z" fill-rule="nonzero"/><path fill="#757575" d="M25.5 37.590977Q24.0625 37.1691 23.390625 36.559727Q22.734375 35.95035 22.734375 35.059727Q22.734375 34.059727 23.53125 33.403477Q24.34375 32.7316 25.640625 32.7316Q26.515625 32.7316 27.203125 33.07535Q27.890625 33.4191 28.265625 34.01285Q28.65625 34.6066 28.65625 35.32535L27.515625 35.32535Q27.515625 34.5441 27.015625 34.1066Q26.53125 33.6691 25.640625 33.6691Q24.8125 33.6691 24.34375 34.0441Q23.875 34.403477 23.875 35.0441Q23.875 35.57535 24.3125 35.934727Q24.765625 36.2941 25.828125 36.590977Q26.890625 36.88785 27.484375 37.247227Q28.09375 37.6066 28.375 38.090977Q28.671875 38.57535 28.671875 39.215977Q28.671875 40.26285 27.859375 40.88785Q27.046875 41.51285 25.703125 41.51285Q24.8125 41.51285 24.046875 41.1691Q23.296875 40.82535 22.875 40.247227Q22.46875 39.653477 22.46875 38.9191L23.59375 38.9191Q23.59375 39.684727 24.171875 40.13785Q24.75 40.590977 25.703125 40.590977Q26.59375 40.590977 27.0625 40.2316Q27.53125 39.8566 27.53125 39.2316Q27.53125 38.6066 27.09375 38.26285Q26.65625 37.9191 25.5 37.590977ZM31.890625 39.7941L33.375 35.0441L34.53125 35.0441L31.984375 42.372227Q31.390625 43.95035 30.109375 43.95035L29.890625 43.934727L29.5 43.8566L29.5 42.9816L29.78125 42.997227Q30.34375 42.997227 30.640625 42.778477Q30.953125 42.559727 31.15625 41.965977L31.390625 41.309727L29.125 35.0441L30.3125 35.0441L31.890625 39.7941ZM36.84375 35.0441L36.875 35.747227Q37.5625 34.934727 38.75 34.934727Q40.078125 34.934727 40.5625 35.95035Q40.875 35.497227 41.375 35.215977Q41.890625 34.934727 42.578125 34.934727Q44.671875 34.934727 44.703125 37.13785L44.703125 41.38785L43.625 41.38785L43.625 37.20035Q43.625 36.528477 43.3125 36.20035Q43.0 35.8566 42.265625 35.8566Q41.65625 35.8566 41.25 36.215977Q40.859375 36.57535 40.796875 37.184727L40.796875 41.38785L39.71875 41.38785L39.71875 37.2316Q39.71875 35.8566 38.359375 35.8566Q37.296875 35.8566 36.90625 36.76285L36.90625 41.38785L35.8125 41.38785L35.8125 35.0441L36.84375 35.0441ZM48.0 41.38785L46.921875 41.38785L46.921875 32.38785L48.0 32.38785L48.0 41.38785ZM52.453125 41.51285Q51.15625 41.51285 50.34375 40.6691Q49.546875 39.809727 49.546875 38.38785L49.546875 38.20035Q49.546875 37.247227 49.90625 36.51285Q50.265625 35.76285 50.90625 35.3566Q51.5625 34.934727 52.3125 34.934727Q53.546875 34.934727 54.234375 35.747227Q54.921875 36.559727 54.921875 38.07535L54.921875 38.528477L50.625 38.528477Q50.65625 39.465977 51.171875 40.0441Q51.703125 40.622227 52.515625 40.622227Q53.078125 40.622227 53.46875 40.38785Q53.875 40.153477 54.1875 39.76285L54.84375 40.278477Q54.046875 41.51285 52.453125 41.51285ZM52.3125 35.82535Q51.65625 35.82535 51.203125 36.309727Q50.765625 36.778477 50.671875 37.63785L53.84375 37.63785L53.84375 37.559727Q53.796875 36.7316 53.390625 36.278477Q53.0 35.82535 52.3125 35.82535ZM57.953125 37.3566L59.359375 35.0441L60.625 35.0441L58.546875 38.184727L60.6875 41.38785L59.4375 41.38785L57.96875 39.01285L56.5 41.38785L55.234375 41.38785L57.375 38.184727L55.3125 35.0441L56.5625 35.0441L57.953125 37.3566ZM69.28125 38.528477L70.46875 38.528477L70.46875 39.403477L69.28125 39.403477L69.28125 41.38785L68.203125 41.38785L68.203125 39.403477L64.3125 39.403477L64.3125 38.76285L68.125 32.8566L69.28125 32.8566L69.28125 38.528477ZM65.546875 38.528477L68.203125 38.528477L68.203125 34.340977L68.0625 34.57535L65.546875 38.528477ZM71.84375 40.82535Q71.84375 40.5441 72.0 40.3566Q72.171875 40.1691 72.5 40.1691Q72.84375 40.1691 73.015625 40.3566Q73.1875 40.5441 73.1875 40.82535Q73.1875 41.090977 73.015625 41.278477Q72.84375 41.45035 72.5 41.45035Q72.171875 41.45035 72.0 41.278477Q71.84375 41.090977 71.84375 40.82535ZM78.265625 41.38785L77.1875 41.38785L77.1875 34.1691L75.0 34.965977L75.0 33.9816L78.109375 32.809727L78.265625 32.809727L78.265625 41.38785Z" fill-rule="nonzero"/><path fill="#757575" d="M16.5 72.980385Q15.0625 72.55851 14.390625 71.949135Q13.734375 71.33976 13.734375 70.449135Q13.734375 69.449135 14.53125 68.792885Q15.34375 68.12101 16.640625 68.12101Q17.515625 68.12101 18.203125 68.46476Q18.890625 68.80851 19.265625 69.40226Q19.65625 69.99601 19.65625 70.71476L18.515625 70.71476Q18.515625 69.93351 18.015625 69.49601Q17.53125 69.05851 16.640625 69.05851Q15.8125 69.05851 15.34375 69.43351Q14.875 69.792885 14.875 70.43351Q14.875 70.96476 15.3125 71.324135Q15.765625 71.68351 16.828125 71.980385Q17.890625 72.27726 18.484375 72.636635Q19.09375 72.99601 19.375 73.480385Q19.671875 73.96476 19.671875 74.605385Q19.671875 75.65226 18.859375 76.27726Q18.046875 76.90226 16.703125 76.90226Q15.8125 76.90226 15.046875 76.55851Q14.296875 76.21476 13.875 75.636635Q13.46875 75.042885 13.46875 74.30851L14.59375 74.30851Q14.59375 75.074135 15.171875 75.52726Q15.75 75.980385 16.703125 75.980385Q17.59375 75.980385 18.0625 75.62101Q18.53125 75.24601 18.53125 74.62101Q18.53125 73.99601 18.09375 73.65226Q17.65625 73.30851 16.5 72.980385ZM22.890625 75.18351L24.375 70.43351L25.53125 70.43351L22.984375 77.761635Q22.390625 79.33976 21.109375 79.33976L20.890625 79.324135L20.5 79.24601L20.5 78.37101L20.78125 78.386635Q21.34375 78.386635 21.640625 78.167885Q21.953125 77.949135 22.15625 77.355385L22.390625 76.699135L20.125 70.43351L21.3125 70.43351L22.890625 75.18351ZM27.84375 70.43351L27.875 71.136635Q28.5625 70.324135 29.75 70.324135Q31.078125 70.324135 31.5625 71.33976Q31.875 70.886635 32.375 70.605385Q32.890625 70.324135 33.578125 70.324135Q35.671875 70.324135 35.703125 72.52726L35.703125 76.77726L34.625 76.77726L34.625 72.58976Q34.625 71.917885 34.3125 71.58976Q34.0 71.24601 33.265625 71.24601Q32.65625 71.24601 32.25 71.605385Q31.859375 71.96476 31.796875 72.574135L31.796875 76.77726L30.71875 76.77726L30.71875 72.62101Q30.71875 71.24601 29.359375 71.24601Q28.296875 71.24601 27.90625 72.15226L27.90625 76.77726L26.8125 76.77726L26.8125 70.43351L27.84375 70.43351ZM38.359375 76.77726L38.359375 71.27726L37.359375 71.27726L37.359375 70.43351L38.359375 70.43351L38.359375 69.792885Q38.359375 68.761635 38.890625 68.21476Q39.4375 67.65226 40.4375 67.65226Q40.8125 67.65226 41.1875 67.74601L41.125 68.636635Q40.84375 68.574135 40.546875 68.574135Q40.015625 68.574135 39.71875 68.886635Q39.4375 69.199135 39.4375 69.761635L39.4375 70.43351L40.796875 70.43351L40.796875 71.27726L39.4375 71.27726L39.4375 76.77726L38.359375 76.77726ZM41.53125 73.542885Q41.53125 72.62101 41.890625 71.87101Q42.265625 71.12101 42.921875 70.730385Q43.578125 70.324135 44.40625 70.324135Q45.703125 70.324135 46.5 71.21476Q47.3125 72.105385 47.3125 73.605385L47.3125 73.68351Q47.3125 74.605385 46.953125 75.33976Q46.59375 76.074135 45.9375 76.49601Q45.28125 76.90226 44.421875 76.90226Q43.140625 76.90226 42.328125 76.011635Q41.53125 75.105385 41.53125 73.62101L41.53125 73.542885ZM42.625 73.68351Q42.625 74.730385 43.109375 75.37101Q43.609375 76.011635 44.421875 76.011635Q45.25 76.011635 45.734375 75.37101Q46.21875 74.71476 46.21875 73.542885Q46.21875 72.511635 45.71875 71.87101Q45.234375 71.21476 44.40625 71.21476Q43.609375 71.21476 43.109375 71.855385Q42.625 72.480385 42.625 73.68351ZM49.84375 70.43351L49.875 71.230385Q50.609375 70.324135 51.78125 70.324135Q53.796875 70.324135 53.8125 72.58976L53.8125 76.77726L52.71875 76.77726L52.71875 72.574135Q52.71875 71.90226 52.40625 71.574135Q52.109375 71.24601 51.453125 71.24601Q50.921875 71.24601 50.515625 71.52726Q50.125 71.80851 49.90625 72.261635L49.90625 76.77726L48.828125 76.77726L48.828125 70.43351L49.84375 70.43351ZM57.890625 75.18351L59.375 70.43351L60.53125 70.43351L57.984375 77.761635Q57.390625 79.33976 56.109375 79.33976L55.890625 79.324135L55.5 79.24601L55.5 78.37101L55.78125 78.386635Q56.34375 78.386635 56.640625 78.167885Q56.953125 77.949135 57.15625 77.355385L57.390625 76.699135L55.125 70.43351L56.3125 70.43351L57.890625 75.18351ZM69.28125 73.917885L70.46875 73.917885L70.46875 74.792885L69.28125 74.792885L69.28125 76.77726L68.203125 76.77726L68.203125 74.792885L64.3125 74.792885L64.3125 74.15226L68.125 68.24601L69.28125 68.24601L69.28125 73.917885ZM65.546875 73.917885L68.203125 73.917885L68.203125 69.730385L68.0625 69.96476L65.546875 73.917885ZM71.84375 76.21476Q71.84375 75.93351 72.0 75.74601Q72.171875 75.55851 72.5 75.55851Q72.84375 75.55851 73.015625 75.74601Q73.1875 75.93351 73.1875 76.21476Q73.1875 76.480385 73.015625 76.667885Q72.84375 76.83976 72.5 76.83976Q72.171875 76.83976 72.0 76.667885Q71.84375 76.480385 71.84375 76.21476ZM80.296875 76.77726L74.703125 76.77726L74.703125 75.99601L77.65625 72.71476Q78.3125 71.96476 78.5625 71.511635Q78.8125 71.042885 78.8125 70.542885Q78.8125 69.87101 78.40625 69.449135Q78.015625 69.011635 77.328125 69.011635Q76.53125 69.011635 76.078125 69.480385Q75.625 69.93351 75.625 70.761635L74.546875 70.761635Q74.546875 69.574135 75.296875 68.855385Q76.0625 68.12101 77.328125 68.12101Q78.53125 68.12101 79.21875 68.74601Q79.90625 69.37101 79.90625 70.417885Q79.90625 71.667885 78.296875 73.417885L76.015625 75.886635L80.296875 75.886635L80.296875 76.77726Z" fill-rule="nonzero"/><path fill="#757575" d="M16.5 108.36979Q15.0625 107.947914 14.390625 107.33854Q13.734375 106.729164 13.734375 105.83854Q13.734375 104.83854 14.53125 104.18229Q15.34375 103.510414 16.640625 103.510414Q17.515625 103.510414 18.203125 103.854164Q18.890625 104.197914 19.265625 104.791664Q19.65625 105.385414 19.65625 106.104164L18.515625 106.104164Q18.515625 105.322914 18.015625 104.885414Q17.53125 104.447914 16.640625 104.447914Q15.8125 104.447914 15.34375 104.822914Q14.875 105.18229 14.875 105.822914Q14.875 106.354164 15.3125 106.71354Q15.765625 107.072914 16.828125 107.36979Q17.890625 107.666664 18.484375 108.02604Q19.09375 108.385414 19.375 108.86979Q19.671875 109.354164 19.671875 109.99479Q19.671875 111.041664 18.859375 111.666664Q18.046875 112.291664 16.703125 112.291664Q15.8125 112.291664 15.046875 111.947914Q14.296875 111.604164 13.875 111.02604Q13.46875 110.43229 13.46875 109.697914L14.59375 109.697914Q14.59375 110.46354 15.171875 110.916664Q15.75 111.36979 16.703125 111.36979Q17.59375 111.36979 18.0625 111.010414Q18.53125 110.635414 18.53125 110.010414Q18.53125 109.385414 18.09375 109.041664Q17.65625 108.697914 16.5 108.36979ZM22.890625 110.572914L24.375 105.822914L25.53125 105.822914L22.984375 113.15104Q22.390625 114.729164 21.109375 114.729164L20.890625 114.71354L20.5 114.635414L20.5 113.760414L20.78125 113.77604Q21.34375 113.77604 21.640625 113.55729Q21.953125 113.33854 22.15625 112.74479L22.390625 112.08854L20.125 105.822914L21.3125 105.822914L22.890625 110.572914ZM27.84375 105.822914L27.875 106.52604Q28.5625 105.71354 29.75 105.71354Q31.078125 105.71354 31.5625 106.729164Q31.875 106.27604 32.375 105.99479Q32.890625 105.71354 33.578125 105.71354Q35.671875 105.71354 35.703125 107.916664L35.703125 112.166664L34.625 112.166664L34.625 107.979164Q34.625 107.30729 34.3125 106.979164Q34.0 106.635414 33.265625 106.635414Q32.65625 106.635414 32.25 106.99479Q31.859375 107.354164 31.796875 107.96354L31.796875 112.166664L30.71875 112.166664L30.71875 108.010414Q30.71875 106.635414 29.359375 106.635414Q28.296875 106.635414 27.90625 107.541664L27.90625 112.166664L26.8125 112.166664L26.8125 105.822914L27.84375 105.822914ZM38.359375 112.166664L38.359375 106.666664L37.359375 106.666664L37.359375 105.822914L38.359375 105.822914L38.359375 105.18229Q38.359375 104.15104 38.890625 103.604164Q39.4375 103.041664 40.4375 103.041664Q40.8125 103.041664 41.1875 103.135414L41.125 104.02604Q40.84375 103.96354 40.546875 103.96354Q40.015625 103.96354 39.71875 104.27604Q39.4375 104.58854 39.4375 105.15104L39.4375 105.822914L40.796875 105.822914L40.796875 106.666664L39.4375 106.666664L39.4375 112.166664L38.359375 112.166664ZM41.53125 108.93229Q41.53125 108.010414 41.890625 107.260414Q42.265625 106.510414 42.921875 106.11979Q43.578125 105.71354 44.40625 105.71354Q45.703125 105.71354 46.5 106.604164Q47.3125 107.49479 47.3125 108.99479L47.3125 109.072914Q47.3125 109.99479 46.953125 110.729164Q46.59375 111.46354 45.9375 111.885414Q45.28125 112.291664 44.421875 112.291664Q43.140625 112.291664 42.328125 111.40104Q41.53125 110.49479 41.53125 109.010414L41.53125 108.93229ZM42.625 109.072914Q42.625 110.11979 43.109375 110.760414Q43.609375 111.40104 44.421875 111.40104Q45.25 111.40104 45.734375 110.760414Q46.21875 110.104164 46.21875 108.93229Q46.21875 107.90104 45.71875 107.260414Q45.234375 106.604164 44.40625 106.604164Q43.609375 106.604164 43.109375 107.24479Q42.625 107.86979 42.625 109.072914ZM49.84375 105.822914L49.875 106.61979Q50.609375 105.71354 51.78125 105.71354Q53.796875 105.71354 53.8125 107.979164L53.8125 112.166664L52.71875 112.166664L52.71875 107.96354Q52.71875 107.291664 52.40625 106.96354Q52.109375 106.635414 51.453125 106.635414Q50.921875 106.635414 50.515625 106.916664Q50.125 107.197914 49.90625 107.65104L49.90625 112.166664L48.828125 112.166664L48.828125 105.822914L49.84375 105.822914ZM57.890625 110.572914L59.375 105.822914L60.53125 105.822914L57.984375 113.15104Q57.390625 114.729164 56.109375 114.729164L55.890625 114.71354L55.5 114.635414L55.5 113.760414L55.78125 113.77604Q56.34375 113.77604 56.640625 113.55729Q56.953125 113.33854 57.15625 112.74479L57.390625 112.08854L55.125 105.822914L56.3125 105.822914L57.890625 110.572914ZM66.28125 107.36979L67.09375 107.36979Q67.875 107.354164 68.3125 106.96354Q68.75 106.572914 68.75 105.90104Q68.75 104.40104 67.25 104.40104Q66.546875 104.40104 66.125 104.80729Q65.71875 105.21354 65.71875 105.86979L64.625 105.86979Q64.625 104.854164 65.359375 104.18229Q66.109375 103.510414 67.25 103.510414Q68.453125 103.510414 69.140625 104.15104Q69.828125 104.791664 69.828125 105.93229Q69.828125 106.49479 69.46875 107.010414Q69.109375 107.52604 68.484375 107.791664Q69.1875 108.010414 69.5625 108.52604Q69.953125 109.041664 69.953125 109.791664Q69.953125 110.93229 69.203125 111.61979Q68.453125 112.291664 67.25 112.291664Q66.0625 112.291664 65.296875 111.635414Q64.546875 110.979164 64.546875 109.916664L65.640625 109.916664Q65.640625 110.58854 66.078125 110.99479Q66.515625 111.40104 67.265625 111.40104Q68.046875 111.40104 68.453125 110.99479Q68.875 110.572914 68.875 109.80729Q68.875 109.072914 68.421875 108.68229Q67.96875 108.27604 67.09375 108.260414L66.28125 108.260414L66.28125 107.36979ZM71.84375 111.604164Q71.84375 111.322914 72.0 111.135414Q72.171875 110.947914 72.5 110.947914Q72.84375 110.947914 73.015625 111.135414Q73.1875 111.322914 73.1875 111.604164Q73.1875 111.86979 73.015625 112.05729Q72.84375 112.229164 72.5 112.229164Q72.171875 112.229164 72.0 112.05729Q71.84375 111.86979 71.84375 111.604164ZM79.28125 109.30729L80.46875 109.30729L80.46875 110.18229L79.28125 110.18229L79.28125 112.166664L78.203125 112.166664L78.203125 110.18229L74.3125 110.18229L74.3125 109.541664L78.125 103.635414L79.28125 103.635414L79.28125 109.30729ZM75.546875 109.30729L78.203125 109.30729L78.203125 105.11979L78.0625 105.354164L75.546875 109.30729Z" fill-rule="nonzero"/><path fill="#757575" d="M35.828125 146.6342L40.71875 146.6342L40.71875 147.55608L34.5 147.55608L34.5 146.71233L39.1875 139.9467L34.578125 139.9467L34.578125 139.02483L40.53125 139.02483L40.53125 139.85295L35.828125 146.6342ZM44.453125 147.68108Q43.15625 147.68108 42.34375 146.83733Q41.546875 145.97795 41.546875 144.55608L41.546875 144.36858Q41.546875 143.41545 41.90625 142.68108Q42.265625 141.93108 42.90625 141.52483Q43.5625 141.10295 44.3125 141.10295Q45.546875 141.10295 46.234375 141.91545Q46.921875 142.72795 46.921875 144.24358L46.921875 144.6967L42.625 144.6967Q42.65625 145.6342 43.171875 146.21233Q43.703125 146.79045 44.515625 146.79045Q45.078125 146.79045 45.46875 146.55608Q45.875 146.3217 46.1875 145.93108L46.84375 146.4467Q46.046875 147.68108 44.453125 147.68108ZM44.3125 141.99358Q43.65625 141.99358 43.203125 142.47795Q42.765625 142.9467 42.671875 143.80608L45.84375 143.80608L45.84375 143.72795Q45.796875 142.89983 45.390625 142.4467Q45.0 141.99358 44.3125 141.99358ZM48.84375 141.21233L48.875 142.0092Q49.609375 141.10295 50.78125 141.10295Q52.796875 141.10295 52.8125 143.36858L52.8125 147.55608L51.71875 147.55608L51.71875 143.35295Q51.71875 142.68108 51.40625 142.35295Q51.109375 142.02483 50.453125 142.02483Q49.921875 142.02483 49.515625 142.30608Q49.125 142.58733 48.90625 143.04045L48.90625 147.55608L47.828125 147.55608L47.828125 141.21233L48.84375 141.21233ZM54.5625 144.33733Q54.5625 142.86858 55.25 141.99358Q55.9375 141.10295 57.0625 141.10295Q58.171875 141.10295 58.828125 141.85295L58.828125 138.55608L59.90625 138.55608L59.90625 147.55608L58.90625 147.55608L58.859375 146.86858Q58.203125 147.68108 57.046875 147.68108Q55.953125 147.68108 55.25 146.77483Q54.5625 145.86858 54.5625 144.41545L54.5625 144.33733ZM55.640625 144.46233Q55.640625 145.54045 56.078125 146.14983Q56.53125 146.7592 57.3125 146.7592Q58.34375 146.7592 58.828125 145.8217L58.828125 142.91545Q58.34375 142.02483 57.328125 142.02483Q56.53125 142.02483 56.078125 142.6342Q55.640625 143.24358 55.640625 144.46233ZM66.28125 142.7592L67.09375 142.7592Q67.875 142.74358 68.3125 142.35295Q68.75 141.96233 68.75 141.29045Q68.75 139.79045 67.25 139.79045Q66.546875 139.79045 66.125 140.1967Q65.71875 140.60295 65.71875 141.2592L64.625 141.2592Q64.625 140.24358 65.359375 139.5717Q66.109375 138.89983 67.25 138.89983Q68.453125 138.89983 69.140625 139.54045Q69.828125 140.18108 69.828125 141.3217Q69.828125 141.8842 69.46875 142.39983Q69.109375 142.91545 68.484375 143.18108Q69.1875 143.39983 69.5625 143.91545Q69.953125 144.43108 69.953125 145.18108Q69.953125 146.3217 69.203125 147.0092Q68.453125 147.68108 67.25 147.68108Q66.0625 147.68108 65.296875 147.02483Q64.546875 146.36858 64.546875 145.30608L65.640625 145.30608Q65.640625 145.97795 66.078125 146.3842Q66.515625 146.79045 67.265625 146.79045Q68.046875 146.79045 68.453125 146.3842Q68.875 145.96233 68.875 145.1967Q68.875 144.46233 68.421875 144.0717Q67.96875 143.66545 67.09375 143.64983L66.28125 143.64983L66.28125 142.7592ZM71.84375 146.99358Q71.84375 146.71233 72.0 146.52483Q72.171875 146.33733 72.5 146.33733Q72.84375 146.33733 73.015625 146.52483Q73.1875 146.71233 73.1875 146.99358Q73.1875 147.2592 73.015625 147.4467Q72.84375 147.61858 72.5 147.61858Q72.171875 147.61858 72.0 147.4467Q71.84375 147.2592 71.84375 146.99358ZM80.0625 143.91545Q80.0625 145.8217 79.40625 146.7592Q78.765625 147.68108 77.375 147.68108Q76.015625 147.68108 75.359375 146.77483Q74.703125 145.86858 74.671875 144.05608L74.671875 142.61858Q74.671875 140.72795 75.3125 139.8217Q75.96875 138.89983 77.359375 138.89983Q78.734375 138.89983 79.390625 139.79045Q80.046875 140.66545 80.0625 142.5092L80.0625 143.91545ZM78.96875 142.43108Q78.96875 141.05608 78.578125 140.43108Q78.203125 139.79045 77.359375 139.79045Q76.53125 139.79045 76.140625 140.43108Q75.765625 141.05608 75.765625 142.35295L75.765625 144.08733Q75.765625 145.46233 76.15625 146.1342Q76.5625 146.79045 77.375 146.79045Q78.171875 146.79045 78.5625 146.16545Q78.953125 145.54045 78.96875 144.21233L78.96875 142.43108Z" fill-rule="nonzero"/><path fill="#757575" d="M24.125 182.0236L28.171875 182.0236L28.171875 182.94548L22.984375 182.94548L22.984375 174.41423L24.125 174.41423L24.125 182.0236ZM32.734375 182.94548Q32.640625 182.75798 32.578125 182.2736Q31.828125 183.07048 30.78125 183.07048Q29.84375 183.07048 29.234375 182.53923Q28.640625 182.00798 28.640625 181.17986Q28.640625 180.19548 29.390625 179.6486Q30.140625 179.10173 31.515625 179.10173L32.5625 179.10173L32.5625 178.60173Q32.5625 178.03923 32.21875 177.7111Q31.890625 177.36736 31.21875 177.36736Q30.640625 177.36736 30.25 177.66423Q29.859375 177.94548 29.859375 178.36736L28.765625 178.36736Q28.765625 177.88298 29.09375 177.44548Q29.4375 177.00798 30.015625 176.75798Q30.59375 176.49236 31.28125 176.49236Q32.390625 176.49236 33.0 177.03923Q33.625 177.5861 33.65625 178.53923L33.65625 181.4611Q33.65625 182.3361 33.875 182.85173L33.875 182.94548L32.734375 182.94548ZM30.9375 182.11736Q31.453125 182.11736 31.90625 181.85173Q32.359375 181.5861 32.5625 181.16423L32.5625 179.86736L31.71875 179.86736Q29.71875 179.86736 29.71875 181.03923Q29.71875 181.53923 30.0625 181.8361Q30.40625 182.11736 30.9375 182.11736ZM38.890625 177.57048Q38.640625 177.53923 38.359375 177.53923Q37.28125 177.53923 36.90625 178.44548L36.90625 182.94548L35.828125 182.94548L35.828125 176.60173L36.875 176.60173L36.890625 177.3361Q37.421875 176.49236 38.40625 176.49236Q38.71875 176.49236 38.890625 176.57048L38.890625 177.57048ZM43.734375 182.94548Q43.640625 182.75798 43.578125 182.2736Q42.828125 183.07048 41.78125 183.07048Q40.84375 183.07048 40.234375 182.53923Q39.640625 182.00798 39.640625 181.17986Q39.640625 180.19548 40.390625 179.6486Q41.140625 179.10173 42.515625 179.10173L43.5625 179.10173L43.5625 178.60173Q43.5625 178.03923 43.21875 177.7111Q42.890625 177.36736 42.21875 177.36736Q41.640625 177.36736 41.25 177.66423Q40.859375 177.94548 40.859375 178.36736L39.765625 178.36736Q39.765625 177.88298 40.09375 177.44548Q40.4375 177.00798 41.015625 176.75798Q41.59375 176.49236 42.28125 176.49236Q43.390625 176.49236 44.0 177.03923Q44.625 177.5861 44.65625 178.53923L44.65625 181.4611Q44.65625 182.3361 44.875 182.85173L44.875 182.94548L43.734375 182.94548ZM41.9375 182.11736Q42.453125 182.11736 42.90625 181.85173Q43.359375 181.5861 43.5625 181.16423L43.5625 179.86736L42.71875 179.86736Q40.71875 179.86736 40.71875 181.03923Q40.71875 181.53923 41.0625 181.8361Q41.40625 182.11736 41.9375 182.11736ZM48.90625 181.47673L50.484375 176.60173L51.59375 176.60173L49.3125 182.94548L48.484375 182.94548L46.1875 176.60173L47.296875 176.60173L48.90625 181.47673ZM55.453125 183.07048Q54.15625 183.07048 53.34375 182.22673Q52.546875 181.36736 52.546875 179.94548L52.546875 179.75798Q52.546875 178.80486 52.90625 178.07048Q53.265625 177.32048 53.90625 176.91423Q54.5625 176.49236 55.3125 176.49236Q56.546875 176.49236 57.234375 177.30486Q57.921875 178.11736 57.921875 179.63298L57.921875 180.0861L53.625 180.0861Q53.65625 181.0236 54.171875 181.60173Q54.703125 182.17986 55.515625 182.17986Q56.078125 182.17986 56.46875 181.94548Q56.875 181.7111 57.1875 181.32048L57.84375 181.8361Q57.046875 183.07048 55.453125 183.07048ZM55.3125 177.38298Q54.65625 177.38298 54.203125 177.86736Q53.765625 178.3361 53.671875 179.19548L56.84375 179.19548L56.84375 179.11736Q56.796875 178.28923 56.390625 177.8361Q56.0 177.38298 55.3125 177.38298ZM60.0 182.94548L58.921875 182.94548L58.921875 173.94548L60.0 173.94548L60.0 182.94548ZM65.203125 178.66423L65.640625 174.41423L70.015625 174.41423L70.015625 175.41423L66.5625 175.41423L66.296875 177.74236Q66.9375 177.36736 67.734375 177.36736Q68.890625 177.36736 69.578125 178.1486Q70.265625 178.91423 70.265625 180.22673Q70.265625 181.53923 69.546875 182.30486Q68.84375 183.07048 67.5625 183.07048Q66.4375 183.07048 65.71875 182.44548Q65.0 181.80486 64.90625 180.69548L65.921875 180.69548Q66.03125 181.42986 66.453125 181.80486Q66.875 182.17986 67.5625 182.17986Q68.3125 182.17986 68.75 181.66423Q69.1875 181.1486 69.1875 180.24236Q69.1875 179.38298 68.71875 178.86736Q68.25 178.35173 67.46875 178.35173Q66.765625 178.35173 66.359375 178.6486L66.078125 178.88298L65.203125 178.66423ZM71.84375 182.38298Q71.84375 182.10173 72.0 181.91423Q72.171875 181.72673 72.5 181.72673Q72.84375 181.72673 73.015625 181.91423Q73.1875 182.10173 73.1875 182.38298Q73.1875 182.6486 73.015625 182.8361Q72.84375 183.00798 72.5 183.00798Q72.171875 183.00798 72.0 182.8361Q71.84375 182.6486 71.84375 182.38298ZM80.21875 175.0236L76.6875 182.94548L75.546875 182.94548L79.0625 175.30486L74.453125 175.30486L74.453125 174.41423L80.21875 174.41423L80.21875 175.0236Z" fill-rule="nonzero"/><path fill="#757575" d="M89.5625 216.6927Q89.5625 218.59895 88.90625 219.53645Q88.265625 220.45833 86.875 220.45833Q85.515625 220.45833 84.859375 219.55208Q84.203125 218.64583 84.171875 216.83333L84.171875 215.39583Q84.171875 213.5052 84.8125 212.59895Q85.46875 211.67708 86.859375 211.67708Q88.234375 211.67708 88.890625 212.5677Q89.546875 213.4427 89.5625 215.28645L89.5625 216.6927ZM88.46875 215.20833Q88.46875 213.83333 88.078125 213.20833Q87.703125 212.5677 86.859375 212.5677Q86.03125 212.5677 85.640625 213.20833Q85.265625 213.83333 85.265625 215.1302L85.265625 216.86458Q85.265625 218.23958 85.65625 218.91145Q86.0625 219.5677 86.875 219.5677Q87.671875 219.5677 88.0625 218.9427Q88.453125 218.3177 88.46875 216.98958L88.46875 215.20833Z" fill-rule="nonzero"/><path fill="#757575" d="M153.18935 220.33333L152.11122 220.33333L152.11122 213.11458L149.92372 213.91145L149.92372 212.92708L153.0331 211.7552L153.18935 211.7552L153.18935 220.33333Z" fill-rule="nonzero"/><path fill="#757575" d="M220.64433 220.33333L215.05058 220.33333L215.05058 219.55208L218.00371 216.27083Q218.65996 215.52083 218.90996 215.0677Q219.15996 214.59895 219.15996 214.09895Q219.15996 213.42708 218.75371 213.0052Q218.36308 212.5677 217.67558 212.5677Q216.87871 212.5677 216.42558 213.03645Q215.97246 213.48958 215.97246 214.3177L214.89433 214.3177Q214.89433 213.1302 215.64433 212.41145Q216.40996 211.67708 217.67558 211.67708Q218.87871 211.67708 219.56621 212.30208Q220.25371 212.92708 220.25371 213.97395Q220.25371 215.22395 218.64433 216.97395L216.36308 219.4427L220.64433 219.4427L220.64433 220.33333Z" fill-rule="nonzero"/><path fill="#757575" d="M282.05243 215.53645L282.86493 215.53645Q283.64618 215.52083 284.08368 215.1302Q284.52118 214.73958 284.52118 214.0677Q284.52118 212.5677 283.02118 212.5677Q282.31805 212.5677 281.89618 212.97395Q281.48993 213.3802 281.48993 214.03645L280.39618 214.03645Q280.39618 213.02083 281.13055 212.34895Q281.88055 211.67708 283.02118 211.67708Q284.2243 211.67708 284.9118 212.3177Q285.5993 212.95833 285.5993 214.09895Q285.5993 214.66145 285.23993 215.17708Q284.88055 215.6927 284.25555 215.95833Q284.95868 216.17708 285.33368 216.6927Q285.7243 217.20833 285.7243 217.95833Q285.7243 219.09895 284.9743 219.78645Q284.2243 220.45833 283.02118 220.45833Q281.83368 220.45833 281.06805 219.80208Q280.31805 219.14583 280.31805 218.08333L281.4118 218.08333Q281.4118 218.7552 281.8493 219.16145Q282.2868 219.5677 283.0368 219.5677Q283.81805 219.5677 284.2243 219.16145Q284.64618 218.73958 284.64618 217.97395Q284.64618 217.23958 284.19305 216.84895Q283.73993 216.4427 282.86493 216.42708L282.05243 216.42708L282.05243 215.53645Z" fill-rule="nonzero"/><path fill="#757575" d="M350.47617 217.47395L351.66367 217.47395L351.66367 218.34895L350.47617 218.34895L350.47617 220.33333L349.39804 220.33333L349.39804 218.34895L345.50742 218.34895L345.50742 217.70833L349.31992 211.80208L350.47617 211.80208L350.47617 217.47395ZM346.7418 217.47395L349.39804 217.47395L349.39804 213.28645L349.25742 213.52083L346.7418 217.47395Z" fill-rule="nonzero"/><path fill="#757575" d="M411.82178 216.05208L412.25928 211.80208L416.63428 211.80208L416.63428 212.80208L413.18115 212.80208L412.91553 215.1302Q413.55615 214.7552 414.35303 214.7552Q415.50928 214.7552 416.19678 215.53645Q416.88428 216.30208 416.88428 217.61458Q416.88428 218.92708 416.16553 219.6927Q415.4624 220.45833 414.18115 220.45833Q413.05615 220.45833 412.3374 219.83333Q411.61865 219.1927 411.5249 218.08333L412.54053 218.08333Q412.6499 218.8177 413.07178 219.1927Q413.49365 219.5677 414.18115 219.5677Q414.93115 219.5677 415.36865 219.05208Q415.80615 218.53645 415.80615 217.6302Q415.80615 216.77083 415.3374 216.2552Q414.86865 215.73958 414.0874 215.73958Q413.38428 215.73958 412.97803 216.03645L412.69678 216.27083L411.82178 216.05208Z" fill-rule="nonzero"/><path fill="#000000" fill-opacity="0.0" d="M130.5 234.5C130.5 233.94771 130.94771 233.5 131.5 233.5L141.5 233.5C142.05229 233.5 142.5 233.94771 142.5 234.5L142.5 244.5C142.5 245.05229 142.05229 245.5 141.5 245.5L131.5 245.5C130.94771 245.5 130.5 245.05229 130.5 244.5Z" fill-rule="nonzero"/><path fill="#757575" d="M154.625 240.54688L152.60938 240.54688L152.60938 244.0L151.48438 244.0L151.48438 235.46875L154.3125 235.46875Q155.75 235.46875 156.51562 236.125Q157.29688 236.78125 157.29688 238.03125Q157.29688 238.82812 156.85938 239.42188Q156.4375 240.01562 155.67188 240.3125L157.67188 243.92188L157.67188 244.0L156.46875 244.0L154.625 240.54688ZM152.60938 239.625L154.34375 239.625Q155.1875 239.625 155.67188 239.20312Q156.17188 238.76562 156.17188 238.03125Q156.17188 237.25 155.70312 236.82812Q155.23438 236.40625 154.34375 236.39062L152.60938 236.39062L152.60938 239.625ZM160.95312 244.125Q159.65625 244.125 158.84375 243.28125Q158.04688 242.42188 158.04688 241.0L158.04688 240.8125Q158.04688 239.85938 158.40625 239.125Q158.76562 238.375 159.40625 237.96875Q160.0625 237.54688 160.8125 237.54688Q162.04688 237.54688 162.73438 238.35938Q163.42188 239.17188 163.42188 240.6875L163.42188 241.14062L159.125 241.14062Q159.15625 242.07812 159.67188 242.65625Q160.20312 243.23438 161.01562 243.23438Q161.57812 243.23438 161.96875 243.0Q162.375 242.76562 162.6875 242.375L163.34375 242.89062Q162.54688 244.125 160.95312 244.125ZM160.8125 238.4375Q160.15625 238.4375 159.70312 238.92188Q159.26562 239.39062 159.17188 240.25L162.34375 240.25L162.34375 240.17188Q162.29688 239.34375 161.89062 238.89062Q161.5 238.4375 160.8125 238.4375ZM168.01562 242.3125Q168.01562 241.875 167.67188 241.64062Q167.34375 241.39062 166.51562 241.21875Q165.70312 241.04688 165.21875 240.79688Q164.73438 240.54688 164.5 240.21875Q164.28125 239.875 164.28125 239.40625Q164.28125 238.625 164.9375 238.09375Q165.59375 237.54688 166.625 237.54688Q167.70312 237.54688 168.35938 238.10938Q169.03125 238.65625 169.03125 239.51562L167.95312 239.51562Q167.95312 239.07812 167.5625 238.76562Q167.1875 238.4375 166.625 238.4375Q166.03125 238.4375 165.6875 238.70312Q165.35938 238.95312 165.35938 239.35938Q165.35938 239.75 165.67188 239.95312Q165.98438 240.15625 166.79688 240.34375Q167.60938 240.51562 168.10938 240.76562Q168.60938 241.01562 168.84375 241.375Q169.09375 241.73438 169.09375 242.23438Q169.09375 243.09375 168.40625 243.60938Q167.73438 244.125 166.65625 244.125Q165.89062 244.125 165.29688 243.85938Q164.71875 243.57812 164.39062 243.09375Q164.0625 242.60938 164.0625 242.04688L165.14062 242.04688Q165.17188 242.59375 165.57812 242.92188Q165.98438 243.23438 166.65625 243.23438Q167.26562 243.23438 167.64062 242.98438Q168.01562 242.73438 168.01562 242.3125ZM175.67188 240.90625Q175.67188 242.34375 175.01562 243.23438Q174.35938 244.125 173.21875 244.125Q172.0625 244.125 171.40625 243.39062L171.40625 246.4375L170.32812 246.4375L170.32812 237.65625L171.3125 237.65625L171.35938 238.35938Q172.03125 237.54688 173.20312 237.54688Q174.34375 237.54688 175.0 238.40625Q175.67188 239.26562 175.67188 240.79688L175.67188 240.90625ZM174.59375 240.78125Q174.59375 239.70312 174.125 239.09375Q173.67188 238.46875 172.875 238.46875Q171.89062 238.46875 171.40625 239.32812L171.40625 242.35938Q171.89062 243.23438 172.89062 243.23438Q173.67188 243.23438 174.125 242.625Q174.59375 242.0 174.59375 240.78125ZM177.03125 240.76562Q177.03125 239.84375 177.39062 239.09375Q177.76562 238.34375 178.42188 237.95312Q179.07812 237.54688 179.90625 237.54688Q181.20312 237.54688 182.0 238.4375Q182.8125 239.32812 182.8125 240.82812L182.8125 240.90625Q182.8125 241.82812 182.45312 242.5625Q182.09375 243.29688 181.4375 243.71875Q180.78125 244.125 179.92188 244.125Q178.64062 244.125 177.82812 243.23438Q177.03125 242.32812 177.03125 240.84375L177.03125 240.76562ZM178.125 240.90625Q178.125 241.95312 178.60938 242.59375Q179.10938 243.23438 179.92188 243.23438Q180.75 243.23438 181.23438 242.59375Q181.71875 241.9375 181.71875 240.76562Q181.71875 239.73438 181.21875 239.09375Q180.73438 238.4375 179.90625 238.4375Q179.10938 238.4375 178.60938 239.07812Q178.125 239.70312 178.125 240.90625ZM185.34375 237.65625L185.375 238.45312Q186.10938 237.54688 187.28125 237.54688Q189.29688 237.54688 189.3125 239.8125L189.3125 244.0L188.21875 244.0L188.21875 239.79688Q188.21875 239.125 187.90625 238.79688Q187.60938 238.46875 186.95312 238.46875Q186.42188 238.46875 186.01562 238.75Q185.625 239.03125 185.40625 239.48438L185.40625 244.0L184.32812 244.0L184.32812 237.65625L185.34375 237.65625ZM195.01562 242.3125Q195.01562 241.875 194.67188 241.64062Q194.34375 241.39062 193.51562 241.21875Q192.70312 241.04688 192.21875 240.79688Q191.73438 240.54688 191.5 240.21875Q191.28125 239.875 191.28125 239.40625Q191.28125 238.625 191.9375 238.09375Q192.59375 237.54688 193.625 237.54688Q194.70312 237.54688 195.35938 238.10938Q196.03125 238.65625 196.03125 239.51562L194.95312 239.51562Q194.95312 239.07812 194.5625 238.76562Q194.1875 238.4375 193.625 238.4375Q193.03125 238.4375 192.6875 238.70312Q192.35938 238.95312 192.35938 239.35938Q192.35938 239.75 192.67188 239.95312Q192.98438 240.15625 193.79688 240.34375Q194.60938 240.51562 195.10938 240.76562Q195.60938 241.01562 195.84375 241.375Q196.09375 241.73438 196.09375 242.23438Q196.09375 243.09375 195.40625 243.60938Q194.73438 244.125 193.65625 244.125Q192.89062 244.125 192.29688 243.85938Q191.71875 243.57812 191.39062 243.09375Q191.0625 242.60938 191.0625 242.04688L192.14062 242.04688Q192.17188 242.59375 192.57812 242.92188Q192.98438 243.23438 193.65625 243.23438Q194.26562 243.23438 194.64062 242.98438Q195.01562 242.73438 195.01562 242.3125ZM199.95312 244.125Q198.65625 244.125 197.84375 243.28125Q197.04688 242.42188 197.04688 241.0L197.04688 240.8125Q197.04688 239.85938 197.40625 239.125Q197.76562 238.375 198.40625 237.96875Q199.0625 237.54688 199.8125 237.54688Q201.04688 237.54688 201.73438 238.35938Q202.42188 239.17188 202.42188 240.6875L202.42188 241.14062L198.125 241.14062Q198.15625 242.07812 198.67188 242.65625Q199.20312 243.23438 200.01562 243.23438Q200.57812 243.23438 200.96875 243.0Q201.375 242.76562 201.6875 242.375L202.34375 242.89062Q201.54688 244.125 199.95312 244.125ZM199.8125 238.4375Q199.15625 238.4375 198.70312 238.92188Q198.26562 239.39062 198.17188 240.25L201.34375 240.25L201.34375 240.17188Q201.29688 239.34375 200.89062 238.89062Q200.5 238.4375 199.8125 238.4375ZM212.39062 236.39062L209.64062 236.39062L209.64062 244.0L208.53125 244.0L208.53125 236.39062L205.78125 236.39062L205.78125 235.46875L212.39062 235.46875L212.39062 236.39062ZM214.5 244.0L213.42188 244.0L213.42188 237.65625L214.5 237.65625L214.5 244.0ZM213.32812 235.98438Q213.32812 235.71875 213.48438 235.53125Q213.65625 235.34375 213.96875 235.34375Q214.28125 235.34375 214.4375 235.53125Q214.60938 235.71875 214.60938 235.98438Q214.60938 236.23438 214.4375 236.42188Q214.28125 236.59375 213.96875 236.59375Q213.65625 236.59375 213.48438 236.42188Q213.32812 236.23438 213.32812 235.98438ZM217.34375 237.65625L217.375 238.35938Q218.0625 237.54688 219.25 237.54688Q220.57812 237.54688 221.0625 238.5625Q221.375 238.10938 221.875 237.82812Q222.39062 237.54688 223.07812 237.54688Q225.17188 237.54688 225.20312 239.75L225.20312 244.0L224.125 244.0L224.125 239.8125Q224.125 239.14062 223.8125 238.8125Q223.5 238.46875 222.76562 238.46875Q222.15625 238.46875 221.75 238.82812Q221.35938 239.1875 221.29688 239.79688L221.29688 244.0L220.21875 244.0L220.21875 239.84375Q220.21875 238.46875 218.85938 238.46875Q217.79688 238.46875 217.40625 239.375L217.40625 244.0L216.3125 244.0L216.3125 237.65625L217.34375 237.65625ZM229.95312 244.125Q228.65625 244.125 227.84375 243.28125Q227.04688 242.42188 227.04688 241.0L227.04688 240.8125Q227.04688 239.85938 227.40625 239.125Q227.76562 238.375 228.40625 237.96875Q229.0625 237.54688 229.8125 237.54688Q231.04688 237.54688 231.73438 238.35938Q232.42188 239.17188 232.42188 240.6875L232.42188 241.14062L228.125 241.14062Q228.15625 242.07812 228.67188 242.65625Q229.20312 243.23438 230.01562 243.23438Q230.57812 243.23438 230.96875 243.0Q231.375 242.76562 231.6875 242.375L232.34375 242.89062Q231.54688 244.125 229.95312 244.125ZM229.8125 238.4375Q229.15625 238.4375 228.70312 238.92188Q228.26562 239.39062 228.17188 240.25L231.34375 240.25L231.34375 240.17188Q231.29688 239.34375 230.89062 238.89062Q230.5 238.4375 229.8125 238.4375ZM236.85938 244.0L236.85938 238.5L235.85938 238.5L235.85938 237.65625L236.85938 237.65625L236.85938 237.01562Q236.85938 235.98438 237.39062 235.4375Q237.9375 234.875 238.9375 234.875Q239.3125 234.875 239.6875 234.96875L239.625 235.85938Q239.34375 235.79688 239.04688 235.79688Q238.51562 235.79688 238.21875 236.10938Q237.9375 236.42188 237.9375 236.98438L237.9375 237.65625L239.29688 237.65625L239.29688 238.5L237.9375 238.5L237.9375 244.0L236.85938 244.0ZM240.03125 240.76562Q240.03125 239.84375 240.39062 239.09375Q240.76562 238.34375 241.42188 237.95312Q242.07812 237.54688 242.90625 237.54688Q244.20312 237.54688 245.0 238.4375Q245.8125 239.32812 245.8125 240.82812L245.8125 240.90625Q245.8125 241.82812 245.45312 242.5625Q245.09375 243.29688 244.4375 243.71875Q243.78125 244.125 242.92188 244.125Q241.64062 244.125 240.82812 243.23438Q240.03125 242.32812 240.03125 240.84375L240.03125 240.76562ZM241.125 240.90625Q241.125 241.95312 241.60938 242.59375Q242.10938 243.23438 242.92188 243.23438Q243.75 243.23438 244.23438 242.59375Q244.71875 241.9375 244.71875 240.76562Q244.71875 239.73438 244.21875 239.09375Q243.73438 238.4375 242.90625 238.4375Q242.10938 238.4375 241.60938 239.07812Q241.125 239.70312 241.125 240.90625ZM250.39062 238.625Q250.14062 238.59375 249.85938 238.59375Q248.78125 238.59375 248.40625 239.5L248.40625 244.0L247.32812 244.0L247.32812 237.65625L248.375 237.65625L248.39062 238.39062Q248.92188 237.54688 249.90625 237.54688Q250.21875 237.54688 250.39062 237.625L250.39062 238.625ZM257.625 240.54688L255.60938 240.54688L255.60938 244.0L254.48438 244.0L254.48438 235.46875L257.3125 235.46875Q258.75 235.46875 259.51562 236.125Q260.29688 236.78125 260.29688 238.03125Q260.29688 238.82812 259.85938 239.42188Q259.4375 240.01562 258.67188 240.3125L260.67188 243.92188L260.67188 244.0L259.46875 244.0L257.625 240.54688ZM255.60938 239.625L257.34375 239.625Q258.1875 239.625 258.67188 239.20312Q259.17188 238.76562 259.17188 238.03125Q259.17188 237.25 258.70312 236.82812Q258.23438 236.40625 257.34375 236.39062L255.60938 236.39062L255.60938 239.625ZM266.3125 240.0625L262.60938 240.0625L262.60938 243.07812L266.90625 243.07812L266.90625 244.0L261.48438 244.0L261.48438 235.46875L266.85938 235.46875L266.85938 236.39062L262.60938 236.39062L262.60938 239.14062L266.3125 239.14062L266.3125 240.0625ZM271.0 240.20312Q269.5625 239.78125 268.89062 239.17188Q268.23438 238.5625 268.23438 237.67188Q268.23438 236.67188 269.03125 236.01562Q269.84375 235.34375 271.14062 235.34375Q272.01562 235.34375 272.70312 235.6875Q273.39062 236.03125 273.76562 236.625Q274.15625 237.21875 274.15625 237.9375L273.01562 237.9375Q273.01562 237.15625 272.51562 236.71875Q272.03125 236.28125 271.14062 236.28125Q270.3125 236.28125 269.84375 236.65625Q269.375 237.01562 269.375 237.65625Q269.375 238.1875 269.8125 238.54688Q270.26562 238.90625 271.32812 239.20312Q272.39062 239.5 272.98438 239.85938Q273.59375 240.21875 273.875 240.70312Q274.17188 241.1875 274.17188 241.82812Q274.17188 242.875 273.35938 243.5Q272.54688 244.125 271.20312 244.125Q270.3125 244.125 269.54688 243.78125Q268.79688 243.4375 268.375 242.85938Q267.96875 242.26562 267.96875 241.53125L269.09375 241.53125Q269.09375 242.29688 269.67188 242.75Q270.25 243.20312 271.20312 243.20312Q272.09375 243.20312 272.5625 242.84375Q273.03125 242.46875 273.03125 241.84375Q273.03125 241.21875 272.59375 240.875Q272.15625 240.53125 271.0 240.20312ZM281.39062 236.39062L278.64062 236.39062L278.64062 244.0L277.53125 244.0L277.53125 236.39062L274.78125 236.39062L274.78125 235.46875L281.39062 235.46875L281.39062 236.39062ZM288.625 240.54688L286.60938 240.54688L286.60938 244.0L285.48438 244.0L285.48438 235.46875L288.3125 235.46875Q289.75 235.46875 290.51562 236.125Q291.29688 236.78125 291.29688 238.03125Q291.29688 238.82812 290.85938 239.42188Q290.4375 240.01562 289.67188 240.3125L291.67188 243.92188L291.67188 244.0L290.46875 244.0L288.625 240.54688ZM286.60938 239.625L288.34375 239.625Q289.1875 239.625 289.67188 239.20312Q290.17188 238.76562 290.17188 238.03125Q290.17188 237.25 289.70312 236.82812Q289.23438 236.40625 288.34375 236.39062L286.60938 236.39062L286.60938 239.625ZM294.95312 244.125Q293.65625 244.125 292.84375 243.28125Q292.04688 242.42188 292.04688 241.0L292.04688 240.8125Q292.04688 239.85938 292.40625 239.125Q292.76562 238.375 293.40625 237.96875Q294.0625 237.54688 294.8125 237.54688Q296.04688 237.54688 296.73438 238.35938Q297.42188 239.17188 297.42188 240.6875L297.42188 241.14062L293.125 241.14062Q293.15625 242.07812 293.67188 242.65625Q294.20312 243.23438 295.01562 243.23438Q295.57812 243.23438 295.96875 243.0Q296.375 242.76562 296.6875 242.375L297.34375 242.89062Q296.54688 244.125 294.95312 244.125ZM294.8125 238.4375Q294.15625 238.4375 293.70312 238.92188Q293.26562 239.39062 293.17188 240.25L296.34375 240.25L296.34375 240.17188Q296.29688 239.34375 295.89062 238.89062Q295.5 238.4375 294.8125 238.4375ZM298.0625 240.78125Q298.0625 239.28125 298.73438 238.42188Q299.42188 237.54688 300.57812 237.54688Q301.70312 237.54688 302.35938 238.29688L302.40625 237.65625L303.40625 237.65625L303.40625 246.4375L302.3125 246.4375L302.3125 243.40625Q301.65625 244.125 300.57812 244.125Q299.42188 244.125 298.73438 243.23438Q298.0625 242.32812 298.0625 240.85938L298.0625 240.78125ZM299.14062 240.90625Q299.14062 241.98438 299.59375 242.60938Q300.0625 243.23438 300.84375 243.23438Q301.8125 243.23438 302.3125 242.375L302.3125 239.26562Q301.79688 238.4375 300.85938 238.4375Q300.0625 238.4375 299.59375 239.0625Q299.14062 239.6875 299.14062 240.90625ZM309.23438 243.375Q308.60938 244.125 307.375 244.125Q306.35938 244.125 305.82812 243.53125Q305.29688 242.9375 305.29688 241.78125L305.29688 237.65625L306.375 237.65625L306.375 241.75Q306.375 243.20312 307.54688 243.20312Q308.79688 243.20312 309.20312 242.26562L309.20312 237.65625L310.29688 237.65625L310.29688 244.0L309.26562 244.0L309.23438 243.375ZM314.95312 244.125Q313.65625 244.125 312.84375 243.28125Q312.04688 242.42188 312.04688 241.0L312.04688 240.8125Q312.04688 239.85938 312.40625 239.125Q312.76562 238.375 313.40625 237.96875Q314.0625 237.54688 314.8125 237.54688Q316.04688 237.54688 316.73438 238.35938Q317.42188 239.17188 317.42188 240.6875L317.42188 241.14062L313.125 241.14062Q313.15625 242.07812 313.67188 242.65625Q314.20312 243.23438 315.01562 243.23438Q315.57812 243.23438 315.96875 243.0Q316.375 242.76562 316.6875 242.375L317.34375 242.89062Q316.54688 244.125 314.95312 244.125ZM314.8125 238.4375Q314.15625 238.4375 313.70312 238.92188Q313.26562 239.39062 313.17188 240.25L316.34375 240.25L316.34375 240.17188Q316.29688 239.34375 315.89062 238.89062Q315.5 238.4375 314.8125 238.4375ZM322.01562 242.3125Q322.01562 241.875 321.67188 241.64062Q321.34375 241.39062 320.51562 241.21875Q319.70312 241.04688 319.21875 240.79688Q318.73438 240.54688 318.5 240.21875Q318.28125 239.875 318.28125 239.40625Q318.28125 238.625 318.9375 238.09375Q319.59375 237.54688 320.625 237.54688Q321.70312 237.54688 322.35938 238.10938Q323.03125 238.65625 323.03125 239.51562L321.95312 239.51562Q321.95312 239.07812 321.5625 238.76562Q321.1875 238.4375 320.625 238.4375Q320.03125 238.4375 319.6875 238.70312Q319.35938 238.95312 319.35938 239.35938Q319.35938 239.75 319.67188 239.95312Q319.98438 240.15625 320.79688 240.34375Q321.60938 240.51562 322.10938 240.76562Q322.60938 241.01562 322.84375 241.375Q323.09375 241.73438 323.09375 242.23438Q323.09375 243.09375 322.40625 243.60938Q321.73438 244.125 320.65625 244.125Q319.89062 244.125 319.29688 243.85938Q318.71875 243.57812 318.39062 243.09375Q318.0625 242.60938 318.0625 242.04688L319.14062 242.04688Q319.17188 242.59375 319.57812 242.92188Q319.98438 243.23438 320.65625 243.23438Q321.26562 243.23438 321.64062 242.98438Q322.01562 242.73438 322.01562 242.3125ZM325.79688 236.125L325.79688 237.65625L326.96875 237.65625L326.96875 238.5L325.79688 238.5L325.79688 242.42188Q325.79688 242.8125 325.95312 243.0Q326.10938 243.1875 326.48438 243.1875Q326.67188 243.1875 327.0 243.125L327.0 244.0Q326.57812 244.125 326.17188 244.125Q325.45312 244.125 325.07812 243.6875Q324.70312 243.23438 324.70312 242.42188L324.70312 238.5L323.54688 238.5L323.54688 237.65625L324.70312 237.65625L324.70312 236.125L325.79688 236.125ZM331.53125 244.73438L330.60938 244.73438L334.17188 235.46875L335.09375 235.46875L331.53125 244.73438ZM340.34375 237.65625L340.375 238.35938Q341.0625 237.54688 342.25 237.54688Q343.57812 237.54688 344.0625 238.5625Q344.375 238.10938 344.875 237.82812Q345.39062 237.54688 346.07812 237.54688Q348.17188 237.54688 348.20312 239.75L348.20312 244.0L347.125 244.0L347.125 239.8125Q347.125 239.14062 346.8125 238.8125Q346.5 238.46875 345.76562 238.46875Q345.15625 238.46875 344.75 238.82812Q344.35938 239.1875 344.29688 239.79688L344.29688 244.0L343.21875 244.0L343.21875 239.84375Q343.21875 238.46875 341.85938 238.46875Q340.79688 238.46875 340.40625 239.375L340.40625 244.0L339.3125 244.0L339.3125 237.65625L340.34375 237.65625ZM354.01562 242.3125Q354.01562 241.875 353.67188 241.64062Q353.34375 241.39062 352.51562 241.21875Q351.70312 241.04688 351.21875 240.79688Q350.73438 240.54688 350.5 240.21875Q350.28125 239.875 350.28125 239.40625Q350.28125 238.625 350.9375 238.09375Q351.59375 237.54688 352.625 237.54688Q353.70312 237.54688 354.35938 238.10938Q355.03125 238.65625 355.03125 239.51562L353.95312 239.51562Q353.95312 239.07812 353.5625 238.76562Q353.1875 238.4375 352.625 238.4375Q352.03125 238.4375 351.6875 238.70312Q351.35938 238.95312 351.35938 239.35938Q351.35938 239.75 351.67188 239.95312Q351.98438 240.15625 352.79688 240.34375Q353.60938 240.51562 354.10938 240.76562Q354.60938 241.01562 354.84375 241.375Q355.09375 241.73438 355.09375 242.23438Q355.09375 243.09375 354.40625 243.60938Q353.73438 244.125 352.65625 244.125Q351.89062 244.125 351.29688 243.85938Q350.71875 243.57812 350.39062 243.09375Q350.0625 242.60938 350.0625 242.04688L351.14062 242.04688Q351.17188 242.59375 351.57812 242.92188Q351.98438 243.23438 352.65625 243.23438Q353.26562 243.23438 353.64062 242.98438Q354.01562 242.73438 354.01562 242.3125Z" fill-rule="nonzero"/></svg>